/* XPM */
static char * urxvt_32x32_xpm[] = {
"32 32 106 2",
"  	c None",
". 	c #E7E7E7",
"+ 	c #E7E3DE",
"@ 	c #E7DFDE",
"# 	c #29417B",
"$ 	c #5A719C",
"% 	c #294173",
"& 	c #08246B",
"* 	c #18387B",
"= 	c #294D8C",
"- 	c #395D9C",
"; 	c #526DAD",
"> 	c #6382BD",
", 	c #7392C6",
"' 	c #84A6DE",
") 	c #9CBAE7",
"! 	c #B5CFF7",
"~ 	c #CEDBEF",
"{ 	c #ADBECE",
"] 	c #94B2D6",
"^ 	c #CEDFEF",
"/ 	c #ADBED6",
"( 	c #C6D3DE",
"_ 	c #52658C",
": 	c #7371F7",
"< 	c #394573",
"[ 	c #B5D3F7",
"} 	c #D6D3CE",
"| 	c #A5A6A5",
"1 	c #A59E9C",
"2 	c #6B6963",
"3 	c #B5B2AD",
"4 	c #8496AD",
"5 	c #CEC7C6",
"6 	c #9CA6AD",
"7 	c #C6C7C6",
"8 	c #525D6B",
"9 	c #294584",
"0 	c #8C96BD",
"a 	c #8C9EC6",
"b 	c #425D9C",
"c 	c #7392CE",
"d 	c #8CA6DE",
"e 	c #ADAAA5",
"f 	c #A5A29C",
"g 	c #211C18",
"h 	c #C6BEBD",
"i 	c #52618C",
"j 	c #B5B6B5",
"k 	c #52596B",
"l 	c #847D7B",
"m 	c #002063",
"n 	c #001C52",
"o 	c #001C5A",
"p 	c #ADC7EF",
"q 	c #94A2B5",
"r 	c #8C9EAD",
"s 	c #8CAAC6",
"t 	c #9CAABD",
"u 	c #8C9EB5",
"v 	c #F7F7F7",
"w 	c #DEDBDE",
"x 	c #848284",
"y 	c #8C8A8C",
"z 	c #8C8E8C",
"A 	c #D6D7D6",
"B 	c #FFFFFF",
"C 	c #E7E3E7",
"D 	c #DEDFDE",
"E 	c #949294",
"F 	c #ADAAAD",
"G 	c #EFEFEF",
"H 	c #CECFCE",
"I 	c #BDBEBD",
"J 	c #4A4D4A",
"K 	c #B5B2B5",
"L 	c #9C9E9C",
"M 	c #7B7D7B",
"N 	c #393C39",
"O 	c #9C9A9C",
"P 	c #848684",
"Q 	c #313031",
"R 	c #636563",
"S 	c #292C29",
"T 	c #F7F3F7",
"U 	c #949694",
"V 	c #5A595A",
"W 	c #EFEBEF",
"X 	c #737173",
"Y 	c #000000",
"Z 	c #ADAEAD",
"` 	c #BDBABD",
" .	c #D6D7FF",
"..	c #5A59FF",
"+.	c #CECFFF",
"@.	c #B5B2FF",
"#.	c #DEDBFF",
"$.	c #A5A2A5",
"%.	c #C6C3C6",
"&.	c #ADA6AD",
"*.	c #7371FF",
"=.	c #6B6DFF",
"-.	c #5A5D5A",
";.	c #BDB6BD",
">.	c #CECBC6",
",.	c #BDBAB5",
"                                                                ",
"                                                                ",
"                                                                ",
". + + + + + + + + + + + + + + + + + + + + + + + + + + + + + + + ",
"@ # $ $ $ % & * = - ; > , ' ) ! ~ ~ ~ ~ { ~ ~ ~ ~ ] ^ ~ ~ ~ / ( ",
"@ _ : : : < & * = - ; > , ' ) [ } } } } | 1 2 2 3 4 @ 1 5 1 6 ( ",
"@ _ 7 7 7 8 9 0 a b ; > c d ) [ } } } } | e } } e 4 @ f g h 6 ( ",
"@ i j j j k & * = - ; > , ' ) [ } 2 l } | e 1 1 3 4 @ 1 5 1 6 ( ",
"@ m n n n o & * = - ; > , ' ) p q q q q r q q q q s t q q q u ( ",
"@ v v v v v v v v v v v v v v v v v v v v v v v v v v w x y z A ",
"@ B B B B B B B B B B B B B B B B B C B B B B B B B B D E F | + ",
"@ B D G H H B H B B H G D B B w G I J I I B B B B B B D F K L + ",
"@ B M J z N B z O H P B Q v B R B O N O O B B B B B B D M y L + ",
"@ B M I B B B B J S T B L K I z B B R B B B B B B B B D P U F + ",
"@ B M I B B B C J V H B T V J W B B R B B B B B B B B D P U F + ",
"@ B M I B B B V G G J G B X M B B B X S N B B B B B B D P U F + ",
"@ B B B B B B B B B B B B B B B B B B B B B B B B B B D P U F + ",
"@ B B B B B B B B B B B B B B B . H H H H C B B B B B D P U F + ",
"@ B B B B B B B B B B B B B B B M Y Y Y Y R B B B B B D P U F + ",
"@ B B B B B B v B B B B B B B B M Y Y Y Y R B B B B B D P U F + ",
"@ B B B B B B J L B B B B B B B M Y Y Y Y R B B B B B D O Z ` + ",
"@  .....+.@.#.B K R $.B B B B B M Y Y Y Y R B B B B B D %.%.&.+ ",
"@ +.B B *.=.B B L -.H B B B B B M Y Y Y Y R B B B B B D %.K L + ",
"@ B B B B B B R K B B B B B B B M Y Y Y Y R B B B B B D %.K L + ",
"@ B B B B B B B B B B B B B B B M Y Y Y Y R B B B B B D ;.O O + ",
"@ B B B B B B B B B B B B B B B O Q Q Q Q P B B B B B D $.F F + ",
"@ B B B B B B B B B B B B B B B B B B B B B B B B B B D | K L + ",
"@ B B B B B B B B B B B B B B B B B B B B B B B B B B D O Z j + ",
"H >.>.>.>.>.>.>.>.>.>.>.>.>.>.>.>.>.>.>.>.>.>.>.>.>.>.7 >.>.>.,.",
"                                                                ",
"                                                                ",
"                                                                "};
