/* XPM */
static char * fb_xpm[] = {
"41 42 1001 2",
"  	c None",
". 	c #02791E",
"+ 	c #028020",
"@ 	c #028321",
"# 	c #02751E",
"$ 	c #025E18",
"% 	c #084613",
"& 	c #204617",
"* 	c #264619",
"= 	c #274619",
"- 	c #2A4618",
"; 	c #2D4819",
"> 	c #2C4718",
", 	c #314B1A",
"' 	c #314D1B",
") 	c #304D1C",
"! 	c #344D1A",
"~ 	c #33501B",
"{ 	c #345A1E",
"] 	c #12671D",
"^ 	c #027F20",
"/ 	c #027B1F",
"( 	c #035917",
"_ 	c #2C4A1B",
": 	c #767331",
"< 	c #A6963A",
"[ 	c #AE9C37",
"} 	c #AF9C35",
"| 	c #AB9936",
"1 	c #B6A336",
"2 	c #BCA834",
"3 	c #C2AD37",
"4 	c #C2AE3A",
"5 	c #C9B337",
"6 	c #CCBD40",
"7 	c #CEC347",
"8 	c #D2BE3A",
"9 	c #CEC244",
"0 	c #1F230E",
"a 	c #035A17",
"b 	c #02761E",
"c 	c #0C4914",
"d 	c #6B6A27",
"e 	c #AC9E3F",
"f 	c #B2A744",
"g 	c #B5A944",
"h 	c #B9A73A",
"i 	c #B6A235",
"j 	c #AE9B36",
"k 	c #B7A335",
"l 	c #C1AD39",
"m 	c #C7B238",
"n 	c #C8B135",
"o 	c #CDB737",
"p 	c #D0BF3D",
"q 	c #D5CA46",
"r 	c #D7C740",
"s 	c #AFA033",
"t 	c #080A05",
"u 	c #026F1C",
"v 	c #0B4714",
"w 	c #7C752D",
"x 	c #A79638",
"y 	c #AF9E3D",
"z 	c #B4A541",
"A 	c #B7AB48",
"B 	c #BDAF44",
"C 	c #BFAC3A",
"D 	c #BCA733",
"E 	c #BBA633",
"F 	c #B7A434",
"G 	c #C6B035",
"H 	c #CEB836",
"I 	c #D2BA36",
"J 	c #D7C239",
"K 	c #DBCD43",
"L 	c #DED54A",
"M 	c #736B23",
"N 	c #0F1E0B",
"O 	c #045716",
"P 	c #686729",
"Q 	c #9E8E37",
"R 	c #A39237",
"S 	c #B3A139",
"T 	c #BAA941",
"U 	c #BDB34A",
"V 	c #C1B748",
"W 	c #C9BA42",
"X 	c #CCB537",
"Y 	c #BDA732",
"Z 	c #C1AB33",
"` 	c #D1BA36",
" .	c #D7C037",
"..	c #DBC63A",
"+.	c #E0D041",
"@.	c #E7DF4C",
"#.	c #353415",
"$.	c #144D18",
"%.	c #02771E",
"&.	c #2C4818",
"*.	c #A59336",
"=.	c #A59436",
"-.	c #A39337",
";.	c #A79636",
">.	c #AF9D37",
",.	c #BAA83C",
"'.	c #C1B040",
").	c #C5BB49",
"!.	c #C9C14B",
"~.	c #D1C244",
"{.	c #D1BB37",
"].	c #C8B032",
"^.	c #CDB534",
"/.	c #DEC737",
"(.	c #E3CD39",
"_.	c #EAD43A",
":.	c #D6CD47",
"<.	c #0A0A06",
"[.	c #0E661D",
"}.	c #026319",
"|.	c #676527",
"1.	c #AE9C38",
"2.	c #AD9B36",
"3.	c #AC9936",
"4.	c #AB9836",
"5.	c #B3A036",
"6.	c #BCA939",
"7.	c #C7B63D",
"8.	c #CBC148",
"9.	c #D3CC52",
"0.	c #DACE4C",
"a.	c #DCC536",
"b.	c #D1B834",
"c.	c #D9C034",
"d.	c #E9D53C",
"e.	c #EFDB3C",
"f.	c #958B2A",
"g.	c #050F05",
"h.	c #047C20",
"i.	c #054513",
"j.	c #968836",
"k.	c #AE9C3D",
"l.	c #B19F3A",
"m.	c #B8A537",
"n.	c #B8A434",
"o.	c #B4A035",
"p.	c #B6A335",
"q.	c #C3AE35",
"r.	c #CCBA3C",
"s.	c #D3CB4B",
"t.	c #E0DA4F",
"u.	c #E3DA4A",
"v.	c #E7D138",
"w.	c #DDC433",
"x.	c #EAD034",
"y.	c #F7E63B",
"z.	c #4F4B19",
"A.	c #02240A",
"B.	c #02781E",
"C.	c #264517",
"D.	c #A99738",
"E.	c #AC9B3B",
"F.	c #B2A037",
"G.	c #B6A43C",
"H.	c #BCA93B",
"I.	c #C3AD37",
"J.	c #C4AD32",
"K.	c #C0A931",
"L.	c #BFA933",
"M.	c #B9A533",
"N.	c #8C8531",
"O.	c #8A8733",
"P.	c #918D35",
"Q.	c #939035",
"R.	c #958827",
"S.	c #908225",
"T.	c #958A28",
"U.	c #131308",
"V.	c #023C10",
"W.	c #026A1B",
"X.	c #034913",
"Y.	c #535421",
"Z.	c #A59439",
"`.	c #A99736",
" +	c #AF9C37",
".+	c #B4A139",
"++	c #C1AD3B",
"@+	c #C1AF3D",
"#+	c #C7B33A",
"$+	c #CCB93A",
"%+	c #A8952E",
"&+	c #141409",
"*+	c #020302",
"=+	c #030F05",
"-+	c #021C08",
";+	c #02370F",
">+	c #025516",
",+	c #02651A",
"'+	c #028221",
")+	c #02681A",
"!+	c #475821",
"~+	c #746C2B",
"{+	c #968733",
"]+	c #AA9836",
"^+	c #AE9D39",
"/+	c #B3A037",
"(+	c #BAA83B",
"_+	c #BFAD3D",
":+	c #C7B43A",
"<+	c #CEBD3D",
"[+	c #B6A93A",
"}+	c #A19735",
"|+	c #A49631",
"1+	c #A3912B",
"2+	c #A8962B",
"3+	c #B7AC35",
"4+	c #BAB947",
"5+	c #262811",
"6+	c #A7A53A",
"7+	c #BDB932",
"8+	c #BDBB3B",
"9+	c #B5B541",
"0+	c #96973F",
"a+	c #646637",
"b+	c #1E200D",
"c+	c #052C0C",
"d+	c #036018",
"e+	c #064A14",
"f+	c #877C30",
"g+	c #A49337",
"h+	c #A79536",
"i+	c #AA9835",
"j+	c #AE9C36",
"k+	c #B39F35",
"l+	c #BAA634",
"m+	c #BEA936",
"n+	c #C7B037",
"o+	c #D0B937",
"p+	c #D4C33F",
"q+	c #DECF42",
"r+	c #E5D846",
"s+	c #EEDE41",
"t+	c #F1D834",
"u+	c #F3D832",
"v+	c #E0D63D",
"w+	c #323114",
"x+	c #FAFA78",
"y+	c #FEFD5B",
"z+	c #FEFC3D",
"A+	c #FDFD54",
"B+	c #FEFE64",
"C+	c #FDFD84",
"D+	c #F4F47E",
"E+	c #999A56",
"F+	c #182F10",
"G+	c #025B17",
"H+	c #1F4115",
"I+	c #9D8D37",
"J+	c #A19237",
"K+	c #B09D35",
"L+	c #B09D36",
"M+	c #B7A334",
"N+	c #BEA932",
"O+	c #C6AF36",
"P+	c #D4BC36",
"Q+	c #E0CA39",
"R+	c #E7D742",
"S+	c #F0E749",
"T+	c #F8F54A",
"U+	c #FDF544",
"V+	c #A19828",
"W+	c #716F24",
"X+	c #FDFD62",
"Y+	c #FDFD85",
"Z+	c #FDFD6E",
"`+	c #FEFC46",
" @	c #FDFD66",
".@	c #FDFD7E",
"+@	c #FEFE94",
"@@	c #FEFE9E",
"#@	c #D4D35B",
"$@	c #1B290E",
"%@	c #026118",
"&@	c #4D5220",
"*@	c #9B8C36",
"=@	c #A19036",
"-@	c #A19136",
";@	c #A89736",
">@	c #B09D37",
",@	c #B5A235",
"'@	c #BBA632",
")@	c #BFA931",
"!@	c #C5AE32",
"~@	c #D4BD36",
"{@	c #DDC537",
"]@	c #EAD033",
"^@	c #F2DE3A",
"/@	c #FBF241",
"(@	c #FDFD53",
"_@	c #535420",
":@	c #BCBA39",
"<@	c #FEFC40",
"[@	c #FDFD5B",
"}@	c #FEFE91",
"|@	c #FEFD88",
"1@	c #FDFD58",
"2@	c #FDFD7A",
"3@	c #FDFDA5",
"4@	c #FDFDB0",
"5@	c #FDFD8F",
"6@	c #B5B55F",
"7@	c #061707",
"8@	c #035014",
"9@	c #786F2C",
"0@	c #9E8E36",
"a@	c #9F8F35",
"b@	c #AC9935",
"c@	c #AB9835",
"d@	c #BDA833",
"e@	c #C3AD33",
"f@	c #CAB334",
"g@	c #D0B835",
"h@	c #D8BF34",
"i@	c #DEC534",
"j@	c #EACE31",
"k@	c #F6DB33",
"l@	c #FBE837",
"m@	c #F3EF3F",
"n@	c #2B2B12",
"o@	c #F2F15D",
"p@	c #FDFD67",
"q@	c #FEFD55",
"r@	c #FDFD5A",
"s@	c #FDFD99",
"t@	c #FDFDA4",
"u@	c #FDFD6F",
"v@	c #FEFE9F",
"w@	c #FDFDCD",
"x@	c #FDFDC7",
"y@	c #FAFAA7",
"z@	c #363726",
"A@	c #03300D",
"B@	c #027C1F",
"C@	c #174114",
"D@	c #9A8B35",
"E@	c #9E8F35",
"F@	c #A69436",
"G@	c #A49336",
"H@	c #AA9735",
"I@	c #B19F37",
"J@	c #C0AA31",
"K@	c #D6BE35",
"L@	c #E3C731",
"M@	c #ECD032",
"N@	c #F6DB32",
"O@	c #FBE938",
"P@	c #B8B430",
"Q@	c #5A591F",
"R@	c #FDFD48",
"S@	c #FDFD5E",
"T@	c #FDFD76",
"U@	c #FDFD7B",
"V@	c #FEFD6D",
"W@	c #FDFD9B",
"X@	c #FDFDCB",
"Y@	c #FDFD94",
"Z@	c #FDFDDB",
"`@	c #FDFDF2",
" #	c #FDFDC5",
".#	c #797863",
"+#	c #021B08",
"@#	c #02701C",
"##	c #3C491B",
"$#	c #9E8E35",
"%#	c #A29236",
"&#	c #9D8D36",
"*#	c #A59335",
"=#	c #B29E35",
"-#	c #BDA731",
";#	c #CCB434",
">#	c #D2BA35",
",#	c #DEC332",
"'#	c #F4D932",
")#	c #6D691F",
"!#	c #A4A12C",
"~#	c #FEFC42",
"{#	c #FDFD4C",
"]#	c #FEFE8F",
"^#	c #FDFDAA",
"/#	c #FDFDDC",
"(#	c #FDFDCF",
"_#	c #FDFDF6",
":#	c #FDFDE6",
"<#	c #979786",
"[#	c #03651A",
"}#	c #686427",
"|#	c #A08F35",
"1#	c #9D8D35",
"2#	c #A39236",
"3#	c #A99635",
"4#	c #B09C35",
"5#	c #C2AB31",
"6#	c #CAB234",
"7#	c #DBC133",
"8#	c #E8CB2F",
"9#	c #F0D634",
"0#	c #F6E034",
"a#	c #2F2C10",
"b#	c #E8E539",
"c#	c #FEFC3B",
"d#	c #FDFD4F",
"e#	c #FEFE5C",
"f#	c #FDFD6D",
"g#	c #FDFD90",
"h#	c #FDFDC1",
"i#	c #FDFDD8",
"j#	c #FDFDEB",
"k#	c #FDFDF1",
"l#	c #8E8E81",
"m#	c #052F0E",
"n#	c #02721D",
"o#	c #13280E",
"p#	c #12120A",
"q#	c #121109",
"r#	c #131209",
"s#	c #13130A",
"t#	c #18170C",
"u#	c #A29030",
"v#	c #B7A232",
"w#	c #BAA532",
"x#	c #CDB533",
"y#	c #D3BB34",
"z#	c #DAC133",
"A#	c #9B8A26",
"B#	c #19190A",
"C#	c #1A1A0B",
"D#	c #050604",
"E#	c #1B1C0B",
"F#	c #1C1C0C",
"G#	c #3C3C16",
"H#	c #EDEB3D",
"I#	c #FDFD4A",
"J#	c #FDFD5C",
"K#	c #FDFDF4",
"L#	c #67685F",
"M#	c #033F11",
"N#	c #072A0C",
"O#	c #061908",
"P#	c #051707",
"Q#	c #061407",
"R#	c #27260F",
"S#	c #C3AD34",
"T#	c #CBB434",
"U#	c #D1BD3B",
"V#	c #D6C240",
"W#	c #DCCB40",
"X#	c #E2D241",
"Y#	c #EADA42",
"Z#	c #F0E346",
"`#	c #585420",
" $	c #030803",
".$	c #041005",
"+$	c #031E08",
"@$	c #041106",
"#$	c #202112",
"$$	c #EEEE80",
"%$	c #FDFD93",
"&$	c #FDFDA6",
"*$	c #FDFDB4",
"=$	c #FDFDBD",
"-$	c #FDFDCC",
";$	c #FDFDE5",
">$	c #F9F9F1",
",$	c #2B2C27",
"'$	c #0A5A19",
")$	c #02711C",
"!$	c #02741D",
"~$	c #02751D",
"{$	c #025F18",
"]$	c #5F622A",
"^$	c #BEB44A",
"/$	c #C5BD51",
"($	c #C9C14D",
"_$	c #D0C94D",
":$	c #D8D355",
"<$	c #DFDA51",
"[$	c #E6E153",
"}$	c #E2DE51",
"|$	c #191A0C",
"1$	c #6C6A26",
"2$	c #918F30",
"3$	c #919330",
"4$	c #929530",
"5$	c #999A34",
"6$	c #E3E153",
"7$	c #FEFD69",
"8$	c #FDFD73",
"9$	c #FDFD86",
"0$	c #FDFDD2",
"a$	c #FDFDE7",
"b$	c #FDFDF3",
"c$	c #DDDDCD",
"d$	c #313227",
"e$	c #063C11",
"f$	c #026219",
"g$	c #045215",
"h$	c #908633",
"i$	c #BBAB3E",
"j$	c #C0AE3A",
"k$	c #C0AF3C",
"l$	c #C4B33B",
"m$	c #C9B83E",
"n$	c #CBBA3D",
"o$	c #D2BD3A",
"p$	c #A3942F",
"q$	c #0D0D06",
"r$	c #E3CB33",
"s$	c #F9E637",
"t$	c #FDF53B",
"u$	c #FEFD49",
"v$	c #FDFD59",
"w$	c #FDFD72",
"x$	c #FDFD79",
"y$	c #FDFD91",
"z$	c #FDFDB3",
"A$	c #FDFDB6",
"B$	c #FDFDC8",
"C$	c #FAFAF1",
"D$	c #CDCDBA",
"E$	c #57584E",
"F$	c #04260B",
"G$	c #164114",
"H$	c #9F8E34",
"I$	c #AD9A35",
"J$	c #BCA734",
"K$	c #C5AE33",
"L$	c #D0BA35",
"M$	c #DFC838",
"N$	c #69611F",
"O$	c #4B491B",
"P$	c #FCF648",
"Q$	c #FDFA4F",
"R$	c #FEFC4E",
"S$	c #FEFD4C",
"T$	c #FDFD60",
"U$	c #FDFD7C",
"V$	c #FEFD8C",
"W$	c #FEFD7A",
"X$	c #FDFD8E",
"Y$	c #FDFDB2",
"Z$	c #FDFD8B",
"`$	c #FCFCE0",
" %	c #939373",
".%	c #07250C",
"+%	c #47521C",
"@%	c #B09D34",
"#%	c #B8A435",
"$%	c #C1AC34",
"%%	c #CAB83B",
"&%	c #CEBE3E",
"*%	c #D3C542",
"=%	c #DACB43",
"-%	c #DECE41",
";%	c #23220E",
">%	c #8D7F23",
",%	c #F7DE34",
"'%	c #FCF03E",
")%	c #FDFC4B",
"!%	c #FEFD50",
"~%	c #FEFD64",
"{%	c #FDFD74",
"]%	c #FDFDD4",
"^%	c #FDFDEA",
"/%	c #FDFDE1",
"(%	c #FDFD9D",
"_%	c #FCFCB0",
":%	c #717345",
"<%	c #032E0C",
"[%	c #7D752D",
"}%	c #BCAB3E",
"|%	c #BEAC3C",
"1%	c #C4B038",
"2%	c #C4AE35",
"3%	c #C8B133",
"4%	c #CFB734",
"5%	c #B29F2F",
"6%	c #090905",
"7%	c #D0C43E",
"8%	c #F9F34A",
"9%	c #FEFD5C",
"0%	c #FDF951",
"a%	c #FEFA3F",
"b%	c #FEFC4C",
"c%	c #FEFD79",
"d%	c #FEFD74",
"e%	c #FEFC47",
"f%	c #FDFDA2",
"g%	c #FDFDEE",
"h%	c #FDFD7D",
"i%	c #E6E678",
"j%	c #111409",
"k%	c #035115",
"l%	c #0A4213",
"m%	c #A29235",
"n%	c #B19E36",
"o%	c #BAA533",
"p%	c #C5AD32",
"q%	c #CDB635",
"r%	c #D6C23B",
"s%	c #797025",
"t%	c #323115",
"u%	c #ECE751",
"v%	c #F4E949",
"w%	c #F2E13D",
"x%	c #F4DC33",
"y%	c #FDF13E",
"z%	c #FDFD70",
"A%	c #FEFD4E",
"B%	c #FEFC3A",
"C%	c #FEFE75",
"D%	c #FDFDB8",
"E%	c #FDFDD0",
"F%	c #FDFDD9",
"G%	c #FDFDE8",
"H%	c #FDFD9C",
"I%	c #FEFD54",
"J%	c #494924",
"K%	c #03230A",
"L%	c #02761D",
"M%	c #304719",
"N%	c #A59537",
"O%	c #AF9D36",
"P%	c #BFAA35",
"Q%	c #C2AF39",
"R%	c #C7B73D",
"S%	c #CEC143",
"T%	c #D2C848",
"U%	c #383615",
"V%	c #6B6425",
"W%	c #D9C339",
"X%	c #D9BF33",
"Y%	c #EBD537",
"Z%	c #FDF750",
"`%	c #FDFD64",
" &	c #FEFD53",
".&	c #FDFA3E",
"+&	c #FDFD63",
"@&	c #FDFD5F",
"#&	c #FDFD92",
"$&	c #FDFD82",
"%&	c #FDFDC6",
"&&	c #FDFDD1",
"*&	c #FEFEA4",
"=&	c #6A6931",
"-&	c #666426",
";&	c #AF9D39",
">&	c #B4A137",
",&	c #B8A63D",
"'&	c #BEAD40",
")&	c #C4B642",
"!&	c #C6B942",
"~&	c #B5A537",
"{&	c #0B0C06",
"]&	c #9D8C2C",
"^&	c #D8C034",
"/&	c #EEE043",
"(&	c #F5F255",
"_&	c #FDF851",
":&	c #F9EB3C",
"<&	c #FBE434",
"[&	c #FDF73A",
"}&	c #FDFD57",
"|&	c #FDFD52",
"1&	c #FDFD88",
"2&	c #FEFE88",
"3&	c #FDFDA3",
"4&	c #FEFEA0",
"5&	c #FEFEA1",
"6&	c #6A6929",
"7&	c #020903",
"8&	c #084F15",
"9&	c #998D3D",
"0&	c #B3A23E",
"a&	c #B5A543",
"b&	c #B9A840",
"c&	c #BDAF42",
"d&	c #BCA838",
"e&	c #766A26",
"f&	c #393616",
"g&	c #434019",
"h&	c #454421",
"i&	c #48451B",
"j&	c #484216",
"k&	c #463F15",
"l&	c #4B4416",
"m&	c #4F4A17",
"n&	c #4D4A1C",
"o&	c #4E4A1E",
"p&	c #4F4D1E",
"q&	c #4C4B2C",
"r&	c #7A7A31",
"s&	c #FCFCA1",
"t&	c #FDFD83",
"u&	c #FDFD97",
"v&	c #FDFD98",
"w&	c #FEFC3C",
"x&	c #4A4A18",
"y&	c #030903",
"z&	c #026119",
"A&	c #02731D",
"B&	c #0E4915",
"C&	c #5A521F",
"D&	c #5C5423",
"E&	c #5D5625",
"F&	c #5E551F",
"G&	c #5C531D",
"H&	c #5B511D",
"I&	c #5A511D",
"J&	c #5D541C",
"K&	c #2A270E",
"L&	c #041707",
"M&	c #031005",
"N&	c #030703",
"O&	c #292914",
"P&	c #FBFA95",
"Q&	c #FEFE6A",
"R&	c #FDFD75",
"S&	c #FDFD95",
"T&	c #F0EF45",
"U&	c #17170A",
"V&	c #030D04",
"W&	c #25531B",
"X&	c #40501F",
"Y&	c #3E461A",
"Z&	c #3B3A17",
"`&	c #3B3816",
" *	c #3B3716",
".*	c #3B3616",
"+*	c #3E3A15",
"@*	c #433E16",
"#*	c #4A4417",
"$*	c #4B471A",
"%*	c #4D481A",
"&*	c #4E4817",
"**	c #4D4F18",
"=*	c #4B4F17",
"-*	c #4D4D17",
";*	c #515118",
">*	c #555619",
",*	c #5E5B19",
"'*	c #606420",
")*	c #63631C",
"!*	c #63641C",
"~*	c #636B26",
"{*	c #646B29",
"]*	c #717626",
"^*	c #D5D477",
"/*	c #FEFE8B",
"(*	c #FEFE6C",
"_*	c #ABA940",
":*	c #031C08",
"<*	c #025415",
"[*	c #807936",
"}*	c #A0923F",
"|*	c #9C8D36",
"1*	c #998A35",
"2*	c #988935",
"3*	c #9B8C35",
"4*	c #B19E37",
"5*	c #BCAC40",
"6*	c #BEB144",
"7*	c #C1B241",
"8*	c #C4B33C",
"9*	c #BDA733",
"0*	c #C3AC32",
"a*	c #D4BC35",
"b*	c #E0C634",
"c*	c #EBD93E",
"d*	c #F2E03E",
"e*	c #F7DC33",
"f*	c #FCEF3D",
"g*	c #FDFD4D",
"h*	c #FEFD4B",
"i*	c #FEFE89",
"j*	c #FEFE5F",
"k*	c #FEFE66",
"l*	c #FDFD7F",
"m*	c #FDFD5D",
"n*	c #F9F868",
"o*	c #363718",
"p*	c #020402",
"q*	c #033C10",
"r*	c #124114",
"s*	c #908437",
"t*	c #978834",
"u*	c #958734",
"v*	c #A89636",
"w*	c #B1A03B",
"x*	c #B6A745",
"y*	c #B8AA42",
"z*	c #BBA93F",
"A*	c #BBA738",
"B*	c #B5A135",
"C*	c #B19F36",
"D*	c #B6A234",
"E*	c #E1CB39",
"F*	c #E5D23C",
"G*	c #E9CD31",
"H*	c #F1D836",
"I*	c #F7F253",
"J*	c #FCF857",
"K*	c #FBED3B",
"L*	c #FEFD62",
"M*	c #FEFE5D",
"N*	c #FDFD65",
"O*	c #FDFD56",
"P*	c #929141",
"Q*	c #030402",
"R*	c #030E05",
"S*	c #026419",
"T*	c #02711D",
"U*	c #33441A",
"V*	c #8D8033",
"W*	c #928434",
"X*	c #A19035",
"Y*	c #AA9838",
"Z*	c #AF9F40",
"`*	c #B0A041",
" =	c #B2A13D",
".=	c #B3A23B",
"+=	c #AF9C36",
"@=	c #D8C036",
"#=	c #DBC63B",
"$=	c #E1C732",
"%=	c #EADD46",
"&=	c #F2EF55",
"*=	c #F4E03D",
"==	c #F9E439",
"-=	c #FDFC76",
";=	c #FDF954",
">=	c #FDFD55",
",=	c #FDFD51",
"'=	c #C8C853",
")=	c #0E0F07",
"!=	c #020502",
"~=	c #033A0F",
"{=	c #027A1F",
"]=	c #025C17",
"^=	c #5F5B25",
"/=	c #918333",
"(=	c #9A8B38",
"_=	c #A89739",
":=	c #A89942",
"<=	c #AB9B3F",
"[=	c #AB9A3B",
"}=	c #AA9A3D",
"|=	c #A19137",
"1=	c #AC9835",
"2=	c #B29F35",
"3=	c #B7A333",
"4=	c #CFB836",
"5=	c #D2BC38",
"6=	c #D4BC34",
"7=	c #DDC93A",
"8=	c #E7E14E",
"9=	c #E6DB49",
"0=	c #ECD134",
"a=	c #EFE54A",
"b=	c #F5F365",
"c=	c #F5EA44",
"d=	c #F9F145",
"e=	c #FCFA4D",
"f=	c #FCFB51",
"g=	c #FDFC59",
"h=	c #FDFD68",
"i=	c #CAC53F",
"j=	c #1A1909",
"k=	c #032009",
"l=	c #074112",
"m=	c #887D36",
"n=	c #9F9242",
"o=	c #A49645",
"p=	c #A69844",
"q=	c #A39440",
"r=	c #A4953F",
"s=	c #A4943A",
"t=	c #A29237",
"u=	c #9F8F36",
"v=	c #A29136",
"w=	c #C6B036",
"x=	c #CCB638",
"y=	c #C7B134",
"z=	c #DBD149",
"A=	c #DCD54D",
"B=	c #DDC83A",
"C=	c #E2CC39",
"D=	c #EAE65B",
"E=	c #ECE651",
"F=	c #EDDC3F",
"G=	c #EFE548",
"H=	c #F3ED4D",
"I=	c #F2EF54",
"J=	c #A7A648",
"K=	c #031807",
"L=	c #2B451A",
"M=	c #9C8E3E",
"N=	c #9B8D40",
"O=	c #9B8E41",
"P=	c #9C8F3E",
"Q=	c #9E9039",
"R=	c #A39235",
"S=	c #A29035",
"T=	c #BFAC3B",
"U=	c #BDA937",
"V=	c #BDA832",
"W=	c #C9B133",
"X=	c #CEBE3F",
"Y=	c #D3CD57",
"Z=	c #D5C33E",
"`=	c #D5BE36",
" -	c #DCCF48",
".-	c #DFDD68",
"+-	c #E1D546",
"@-	c #E5D440",
"#-	c #E8DB45",
"$-	c #E9DF4A",
"%-	c #CCC442",
"&-	c #565420",
"*-	c #050603",
"=-	c #026018",
"--	c #02691B",
";-	c #55592B",
">-	c #978A41",
",-	c #988A3A",
"'-	c #998C3F",
")-	c #988A39",
"!-	c #998A36",
"~-	c #968734",
"{-	c #998A34",
"]-	c #A29135",
"^-	c #A39135",
"/-	c #A69435",
"(-	c #B8A538",
"_-	c #C6B238",
":-	c #CDC44A",
"<-	c #CEC245",
"[-	c #CEB635",
"}-	c #D0B836",
"|-	c #D9D257",
"1-	c #DBD559",
"2-	c #D9C63D",
"3-	c #CFBE3C",
"4-	c #A59C36",
"5-	c #54501D",
"6-	c #0C0D06",
"7-	c #026C1B",
"8-	c #39421F",
"9-	c #433E1D",
"0-	c #433E19",
"a-	c #423D19",
"b-	c #413C19",
"c-	c #403C19",
"d-	c #453F1A",
"e-	c #46401A",
"f-	c #49431B",
"g-	c #49421A",
"h-	c #4B441A",
"i-	c #4F471A",
"j-	c #524A1B",
"k-	c #4F471B",
"l-	c #534C1B",
"m-	c #5A5320",
"n-	c #595727",
"o-	c #5A5220",
"p-	c #59501B",
"q-	c #5A521D",
"r-	c #5C5B30",
"s-	c #4F4E27",
"t-	c #2F2D11",
"u-	c #121208",
"v-	c #032209",
"w-	c #025215",
"x-	c #034D14",
"y-	c #051306",
"z-	c #040803",
"A-	c #040703",
"B-	c #020603",
"C-	c #020703",
"D-	c #030A04",
"E-	c #031105",
"F-	c #031D08",
"G-	c #03380F",
"H-	c #036A1B",
"I-	c #045E19",
"J-	c #045C17",
"K-	c #045B17",
"L-	c #045A17",
"M-	c #055B17",
"N-	c #035B17",
"O-	c #025D18",
"P-	c #026B1B",
"                                . . . . . . . . + @                               ",
"                      # $ % & * = - ; > , ' ) ! ~ { ] ^                           ",
"                  / ( _ : < [ } | 1 2 3 4 5 6 7 8 9 0 a @                         ",
"                b c d e f g h i j k l m n o p q r s t u                           ",
"              . v w x y z A B C D E F G H I J K L M N @                           ",
"              O P Q R | S T U V W X Y Z `  ...+.@.#.$.@                           ",
"            %.&.*.=.-.;.>.,.'.).!.~.{.].^./.(._.:.<.[.@                           ",
"            }.|.1.j 2.3.4.5.6.7.8.9.0.a.b.c.d.e.f.g.h.                            ",
"            i.j.k.l.m.n.i o.p.q.r.s.t.u.v.w.x.y.z.A.@                             ",
"          B.C.D.E.F.G.H.I.J.K.L.M.N.O.P.Q.R.S.T.U.V.@                             ",
"        W.X.Y.Z.`. +.+++@+#+$+%+&+*+*+*+*+*+*+*+*+=+-+;+>+,+'+                    ",
"      )+!+~+{+]+| ^+/+(+_+:+<+[+}+|+1+2+3+4+5+6+7+8+9+0+a+b+c+d+                  ",
"      e+f+*.g+h+i+j+k+l+m+n+o+p+q+r+s+t+u+v+w+x+y+z+A+B+C+D+E+F+G+'+              ",
"    B.H+I+J+R =.K+L+M+n.N+O+^.P+Q+R+S+T+U+V+W+X+Y+Z+`+ @.@+@@@#@$@%@@             ",
"    W.&@*@=@-@;@j >@,@'@)@!@^.~@{@]@^@/@(@_@:@<@[@}@|@1@2@3@4@5@6@7@W.            ",
"    8@9@0@a@;@b@c@} M+d@e@f@g@h@i@j@k@l@m@n@o@p@q@r@s@t@u@v@w@x@y@z@A@@           ",
"  B@C@D@E@F@G@F@H@j I@n.J@!@^.K@L@M@N@O@P@Q@R@S@T@U@V@W@X@Y@Z@`@ #.#+#@           ",
"  @###$#%#&#=@*#H@b@=#M+-#J.;#>#,#j@'#l@)#!#~#{#1@u@]#W@^#/#(#_#:#<#A.@           ",
"  [#}#$#|#1#|#2#3#b@4#,@-#5#6#g@7#8#9#0#a#b#c#~#d#e#f#g#h#i#j#k#_#l#m#@           ",
"  n#o#p#q#r#s#r#t#u#v#w#K.!@x#y#z#A#B#C#D#E#F#G#H#I#J#Z+5@x@K#_#_#L#M#            ",
"    }.N#O#P#7@Q#R#S#T#U#V#W#X#Y#Z#`#*+ $.$+$@$#$$$%$&$*$=$-$;$_#>$,$'$@           ",
"      / )$!$~${$]$^$/$($_$:$<$[$}$|$1$2$3$4$5$6$7$8$9$W@4@0$a$b$c$d$e$f$@         ",
"              g$h$i$j$k$l$m$n$o$p$q$r$s$t$u$v$p@w$x$y$z$A$B$x@`@_#C$D$E$F$n#      ",
"            B@G$H$4.I$i J$K$L$M$N$O$P$Q$R$S$S$T$U$V$W$X$Y$Z$0$K#_#_#0$`$ %.%B@    ",
"            n#+%@%#%$%%%&%*%=%-%;%>%,%'%)%T$u@p@!%~%s@{%X+&$]%^%_#_#/%(%_%:%<%/   ",
"            G+[%,.}%|%1%2%3%4%5%6%7%8%v$9%0%a%b%c%d%e%A+9$f% #/%k#g%k#h%s@i%j%k%  ",
"            l%m%L+n%i o%p%q%r%s%t%u%v%w%x%y%T$z%A%B%u$8$C%*$D%=$E%F%G%H%I%Z$J%K%B.",
"          L%M%N%O%5.P%Q%R%S%T%U%V%W%X%Y%Z%`% &.&B%<@+&@&#&$&%&v@z$x@&&*&A%@&=&=+W.",
"          f$-&;&>&,&'&)&!&n$~&{&]&^&/&(&_&:&<&[&z+}&|&f#1&2&3&g#4&Y$*$5&X+<@6&7&f$",
"          8&9&0&a&b&c&|%d&i e&*+f&g&h&i&j&k&l&m&n&o&p&q&r&s&x$t&X$t@u&v&w$w&x&y&z&",
"      / A&B&C&D&E&F&G&H&I&J&K&*+L&M&y&y& $ $ $y&y& $ $N&O&P&Q&R&$&#&.@S&{%T&U&V&W.",
"    !$W&X&Y&Z&`& *.*+*@*#*$*%*&***=*-*;*>*,*'*)*!*~*{*]*^*w$B+u@R&/*(*}@u@_**+:*!$",
"    <*[*}*|*1*2*3*G@4*5*6*7*8*$%9*0*3%a*b*c*d*e*f*p@g*h*i*1@j*k*(*l*m*1&n*o*p*q*  ",
"  B@r*s*t*u*t*0@v*w*x*y*z*A*B*C*D*J.f@y#E*F*G*H*I*J*K*L*{%d#}&M*N*T@O*U@P*Q*R*S*  ",
"  T*U*V*W*X*=@Y*Z*`* =.=+=b@H@+=M.K.^.@=#=@=$=%=&=*===-=;=)%>=}&T$z%,='=)=!=~={=  ",
"  ]=^=/=(=< _=:=<=[=}=g+|=h+1=2=3=)@4=5=4%6=7=8=9=0=a=b=c=d=e=f=g=h=i=j=*+k=u     ",
"  l=m=n=o=p=q=r=s=t=u=|*v=H@c@K+Y w=x=y=3%` z=A=B=C=D=E=F=G=H=H=I=J=&+*+K=z&      ",
"~$L=M=N=O=P=Q=0@2*2*2*R=S=3#b@B*E T=U=V=W=X=Y=Z=`= -.-+-@-#-$-%-&-*-p*:*=-        ",
"--;->-,-'-)-)-!-~-2*{-]-^-/-c@2=(-1 ,@D _-:-<-[-}-|-1-2-3-4-5-6-*+ $<%W.          ",
"7-8-9-0-a-a-b-c-a-d-e-f-g-h-i-j-j-k-k-l-m-n-o-p-q-r-s-t-u-*+*+ $v-w-%.            ",
"  x-y-z-A-A-A-A-A-A-A-A-A-A-A-N&N&N&B-B-B-B-B-B-B-B-C-D-E-F-G-G+!$                ",
"    H-I-J-K-L-K-K-K-L-L-M-K-K-N-N-N-G+G+G+]=G+G+O-$ =-,+P-#                       "};
