<?xml version="1.0" encoding="UTF-8" standalone="no"?>
<!-- Created with Inkscape (http://www.inkscape.org/) -->

<svg
   xmlns:dc="http://purl.org/dc/elements/1.1/"
   xmlns:cc="http://creativecommons.org/ns#"
   xmlns:rdf="http://www.w3.org/1999/02/22-rdf-syntax-ns#"
   xmlns:svg="http://www.w3.org/2000/svg"
   xmlns="http://www.w3.org/2000/svg"
   xmlns:sodipodi="http://sodipodi.sourceforge.net/DTD/sodipodi-0.dtd"
   xmlns:inkscape="http://www.inkscape.org/namespaces/inkscape"
   width="485.43735"
   height="562.31342"
   id="svg2"
   version="1.1"
   inkscape:version="0.48.2 r9819"
   sodipodi:docname="disegno.svg">
  <defs
     id="defs4" />
  <sodipodi:namedview
     id="base"
     pagecolor="#ffffff"
     bordercolor="#666666"
     borderopacity="1.0"
     inkscape:pageopacity="0.0"
     inkscape:pageshadow="2"
     inkscape:zoom="0.66833139"
     inkscape:cx="-212.4745"
     inkscape:cy="-6.9383877"
     inkscape:document-units="px"
     inkscape:current-layer="layer1"
     showgrid="false"
     inkscape:window-width="1648"
     inkscape:window-height="1032"
     inkscape:window-x="0"
     inkscape:window-y="0"
     inkscape:window-maximized="1"
     fit-margin-top="5"
     fit-margin-left="5"
     fit-margin-right="5"
     fit-margin-bottom="5" />
  <metadata
     id="metadata7">
    <rdf:RDF>
      <cc:Work
         rdf:about="">
        <dc:format>image/svg+xml</dc:format>
        <dc:type
           rdf:resource="http://purl.org/dc/dcmitype/StillImage" />
        <dc:title></dc:title>
      </cc:Work>
    </rdf:RDF>
  </metadata>
  <g
     inkscape:label="Livello 1"
     inkscape:groupmode="layer"
     id="layer1"
     transform="translate(-16.349841,-20.361317)">
    <g
       id="g3948"
       transform="translate(1119.2053,1.4962637)">
      <path
         sodipodi:nodetypes="ccccc"
         inkscape:connector-curvature="0"
         id="path3147"
         d="m -870.21277,158.95793 c 0,0 48.51402,-2.23911 85.83249,-41.79669 36.5721,-47.767646 28.36204,-93.296187 28.36204,-93.296187 0,0 -49.26038,2.239109 -86.57885,46.274907 -32.46234,40.60896 -27.61568,88.81797 -27.61568,88.81797 z"
         style="fill:#61bb46;fill-opacity:1;stroke:none" />
      <path
         sodipodi:nodetypes="ccccccc"
         inkscape:connector-curvature="0"
         id="path3149"
         d="m -1073.2253,221.65296 415.72783,0 c 5.97096,-5.97096 10.44918,-8.21006 19.40561,-11.19554 0,0 -43.99764,-58.21682 -109.71631,-58.21682 -54.48497,0 -52.97061,23.88383 -104.49173,23.88383 -51.58596,0 -49.70135,-24.6302 -108.22357,-24.6302 -65.71863,0 -112.70183,70.15873 -112.70183,70.15873 z"
         style="fill:#61bb46;fill-opacity:1;stroke:none" />
      <path
         sodipodi:nodetypes="ccccc"
         inkscape:connector-curvature="0"
         id="path3151"
         d="m -1073.2253,221.65296 c -10.4491,16.42013 -20.8983,50.75312 -23.8838,71.65147 l 397.81494,0 c 3.73185,-22.39108 23.88382,-59.70956 41.79669,-71.65147 z"
         style="fill:#fdb827;fill-opacity:1;stroke:none" />
      <path
         sodipodi:nodetypes="ccccc"
         inkscape:connector-curvature="0"
         id="path3153"
         d="m -1097.1091,292.55806 c -1.4927,23.13745 -0.7464,43.28943 2.2391,70.9051 l 403.78591,0 c -8.95643,-26.12293 -11.94192,-45.52854 -8.21007,-70.15873 z"
         style="fill:#f5821f;fill-opacity:1;stroke:none" />
      <path
         sodipodi:nodetypes="cccccc"
         inkscape:connector-curvature="0"
         id="path3174"
         d="m -1094.87,363.46316 404.53228,0 c 10.44917,32.09389 40.30395,55.97772 67.91962,64.18778 l -2.23911,5.97095 -450.80719,0 c -11.1955,-23.13745 -15.6737,-46.27491 -19.4056,-70.15873 z"
         style="fill:#e03a3e;fill-opacity:1;stroke:none" />
      <path
         sodipodi:nodetypes="ccccc"
         inkscape:connector-curvature="0"
         id="path3176"
         d="m -1076.2107,433.62189 450.80712,0 c -8.21006,24.63019 -25.37656,51.49949 -38.06484,69.41236 l -375.42388,0 c -14.181,-19.40561 -29.8548,-45.52854 -37.3184,-69.41236 z"
         style="fill:#963d97;fill-opacity:1;stroke:none" />
      <path
         sodipodi:nodetypes="cccccc"
         inkscape:connector-curvature="0"
         id="path3178"
         d="m -1038.8923,503.03425 375.42388,0 c 0,0 -44.78217,73.14421 -93.29619,73.14421 -41.05032,0 -47.01515,-23.88382 -92.54981,-23.88382 -47.77348,0 -54.3187,23.88382 -96.28166,23.88382 -38.87575,0 -80.60792,-47.76765 -93.29622,-73.14421 z"
         style="fill:#009ddc;fill-opacity:1;stroke:none" />
    </g>
  </g>
</svg>
