<?xml version="1.0" encoding="UTF-8" standalone="no"?>
<!--part of the matt icon theme by sixsixfive released under CC0 (https://creativecommons.org/publicdomain/zero/1.0/) on openclipart-->

<svg
   xmlns:dc="http://purl.org/dc/elements/1.1/"
   xmlns:cc="http://creativecommons.org/ns#"
   xmlns:rdf="http://www.w3.org/1999/02/22-rdf-syntax-ns#"
   xmlns:svg="http://www.w3.org/2000/svg"
   xmlns="http://www.w3.org/2000/svg"
   xmlns:xlink="http://www.w3.org/1999/xlink"
   xmlns:sodipodi="http://sodipodi.sourceforge.net/DTD/sodipodi-0.dtd"
   xmlns:inkscape="http://www.inkscape.org/namespaces/inkscape"
   viewBox="0 0 128 128"
   id="svg2"
   version="1.1"
   inkscape:version="0.91 r13725"
   width="100%"
   height="100%"
   sodipodi:docname="application-x-lux.svg">
  <metadata
     id="metadata56">
    <rdf:RDF>
      <cc:Work
         rdf:about="">
        <dc:format>image/svg+xml</dc:format>
        <dc:type
           rdf:resource="http://purl.org/dc/dcmitype/StillImage" />
        <dc:title />
      </cc:Work>
    </rdf:RDF>
  </metadata>
  <sodipodi:namedview
     pagecolor="#ffffff"
     bordercolor="#666666"
     borderopacity="1"
     objecttolerance="10"
     gridtolerance="10"
     guidetolerance="10"
     inkscape:pageopacity="0"
     inkscape:pageshadow="2"
     inkscape:window-width="1164"
     inkscape:window-height="751"
     id="namedview54"
     showgrid="false"
     inkscape:zoom="1.84375"
     inkscape:cx="-26.033898"
     inkscape:cy="48.542373"
     inkscape:window-x="752"
     inkscape:window-y="204"
     inkscape:window-maximized="0"
     inkscape:current-layer="svg2" />
  <defs
     id="0">
    <linearGradient
       id="8">
      <stop
         id="O"
         stop-color="#323232" />
      <stop
         offset="1"
         id="P"
         stop-color="#474747" />
    </linearGradient>
    <linearGradient
       id="9">
      <stop
         id="Q"
         stop-opacity="0" />
      <stop
         offset="0.5"
         id="R" />
      <stop
         id="S"
         offset="1"
         stop-opacity="0.169" />
    </linearGradient>
    <linearGradient
       id="A">
      <stop
         id="T"
         stop-opacity="0" />
      <stop
         id="U"
         offset="0.5" />
      <stop
         offset="1"
         id="V"
         stop-opacity="0" />
    </linearGradient>
    <linearGradient
       id="B">
      <stop
         id="W" />
      <stop
         offset="1"
         id="X"
         stop-opacity="0.579" />
    </linearGradient>
    <linearGradient
       id="C">
      <stop
         id="Y"
         stop-color="#8bb300" />
      <stop
         offset="1"
         id="Z"
         stop-color="#99c500" />
    </linearGradient>
    <linearGradient
       id="D">
      <stop
         id="a"
         stop-color="#eee" />
      <stop
         offset="1"
         id="b"
         stop-color="#d2d2d2" />
    </linearGradient>
    <linearGradient
       id="E">
      <stop
         id="c" />
      <stop
         offset="1"
         id="d"
         stop-opacity="0.536" />
    </linearGradient>
    <linearGradient
       id="F">
      <stop
         id="e" />
      <stop
         offset="1"
         id="f"
         stop-color="#ddd"
         stop-opacity="0" />
    </linearGradient>
    <filter
       id="G"
       x="-0.147"
       width="1.294"
       y="-0.145"
       height="1.29">
      <feGaussianBlur
         stdDeviation="1.81881"
         id="g" />
    </filter>
    <filter
       id="H">
      <feGaussianBlur
         stdDeviation="2.58594"
         id="h" />
    </filter>
    <radialGradient
       xlink:href="#E"
       id="I"
       gradientUnits="userSpaceOnUse"
       gradientTransform="matrix(1,0,0,0.97467889,0,0.43910718)"
       cx="89.51"
       cy="22.254"
       r="18.279" />
    <linearGradient
       xlink:href="#F"
       y2="25.1"
       x2="86.82"
       y1="14.793"
       x1="98.33"
       gradientTransform="matrix(0.96714879,0,0,0.96714879,-10.885895,4.3079418)"
       gradientUnits="userSpaceOnUse"
       id="J" />
    <linearGradient
       xlink:href="#8"
       gradientUnits="userSpaceOnUse"
       y2="119.98"
       x2="49.39"
       y1="27.699"
       x1="87.28"
       id="K"
       gradientTransform="translate(-12.474575,1.0847458)" />
    <linearGradient
       id="L">
      <stop
         id="i"
         stop-color="#da7a20" />
      <stop
         offset="1"
         id="j"
         stop-color="#da7a20"
         stop-opacity="0" />
    </linearGradient>
    <linearGradient
       id="M">
      <stop
         id="k"
         stop-color="#62200c" />
      <stop
         id="l"
         offset="0.256"
         stop-color="#efce37"
         stop-opacity="0.749" />
      <stop
         id="m"
         offset="0.5"
         stop-color="#aa7663"
         stop-opacity="0.498" />
      <stop
         offset="1"
         id="n"
         stop-color="#9b9b9b"
         stop-opacity="0" />
    </linearGradient>
  </defs>
  <path
     d="m 8.5628647,6.9373778 0,114.1235622 85.9251203,0 0,-83.325917 -29.92116,-30.7976452 -56.0039603,0 z"
     id="2"
     style="fill:url(#K)"
     inkscape:connector-curvature="0" />
  <path
     id="4"
     d="m 81.698039,28.309502 0.135161,-8.351 C 81.901124,13.359407 80.956142,8.4107397 77.785779,3.9471419 L 80.362343,3.9159389 107.86271,29.53084 c -4.06802,-2.645393 -9.621189,-0.791242 -16.861906,-1.025606 l -9.302765,-0.195732 z"
     transform="matrix(1.016085,0,0,1.112241,-16.266815,4.0495038)"
     style="opacity:0.50499998;fill:url(#I);filter:url(#G)"
     inkscape:connector-curvature="0" />
  <path
     d="m 70.273745,30.206427 0.13072,-8.07666 c 0.0657,-6.382306 -2.69158,-10.83607 -5.75779,-15.1530332 l 29.86674,30.5881672 c -3.93438,-2.558489 -8.23966,-6.942507 -15.24251,-7.169171 l -8.99716,-0.189303 z"
     id="5"
     inkscape:connector-curvature="0"
     style="fill:#323232" />
  <path
     id="6"
     d="m 70.273745,30.206427 0.13072,-8.07666 c 0.0657,-6.382306 -2.69158,-10.83607 -5.75779,-15.1530332 l 29.86674,30.5881672 c -3.93438,-2.558489 -8.23966,-6.942507 -15.24251,-7.169171 l -8.99716,-0.189303 z"
     style="fill:url(#J)"
     inkscape:connector-curvature="0" />
  <g
     inkscape:label="objects"
     id="layer1"
     style="display:inline"
     transform="translate(8.4048521,26.486768)">
    <path
       inkscape:connector-curvature="0"
       style="fill:#f4ca1c;fill-opacity:1;stroke:#d88d44;stroke-width:1;stroke-miterlimit:4;stroke-dasharray:none;stroke-opacity:0.74157302"
       inkscape:transform-center-x="5.0734767"
       d="m 34.619226,11.542378 c 1.87688,-1.8768896 5.09804,-1.8768896 6.97493,0 1.89119,1.8912 1.91846,5.09378 0.01869,6.99362 -1.89984,1.89977 -5.10243,1.8725 -6.99362,-0.0187 -1.87689,-1.87689 -1.87689,-5.09804 0,-6.97492 z m -13.96855,15.87077 c 1.34781,-1.34775 3.72947,-1.3805 5.09133,-0.01863 1.38855,1.38848 1.38855,3.72148 0,5.10996 -1.36186,1.36186 -3.74359,1.32912 -5.09133,-0.01863 -1.32048,-1.32054 -1.32054,-3.75216 0,-5.0727 z M 6.2532264,42.855018 c 1.02232,-1.02231 3.00602,-1.02231 4.0283396,0 1.06564,1.06564 1.10458,2.96103 0.01863,4.04697 -1.0859396,1.08588 -2.9813296,1.04695 -4.0469696,-0.0187 -1.02231,-1.02225 -1.02225,-3.00602 0,-4.02827 z m 40.8985396,-18.7801 c 3.21432,-3.21438 8.534838,-3.21438 11.749218,0 1.5663,1.56629 2.35131,3.62266 2.38715,5.74407 -0.0118,1.20237 0.64461,2.25008 1.39873,2.85336 0.65279,0.52225 1.76324,1.04869 3.20769,0.70869 3.69555,-0.70488 7.46545,0.37861 10.31321,3.22637 4.53827,4.53827 4.53827,11.98529 0,16.5235 -2.83996,2.84002 -6.76754,3.893804 -10.4624,3.18911 -1.44051,-0.3391 -2.45173,0.26051 -3.0585,0.745944 -0.78185,0.62553 -1.42929,1.74364 -1.41735,2.94666 -0.03586,2.12115 -0.79534,4.07765 -2.36853,5.65084 -3.21431,3.21432 -8.534898,3.21432 -11.749218,0 -3.21438,-3.21439 -3.21438,-8.5349 0,-11.749284 1.56629,-1.56629 3.62265,-2.3513 5.744078,-2.38714 1.20256,0.01192 2.25014,-0.64474 2.85336,-1.39867 0.52224,-0.65286 1.04869,-1.76324 0.70869,-3.20775 -0.28275,-1.4826 -0.24737,-2.7595 0.03732,-4.2521 0.33903,-1.44045 -0.26057,-2.45174 -0.74601,-3.0585 -0.62559,-0.78205 -1.74388,-1.42923 -2.94665,-1.41737 -2.121098,-0.03585 -4.077668,-0.79539 -5.650788,-2.36851 -3.21438,-3.21438 -3.21438,-8.5349 0,-11.74922 z m -12.53254,17.30678 c 1.87688,-1.87689 5.09804,-1.87689 6.97493,0 1.89119,1.89119 1.91846,5.09378 0.01869,6.99362 -1.89984,1.89977 -5.10243,1.8725 -6.99362,-0.0187 -1.87689,-1.87689 -1.87689,-5.09804 0,-6.97492 z m -13.96855,15.870774 c 1.34774,-1.347754 3.72947,-1.380494 5.09133,-0.01864 1.38855,1.38849 1.38855,3.72149 0,5.10997 -1.36186,1.36186 -3.74359,1.32912 -5.09133,-0.01863 -1.32054,-1.32054 -1.32054,-3.75216 0,-5.0727 z m 13.96855,13.96855 c 1.87688,-1.87689 5.09804,-1.87689 6.97493,0 1.89119,1.89119 1.91846,5.09378 0.01869,6.99355 -1.89984,1.89984 -5.10243,1.87258 -6.99362,-0.01863 -1.87689,-1.87688 -1.87689,-5.09803 0,-6.97492 z"
       id="path4581" />
  </g>
  <g
     id="layer3"
     inkscape:label="shinyness"
     style="display:inline"
     transform="translate(8.4048521,26.486768)">
    <path
       inkscape:connector-curvature="0"
       style="fill:#ffffff;fill-opacity:1;fill-rule:evenodd;stroke:none;stroke-width:1px;stroke-linecap:butt;stroke-linejoin:miter;stroke-opacity:1"
       d="m 46.226376,31.416148 c -0.11834,-2.66263 0.34786,-4.49407 1.91995,-6.11349 1.27377,-1.31211 3.523148,-2.17871 5.829358,-1.99415 -3.372668,0.76216 -4.353348,1.49823 -5.347558,2.8352 -1.11522,1.49971 -1.28598,3.37197 -1.10002,5.03575 l -1.30173,0.23669 z"
       id="path3762"
       sodipodi:nodetypes="cscscc" />
    <path
       inkscape:connector-curvature="0"
       style="fill:#ffffff;fill-opacity:1;fill-rule:evenodd;stroke:none;stroke-width:1px;stroke-linecap:butt;stroke-linejoin:miter;stroke-opacity:1"
       d="m 46.226376,61.413162 c -0.11834,-2.66263 0.34786,-4.49407 1.91995,-6.113494 1.27377,-1.31211 3.523148,-2.17871 5.829358,-1.99415 -3.372668,0.76216 -4.353348,1.49823 -5.347558,2.8352 -1.11522,1.499714 -1.28598,3.371974 -1.10002,5.035754 l -1.30173,0.23669 z"
       id="path4733"
       sodipodi:nodetypes="cscscc" />
    <path
       inkscape:connector-curvature="0"
       style="fill:#ffffff;fill-opacity:1;fill-rule:evenodd;stroke:none;stroke-width:1px;stroke-linecap:butt;stroke-linejoin:miter;stroke-opacity:1"
       d="m 57.982604,44.554748 c 0.18309,-3.87658 1.24375,-5.20941 3.2305,-7.03874 1.93989,-1.78618 3.89023,-2.6728 8.01899,-2.332 -5.47141,0.71978 -5.59167,1.5499 -7.25751,3.08332 -1.51951,1.39872 -2.91384,3.73363 -2.63547,6.04341 l -1.35651,0.24401 z"
       id="path4735"
       sodipodi:nodetypes="cscscc" />
    <path
       inkscape:connector-curvature="0"
       style="fill:#ffffff;fill-opacity:1;fill-rule:evenodd;stroke:none;stroke-width:1px;stroke-linecap:butt;stroke-linejoin:miter;stroke-opacity:1"
       d="m 34.478776,15.666128 c -0.06282,-1.41321 0.18462,-2.38527 1.01901,-3.24478 0.67606,-0.69641 1.86993,-1.15636 3.09397,-1.0584 -1.79007,0.40451 -2.07929,0.91083 -2.60697,1.62044 -0.5919,0.79599 -0.74035,1.73187 -0.64165,2.61493 l -0.86436,0.06781 z"
       id="path4737"
       sodipodi:nodetypes="cscscc" />
    <path
       inkscape:connector-curvature="0"
       style="fill:#ffffff;fill-opacity:1;fill-rule:evenodd;stroke:none;stroke-width:1px;stroke-linecap:butt;stroke-linejoin:miter;stroke-opacity:1"
       d="m 34.478776,45.732118 c -0.06282,-1.41321 0.18462,-2.38527 1.01901,-3.24478 0.67606,-0.69641 1.86993,-1.15636 3.09397,-1.0584 -1.79007,0.40451 -2.07929,0.91083 -2.60697,1.62044 -0.5919,0.79599 -0.74035,1.73187 -0.64165,2.61493 l -0.86436,0.06781 z"
       id="path4739"
       sodipodi:nodetypes="cscscc" />
    <path
       inkscape:connector-curvature="0"
       style="fill:#ffffff;fill-opacity:1;fill-rule:evenodd;stroke:none;stroke-width:1px;stroke-linecap:butt;stroke-linejoin:miter;stroke-opacity:1"
       d="m 34.478776,75.335552 c -0.06282,-1.41321 0.18462,-2.38527 1.01901,-3.24478 0.67606,-0.69641 1.86993,-1.15636 3.09397,-1.0584 -1.79007,0.40451 -2.07929,0.91083 -2.60697,1.62044 -0.5919,0.79599 -0.74035,1.73187 -0.64165,2.61493 l -0.86436,0.06781 z"
       id="path4741"
       sodipodi:nodetypes="cscscc" />
    <path
       inkscape:connector-curvature="0"
       style="fill:#ffffff;fill-opacity:1;fill-rule:evenodd;stroke:none;stroke-width:1px;stroke-linecap:butt;stroke-linejoin:miter;stroke-opacity:1"
       d="m 20.785736,30.384128 c -0.04261,-0.95857 0.12522,-1.6179 0.69118,-2.2009 0.45857,-0.47237 1.26836,-0.78435 2.09861,-0.7179 -1.21419,0.27437 -1.49879,0.75745 -1.76828,1.09913 -0.31088,0.39416 -0.50217,1.1747 -0.43523,1.77368 l -0.58628,0.04599 z"
       id="path4743"
       sodipodi:nodetypes="cscscc" />
    <path
       inkscape:connector-curvature="0"
       style="fill:#ffffff;fill-opacity:1;fill-rule:evenodd;stroke:none;stroke-width:1px;stroke-linecap:butt;stroke-linejoin:miter;stroke-opacity:1"
       d="m 20.785736,60.339992 c -0.04261,-0.95857 0.12522,-1.6179 0.69118,-2.2009 0.45857,-0.47237 1.26836,-0.78435 2.09861,-0.7179 -1.21419,0.27437 -1.49879,0.75745 -1.76828,1.09913 -0.31088,0.39416 -0.50217,1.1747 -0.43523,1.77368 l -0.58628,0.04599 z"
       id="path4745"
       sodipodi:nodetypes="cscscc" />
    <path
       inkscape:connector-curvature="0"
       style="fill:#ffffff;fill-opacity:1;fill-rule:evenodd;stroke:none;stroke-width:1px;stroke-linecap:butt;stroke-linejoin:miter;stroke-opacity:1"
       d="m 6.4394464,44.991948 c -0.0292,-0.65696 0.08582,-1.10883 0.4737,-1.50839 0.31429,-0.32374 0.86928,-0.53756 1.43829,-0.49202 -0.83215,0.18804 -1.0272,0.51912 -1.21189,0.7533 -0.21307,0.27013 -0.34417,0.80508 -0.29829,1.21559 l -0.40181,0.03152 z"
       id="path4747"
       sodipodi:nodetypes="cscscc" />
  </g>
</svg>
