/* XPM */
static char *ur-quan-icon-std-3[] = {
/* columns rows colors chars-per-pixel */
"32 32 100 2",
"   c black",
".  c #0D350C",
"X  c #0B390B",
"o  c #142F12",
"O  c #1E2713",
"+  c #2F1D16",
"@  c #3E1B0F",
"#  c #3D1A10",
"$  c #2B251D",
"%  c #342111",
"&  c #2C2D24",
"*  c #2F3026",
"=  c #32342B",
"-  c #373732",
";  c #3B3D39",
":  c #064A06",
">  c #044E04",
",  c #084108",
"<  c #035802",
"1  c #036202",
"2  c #036D02",
"3  c #027802",
"4  c #3D413C",
"5  c #3E433E",
"6  c #414540",
"7  c #434843",
"8  c #484D47",
"9  c #4F544E",
"0  c #595C55",
"q  c #605C5A",
"w  c #695A5E",
"e  c #7F5567",
"r  c #038303",
"t  c #018A01",
"y  c #029100",
"u  c #019800",
"i  c #009B00",
"p  c #009E00",
"a  c #00A200",
"s  c #00A800",
"d  c #00AE00",
"f  c #01B200",
"g  c #01B700",
"h  c #01BB00",
"j  c #00BE00",
"k  c #33B70D",
"l  c #00C300",
"z  c #00C600",
"x  c #01C701",
"c  c #00CA00",
"v  c #00D000",
"b  c #00D400",
"n  c #00D800",
"m  c #00DE00",
"M  c #1FCB10",
"N  c #18D40F",
"B  c #00E100",
"V  c #00E500",
"C  c #00EC00",
"Z  c #0EE30B",
"A  c #01F101",
"S  c #03F102",
"D  c #01F401",
"F  c #29C010",
"G  c #40B110",
"H  c #4FB114",
"J  c #5CAA0D",
"K  c #5AAE13",
"L  c #61A90D",
"P  c #CB4002",
"I  c #CE4102",
"U  c #CC4902",
"Y  c #DA4703",
"T  c #DC4C03",
"R  c #DC4F04",
"E  c #DE5306",
"W  c #DE6D02",
"Q  c #E15C0A",
"!  c #E47D01",
"~  c #E6793C",
"^  c #A5BA7F",
"/  c #B8E332",
"(  c #BDE438",
")  c #EC9101",
"_  c #EC9C01",
"`  c #E7A601",
"'  c #EBB601",
"]  c #ECBC02",
"[  c #CFD41A",
"{  c #DFC809",
"}  c #C7E742",
"|  c #D4E84C",
" . c #D7E755",
".. c #D5E55B",
"X. c #9BAC93",
"o. c #99AB98",
"O. c #9EB589",
"+. c #D1D0D5",
"@. c #D3D1D7",
"#. c None",
/* pixels */
"#.#.#.#.#.#.#.#.#.#.#.#.#.#.#.#.#.#.#.#.#.#.#.#.#.#.#.#.#.#.#.#.",
"#.#.#.#.#.#.#.#.#.#.#.#.#.#.#.#.#.#.#.#.#.#.#.#.#.#.#.#.#.#.#.#.",
"#.#.#.#.#.#.#.#.#.#.#.# + #.#.#.#.#.#.#.#.#.#.#.#.#.#.#.#.#.#.#.",
"#.#.#.#.#.#.#.#.#.; * Q Y = #.#.o > < < < < < > < % = #.#.#.#.#.",
"#.#.#.#.#.#.#.#.6 = 9 ~ ' Y + X u a L L L L L d d U P 6 #.#.#.#.",
"#.#.#.#.#.#.#.5 . 2 q o.O.Q % , y p J ) ) ` { [ h a L P #.#.#.#.",
"#.#.#.#.#.#.& : 2 p M O.@.w = . 2 p a d d d K  .} F x W @ 5 #.#.",
"#.#.#.#.#.o > 3 u c V l 5 4 #.o 1 u d v c c x ( ..| N j y o #.#.",
"#.#.#.#.* > 3 u l B h > - #.#.o 2 p s b n n n c ( ..| M p o #.#.",
"#.#.#.- , r p c n s : 5 #.#.5 : u p d b v c v b c /  ./ u O #.#.",
"#.#.#.o 3 f n N 8 o 6 #.#.7 3 a p a j n v x x l c x K ( p O #.#.",
"#.#.5 < a n N w q ; & #.#.> a u a h b m c l x j c l H ( a O #.#.",
"#.#.& t v n t w w 9 & $ > u p s j v n x j j x l c x H ( a O #.#.",
"#.#.1 n n 3 O $ 5 0 5 y a p d c v c j h x b V C C C Z / p O #.#.",
"#.#.2 m y $ #.#.* 5 y k p d c b k M x l b V D D D D D D y $ #.#.",
"#.#.< r O #.#.#.= 3 a 9 0 k k H X.M c b C D V u y g j s , 8 #.#.",
"#.#.o = #.#.#.& t a a j J ) ) J x c n A D A > O $ O . $ #.#.#.#.",
"#.#.#.#.#.#.& < u a f x J _ _ ) x v C D C > 7 #.#.- @ % #.#.#.#.",
"#.#.#.X 1 > < < t f c x J ) ) J b C D V , 7 #.#.; # Y P $ #.#.#.",
"#.#.#.# J d s p y h m X.H k k H O.Z d o #.#.#.& & 0 e _ P # #.#.",
"#.#.#.# U G a h x y v M x v B D k N 4 $ #.#.= > 3 8 X.O.Y @ #.#.",
"#.#.#.O P ] F c c d t v m n D D Z q q 5 $ & X 3 p l O.+.; ; #.#.",
"#.#.#.#.@ Y ] L x c h y h Z D t O 8 w 8 ; o 3 s v m k 5 #.#.#.#.",
"#.#.#.#.#.@ ! ] L x b m t k r - #.- 8 0 7 2 a b B h > #.#.#.#.#.",
"#.#.#.#.#.7 @ ) ] Z B A b . 6 #.#.#.O 9 3 p c B f : #.#.#.#.#.#.",
"#.#.#.#.#.#.8 @ Y ` k Z N & #.#.#.& < r a c n u , #.#.#.#.#.#.#.",
"#.#.#.#.#.#.#.#.+ P R K N * #.#.. < t h m m u O #.#.#.#.#.#.#.#.",
"#.#.#.#.#.#.#.#.#.+ @ @ r = #.. 1 t f j d 2 o #.#.#.#.#.#.#.#.#.",
"#.#.#.#.#.#.#.#.#.#.#.#.#.#.#.. : 1 : X * = #.#.#.#.#.#.#.#.#.#.",
"#.#.#.#.#.#.#.#.#.#.#.#.#.#.#.#.#.#.#.#.#.#.#.#.#.#.#.#.#.#.#.#.",
"#.#.#.#.#.#.#.#.#.#.#.#.#.#.#.#.#.#.#.#.#.#.#.#.#.#.#.#.#.#.#.#.",
"#.#.#.#.#.#.#.#.#.#.#.#.#.#.#.#.#.#.#.#.#.#.#.#.#.#.#.#.#.#.#.#."
};
