/* XPM */
static char * snd_icon48x48_xpm[] = {
"48 48 17 1",
" 	c None",
".	c #B4B490",
"+	c #A9A987",
"@	c #39392E",
"#	c #2B2B22",
"$	c #D2D2A8",
"%	c #C6C69E",
"&	c #1B1B16",
"*	c #0F0F0C",
"=	c #F1F1C1",
"-	c #E3E3B6",
";	c #7E7E65",
">	c #6F6F59",
",	c #909073",
"'	c #535342",
")	c #FFFFCC",
"!	c #000000",
"))))))))))))))))))))))))))))))))))))))))))))))))",
")!)&&&!!!!!!!!!!!!!!!!!!!!!!!!!!!!!!!!!!!!!-!-!)",
")!!!!!!!!!!!!!!!!!+++++)))))))))))))))))))))))!)",
")!@)!-))!!!!)>!!),!!))))!))!!!!))))!!!!!!!!!!!!)",
")!!!)!!!)@!)!))!!!!!)!!)!!))!@)!!!!!))!!)))!!!!)",
")@!!)!))))+,!!!!))!!!!)))!))))!))!!!)))))!)!)!!)",
")@!!)!)!!!%&!)))!!!!!!!!!)@)!!)!!))!,)!))))!!!!)",
"))!)))!!!)),!!!!!)!>))))!,;)!!!!!)!)!))!))))>!!)",
"))!)!)))!!))#)!)!)))))))!)))))),)!)$)%=)!!!%!,!)",
")@!)!!!!)))))!)!))))))!)!!))))))!!))>)!))!))!)!)",
"))!').)!))))!!!)))))!!!))!!!!!@)!))!)!)!!!!!!)!)",
"))!!)!)!)!!)!!!))))!))))!)!!)!)))!)))))!)),)!)!)",
"))!!!!!))!))!!)))))!!!!!!!!))!))!;)))')!!)!)!)!)",
"));+)!!)!!*))!)))))!)!))!))))!)))!)!))@-!!!!!)!)",
"))!!!!))!!)!!!)))))!!!!)!)!))!!)!!)!!!!!!)!)!)!)",
"))!!)!)!=)!!!!)))))!+-!))))))!!)!!)!)))!!!!)!)!)",
"))!)))!!)!))!)))))))!!!!!&!)))))!!)!)!))))!)!)!)",
"!))!-)!)!!))!))))))))!)!)!!)))!!!)!))!-))!))!)!)",
"!)!!)!)!&-);!)!)))))))!!!)!))!!)))))!!-)!!)-))!)",
"!)!!))!)!!)'!)!>))))))))!)!!!!!#)!))!))!!+!!!)!)",
"!)!!!!!))!)))!!!)))))))))!!!))!)))!)!!!!)))!!)!)",
"!)!!)!!!!)!-@)!!!)))))))))!;!)!!)!!))!!!!)!)!)!)",
"!)!!)!)!!!)!)))!!!))))))))))!!!)!!)!))!)))))!)!)",
"!)!!)!)!)@))!!%)))!-)))))))))!))))!=)!!)))))!)!)",
"))%)!)!!)!!!))))!)+!!)))))))))!))))))!)))!))))!)",
"!)!)!!$!!)!)))))!)),!)!)))))))))!!!!)!!!))))!)!)",
"!))!)!)!)!!!)!!!!)))'!!!)))))!!!!!!@!!)!!!&)!)!)",
"!)!)!!)!!)!)!!!)!)!!)!))!))))))))!!!)!!)!)))!)!)",
"!)!'!!)!!)!)!))!)!!!!)!)!)!))))))@!!!>!!!!!!))!)",
"!)!!!!!))+'!!))!*!))!!!))!!!))))))))))+)))))!)!)",
"!)!)!!))!!))!))!)!!!))!.))!!))))))!))!!))))!!)!)",
"!)!!)),)!!!!!))!!!)&!!)))!!)!)))))!!-))!!,!!!)!)",
"!))!!!)!))!!!))!!)!!!!))!!)!!)))))!!!!))!))!!)!)",
"!))!)!%)!))$!!))!!!'!!)!)).)!)))))!@!!))!!)!!)!)",
"!)!)!)))!)))))))!))!!&)!))!!!)))))))!)!!!!)!))!)",
"!))!!)&!))!)!)))'!)!!)!))!))!))))!!)>))!!!)!))!)",
"!)!!)!))!')!!)))))@)!!)!!)!!)))))!!!'))!>))!!)!)",
"!)>!);!)&)))!))))))!)))'!!*)))))!!!!)))=)'))!)!)",
"!)!)!)!!!)+!!!))))))!!'!)))))))!!!!@)))!!)!)!)!)",
"!)!!!)!!)!!)!!!!))!)!!)))))))!!!!)))))!)))))!)!)",
"!))!))!))!)!)!)!!!))!)))))!!+)!!))))>!))!)!!!)!)",
"!))!)!!!!)!!))!))))!!!))!)!)!!!))!))))))))))!)!)",
"!)!%)))!!!!))!)!!!!%)!)!'&!)!!@),)!!))&-)')-))!)",
"!)!)!!))))))))))!)%)))-!!))!!))!!)!!))!)))))!)%)",
"!))!!)))!!))@)=))!!!!!)!)!!)!!)!)!)@)))!!)!)!)%)",
"!)!!!!!!)))>)!!!)))>)!)!),!))),)@)!!))))!!)!!)))",
"!))))))))))))))))))'!!!!!!!!!!!!!!!!!!!!!!!!!)%)",
"!!!!!!!!!!!!!!!!!!!!!!!!!!!!!!&&))))))))))))))%)"};
