/* XPM */
static char * snd_48x48_xpm[] = {
"48 48 5 1",
". c white m white",
"B c black m black",
"a c white m white s basiccolor",
"r c red m black s cursorcolor",
"g c lightblue m black s listenercolor",
"aaaaaaaaaaaaaaaaaaaaaaaaaaaaaaaaaaaaaaaaaaaaaaaa",
"aaBBBB.........................................a",
"aaBBBB.........................................a",
"aaBBBB.........................................a",
"aaBBBB.........................................a",
"aaBBBB.........................................a",
"aaBBBB.........................................a",
"aaBBBB............BBBB.........................a",
"aaBBBB..........BB....BB.......................a",
"aaBBBB........BB.......BB......................a",
"aaBBBB......BB..........BB.....................a",
"aaBBBB.....BB............BB....................a",
"aaBBBB....BB.............BB....................a",
"aaBBBB...BB..............BB....................a",
"aaBBBB..BB................BB...................a",
"aaBBBBBB..................BB...................a",
"aaBBBB.....................BB..................a",
"aaBBBB.....................BB.................Ba",
"aaBBBB......................BB...............BBa",
"aaBBBB.......................BB.............BB.a",
"aaBBBB.........................BB..........BB..a",
"aaBBBB..........................BB.......BB....a",
"aaBBBB...........................BB....BB......a",
"aaBBBB.............................BBB.........a",
"aaBBBB.........................................a",
"aaBBBB.........................................a",
"aaBBBB.........................................a",
"aaBBBB.........................................a",
"aaBBBB.........................................a",
"aaBBBB.........................................a",
"aaBBBBBBBBBBBBBBBBBBBBBBBBBBBBBBBBBBBBBBBBBBBBaa",
"aaBBBBBBBBBBBBBBBBBBBBBBBBBBBBBBBBBBBBBBBBBBBBaa",
"aaaaaa.........................................a",
"aaaaaa.........................................a",
"aaaaaaaaaaaaaaaaaaaaaaaaaaaaaaaaaaaaaaaaaaaaaaaa",
"agggggggggggggggggggggggggggggggggggggggggggggga",
"agggggggggggggggggggggggggggggggggggggggggggggga",
"agggggggggggggggggggggggggggggggggggggggggggggga",
"agggggggggggggggggggggggggggggggggggggggggggggga",
"agggggggggggggggggggggggggggggggggggggggggggggga",
"aggggggggggggggggggggggggggggggggggggggggggggggg",
"aggggggggggggggggggggggggggggggggggggggggggggggg",
"aggggggggggggggggggggggggggggggggggggggggggggggg",
"agggggggggggggggggggggggggggggggggggggggggggggga",
"agggggggggggggggggggggggggggggggggggggggggggggga",
"agggggggggggggggggggggggggggggggggggggggggggggga",
"agggggggggggggggggggggggggggggggggggggggggggggga",
"aaaaaaaaaaaaaaaaaaaaaaaaaaaaaaaaaaaaaaaaaaaaaaaa"};
