/* XPM */
static char *japa[] = {
/* columns rows colors chars-per-pixel */
"32 32 207 2",
"   c #000000",
".  c #020202",
"X  c #070707",
"o  c #0F0F0F",
"O  c #161616",
"+  c #171717",
"@  c #181818",
"#  c #191919",
"$  c #1B1B1B",
"%  c #1F1F1F",
"&  c #222222",
"*  c #2B2B2B",
"=  c #343434",
"-  c #3B3B3B",
";  c #3D3D3D",
":  c #404040",
">  c #434343",
",  c #444444",
"<  c #494949",
"1  c #555555",
"2  c #595959",
"3  c #606060",
"4  c #616161",
"5  c #656565",
"6  c #666666",
"7  c #696969",
"8  c #6D6D6D",
"9  c #7A7A7A",
"0  c #7B7B7B",
"q  c #0002AF",
"w  c #0000B2",
"e  c #0101B5",
"r  c #0002B4",
"t  c #0203B7",
"y  c #0506B6",
"u  c #050AB3",
"i  c #0D0BB5",
"p  c #0C0CB6",
"a  c #0002B8",
"s  c #0101BB",
"d  c #0102BA",
"f  c #0203BA",
"g  c #0407B8",
"h  c #0604BA",
"j  c #0604BE",
"k  c #0804BA",
"l  c #0A0ABB",
"z  c #0A0CB8",
"x  c #0E0FB8",
"c  c #0C0DBA",
"v  c #1211B8",
"b  c #1314BB",
"n  c #1415BA",
"m  c #1814BA",
"M  c #1A19B9",
"N  c #1E20B6",
"B  c #2A27B3",
"V  c #2627BE",
"C  c #3331B9",
"Z  c #494C9D",
"A  c #4B48BE",
"S  c #0708C0",
"D  c #3535C0",
"F  c #393EC3",
"G  c #393DCB",
"H  c #4241C7",
"J  c #4C4BC6",
"K  c #4B47CD",
"L  c #4549CF",
"P  c #5356C9",
"I  c #5554C8",
"U  c #5857CA",
"Y  c #5D5CCF",
"T  c #686CCB",
"R  c #6E6ECE",
"E  c #696DD1",
"W  c #6464DC",
"Q  c #7370D5",
"!  c #7A7ED6",
"~  c #7174D8",
"^  c #7878DD",
"/  c #797BDE",
"(  c #817DDD",
")  c #818181",
"_  c #888888",
"`  c #8A8A8A",
"'  c #8C8C8C",
"]  c #8E8E8E",
"[  c #959595",
"{  c #969696",
"}  c #ADADAD",
"|  c #AEAEAE",
" . c #AFAFAF",
".. c #B7B7B7",
"X. c #B8B8B8",
"o. c #B9B9B9",
"O. c #BDBDBD",
"+. c #BEBEBE",
"@. c #9590DD",
"#. c #8D8EE1",
"$. c #9292E6",
"%. c #9797E7",
"&. c #9392E8",
"*. c #A1A0E8",
"=. c #A8ABE8",
"-. c #AFB1E7",
";. c #BBB9EB",
":. c #A2A2F3",
">. c #A9A9F2",
",. c #AFB1F7",
"<. c #C7C7C7",
"1. c #CACACA",
"2. c #CBCBCB",
"3. c #DCDCDC",
"4. c #DDDDDD",
"5. c #DEDEDE",
"6. c #DFDFDF",
"7. c #CBC7F5",
"8. c #CBCFFB",
"9. c #D3D2FD",
"0. c #D9D6FE",
"q. c #DBD9FE",
"w. c #E4E4E4",
"e. c #ECECEC",
"r. c #EFEFEF",
"t. c #E2E3FF",
"y. c #E3E7FE",
"u. c #E7E9FA",
"i. c #E2E8FC",
"p. c #ECEBFF",
"a. c #EAECFE",
"s. c #EFEEFF",
"d. c #F0F0F0",
"f. c #F1F1F1",
"g. c #F2F2F2",
"h. c #F9F7F7",
"j. c #FBFEF4",
"k. c #FDFEF5",
"l. c #FCFEF6",
"z. c #F1F0FE",
"x. c #F0F3FF",
"c. c #F2F2FF",
"v. c #F2F3FF",
"b. c #F5F3FE",
"n. c #F4F2FF",
"m. c #F2F4FD",
"M. c #F5F5FD",
"N. c #F4F6FD",
"B. c #F7F4FE",
"V. c #F8F7FE",
"C. c #F9F7FF",
"Z. c #F7F9FF",
"A. c #F9F9F9",
"S. c #FFFBFA",
"D. c #FBFCF8",
"F. c #FBFCFB",
"G. c #FBFDFB",
"H. c #FEFEF8",
"J. c #FEFEF9",
"K. c #FFFEF9",
"L. c #FFFFF9",
"P. c #FDFDFA",
"I. c #FEFDFA",
"U. c #FFFDFA",
"Y. c #FEFDFB",
"T. c #FDFEFB",
"R. c #FEFEFA",
"E. c #FFFEFA",
"W. c #FEFFFA",
"Q. c #FEFEFB",
"!. c #FEFFFB",
"~. c #FBF9FC",
"^. c #FAFBFC",
"/. c #F8F8FF",
"(. c #FAF9FE",
"). c #FBF9FE",
"_. c #FBFAFF",
"`. c #FBFBFF",
"'. c #FBFFFC",
"]. c #FBFFFE",
"[. c #FCFCFC",
"{. c #FDFDFC",
"}. c #FDFCFD",
"|. c #FDFDFD",
" X c #FEFDFC",
".X c #FFFCFD",
"XX c #FFFDFD",
"oX c #FDFEFC",
"OX c #FDFEFD",
"+X c #FEFEFC",
"@X c #FFFEFC",
"#X c #FEFFFC",
"$X c #FEFEFD",
"%X c #FFFEFD",
"&X c #FEFFFD",
"*X c #FFFFFD",
"=X c #FCFDFE",
"-X c #FCFDFF",
";X c #FEFCFE",
":X c #FEFDFE",
">X c #FFFDFE",
",X c #FEFDFF",
"<X c #FCFEFE",
"1X c #FDFFFE",
"2X c #FEFEFE",
"3X c #FEFFFF",
"4X c #FFFFFF",
/* pixels */
"4X4X4X4X4X4X4X4X4X4X4X4X4X4X4X4X4X4X4X4X4X4X4X4X4X4X4X4X4X4X4X4X",
"4X4X4X4XS.x.c.=X4X4X4X4X4X4X4X4X4XT.b.c.S.}.4X4X4X4X4X4X4X4X4X4X",
"4X4X4X4X=.i m ! T.4X4X4X4X4X4X4XT.@.v l *.4X4X4X4X4X4X4X4X4X4X4X",
"4X4X4X4Xd b.^.e V.4X4X4X4X4X4X4Xl.q /./.w 4X4X4X4X4X4X4X4X4X4X4X",
"4X4X4X>.F 4Xj.T ^ 4X4X4X4X4X4X4X#.I T.T.A %.4X4X4X4X4X4X4X4X4X4X",
"4X4XT.b i.4XT./.S 4X4X4X4X4X4XT.i c.T.4Xz.x T.4X4X4X4X4X4X4X4X4X",
"4X4X/.p T.4X4X4XN y.4X4X4X4X4Xa.M T.4X4XT.i b.4X4X4X4X=X4X4X4X4X",
"4X4Xh.y.4X4X4X4X,.J l.4X4X4X4XY :.4X4X4X4X$.E 4X4X4X4X4X4X4X4X4X",
"4X4X4X4X4X4X4X4X/.y h.4X4XT.T.j V.T.4X4X4XV.k T.4X4X4XT.Z T.4X4X",
"4X4X4X4X4X4X4X4X4XC 9.4X4X=Xq.V 4X4X4X4X4X4Xn u.4X4X4X8.G 4X4X4X",
"4X4X4X4X4X4X4X4X4X7.C T.4X4XH ;.4X4X4X4X4X4X-.K 4X4XT.B 0.4X4X4X",
"4X4X4X4X4X4X4X4X4XT.w M.4XV.e S.4X4X4X4X4X4XT.d 4X4Xm.y F.4X4X4X",
"4X4X4X4X4X4X4X4X4X4X( P T.W T 4X4X4X4X4X4X4Xl.U Q 4XL $.T.4X4X4X",
"4X4X4X4X4X4X4X4X4X4X^.h ~ d 4X4X4X4X4X4X4X4X4X/.e / u =X=X4X4X4X",
"4X4X4X4X4X4X4X4X4X4X4XT.p.T.4X4X4X4X4X4X4X4X4X4Xj.s.4X4X4X4X4X4X",
"4X4X4X4X4X4X4X4X4X4X4X4X4X4X4X4X4X4X4X4X4X4X4X4X4X4X4X4X4X4X4X4X",
"4X4X4X  4X4X4X4X4X4X4X4X4X4X4X4X4X4X4X4X4X4X4X4X4X4X4X4X4X4X4X4X",
"4X4X4X  4X4X4X4X4X4X4X4X4X4X4X4X4X4X4X4X4X4X4X4X4X4X4X4X4X4X4X4X",
"4X4X4X4X4X4X4X4X4X4X4X4X4X4X4X4X4X4X4X4X4X4X4X4X4X4X4X4X4X4X4X4X",
"4X4X4X  4X4X4X<.7 * & _ g.4X4X  5., @ ` 4X4X4X4X<.7 * & _ d.4X4X",
"4X4X4X  4X4X4X; ..r.5.1 ` 4X4X  5 } } @ O.4X4X4X; ..r.5.2 _ 4X4X",
"4X4X4X  4X4X4X4X4X4X4X5.> 4X4X  { 4X4X{ 0 4X4X4X4X4X4X4X5., 4X4X",
"4X4X4X  4X4X4Xg.' -     X 4X4X  2.4X4X2.; 4X4X4Xg.' -     X 4X4X",
"4X4X4X  4X4X4X' < o.g.g.  4X4X  g.4X4Xg.o 4X4X4X' < o.r.g.  4X4X",
"4X4X4X  4X4X4X= 2.4X4X..  4X4X  2.4X4X2.- 4X4X4X= 2.4X4X..  4X4X",
"4X4X4X  4X4X4X% 5.4X4X0   4X4X  { 4X4X{ 0 4X4X4X% 5.4X4X0   4X4X",
"4X4X4X  4X4X4X8 4 w.) 2   4X4X  5 ..} @ O.4X4X4X8 2 w.) 4   4X4X",
"4X4X4X  4X4X4Xw.7 @ 1 r.  4X4X  3.; + _ 4X4X4X4Xw.7 + 1 r.  4X4X",
"4X4Xr.+ 4X4X4X4X4X4X4X4X4X4X4X  4X4X4X4X4X4X4X4X4X4X4X4X4X4X4X4X",
"4X4X} > 4X4X4X4X4X4X4X4X4X4X4X  4X4X4X4X4X4X4X4X4X4X4X4X4X4X4X4X",
"4X4X& o.4X4X4X4X4X4X4X4X4X4X4X  4X4X4X4X4X4X4X4X4X4X4X4X4X4X4X4X",
"4X4X4X4X4X4X4X4X4X4X4X4X4X4X4X4X4X4X4X4X4X4X4X4X4X4X4X4X4X4X4X4X"
};
