/* XPM */
static char *jkmeter_[] = {
/* columns rows colors chars-per-pixel */
"32 32 64 1",
"  c #000000000000",
". c #040404040404",
"X c #090909090909",
"o c #0F0F0F0F0F0F",
"O c #111111111111",
"+ c #151515151515",
"@ c #191919191919",
"# c #1F1F1F1F1F1F",
"$ c #222222222222",
"% c #242424242424",
"& c #282828282828",
"* c #2F2F2F2F2F2F",
"= c #333333333333",
"- c #373737373737",
"; c #383838383838",
": c #3F3F3F3F3F3F",
"> c #424242424242",
", c #444444444444",
"< c #4A4A4A4A4A4A",
"1 c #4F4F4F4F4F4F",
"2 c #505050505050",
"3 c #545454545454",
"4 c #595959595959",
"5 c #5D5D5D5D5D5D",
"6 c #626262626262",
"7 c #646464646464",
"8 c #696969696969",
"9 c #6D6D6D6D6D6D",
"0 c #727272727272",
"q c #777777777777",
"w c #7B7B7B7B7B7B",
"e c #7F7F7F7F7F7F",
"r c #828282828282",
"t c #868686868686",
"y c #8B8B8B8B8B8B",
"u c #8D8D8D8D8D8D",
"i c #909090909090",
"p c #979797979797",
"a c #999999999999",
"s c #9F9F9F9F9F9F",
"d c #A3A3A3A3A3A3",
"f c #A5A5A5A5A5A5",
"g c #A8A8A8A8A8A8",
"h c #AEAEAEAEAEAE",
"j c #B1B1B1B1B1B1",
"k c #B5B5B5B5B5B5",
"l c #BBBBBBBBBBBB",
"z c #BFBFBFBFBFBF",
"x c #C2C2C2C2C2C2",
"c c #C4C4C4C4C4C4",
"v c #CACACACACACA",
"b c #CFCFCFCFCFCF",
"n c #D2D2D2D2D2D2",
"m c #D4D4D4D4D4D4",
"M c #D9D9D9D9D9D9",
"N c #DFDFDFDFDFDF",
"B c #E0E0E0E0E0E0",
"V c #E4E4E4E4E4E4",
"C c #E9E9E9E9E9E9",
"Z c #EEEEEEEEEEEE",
"A c #F2F2F2F2F2F2",
"S c #F4F4F4F4F4F4",
"D c #F9F9F9F9F9F9",
"F c #FFFFFFFFFFFF",
/* pixels */
"FFFFFFFFFFFFBVFFFFFFFFFFFFFFFFFF",
"FFFFFFFFFFM;  #vFFFFFFFFFFFFFFFF",
"FFFFFFFFFS@    &FFFFFFFFFFFFFFFF",
"FFFFFFFFFx      FFFFFFFFFFFFFFFF",
"FFFFFFFFFz      DFFFFFFFFFFFFFFF",
"FFFFFFFFFc      DFFFFFFFFFFFFFFF",
"FFFFFFFFFv      FFFFFFFFFFFFFFFF",
"FFFFFFFFFb      DFFFFFFFFFFFFFFF",
"FFFFFFFFFm      DFFFFFFFFFFFFFFF",
"FFFFFFFFFM      DFFFFFFFFFFFFFFF",
"FFFFFFFFFN      FFa->cFFFFFSdinF",
"FFFFFFFFFV      DS   >FFFFM&  oA",
"FFFFFFFFFC      FZ   ;FFFko   @S",
"FFFFFFFFFZ      DZ   ,FFr    -BF",
"FFFFFFFFFS      DZ   1A2    0DFF",
"FFFFFFFFFD      FA   ;&   OjFFFF",
"FFFFFFFFFF      DZ        kFFFFF",
"FSiqlFFFFA      FZ   X.   OxFFFF",
"S=   &fFFj     @FA   #cO   .gFFF",
"d      $6O     3FZ   +Fm$    yFF",
"n              xFZ   oFFC=    9F",
"Fp.           qFFZ    FFFS<    8",
"FFb<        XuFFFS   .FFFFD7   o",
"FFFFNu2=$*1uCFFFFFp*-sFFFFFFi*;j",
"FBpSFDfZFFv0qeZVghjlSv0weZFFFFFF",
"F6 tFt 7FFr.+XzaXX. ir.OXlz670xF",
"F; #F= &FFu:FFFFF,:SFu:FFFe 1; b",
"F@2Xi 3 ZFa.#+cFF2*FFa.#@cy VFoy",
"S 04.Xx jFfow0MFF5$FFfow0Ma %$#N",
"m wc <S wFjosaMFF8+FFjospMf : pF",
"m.kF;dF-1FnX  8FFu#FFnX  8k l4 u",
"FDFFDFFZAFFFFFFFFFDFFFFFFFmXbD,:"
};
