/* XPM */
static char *josm_64[] = {
/* columns rows colors chars-per-pixel */
"64 65 239 2 ",
"   c #3A3629",
".  c #5B290A",
"X  c #58280A",
"o  c #552D15",
"O  c #642B07",
"+  c #632C08",
"@  c #692E09",
"#  c #6C310B",
"$  c #73340B",
"%  c #7C380C",
"&  c #643A1D",
"*  c #4C3832",
"=  c #673C20",
"-  c #704D30",
";  c #5E5233",
":  c #263E69",
">  c #34384B",
",  c #423C44",
"<  c #2E4772",
"1  c #475570",
"2  c #706F6C",
"3  c #695D4E",
"4  c #853909",
"5  c #893E0E",
"6  c #843F12",
"7  c #89480A",
"8  c #8D4111",
"9  c #8E471B",
"0  c #964614",
"q  c #9C4C1A",
"w  c #994816",
"e  c #A3511F",
"r  c #A04F1D",
"t  c #A95726",
"y  c #B05F2E",
"u  c #B46433",
"i  c #B66C3D",
"p  c #915837",
"a  c #8B6D51",
"s  c #B4744D",
"d  c #8B766B",
"f  c #8B5E44",
"g  c #C17C4D",
"h  c #53BD53",
"j  c #59BF56",
"k  c #4FB84F",
"l  c #61BF5D",
"z  c #56C356",
"x  c #59C658",
"c  c #5BCB5B",
"v  c #57C958",
"b  c #5ED15E",
"n  c #60CD5F",
"m  c #63D161",
"M  c #6FD16B",
"N  c #74C86C",
"B  c #9D957B",
"V  c #93886C",
"C  c #AC8E72",
"Z  c #B5A777",
"A  c #A69557",
"S  c #C78856",
"D  c #CDB94F",
"F  c #CD986C",
"G  c #CFB376",
"H  c #DBC54C",
"J  c #DDC753",
"K  c #EBD34E",
"L  c #F3DA4F",
"P  c #F2DA52",
"I  c #E9D254",
"U  c #EBD564",
"Y  c #E7D376",
"T  c #D7C46C",
"R  c #80D077",
"E  c #2D5291",
"W  c #3465B8",
"Q  c #2E5AA5",
"!  c #485E82",
"~  c #4E668F",
"^  c #6D7783",
"/  c #5376B0",
"(  c #6E7CB0",
")  c #306ED7",
"_  c #3573DE",
"`  c #346CCD",
"'  c #2F71E2",
"]  c #3273E2",
"[  c #397AE9",
"{  c #3778E8",
"}  c #447CD9",
"|  c #437FE7",
" . c #887482",
".. c #3EBEBF",
"X. c #3CABAE",
"o. c #5B8A9F",
"O. c #549D9E",
"+. c #67919D",
"@. c #6D8D97",
"#. c #769DAE",
"$. c #6081B8",
"%. c #4DB2B5",
"&. c #5E98A9",
"*. c #72C5BD",
"=. c #54C1BE",
"-. c #3EBFC0",
";. c #4D85D4",
":. c #668AC7",
">. c #6C93D7",
",. c #739ADD",
"<. c #7397C9",
"1. c #4783E8",
"2. c #5188E6",
"3. c #4C8CFB",
"4. c #4889F7",
"5. c #5191FE",
"6. c #5A94F5",
"7. c #5493F3",
"8. c #719BE3",
"9. c #729EEB",
"0. c #6E9CEC",
"q. c #74A1ED",
"w. c #7CA4E8",
"e. c #75A3F0",
"r. c #78A5F1",
"t. c #5EB0D0",
"y. c #3FC0C1",
"u. c #5CC7C9",
"i. c #999896",
"p. c #888885",
"a. c #A59C84",
"s. c #AB9B8E",
"d. c #90A396",
"f. c #ACA48A",
"g. c #A8A59A",
"h. c #B3AC96",
"j. c #BAB39B",
"k. c #B1A78C",
"l. c #8EAFBD",
"z. c #95B2BB",
"x. c #92AEB9",
"c. c #BAB7A4",
"v. c #A7B8B7",
"b. c #ACADAB",
"n. c #8A9DBA",
"m. c #DE8E8E",
"M. c #D28C86",
"N. c #C49C89",
"B. c #DB968C",
"V. c #CBA898",
"C. c #C3BA9A",
"Z. c #CEB38E",
"A. c #E3B995",
"S. c #C5BDA4",
"D. c #D6B6A7",
"F. c #D3B2A5",
"G. c #E7B2B1",
"H. c #E8B2B2",
"J. c #E7BAB2",
"K. c #E3ACA5",
"L. c #E29FA0",
"P. c #94D487",
"I. c #ACD695",
"U. c #B3C9B8",
"Y. c #9ED0BE",
"T. c #D9C688",
"R. c #D9C994",
"E. c #CEC191",
"W. c #E2C989",
"Q. c #EBD486",
"!. c #F4DB89",
"~. c #EBCA9A",
"^. c #E7D79A",
"/. c #F4DC96",
"(. c #FEE48D",
"). c #FFE493",
"_. c #F8E399",
"`. c #CCC2A4",
"'. c #CAC5AB",
"]. c #D6C9A8",
"[. c #DBD2AB",
"{. c #C7C6B9",
"}. c #DCD4B5",
"|. c #CBD5AF",
" X c #E5CBAD",
".X c #E2D5AC",
"XX c #E8D8A9",
"oX c #EBC8B5",
"OX c #FECDB7",
"+X c #FCCDB6",
"@X c #E6DAB7",
"#X c #F8D6B9",
"$X c #F4DBA4",
"%X c #D4EAA7",
"&X c #CDEBA8",
"*X c #E7E7AD",
"=X c #FFE9A6",
"-X c #FEEBAC",
";X c #F7E4A7",
":X c #ECE2B8",
">X c #F4E4B3",
",X c #FEECB3",
"<X c #F3E4BB",
"1X c #F6E8BB",
"2X c #FEEEBC",
"3X c #F9E5B7",
"4X c #FFF0BC",
"5X c #94A9CB",
"6X c #88A6D5",
"7X c #91ABD3",
"8X c #A7BCD6",
"9X c #84A9E5",
"0X c #98B6E3",
"qX c #8DB0E6",
"wX c #B4CACF",
"eX c #9BD1C5",
"rX c #C5CBC7",
"tX c #CAD4C5",
"yX c #D8D7C6",
"uX c #D2D8D7",
"iX c #EDDBC4",
"pX c #D8E3C5",
"aX c #EBE5C6",
"sX c #F3E5C3",
"dX c #FBEDC3",
"fX c #F4EDCB",
"gX c #FBECCD",
"hX c #F7E7C7",
"jX c #FFF1C3",
"kX c #FEF3CC",
"lX c #F5F1CE",
"zX c #FBEDD1",
"xX c #F8EED8",
"cX c #FEF4D2",
"vX c #FEF6DC",
"bX c #FDF7DB",
"nX c #E2E2D4",
"mX c #FFF8E1",
"MX c None",
/* pixels */
"MXMXMXMXMXMXMXMXMXMXMXMXMXMXMXMXMXMXMXMXMXMXMXMXMXMXMXMXMXMXMXMXMXMXMXMXMXMXMXMXMXMXMXMXMXMXMXMXMXMXt 0 q 9 8 MXMXMXMXMXMXMXMXMX",
"MXMXMXMXMXMXMXMXMXMXMXMXMXMXMXMXMXMXMXMXMXMXMXMXMXMXMXMXMXMXMXMXMXMXMXMXMXMXMXMXMXMXMXMXMXMXMXMXMXy q 0 0 4 4 4 8 MXMXMXMXMXMXMX",
"MXMXMXMXMXMXMXMXMXMXMXMXMXMXMXMXMXMXMXMXMXMXMXMXMXMXMXMXMXMXMXMXMXMXMXMXMXMXMXMXMXMXMXMXMXMXMXMXy r 0 0 8 4 4 4 $ # MXMXMXMXMXMX",
"MXMXMXMXMXMXMXMXMXMXMXMXMXMXMXMXMXMXMXMXMXMXMXMXMXMXMXMXMXMXMXMXMXMXMXMXMXMXMXMXMXMXMXMXMXMXMXu t w 0 0 4 4 4 % @ + MXMXMXMXMXMX",
"MXMXMXm m m m MXMXMXMXMXMXMXMXMXMXMXMXMXMXMXMXMXMXMXMXMXMXMXMXMXMXMXMXMXMXMX6.9XzXcXvXvXvXMXMXy t 0 w 8 4 4 4 $ + + MXMXMXMXMXMX",
"MXMXMXm b b b b m m MXMXMXMXMXMXMXMXMXMXMXMXMXMXMXMXMXMXMXMXMXMXMXMXMX6.6.5.5.0XkXcXmXmXmXxXF e 0 0 0 4 4 4 % @ + . MXMXMXMXMXMX",
"MXMXMXm b b b b b b b m m m MXMXMXMXMXMXMXMXMXMXMXMXMXMXMXMXMXnXe.5.5.5.5.5.e.nXcXcXmXmXmX Xu q 0 0 5 4 4 4 # O . o MXMXMXMXMXMX",
"MXMXMXm b b b b b b b b b b m m m MXMXMXMXMXMXMXMXMXMXMXcXcXcX0X5.5.5.5.5.5.wXcXcXcXvXmXxXS t w 0 8 7 7 4 $ O O + MXMXMXMXMXMXMX",
"MXMXMXm b b b b b b b b b b b b b M pXmXbXMXMXMXkXcXcXkXcXcXwX1.5.5.5.5.5.qXlXcXkXbXbXmXA.u q 0 0 7 7 7 4 O O X d cXxXMXMXMXMXMX",
"MXMXMXm c b c c c b c b c b c c b P.bXmXbXmXbXcXcXcXcXfXpXU.%.;.5.5.5.5.6.uXcXcXcXcXvXkXg e 0 0 5 7 7 7 $ O O & }.vXxXmXmXMXMXMX",
"MXMXMXn c c c c c c c c c c c c c P.mXvXmXvXcXcXfXpXY.*.=.O.X.2.5.5.5.5.0XcXkXkXkXcXvXZ.t w 0 0 7 7 7 % O O X C vXvXxXvXmXMXMXMX",
"MXMXMXn c c c c c c c c c c c c v P.vXvXbXtXtXY.*.........%.X.;.5.5.5.5.uXkXkXkXkXcX<Xs r 0 0 5 7 7 7 $ O O - iXmXvXxXvXvXMXMXMX",
"MXMXMXn x c c x v v v v c c v c v N bXvXbXwXu.-.-.-.y.-.O.&.1.4.3.3.3.e.nXkXkXkXkXcXF y q w 0 4 4 7 % O O X f.vXvXvXxXvXvXMXMXMX",
"MXMXMXc x x v z v x x x v x x x x M lXmXbXeXu.-.-.-...=.*.:.4.3.3.5.5.9XkXkXkXkXkXXXu r 0 0 5 4 4 4 # O X f sXvXmXvXvXxXvXMXMXMX",
"MXMXMXc v z z z v z z x z x x z z P.bXbXbXwXu.u.=.*.U.aXdXqX3.5.3.3.3.qXkXjXkXkXdXF e 0 0 5 4 4 4 % O O . N.iXhXzXvXvXxXvXMXMXMX",
"MXMXMXx z z z z z z z z z z z z z &XbXcXbXtXeXeX*XdXkXkXkX0X4.3.3.5.3.9XjXkXkXkX~.u q 0 0 4 4 4 4 @ O . f +XOXOXOXOXoXaXcXMXMXMX",
"MXMXMXx j z z z z h z z z z z h N aXbXcXbXcXcXjXkXjXjXkXjXwX3.3.3.3.3.q.fXkXdX,XS e 0 0 5 4 4 4 $ O + & F.OXOXOXOXOX+XiXxXMXMXMX",
"MXMXMXx j h h h z h h h h h h h I.cXbXbXbXbXcXjXjXjXjXjXjXnX6.4.3.3.3.7.yXjXjXA.y q 0 0 4 4 4 4 + + O d hXOXOXOXOXOXOXzXvXMXMXMX",
"MXMXMXj h h h h z h h z h k h P.bXbXcXcXbXcXcX4XjXjXjXjXjXdX9X4.4.3.3.4.wXkX#Xg e 0 0 4 4 4 4 # + + - .XgXOXOXOXOXOXiXzXvXMXMXMX",
"MXMXMXj h h h h k h k h x N I.aXcXcXbXcXcXcXkXjXjX4XjXjXjXjXtX7.3.4.3.4.9.aXG t w 0 0 4 4 4 % O + . C cXsX+XOXOXOXOXOXgXzXMXMXMX",
"MXMXMXj k j k k h h N |.pXfXcXcXcXcXcXcXcXbXkXjXjX2XjXdXdXjXdX9X4.4.3.4.4.5Xi e 0 w 4 4 4 4 # O . - sXcXfX@X#XOXOXOX+XzXcXMXMXMX",
"MXMXMXN I.I.I.I.P.|.fXcXcXcXcXzXzXfXzXcXcXcXkX4XjX2X2XjX4X2XdXrX4.3.4.3.4. .t q 0 5 4 4 4 % O O X Z.cXcXcXcXkXgXhX#XoXhXzXMXMXMX",
"MXMXMXfXcXcXvXcXcXcXzXzXkXzXzXcXcXcXkXcXcXcXjX4X2XjX2X2X2XjX3X}.7.4.4.4.( i r 0 0 4 4 4 4 @ O . f lXcXcXcXcXcXcXzXcXsXiXcXMXMXMX",
"MXMXMXkXcXzXzXgXzXgXgXcXkXcXzXhXoXfXgXcXcXcXkX4X4X2X4X2X2X3X*X@X,.4.4.4.d t 0 w 5 4 4 4 $ O O & C.cXcXcXcXcXcXgXzXgXgXzXcXMXMXMX",
"MXMXMXgXgXgXgXkXcXgXgXsXiXoXJ.H.J.fXfXcXcXkXjX4X4X4X4X4X>X*X%X*X5X7.3.( u r 5 q 4 4 4 % O O X a kXcXcXcXcXcXzX@X@XcXcXkXcXMXMXMX",
"MXMXMXcXcXcXcXvXzX].J.H.H.H.H.H.G.fXgXzXcXcXjX4X4X,X,X>X*X%X&X%XrX7.2.a t 5 5 5 4 4 4 $ O O & [.cXkXkXkXkXgXfXQ.U ;XkXkXcXMXMXMX",
"MXMXMXkXcXkXxXg.nXoXH.H.H.H.H.H.H.sXkXgXkXcX4X4X,X3X$X*X&X&X&X*X@X7.( y q w 5 5 4 4 % O O X C kXkXkXgXfXsXiX^.I K P Y 2XkXMXMXMX",
"MXMXMXkXkXcXxXb.nXiXG.H.H.H.H.H.H.oXkXgXkXkXjX,X3X3X2X*X&X%X*X4X3X5Xf e w w 5 5 4 4 # O . -  XsXaX@X@X}..X'.T J L L P U _.MXMXMX",
"MXMXMXkXkXgXkX{.S.sXH.H.H.H.H.H.H.oXkXgXkXkXdX#X>X>X,X>X%X-X,X,X2XF t w 5 5 5 4 4 $ + O X C [.].`.`.`.`.`.j.^.Q.P P P L P MXMXMX",
"MXMXMX1XfX<XfX'.b.sXJ.H.H.H.H.H.H.J.dXhXgXgX1X,X~.Z.,X,X-X,X,X,X$Xi r 0 w 5 4 4 4 @ + . ; a.f.k.h.h.C.`.E.H Y *X;XU L L P MXMXMX",
"MXMXMXkXjXfXdX}.g.sXJ.H.H.H.H.H.H.G.hXfXhXgX1XA.B.A.,X,X,X,X,X-XF t w w 5 4 4 4 $ + + X 3 B B f.h.j.C.Z.D H J U ;X1X(.I !.MXMXMX",
"MXMXMXkXkXjXsX:Xg.@XoXH.H.H.H.H.H.H.#XfX<X#XK.B.m.B.-X,X,X,X,X^.u q w 5 4 4 4 4 @ + . * d B B k.h.C.C.Z H H K L P Y >X[.:XMXMXMX",
"MXMXMXkXkXjXsX<Xg.}.#XG.H.H.H.H.G.G.F.J.H.H.L.m.m.B.;X,X-X,X,XS t w w 5 4 4 4 $ + + o 1 2 a.a.f.h.C.Z E.R.T K P P L U }.kXMXMXMX",
"MXMXMXjXjXkX1XfXg.'.<XG.H.H.H.H.G.H.G.H.H.H.L.B.m.m.~.-X-X,XW.y e 5 5 4 4 4 4 O . X * ! 2 a.f.k.j.Z D D T..XY I L P /.jXjXMXMXMX",
"MXMXMXkXkXjX1XjXc.c.dXG.H.H.H.H.H.H.H.H.H.H.L.m.m.M.Z.-X-X;XS q w q 5 4 4 4 @ O . o 1 ! ^ B f.k.f.D D D H Y *X;XU Y jXkXjXMXMXMX",
"MXMXMXjXjXjXdXdX'.g.1XJ.H.H.H.H.H.H.H.H.H.H.L.m.B.~.;X-X-XW.S s 5 5 4 4 4 $ O O o , 1 ! ^ i.f.f.Z A D D H H U /.XX:XjXjXjXMXMXMX",
"MXMXMXjXjXjXdX2X@Xi.sXoXH.H.H.H.H.H.H.H.G.H.L.B.~._.-X-X-X XD.V.g d w 5 4 @ O O o < ! ! ^ a.k.j.c.E.T J I I L I [.kXjXjXjXMXMXMX",
"MXMXMXjXjXjXdXsX@Xg.@XoXG.G.H.H.H.H.H.G.G.J.J./.=X;X=X=X-X XJ.D.G.G.g p $ O . X > < ! ~ @.k.C.].}.:X<X/.U L L (.4XjXjXjXjXMXMXMX",
"MXMXMXjXjXjXdX2X<Xg.].#XG.H.H.H.G.G.J.oX#X1X,X_.=X-X-X=X=X XD.D.F.F.V.s.- + X * : < / $.n. X@X3X2X2XjXjX1XY Y 1XjXjXkXjXjXMXMXMX",
"MXMXMX1X1X3X<X@XdXtXyXsXK.G.oXoX#X2X4X4X2X2X3X=X=X-X/./.=X X].D.F.V.V.V.F f X > < W :.8.6X<XdX2XdXjXjXdXjX1X:XjXjX1X:X}.@XMXMXMX",
"MXMXMX4XdX2XdX2XkXc.b.hX.X1XdXdX4X4X2X2XdXdX,X=X=X Xd.R.=X].F.F.F.V.V.N.N.C 3 : Q } 8.q.r.yXdXdXdXjXjXjXjXjXjX1X@X@X<X1XdXMXMXMX",
"MXMXMX4X4XjX4XdXdXyXrX2X2XdX2X2X1XjX2XjX4XjX,X_.I.+.@.^._.J.F.F.V.V.V.N.C 2 : E ` { q.e.r.0XhXdX4X4X2XjX2X2X<X@X:X2X4XjXdXMXMXMX",
"MXMXMX1X>X1X2X2X2Xc.c.1XdX2X2XkXjX4X4XsXsX:X].d.o.o.+.^.=XD.D.F.V.V.N.p.< : E W { | q.r.r.r.8XsX4XdXdX.X2X<X@X1XjXjX2XdX4XMXMXMX",
"MXMXMX1X>X1X<X<X:Xc.j.4X@X@X}.|.{.U.U.v.z.z.#.o.o.o.+.^._.D.F.V.V.N.d 3 < Q ` ' [ | e.r.r.r.r.0XpX2X@Xc.].}.1X4X4X2X2X4X2XMXMXMX",
"MXMXMX1X1X4X4X2X:Xj.c.4X}.x.l.l.l.l.l.l.z.5X#.O.o.o.+.^.$XS.V.V.s.a 3 C / ] { { [ | e.r.r.r.r.e.9XwX].S.}.1X4X2X2X4X2X4X4XMXMXMX",
"MXMXMX,X3X4X4X1X1Xh.j.4X}.x.l.l.l.l.l.x.l.z.#.o.o.o.+.^.~.V 2 V a C G R.;.1.{ 1.[ | e.r.r.r.r.r.r.r.0X{.<X2X4X4X,X2X4X4X2XMXMXMX",
"MXMXMX3X,X4X4X,X>Xc.j.4X:Xl.l.l.l.l.l.x.l.l.#.o.o.o.@.R.`.2 3 d Z W.!./.<.{ { { [ | e.e.e.r.9.r.9.9X5X9XwXaX4X4X4X4X,X4X2XMXMXMX",
"MXMXMX>X1X4X4X3X>Xh.`.4X@Xl.l.l.l.l.l.l.l.l.#.o.o.d.E.R.2 2 G W.!./././.v.1.{ { [ 4.q.e.e.e.r.r.8.5X9X9.e.0X}.4X,X4X4X2X4XMXMXMX",
"MXMXMX>X,X4X4X3X>Xh.`.,X@Xl.l.l.x.x.l.l.l.l.#.@.E.E.V p.i.[./.).)._._.).].;.{ { { 1.e.q.q.q.q.w.5X9X9.r.q.q.9XyX2X2X,X4X,XMXMXMX",
"MXMXMX>X>X,X,X,X>Xg.`.,X}.x.z.z.z.z.v.U.v.U.`.R.Z 2 3 B _._._._.)._.)._._.<.{ { { 1.q.q.e.q.q.5X6Xe.r.9.r.q.q.9XtX,X4X,X4XMXMXMX",
"MXMXMX>X>X>X,X>X>Xg.`.4X.X[.*X:X:X>X>X>X>X>XR.V 3 l Z.(._.).).).)._.).).).].;.{ { [ q.q.q.w.5X6Xr.r.r.9.q.r.r.q.9XyX,X4X,XMXMXMX",
"MXMXMX,X3X,X,X>X>X{.{.].`.`.S.j.h.h.g.i.i.i.2 2 s.Q.).).).).).).).).).).).).v.1.] 1.q.q.q.7X6Xq.9.9.r.9.q.q.q.q.e.qX<X,X,XMXMXMX",
"MXMXMX,X4X,X1XXX}.i.v.i.i.i.i.i.i.i.g.g.g.h.f.T././.).).).).).).).).).).).).).`.<.2.9.q.6X6X8.q.r.9.q.q.q.q.q.q.q.q.wX2X,XMXMXMX",
"MXMXMX,X,X,X].g.b.rXiX`.`.`.].[..XXXXX>X>X>X_./././.)./.).).).).).).).).).).).(./.'.6X6X5Xq.q.q.r.9.q.9.q.q.q.q.q.9.9X@X4XMXMXMX",
"MXMXMX.X`.h.g.g.S.}..X.X[..X.X.X.X.X.X.X.X.XR.T.A.A.Y !.(.).(.).).).).).).(.).(.(.).{.5X9.q.q.9.9.9.9.9.9.9.q.q.9.q.0.wX,XMXMXMX",
"MXMXMX].g.i.c.@X-X3X,X,X,X-X}.wX8XrX@X3X,X-X;Xc.b.I.T.T.W.(.(.(.(.(.(.(.(.(.(.(.(.Q..X8Xq.9.q.q.9.r.9.r.q.q.q.9.e.9.e.6X<XMXMXMX",
"MXMXMXi.i.`.>X,X,X,X,X-X,XrXw.9.9.q.w.8XwXtX5X] ] [ :.c.T.T.Q.!.(.(.(.(.(.(.(.Q.T.T.-X*X9Xq.9.9.q.9.q.9.q.q.9.9.9.9.e.q.tXMXMXMX",
"MXMXMXg.[.-X-X,X-X-X-X-XtXw.9.9.9.9.9.9.9.8.2.] ] ] ] _ <.E.T.T.T.W.W.T.T.T.T.T.Q.(.,X,X8X9.9.9.9.9.9.9.9.9.9.9.9.9.9.9.8XMXMXMX",
"MXMXMXXX;X-X1X}.wX8XrX8Xw.9.9.9.9.9.9.9.9.9.2.] _ ] ' ' _ ;.`.!.(.Y W.Q.Q.!.(.!.(.(.;X-XwX,.9.9.9.9.9.9.9.9.9.9.9.9.9.0.0XMXMXMX",
"MXMXMXMX;X[.5X8.8.8.8.9.9.9.9.9.9.9.9.9.9.9.2.] ] ] _ ] ' _ ;.c.(.(.(.!.!.!.Y G A 3 V Z.S.,.8.9.9.9.9.9.9.9.9.9.9.9.9.9.9XMXMXMX",
"MXMXMXMXMXMXMX,.,.8.8.8.9.9.8.9.q.9.9.9.9.9.2.' ] ] ] ] ] _ ' _ j.(.Q.Y G A ;   MXMXMXMX* 1 / <.,.q.8.q.9.9.9.9.9.9.9.9.8.MXMXMX",
"MXMXMXMXMXMXMXMXMXMXMX,.,.,.8.9.8.9.9.9.9.9.2.] ] ] ] ' ] ) ) ) / Z a ; MXMXMXMXMXMXMXMXMXMXMXMX< ~ $.>.8.9.9.8.9.9.9.9.9.MXMXMX",
"MXMXMXMXMXMXMXMXMXMXMXMXMXMX,.,.8.8.8.8.9.q.2.] ) ) ) ) ) W Q < MXMXMXMXMXMXMXMXMXMXMXMXMXMXMXMXMXMXMXMX~ $.:.,.8.9.9.9.9.MXMXMX",
"MXMXMXMXMXMXMXMXMXMXMXMXMXMXMXMXMXMX,.,.8.,.2.) ) ` W Q MXMXMXMXMXMXMXMXMXMXMXMXMXMXMXMXMXMXMXMXMXMXMXMXMXMXMXMX:.,.,.8.,.MXMXMX",
"MXMXMXMXMXMXMXMXMXMXMXMXMXMXMXMXMXMXMXMXMX,.;.} MXMXMXMXMXMXMXMXMXMXMXMXMXMXMXMXMXMXMXMXMXMXMXMXMXMXMXMXMXMXMXMXMXMXMXMX,.MXMXMX"
};
