/* XPM */
static char *josm_64[] = {
/* columns rows colors chars-per-pixel */
"64 64 256 2 ",
"   c #1AF31DBF1ED3",
".  c #1E40214C2296",
"X  c #223E2560248A",
"o  c #2661288229FF",
"O  c #2A912BAE2D96",
"+  c #254F27E7272B",
"@  c #2CAB2E433182",
"#  c #27812D683071",
"$  c #30C32ED931DD",
"%  c #2D59314B33CB",
"&  c #337D3336357C",
"*  c #34D4364B38FF",
"=  c #359D39873C08",
"-  c #3B403AB03D48",
";  c #39A3391D3752",
":  c #2C232FDA292C",
">  c #3FC73B2D3ED6",
",  c #3E6940F13DBB",
"<  c #45AE433733A0",
"1  c #3C183DF54135",
"2  c #35FE3CF54085",
"3  c #40F23E1E4164",
"4  c #3D3A42A342FC",
"5  c #3E5A47F2407E",
"6  c #4455427B458E",
"7  c #43DD4CAF443C",
"8  c #45D3494C4AFD",
"9  c #4D7C52584B09",
"0  c #4DE8550B59BF",
"q  c #53C85CBC5853",
"w  c #516851A44B2D",
"e  c #5CBB689C580C",
"r  c #647B6AA05A3A",
"t  c #633571215C1D",
"y  c #7AE175134405",
"u  c #5D2A68356ACC",
"i  c #6A2777E5684D",
"p  c #6C727A28796E",
"a  c #6F54797E6D45",
"s  c #53545EAC6A7D",
"d  c #84B3761F2DC2",
"f  c #88F07EE44AA8",
"g  c #74C8853F6C0E",
"h  c #7816896B6B9B",
"j  c #77E288C1760C",
"k  c #7D0795EC72DB",
"l  c #79D09AF168EA",
"z  c #7F95A3556AC0",
"x  c #AE159647337C",
"c  c #AE599AE24DA6",
"v  c #842B975B77D6",
"b  c #90BA8E8172E3",
"n  c #885CA87676B1",
"m  c #926AA92C7D95",
"M  c #8D59B6EB78B6",
"N  c #92BCB79F7DB1",
"B  c #A06A961B6B27",
"V  c #CA89B381605D",
"C  c #953BC4A07D72",
"Z  c #9908CB227F08",
"A  c #977DC8BE7E3B",
"S  c #E853CB8F5FD8",
"D  c #6F787D778982",
"F  c #7582850F825B",
"G  c #7AFB89FD8989",
"H  c #7CAF8B1097DE",
"J  c #861395C8878E",
"K  c #88079790992A",
"L  c #85558DA69656",
"P  c #8CFFA6928360",
"I  c #97CEAD2B863C",
"U  c #9B51B22A85A2",
"Y  c #9A5FB8BE883A",
"T  c #9C08B15F92BD",
"R  c #AB26A657865A",
"E  c #A31EBB298BD3",
"W  c #A682B57D899B",
"Q  c #A4F9BB3A9740",
"!  c #BBB3B4DE9031",
"~  c #89C89A3FA2D0",
"^  c #8E7C9EFDB416",
"/  c #94C3A60AAA79",
"(  c #9648A6F3A8CC",
")  c #958AA6D2B92F",
"_  c #9EB5B233ACD8",
"`  c #A811BE68A400",
"'  c #A6BFB9DEB9B9",
"]  c #A353B540B74D",
"[  c #BC06B63CACD2",
"{  c #A8F09C778112",
"}  c #C67DBB3B9439",
"|  c #C9DCBB2996BD",
" . c #C85AB9309640",
".. c #C7DBB20F8A83",
"X. c #C547B51FB68F",
"o. c #9B85CE4D81B2",
"O. c #9836C53681A4",
"+. c #9E5FD324843F",
"@. c #A9C7C5B68EBF",
"#. c #A648C6678DD4",
"$. c #A11CD5748696",
"%. c #A243D3E38ADF",
"&. c #AB26D6FC8F36",
"*. c #A59DD9118A90",
"=. c #A7DDDB3D8BF3",
"-. c #AB84C44592E1",
";. c #ADA0CA1192D1",
":. c #A907C714954F",
">. c #B195CD419490",
",. c #B3C6CD0D9C36",
"<. c #B93BC69E95FC",
"1. c #ACBDD6DA92BD",
"2. c #ADC3DB7693A0",
"3. c #A68CD5429824",
"4. c #B3C9D4059A46",
"5. c #BBBAD61E9C0B",
"6. c #B511DE0D9CF8",
"7. c #BDDCDCC39CA8",
"8. c #B58AD82995B4",
"9. c #B936E16D9D8D",
"0. c #AD25C787A8B6",
"q. c #B5AACC84A443",
"w. c #BC63DCC4A434",
"e. c #BA6BD96FA76F",
"r. c #AABDC8C9B4A3",
"t. c #B2E0CD21B9F0",
"y. c #B1E0D629B4DD",
"u. c #BE32DA68B3E6",
"i. c #B3F4D24CBC74",
"p. c #B6BCDE05B9B2",
"a. c #BA93DE60BBB4",
"s. c #B97CD856B82D",
"d. c #B710E18DA19B",
"f. c #BAEFE2A0A59A",
"g. c #BD5CE418A982",
"h. c #BD62E1E4BC90",
"j. c #9E78C10AAC45",
"k. c #C797C3FB998C",
"l. c #CB52C4699B46",
"z. c #C71CCCFF9C84",
"x. c #C992C9AD9B05",
"c. c #C16ADEAA9EB6",
"v. c #C59DD4F19DE8",
"b. c #D529C47A9006",
"n. c #C1AAE0FB9F1D",
"m. c #CDEEC558A24D",
"M. c #D2EDC48DA4AF",
"N. c #D434CC1BAA28",
"B. c #D178CB26A6C6",
"V. c #CA6AD688A1F6",
"C. c #C32CDD63A390",
"Z. c #CA16DBC0A31B",
"A. c #C572DE1DAB84",
"S. c #CB24D852A93C",
"D. c #D1D0DC29ACC1",
"F. c #D353D422AB54",
"G. c #C3AEDEC4BAF6",
"H. c #C683DF2BB599",
"J. c #D617DD17B4FD",
"K. c #C971CB56B816",
"L. c #C611E540A483",
"P. c #C8F6E719A6B4",
"I. c #C6F7E90AA618",
"U. c #C9C9E9C0A775",
"Y. c #C482E479AC20",
"T. c #CA9FE696ABE5",
"R. c #CBF3EACBAAD6",
"E. c #C600E93DAD6F",
"W. c #D1B7E672AF5B",
"Q. c #C4AEE3BBB398",
"!. c #CC09E605B27B",
"~. c #CE9CEAA3B279",
"^. c #CCB9E6F5BA8E",
"/. c #CA04E65FBAF5",
"(. c #D3CEE53BB36C",
"). c #D255ED66B4A8",
"_. c #D53EEE13BAC2",
"`. c #D8A1EFDFBEF0",
"'. c #D715F0FABB1D",
"]. c #D962F178BEFD",
"[. c #D418F0F2B6D8",
"{. c #E211E0B8A366",
"}. c #EB9BDAFD9D87",
"|. c #A733BA7DC665",
" X c #A7F6BA1CD5C9",
".X c #9D64AFBDC8CE",
"XX c #AE91C481CAE4",
"oX c #B354C647C534",
"OX c #B54CCCC3C5A1",
"+X c #B590CC6CCAE3",
"@X c #B3A1C933CA9D",
"#X c #BB63D5FFC5F2",
"$X c #BD71DA79C2D7",
"%X c #BC2CD490CC30",
"&X c #B8B6D42DC83D",
"*X c #B563CC72DD5B",
"=X c #B57ECAC9D4F7",
"-X c #BB11D2FAD25A",
";X c #BB0BD30ADD12",
":X c #AE12C469D254",
">X c #BD2CE135C0DA",
",X c #BB7BD406E66A",
"<X c #BDFCD5EAEAA8",
"1X c #B820D0D5E787",
"2X c #B1BCC7A0E2EE",
"3X c #C3D6DD34C3FE",
"4X c #C49CDD03CD69",
"5X c #C4DCDB75CF56",
"6X c #C422DDD1D3CC",
"7X c #C36DDCB0DD28",
"8X c #C884DC01D443",
"9X c #D116DD8ADE3B",
"0X c #C4D5E32EC515",
"qX c #C576E339CC86",
"wX c #CBE1E704CAF5",
"eX c #CDE0E954CC5F",
"rX c #C9D3E673C416",
"tX c #D246EAB4CDFD",
"yX c #D32EEAD2C7D0",
"uX c #DA3DF1EFC10E",
"iX c #CCB8E45DD2A7",
"pX c #CE94E964D1E5",
"aX c #C8AEE2DBDA0D",
"sX c #D36FE65DD6E8",
"dX c #D3BEEC22D4A1",
"fX c #D4E0E608DC08",
"gX c #D66AEB79DB40",
"hX c #DA2CED4ADC4A",
"jX c #D97BEBFDD92F",
"kX c #DD68F0E9DEB5",
"lX c #C39FDB3EE518",
"zX c #C0D4D806EB8B",
"xX c #C41BDA7FECCD",
"cX c #CB51DF23EECE",
"vX c #CDF9E134EE57",
"bX c #CA2EE502E1A5",
"nX c #DCE2ED3DE283",
"mX c #D3E9E4B1EEB1",
"MX c #D744E8BDE60D",
"NX c #DE43F181E3B7",
"BX c #E027F37CEA24",
"VX c #CE24E13AF12B",
"CX c #D370E3C6F225",
"ZX c #D9D5E7B2F37F",
"AX c #DCD0E9D7F4AD",
"SX c #E283EDC5E367",
"DX c #E2E3EF55EAC6",
"FX c #EA5FEBFDE742",
"GX c #E314F27FE4D3",
"HX c #E56BF3D2EA5E",
"JX c #EA70F4EAEBF7",
"KX c #E2B5EDA6F5B4",
"LX c #ECDBF68FF3CB",
"PX c #F19FF966F310",
"IX c #F0CBF6D0F8B0",
"UX c None",
/* pixels */
"UXUXUXR.R.R.UXUXUXUXUXUXUXUXUXUXUXUXUXUXUXUXUXUXUXUXUXUXUX=.+.UXUXUXUXUXUXUXUXUXUXUXUXUXUXUXUXUXUXUXUXUXUXuXuXUXUXUXUXUXUXUXUXUX",
"UXUXUXR.R.R.R.R.R.R.UXUXUXUXUXUXUXUXUXUXUXUXUXUXUXUX~.g.g.3.+.+.+.+.+.UXUXUXUXUXUXUXUXUXUXUXUXUXUXUXUX`.uXuXuXUXUXUXUXUXUXUXUXUX",
"UXUXUXR.R.R.R.R.R.R.U.U.R.UXUXUXUXUXUXUXUXUXUXuXuXuXE.w.g.d.+.+.o.+.*.6.I.U.UXUXUXUXUXUXUXUXUXUX~.).`.].uXuX`.`.UXUXUXUXUXUXUXUX",
"UXUXUXUXU.R.R.U.R.R.U.U.R.c.v.R.UXUXUX'.].].uXuXuX_.g.f.g.f.+.+.$.=.9.U.U.R.R.U.>.UXUX-.q.S.!.`.uX`.!.^._.uXuXuXUXUXUXUXUXUXUXUX",
"UXUXUXUXR.R.R.U.U.U.U.U.R.l.v.U.).].'.'.].].].]._.g.d.g.g.d.3.+.=.n.U.R.I.;.m v j G L K L J j J T ,.f.E.).^.`.uXuXUXUXUXUXUXUXUX",
"UXUXUXUXUXU.R.U.U.U.U.U.P.| L.U.E.).'.`.].[.~.Y.g.f.g.g.g.f.6.+.9.R.L.E h j ( OX9XnXDXSXnXMX9XoX/ j j Y ~.uX(.yX`.UXUXUXUXUXUXUX",
"UXUXUXUXUXR.U.U.U.U.U.U.V.b.P.P.I.).[.'.[.~.f.d.d.6.d.g.e.g.6.=.I.8.k F ' 9XDXGXGXSXSXSXnXhXhXnXnXaX' F v H.uX_._.UXUXUXUXUXUXUX",
"UXUXUXUXUXR.U.U.U.E.P.U.x.x.U.P.U.R.).[.'.).U.f.6.w.d.f.d.d.d.=.Y g ( 9XDXgXfXgXjXfXsXfXsX8XwXdXfXgXMX6X/ j Q uX_.UXUXUXUXUXUXUX",
"UXUXUXUXUXU.U.U.U.U.I.I.| Z.P.P.U.U.~.[.[._._.E.w.6.9.d.d.6.d.n p oXDXnXgXfXsXfXjXsXjXfXsXiXiX8X4X8XiXpXaX:Xj T _.UXUXUXUXUXUXUX",
"UXUXUXUXUXUXU.U.U.U.U.L. .l.V.P.L.L.U.W.R.U.T.R.E.w.2.6.d.d.P p 5XBXhXfXfXhXsXjXSXjXSXSXhXgXdX8X4X4X5XqX$XqX-XF T uXUXUXUXUXUXUX",
"UXUXUXUXUXUXU.P.U.P.P.P.Z.x.} } k.7.Z.T.R.W.).[.~.g.w.6.9.Y a -XnXnXnXSXhXJXkXkXJXkXkXkXdXdXdXeXtXqX4X%Xt.i.>X;XF I UXUXUXUXUXUX",
"UXUXUXUXUXUXP.P.P.P.P.P.I.I.c.5.} z.I.R.).).~.~.[.~.T.g.%.i ' BXhXnXHXGXGXHXGXkXkXjXdXdXdXdXpXeXtXdXwX%Xr.j.i.%XoXi UXUXUXUXUXUX",
"UXUXUXUXUXUXP.P.L.P.P.P.I.n.7.I.z.k.I.R.T.U.T.U.U.~.).T.v K MXnXhXhXkXhXhXhXjXhXkXjXjXjXdXdXkXkXdXdXdXwXi.r.0.r.4X( 4 UXUXUXUXUX",
"UXUXUXUXUXUXUXU.U.P.P.P.L.7.L.L.v.} 7.n.L.T.U.R.U.U.R.q.j -XfXiXsXhXhXhXhXkXkXkXJXHXkXPXGXkXHXHXsXdXdXwXqXi.r.r.OX%XD UXUXUXUXUX",
"UXUXUXUXUXUX'.].'._._.).!.L.R.R.A.} v.L.U.T.U.E.U.P.C.v / aXdXgXhXhXJXHXhXPXJXkXPXPXGXGXJXkXJXHXhXdXwXa.h.a.y.r.t.%X] 4 UXUXUXUX",
"UXUXUXUXUXUX].].'.].`.`._.`.].`.).N.(.).P.P.P.L.7.7.;.j @XgXgXNXJXSXHXJXgXkXJXkXPXJXHXkXPXkXJXHXhXpXa.p.p.h.y.r.r.#X-Xu UXUXUXUX",
"UXUXUXUXUXUX].'.].'.`.`.)._.].)._.J.J.~.P.P.7.8.=.=.n H %XkXkXNXJXGXhXPXkXkXPXHXLXIXAXKXLXBXMXgXeX$Xh.p.p.p.p.y.0.r.-XK UXUXUXUX",
"UXUXUXUXUX`.`.`.'.'.'.`.!._.'.(.`.J.N.R.P.L.1.+.+.o.k / ;XgXnXBXJXHXNXIXHXKXLXAXCXAXZXZXVXVXVXbXqXa.h.p.p.p.p.p.y.r.&X' UXUXUXUX",
"UXUXUXUXUX`.[.`.'.'.`.).(.`.).~.`.(.N.T.L.9.*.+.+.C h |.bXmXZXZXAXAXZXAXCXCXCXCXVXVXVXVXVXVXVXVX<X&Xh.p.p.p.p.p.y.r.&XXXq UXUXUX",
"UXUXUXUXUX`.[.).[._.[.).R.`.!.~.).).M.Z.9.2.*.+.+.O.j :X<XCXCXCXCXmXCXCXVXVXCXCXCXKXAXCXKXAXVXVX<X,X>Xh.p.p.p.p.p.y.i.OXp UXUXUX",
"UXUXUXUXUX`._.).)._.).).R._.T.).).(.l.c.9.=.$.$.+.Y j =X,XVXmXCXCXCXCXAXAXZXKXAXCXKXKXAXCXVXvXxX<X,XqX>Xp.h.p.p.p.p.i.OXG UXUXUX",
"UXUXUXUX).).[.[._.).[.).!.).T._.W.M.v.2.=.$.$.%.j.) G =X7XcXVXCXCXZXCXAXAXZXAXZXCXAXZXZXvXvX<X<X,X1XaX>Xp.p.p.p.p.p.i.&XH UXUXUX",
"UXUXUXUX).[.).).).).).).T.).T.(.M.F.7.*.+.+.%.r.t.` J +X7XxXCXVXvXvXZXmXCXVXVXCXCXCXVXxXxX<X<X<X,X,XaXh.p.h.p.p.p.p.p.OXG UXUXUX",
"UXUXUXUX).).).).).).).).U.).S.M.D.R.2.+.*.*.3.h.C.;.j =X<XzXVXvXvXmXjXkXnXmXVXVXVXxX<X<X<XxX<X<X1X,XqXh.p.p.p.p.p.p.#XOXp UXUXUX",
"UXUXUXUX).).).).).[.[.R.U.T.| V.).U.8.$.$.*.y.U.f.;.J |.<XzXcXvXvXMXjXjXkXdXgXvX<X<X<X<X<X<XxX<X,X;XwXh.p.h.p.p.p.$XqXOX0 UXUXUX",
"UXUXUXR.~.).R.R.R.R.).).W.| F.U.R.P.7.=.$.6.u.I.7.>.J / cXzX<XxXvXgXdXjXtXkXpXqX,X<X<XvX<X<XlX<X,XqXwXh.p.p.p.h.>XpXNX' UXUXUXUX",
"UXUXUXn.c.L.U.E.R.R.R.R.~.x.| L.R.U.c.n.L.h.Y.9.=.0.~ K lXxX<X<XzXdXdXjXdXpXeXeXpXlX<X<X<X<X<X,XqXeXwX>Xh.>X0XeXhXNXHXL UXUXUXUX",
"UXUXUXUXL.7.L.7.L.n.U.).R.T.l.l.P.n.n.R.U.a.Y.2.6.oX^ H :XVX<X1X,XwXwXwXeXeXeXeXeXpXaX<X<X<X<X;XeXwXwXwXwXeXjXkXNXGXaXu UXUXUXUX",
"UXUXUXUXP.P.P.P.P.L.7.L.U.R.v...c.n.n.R.R.rXE.6.f.OX.XL ~ xX<X1X,XaXwXwXrXwXrXeXeXeXeXaXaXaXqXwXwXwXwXwXtXkXkXGXGXLX_ % UXUXUXUX",
"UXUXUXUX7.P.P.P.L.P.L.c.I.Z.| z.c.R.P.)._.rXg.6.d.#X|.H 8 ~ xX<X,X-XrXeXeXeXeXwXwXwXeXeXpXeXeXwXwXeXeXhXNXGXHXHXLXMXu UXUXUXUXUX",
"UXUXUXUXUXP.P.P.P.P.P.9.v.} v.P.c.T.T.).^.3Xf.6.9.$X XH * 4 :X<X<X;XwXwXwXrXeXwXwXwXwXeXeXwXeXdXeXdXkXNXGXJXJXJXHXK UXUXUXUXUXUX",
"UXUXUXUXUX7.P.P.P.P.P.P.} z.P.P.L.Z.T._._.5XI.7.d.%X X^ s # u 1XxX,XqXwXwXeXwXwXwXwXwXwXeXwXeXdXdXkXGXGXHXFXJXLX] 6 UXUXUXUXUXUX",
"UXUXUXUXUXc.P.U.P.U.U.U.x.l.P.P.L.V.U.~.rX*X5XG.3X*X X) H 8 @ p ,XxXaXwXwXwXwXwXwXwXyXwXwXwXyXtXkXGXSXFXJXJXSXoXu UXUXUXUXUXUXUX",
"UXUXUXUXUX>.P.U.U.I.P.U.c.} x.U.L.w.T.~.5X*X%X4X7X1X2X.XD 8 1 * F ;XlXpXwXwXrXwXwXwXeXwXwXwXeXkXHXSXFXJXJXNXoXa Q UXUXUXUXUXUXUX",
"UXUXUXUXUXUXn.L.n.c.n.n.n.L.| v.L.4.U.3X%X^.).).^.3X2X^ 8 4 8 - % u :XbXpXwXwXwXwXwXwXwXwXyXkXHXFXFXJXJXnX] p ` #XUXUXUXUXUXUXUX",
"UXUXUXUXUXUX7.n.n.P.n.U.U.U.Z...5.5.G.4X).).~.~.(.W._ 0 3 8 - , 9 4 0 L ;XgXpXwXwXwXwXwXwXjXGXJXFXJXSX%XL F ' s.,.UXUXUXUXUXUXUX",
"UXUXUXUXUXUX7.U.R.I.U.U.P.n.n.<...q.4X~.D.N.A.m W {.a 3 6 3 = 7 t t 8 q / OX%XgXdXdXdXdXpXNXHXBXfXOXK F ~ &XS.-.E W UXUXUXUXUXUX",
"UXUXUXUXUXUX>.7.c.c.n.n.c.8.7.7.[ [ B.l.M.| b 2 w B ..r - ; 7 q r t b n U J K / ' @X-X%X%X@X' / G J T OX@X0.Q Q -.,.UXUXUXUXUXUX",
"UXUXUXUXUXUXn.P.n.n.c.7.c.c.C.s.+Xm.l.D.Y.k 8 3 3 w V V w 8 t h k h g v m #.3.E I J J J J J P I ;.Y.U.w.` / Q -.q.e.UXUXUXUXUXUX",
"UXUXUXUXUXUXU.W.P.n.n.n.w.s.&X#Xh.P.P.L.j 6 3 6 6 3 3 c x u J Y E m n v v I E ;.4.! ! w.C.L.1.+.%.#.-.E E Q _ 0.V.w.UXUXUXUXUXUX",
"UXUXUXUXUXUX!.(.W.~.3X3X3XG.Q.U.n.I.5.j 4 4 6 6 6 6 - < y G / u.T.C.,.@.E U I I W W R R Q -.N M n n n U -.>.0.t.w.@.UXUXUXUXUXUX",
"UXUXUXUXUXUX_.`.wXiXwX^.(.~.~.R.P.7.g 4 1 6 6 8 4 , ; % e ~ |.3XF.(.!.T.C.4.@.Y U U Y m B N n n n M M N O.>.e.i.q.UXUXUXUXUXUXUX",
"UXUXUXUXUX_.`.wX4X^.)._.).).~.T.5.g 1 1 6 6 6 3 , & & 7 g / [ X.N.M.F.).^.!.Y.e.,.;.@.W { Y M M C C C A o.$.8.u.] UXUXUXUXUXUXUX",
"UXUXUXUXUX`.yXiX!.f.f.).).).~.w.g 1 - 4 6 3 3 - * & , t v R [ *X%X(.N.M.D._.).~.T.Y.V.<.! 8.o.O.A A o.o.$.+.$.6.` UXUXUXUXUXUXUX",
"UXUXUXUXUXwXsX^.g.d.d.E._.(.C.g - 1 3 3 3 > - & @ - r v R ! H.XX:X/.).D.M.m.D.!.!.D.J.N.l.f.+.o.o.+.+.+.o.o.o.o.UXUXUXUXUXUXUXUX",
"UXUXUXUXUXwX!.g.f.f.g.^.^.e.g 1 - 3 3 3 > * & $ - r v E ! V.L.G.2XOXT.T.E.B.M.M.N.N.N.N.S.n.%.+.+.o.o.A o.+.o.C UXUXUXUXUXUXUXUX",
"UXUXUXUXg.Y.g.f.f.Q.~.^.S.a 2 * - - > ; * @ O 4 e v #.<.} P.n.H.=X=X$XR.~.).~.D.D.).^._.L.&.+.o.o.o.o.o.+.+.+.O.UXUXUXUXUXUXUXUX",
"UXUXUXUXe.f.f.g.^._._.e.g = & - - - * & @ O 7 r b #.7.} z.L.u.$XE.G.*X#X~.W.~.).~.)._.U.=.+.+.A o.+.+.+.+.+.+.UXUXUXUXUXUXUXUXUX",
"UXUXUXUXd.g.d.Q.uX/.q.a & * * - ; * & @ O 7 t b R c.v...7.u.&X/.U.R./.=X-X/.~.~.T.).).6.Z $.Z Z +.+.+.+.+.$.+.UXUXUXUXUXUXUXUXUX",
"UXUXUXUXe.d.e.Q.Q.q.i & & & * * & @ O O 5 i m @.k.} } z.a.a.A.U.T.R.U.!.+X*XG.T.).).!.8.$.+.A +.+.+.+.+.+.+.+.UXUXUXUXUXUXUXUXUX",
"UXUXUXUXd.g.f.e.,.i @ $ & & ; $ & O + 7 g m >.c.7.k...s.Q.R.U.R.U.T.T.R.E.%X2X/.R.(.T.6.+.Z +.+.+.+.+.+.+.+.o.UXUXUXUXUXUXUXUXUX",
"UXUXUXUXg.g.e.#.e % @ $ & & $ $ + + 7 g m >.c.7.L.V. .u.@.>.Z.P.U.R.T.T.R.R.%X%XT.~.U.n.$.Z +.+.+.+.+.+.+.+.Z UXUXUXUXUXUXUXUXUX",
"UXUXUX4.4.3.3.v & O $ $ & $ O o o 9 h U >.n.n.n.L.<.R J UXUXUXN >.c.T.T.R.R.!.-XH.R.I.C.&.$.+.$.+.+.+.Z C n UXUXUXUXUXUXUXUXUXUX",
"UXUXUXUXUXUXUXB B $ $ $ $ O + + w v @.5.n.5.@.E v UXUXUXUXUXUXUXUXUXm ;.5.P.U.G.3XT.P.C.c.=.o.A C C l UXUXUXUXUXUXUXUXUXUXUXUXUX",
"UXUXUXUXUXUXUXb.}.f $ O o + . + w h U n v e UXUXUXUXUXUXUXUXUXUXUXUXUXUXUXUXE C.i.Y.8.>.4.m z UXUXUXUXUXUXUXUXUXUXUXUXUXUXUXUXUX",
"UXUXUXUXUXUXUXUXb.b.f + X . . .   X O UXUXUXUXUXUXUXUXUXUXUXUXUXUXUXUXUXUXUXUXUXUXUXUXUXUXUXUXUXUXUXUXUXUXUXUXUXUXUXUXUXUXUXUXUX",
"UXUXUXUXUXUXUXUXUXc S d   X o o + UXUXUXUXUXUXUXUXUXUXUXUXUXUXUXUXUXUXUXUXUXUXUXUXUXUXUXUXUXUXUXUXUXUXUXUXUXUXUXUXUXUXUXUXUXUXUX",
"UXUXUXUXUXUXUXUXUX< x d + : % UXUXUXUXUXUXUXUXUXUXUXUXUXUXUXUXUXUXUXUXUXUXUXUXUXUXUXUXUXUXUXUXUXUXUXUXUXUXUXUXUXUXUXUXUXUXUXUXUX",
"UXUXUXUXUXUXUXUXUXUX& & % & UXUXUXUXUXUXUXUXUXUXUXUXUXUXUXUXUXUXUXUXUXUXUXUXUXUXUXUXUXUXUXUXUXUXUXUXUXUXUXUXUXUXUXUXUXUXUXUXUXUX",
"UXUXUXUXUXUXUXUXUXUXUXUXUXUXUXUXUXUXUXUXUXUXUXUXUXUXUXUXUXUXUXUXUXUXUXUXUXUXUXUXUXUXUXUXUXUXUXUXUXUXUXUXUXUXUXUXUXUXUXUXUXUXUXUX",
"UXUXUXUXUXUXUXUXUXUXUXUXUXUXUXUXUXUXUXUXUXUXUXUXUXUXUXUXUXUXUXUXUXUXUXUXUXUXUXUXUXUXUXUXUXUXUXUXUXUXUXUXUXUXUXUXUXUXUXUXUXUXUXUX",
"UXUXUXUXUXUXUXUXUXUXUXUXUXUXUXUXUXUXUXUXUXUXUXUXUXUXUXUXUXUXUXUXUXUXUXUXUXUXUXUXUXUXUXUXUXUXUXUXUXUXUXUXUXUXUXUXUXUXUXUXUXUXUXUX",
"UXUXUXUXUXUXUXUXUXUXUXUXUXUXUXUXUXUXUXUXUXUXUXUXUXUXUXUXUXUXUXUXUXUXUXUXUXUXUXUXUXUXUXUXUXUXUXUXUXUXUXUXUXUXUXUXUXUXUXUXUXUXUXUX",
"UXUXUXUXUXUXUXUXUXUXUXUXUXUXUXUXUXUXUXUXUXUXUXUXUXUXUXUXUXUXUXUXUXUXUXUXUXUXUXUXUXUXUXUXUXUXUXUXUXUXUXUXUXUXUXUXUXUXUXUXUXUXUXUX"
};
