/* XPM */
static char * mess_xpm[] = {
"32 32 8 1",
" 	c None",
".	c #995C25",
"+	c #F8E69D",
"@	c #FF9A16",
"#	c #FFA52F",
"$	c #FFAC3F",
"%	c #FFAE43",
"&	c #FFBC64",
"                                ",
"                                ",
"                                ",
"                                ",
"                      .        .",
"                     ..       ..",
"                    .+.      .+.",
"                   .++.     .++.",
"                  .+@+.    .+@+.",
"                 .+@@+.   .+@@+.",
"                .+@@@+.  .+@@@+.",
"               .+@@@@+. .+@@@@+.",
"              .+#####+..+#####+.",
"             .+######+.+######+.",
"            .+$$$$$$$$+$$$$$$$+.",
"           .+$$$$$$$$$$$$$$$$$+.",
"          .+$$$$$$$$$$$$$$$$$$+.",
"         .+$$$$$$++$$$$$$+$$$$+.",
"        .+$$$$$$+.+$$$$$++$$$$+.",
"       .+$$$$$$+..+$$$$+.+$$$$+.",
"      .+$$$$$$+. .+$$$+..+$$$$+.",
"     .+$$$$$$+.  .+$$+. .+%%%%+.",
"    .+%%%%%%+.   .+$+.  .+%%%%+.",
"   .+&&&&&&+.    .++.   .+&&&&+.",
"  .+&&&&&&+.     .+.    .+&&&&+.",
" .+&&&&&&+.      ..     .+&&&&+.",
".++++++++.       .      .++++++.",
".........               ........",
"                                ",
"                                ",
"                                ",
"                                "};
