/* XPM */
static char *meshlab__[] = {
/* columns rows colors chars-per-pixel */
"32 32 80 1",
"  c #060606",
". c #0B0B0B",
"X c #10100F",
"o c #131312",
"O c #151B14",
"+ c #1D1D1D",
"@ c #142012",
"# c #21331D",
"$ c #242424",
"% c #2A2A2A",
"& c #313131",
"* c #3A3636",
"= c #3B3B3B",
"- c #334A2C",
"; c #354C31",
": c #335130",
"> c #46583E",
", c #424242",
"< c #474E47",
"1 c #4B4B4B",
"2 c #534D4D",
"3 c #535353",
"4 c #525A50",
"5 c #5B5B5B",
"6 c #615C5C",
"7 c #4E6A48",
"8 c #487044",
"9 c #4C7448",
"0 c #507E4C",
"q c #547A52",
"w c #5C7E5A",
"e c #636363",
"r c #6B6B6B",
"t c #627C60",
"y c #727272",
"u c #7D7575",
"i c #767A76",
"p c #7B7B7B",
"a c #52814E",
"s c #5A8C54",
"d c #61945B",
"f c #649A5E",
"g c #6D8C63",
"h c #718E65",
"j c #789A6A",
"k c #7F937E",
"l c #7CB473",
"z c #81B878",
"x c #88BE7E",
"c c #818181",
"v c #8B8B8B",
"b c #939393",
"n c #949A92",
"m c #9B9B9B",
"M c #8CBF82",
"N c #A4A4A4",
"B c #ACACAC",
"V c #AAB5A9",
"C c #B4B4B4",
"Z c #B7B9B7",
"A c #BDBDBD",
"S c #C2B9B9",
"D c #91C586",
"F c #93C489",
"G c #9AC28A",
"H c #9BCB8F",
"J c #A0CB90",
"K c #B5C0B5",
"L c #BDC6BD",
"P c #C3C3C3",
"I c #C7CDC7",
"U c #CBCBCB",
"Y c #D4D3D3",
"T c #DCDCDC",
"R c #E0DCDC",
"E c #E3E3E3",
"W c #EAEAEA",
"Q c #F5F5F4",
"! c #F8F8F8",
"~ c None",
/* pixels */
"~~~~~~~~~~~~~~~~~~~~~~~~~~~~~~~~",
"~~~~~~~~~~~~TEEEEEEE~~~~~~~~~~~~",
"~~~~~~~~~TTEEEEETTTTTYY~~~~~~~~~",
"~~~~~~~TTEEEEETTTYYYYUUPP~~~~~~~",
"~~~~~~EEEEEETTTYYUUUPPPABb~~~~~~",
"~~~~~EEWWEETTYYUPPPPAANp53,~~~~~",
"~~~~EWWWWETYYUPAAAABbr1*1ryb~~~~",
"~~~EEWWWETYYUPAACCv5,1rrbNCZZ~~~",
"~~~EWWWETYYUPAZBer1eicbbmmNNB~~~",
"~~TEWWEETYUPACvrppvvccppppcvbm~~",
"~~TEEEETYIPAAmmbvr131,1335erpc~~",
"~YTEEETYIAAACmr3=$%$+O++%&=3e1&~",
"~YTEEETUAAABc1&$ooX.o.. .o+%&$%~",
"~YTEETYPAZmr&O+oO>7:iby*.  .+$%~",
"~YEEETUPZb5$o4no@jFdVQTu   .o$%~",
"~TEWEYUAm5+O;gh#-GDsL!Eu..+%&&&~",
"~TWWTYPBy$&<8MJGJHzqW!T2oO+&&&&~",
"~EWETUAm5.3ZtfxDFlaK!QS+$%*&&&&~",
"~EETYPCb5$&BEk9a0wL!!R6+%,e,&&&~",
"~ETYUPCmr=$o%pZITQ!!Y6+==ev3&&&~",
"~~TYPACmc5,*$oo$,351$%=3rbB5&&&~",
"~~YIAAZNbcr531&%%&***5rpNCA5&&~~",
"~~UPAAACNmvciye3eeer5cbCAAA3&&~~",
"~~~AAAAAZBNmbbbvbbmNNCAAAAZ1&~~~",
"~~~AAAAAAAZZCCCCCZAAAAAAAAC=&~~~",
"~~~~AAAAAAAAAAAAAAAAAAAAAAN&~~~~",
"~~~~~AAAAAAAAAAAAAAAAAAAAAc~~~~~",
"~~~~~~AAAAAAAAAAAAAAAAAAAA~~~~~~",
"~~~~~~~AAAAAAAAAAAAAAAAAA~~~~~~~",
"~~~~~~~~~AAAAAAAAAAAAAA~~~~~~~~~",
"~~~~~~~~~~~AAAAAAAAAA~~~~~~~~~~~",
"~~~~~~~~~~~~~~~~~~~~~~~~~~~~~~~~"
};
