/* XPM */
static char *meshlab__[] = {
/* columns rows colors chars-per-pixel */
"48 48 116 2",
"   c #060606",
".  c #0B0B0B",
"X  c #0E120D",
"o  c #101A0F",
"O  c #141414",
"+  c #141C13",
"@  c #1B1C1B",
"#  c #221F1F",
"$  c #182416",
"%  c #1E201D",
"&  c #212A1E",
"*  c #23361F",
"=  c #242424",
"-  c #2C2B2B",
";  c #312E2E",
":  c #253223",
">  c #303E2A",
",  c #313131",
"<  c #383535",
"1  c #323C31",
"2  c #3B3C3B",
"3  c #32492D",
"4  c #374434",
"5  c #374C30",
"6  c #3B4C36",
"7  c #345331",
"8  c #3E613A",
"9  c #45623F",
"0  c #444444",
"q  c #4B4B4B",
"w  c #4F544E",
"e  c #535353",
"r  c #5B5A5A",
"t  c #645E5E",
"y  c #53694B",
"u  c #4A7347",
"i  c #4E724C",
"p  c #4D7C49",
"a  c #53744D",
"s  c #507E4C",
"d  c #5A6059",
"f  c #587652",
"g  c #547950",
"h  c #5B795A",
"j  c #636363",
"k  c #6C6C6C",
"l  c #6B736B",
"z  c #747474",
"x  c #7B7B7B",
"c  c #54824F",
"v  c #558450",
"b  c #578952",
"n  c #5D8F58",
"m  c #5D9258",
"M  c #63975D",
"N  c #62985C",
"B  c #6F8268",
"V  c #708B6F",
"C  c #679C60",
"Z  c #739566",
"A  c #728B70",
"S  c #799177",
"D  c #7A9C70",
"F  c #7A9279",
"G  c #71A16A",
"H  c #73A96B",
"J  c #7EB476",
"K  c #83937C",
"L  c #84A775",
"P  c #87A978",
"I  c #83BA7B",
"U  c #838383",
"Y  c #8B8787",
"T  c #8C8C8C",
"R  c #948B8B",
"E  c #849583",
"W  c #8C9E8B",
"Q  c #949494",
"!  c #9B9B9B",
"~  c #8FA18E",
"^  c #90A08E",
"/  c #89BF80",
"(  c #94BD86",
")  c #92A291",
"_  c #9FA09F",
"`  c #A3A3A3",
"'  c #ABA4A4",
"]  c #A5ACA4",
"[  c #ABABAB",
"{  c #A8B3A8",
"}  c #B3B3B3",
"|  c #BCB4B4",
" . c #BDBDBD",
".. c #8CC282",
"X. c #91C386",
"o. c #93C689",
"O. c #9CC58B",
"+. c #97C88B",
"@. c #9CCA8E",
"#. c #9BCB90",
"$. c #A1CC93",
"%. c #B7C1B7",
"&. c #BCC1BC",
"*. c #C3C3C3",
"=. c #CCC3C3",
"-. c #CCCCCC",
";. c #D4D4D4",
":. c #DAD6D6",
">. c #DCDCDC",
",. c #E1DFDF",
"<. c #E3E3E3",
"1. c #EAEAEA",
"2. c #F0EEEE",
"3. c #F4F4F4",
"4. c #F8F8F8",
"5. c None",
/* pixels */
"5.5.5.5.5.5.5.5.5.5.5.5.5.5.5.5.5.5.5.5.5.5.5.5.5.5.5.5.5.5.5.5.5.5.5.5.5.5.5.5.5.5.5.5.5.5.5.5.",
"5.5.5.5.5.5.5.5.5.5.5.5.5.5.5.5.5.5.5.5.5.<.<.<.<.<.<.5.5.5.5.5.5.5.5.5.5.5.5.5.5.5.5.5.5.5.5.5.",
"5.5.5.5.5.5.5.5.5.5.5.5.5.5.5.5.5.>.>.<.<.<.<.<.<.<.<.<.<.<.>.5.5.5.5.5.5.5.5.5.5.5.5.5.5.5.5.5.",
"5.5.5.5.5.5.5.5.5.5.5.5.5.5.>.>.>.<.<.<.<.<.<.<.>.>.>.>.>.>.>.:.;.;.5.5.5.5.5.5.5.5.5.5.5.5.5.5.",
"5.5.5.5.5.5.5.5.5.5.5.5.>.>.>.<.<.<.<.<.<.>.>.>.>.>.:.:.:.;.;.;.;.-.-.*.5.5.5.5.5.5.5.5.5.5.5.5.",
"5.5.5.5.5.5.5.5.5.5.5.>.>.<.<.<.<.<.<.<.>.>.>.>.:.;.;.;.;.;.-.-.-.-.*.*. .5.5.5.5.5.5.5.5.5.5.5.",
"5.5.5.5.5.5.5.5.5.<.<.<.<.<.<.<.<.<.>.>.>.>.:.;.;.-.-.-.-.-.-.*.*.*. . .} [ ! 5.5.5.5.5.5.5.5.5.",
"5.5.5.5.5.5.5.5.<.<.<.<.<.<.<.<.<.>.>.>.:.;.;.-.-.-.-.*.*.*.*.*. . . .[ U z k z 5.5.5.5.5.5.5.5.",
"5.5.5.5.5.5.5.<.<.<.1.1.1.<.<.<.>.>.:.;.;.;.-.-.*.*.*.*.*. . . . .! T r r 0 e < , 5.5.5.5.5.5.5.",
"5.5.5.5.5.5.<.<.1.1.1.1.1.<.<.>.>.:.;.;.-.*.*.*. . . . . .} [ Q z q 0 < 0 q r j k T 5.5.5.5.5.5.",
"5.5.5.5.5.5.<.<.1.1.1.1.1.<.>.>.:.;.-.-.*.*. . . . . .} ! Y z 0 2 e 0 q k U Q ! [ } 5.5.5.5.5.5.",
"5.5.5.5.5.<.<.1.1.1.1.1.<.<.>.:.;.;.-.*.*. . . .} } ` U r e 0 2 e k z z Q ` [ } |  . .5.5.5.5.5.",
"5.5.5.5.<.<.<.1.1.1.1.<.<.>.:.;.-.-.*.*. . . .} k k j q e r z z U T Q ! ` ` ` ` ' [ [ } 5.5.5.5.",
"5.5.5.5.<.<.<.1.1.1.<.<.>.:.;.-.-.*.*. . .} ! x e k k j x Y U U T T T T T T T T Q Q ! ` 5.5.5.5.",
"5.5.5.>.<.<.<.1.1.<.<.<.:.;.-.-.*.*. . .[ T z j U x U Y T Y U x x x z z z z x x U U T Q ! 5.5.5.",
"5.5.5.>.<.<.<.1.<.<.<.>.;.-.*.*.*. . .[ Q Q Q ! Q U x r r j q e q q r r r j j j k z x U Y 5.5.5.",
"5.5.5.>.<.<.<.<.<.<.>.:.-.*.*. . . . .} [ ! U x j q 2 , < , , - = , < , 2 0 0 q e j k z j < 5.5.",
"5.5.:.>.<.<.<.<.<.<.>.;.-.*. . . . .} ` T j e q , = = = = @ @ O O @ @ @ = - - < 0 e r r 2 , 5.5.",
"5.5.:.>.<.<.<.<.<.>.;.-.*. . . . .[ Q k q < , = O O O . . . . . .       . O @ = = - 2 , = = 5.5.",
"5.5.;.>.<.<.<.<.>.:.;.*. . . .} ` T j 2 - @ O . O @ & : : $ 2 q 0 < = O . . . . O @ @ = = - 5.5.",
"5.;.:.>.<.<.<.<.>.;.-.*. . .} ! x r , @ O = % X + > y f a 7 l ` ! Y k ,   .     . O @ @ = - - 5.",
"5.;.:.>.<.<.<.<.>.;.-.*. .[ T k 0 = . % d ] w X o 5 L ( J v E 3.1.,.| r   .       . O @ @ - , 5.",
"5.;.:.<.<.1.<.>.:.-.*. .} Q k 0 @ O & 6 B K 4 o $ 9 ( #.I b W 4.4.1.=.t   .   . O O @ = - , < 5.",
"5.;.>.<.1.1.<.>.;.-.*. .! z q @ O + 3 a D P 9 * 3 Z $.o.J p { 4.4.1.=.e   . . O - - , , , , < 5.",
"5.:.>.<.1.1.>.:.;.*. .[ x e = @ q 1 8 G X.$.O.( O.$.#./ C i <.4.4.<.| ; . O O O - , , , , , < 5.",
"5.>.<.1.1.<.>.;.-.*.} ! k < O < z x 9 M I o.@.@.$.+...H v W 3.4.3.:.R @ @ @ @ = - , , , , , < 5.",
"5.>.<.1.<.<.:.;.-. .} Q j = . 2 ! -.E u N I ....X.I H s A >.4.4.2.=.t O = - , 2 2 , , , , , , 5.",
"5.<.<.<.<.>.;.-.*. .[ T j 2 O - T ;.1.] h s b m n c g ^ <.4.4.3.>.R # = - , 2 e r < , , , , < 5.",
"5.5.<.<.>.:.;.-.*.} [ Q k q , @ = q Q *.&.) F V S ~ %.1.4.4.3.,.' < @ - , , r x z 2 , , , , 5.5.",
"5.5.<.>.>.;.-.*. .} ' Q z e 2 - = O O , r _ *.>.1.3.4.4.4.3.:.Y , @ , 0 0 q z T U 0 , , , , 5.5.",
"5.5.>.>.;.-.*.*. .} [ ! U k e 2 < , = O . . @ < r k x T Y j - @ - 2 2 e j U Q ` ! q , , , , 5.5.",
"5.5.5.:.;.-.*. . . .[ ` Q x k e q 0 0 2 - @ @ @ O O O O @ @ = 2 2 q 0 z U Q [ } ` q , , , , 5.5.",
"5.5.5.;.-.*. . . . .} ' ! T U z k j r r e - , - , < < 2 0 < < e j j x T [ }  . .` q , , , 5.5.5.",
"5.5.5.-.*.*. . . . . .} ` ! Q T U x z z k r r 0 r q j e k j q r T x [ }  . . . .! 0 , , , 5.5.5.",
"5.5.5.5.*. . . . . . . .} [ ` ! Q T Y U U x x k U k x x Y U U U ` [  . . . . . .Q 0 , , 5.5.5.5.",
"5.5.5.5. . . . . . . . . .} } [ ` ! ! Q Q Q Q Q ! Q ! ` ' [ } }  . . . . . . . .T 2 , , 5.5.5.5.",
"5.5.5.5.5. . . . . . . . . . . .} } } [ [ [ [ [ } } }  . . . . . . . . . . . . .U 2 , 5.5.5.5.5.",
"5.5.5.5.5.5. . . . . . . . . . . . . . . . . . . . . . . . . . . . . . . . . .} z < 5.5.5.5.5.5.",
"5.5.5.5.5.5. . . . . . . . . . . . . . . . . . . . . . . . . . . . . . . . . .[ r , 5.5.5.5.5.5.",
"5.5.5.5.5.5.5. . . . . . . . . . . . . . . . . . . . . . . . . . . . . . . . .! 0 5.5.5.5.5.5.5.",
"5.5.5.5.5.5.5.5. . . . . . . . . . . . . . . . . . . . . . . . . . . . . . . .Y 5.5.5.5.5.5.5.5.",
"5.5.5.5.5.5.5.5.5. . . . . . . . . . . . . . . . . . . . . . . . . . . . . . .5.5.5.5.5.5.5.5.5.",
"5.5.5.5.5.5.5.5.5.5.5. . . . . . . . . . . . . . . . . . . . . . . . . . .5.5.5.5.5.5.5.5.5.5.5.",
"5.5.5.5.5.5.5.5.5.5.5.5. . . . . . . . . . . . . . . . . . . . . . . . .5.5.5.5.5.5.5.5.5.5.5.5.",
"5.5.5.5.5.5.5.5.5.5.5.5.5.5. . . . . . . . . . . . . . . . . . . . .5.5.5.5.5.5.5.5.5.5.5.5.5.5.",
"5.5.5.5.5.5.5.5.5.5.5.5.5.5.5.5.5. . . . . . . . . . . . . . .5.5.5.5.5.5.5.5.5.5.5.5.5.5.5.5.5.",
"5.5.5.5.5.5.5.5.5.5.5.5.5.5.5.5.5.5.5.5. . . . . . . . .5.5.5.5.5.5.5.5.5.5.5.5.5.5.5.5.5.5.5.5.",
"5.5.5.5.5.5.5.5.5.5.5.5.5.5.5.5.5.5.5.5.5.5.5.5.5.5.5.5.5.5.5.5.5.5.5.5.5.5.5.5.5.5.5.5.5.5.5.5."
};
