/* XPM */
static char *sn_logo[] = {
/* columns rows colors chars-per-pixel */
"55 55 64 1 ",
"  c #8CB1D8",
". c #8CB2D8",
"X c #8CB6D8",
"o c #8CBAD8",
"O c #8CBED8",
"+ c #8CC2DA",
"@ c #8CC6DA",
"# c #8CC6DE",
"$ c #8CCADE",
"% c #8CCEDE",
"& c #8CCEE2",
"* c #8CD2E2",
"= c #8ED2E2",
"- c #92D2E6",
"; c #96D6E6",
": c #9AD6E6",
"> c #9ED6E6",
", c #9EDAE6",
"< c #9EDAEA",
"1 c #A2DAE6",
"2 c #A2DAEA",
"3 c #A6DAEA",
"4 c #AADAEA",
"5 c #A6DEEA",
"6 c #AADEEA",
"7 c #AEDEEA",
"8 c #AEDEEE",
"9 c #B2DEEA",
"0 c #B2DEEE",
"q c #B6DEEE",
"w c #B2E2EE",
"e c #B6E2EE",
"r c #BAE2EE",
"t c #BEE6EE",
"y c #BEE6F2",
"u c #C2E6F2",
"i c #CAE6F2",
"p c #C6EAF2",
"a c #CAEAF2",
"s c #CEEAF2",
"d c #D2EAF2",
"f c #D2EEF2",
"g c #D2EEF6",
"h c #D6EEF6",
"j c #DAEEF6",
"k c #DAF2F6",
"l c #DEF2F6",
"z c #E2F2F6",
"x c #E2F2FA",
"c c #E6F2FA",
"v c #E6F6FA",
"b c #EAF6FA",
"n c #EEF6FA",
"m c #EEFAFA",
"M c #F2FAFA",
"N c #F2FAFE",
"B c #F6FAFE",
"V c #FAFEFE",
"C c #FEFEFE",
"Z c white",
"A c white",
"S c white",
"D c white",
"F c None",
/* pixels */
"                                                      .",
"                                                       ",
"                         .Oo                           ",
"                       X7vNnh#                         ",
"                      .hCCCCCV=                        ",
"                      9CCCCCCCNo                       ",
"                      BCCCCCCCC2                       ",
"                     oCCCCCCCCCi                       ",
"           ..        oCCCCCCCCCt                       ",
"         =zCCl*       bCCCCCCCC&      @tllr+           ",
"        qCCCCCCq      *CCCCCCCx.     wCCCCCC>          ",
"       &CCCCCCCV$      >CCCCClo     :CCCCCCCV$         ",
"       dCCCCCCCCu       +5ay&.     .cCCCCCCCCg         ",
"      .lCCCCCCCCl.                 +VCCCCCCCCB.        ",
"      .lCCCCCCCCh                  +VCCCCCCCCC.        ",
"       8CCCCCCCC7         o.       oNCCCCCCCCb.        ",
"       ONCCCCCCvo       +ibk$       gCCCCCCCC0         ",
"        $bCCCCv+       XvCCCNO      +mCCCCCCxX         ",
"         o2uu-X   X$O  $CCCCC6  .X   @kVCCVfX          ",
"                 &NCVq %CCCCC4 &zmso  .+&*+            ",
"                oBCCCC$omCCCV@OVCCCj.                  ",
"                &CCCCCy @vCn$ ;CCCCCX                  ",
"                @CCCCC<       -CCCCB.                  ",
"                .aCCCNX       onCCCr        X%72@      ",
"                 X:a4o         o2w*.       &nCCCVhO    ",
"                                   .o     $VCCCCCCvX   ",
"                                  1vnuo   zCCCCCCCV3   ",
"                                 $VCCCt  OCCCCCCCCCz   ",
"                                 rCCCCbX $CCCCCCCCCbX  ",
"                      ;e2X       8CCCCz. @CCCCCCCCCz   ",
"                     3CCCj.      ONCCC,  .mCCCCCCCCr   ",
"                     BCCCC#       O0u#    :CCCCCCCmo   ",
"                     VCCCC$    o57@        5CCCCCn@    ",
"                     3CCCxX   OnCCC:        +6ha;X     ",
"                      =a,X    5CCCCc.                  ",
"               @sbl;          7CCCCn.                  ",
"              +nCCCV>         &CCCCt                   ",
"              tCCCCCm          ,bmp.   o$&O            ",
"              kCCCCCVo          XX   XrnCCVh#          ",
"              rCCCCCm               .hCCCCCCM$         ",
"              @mCCCB;               6CCCCCCCCb.        ",
"               +gmz-               XcCCCCCCCCC$        ",
"      owzmh&                       OBCCCCCCCCC2        ",
"     +vCCCCC0                      oMCCCCCCCCC,        ",
"     hCCCCCCC&                     .bCCCCCCCCC$        ",
"    +VCCCCCCCa                      3CCCCCCCCb.        ",
"    +CCCCCCCCz                      XsCCCCCCB+         ",
"    +CCCCCCCCd.                      X7NCCCf+          ",
"    XvCCCCCCC-                         o@#O.           ",
"     &VCCCCChX                                         ",
"      &xVVNt.                                          ",
"       XOOo                                            ",
"                                                       ",
"                                                       ",
"                                                       "
};
