/* XPM */
static char * jaaa_xpm[] = {
"32 32 338 2",
"  	c None",
". 	c #676D70",
"+ 	c #525C60",
"@ 	c #505A5E",
"# 	c #4F595D",
"$ 	c #4D575B",
"% 	c #4C565A",
"& 	c #4A5458",
"* 	c #495357",
"= 	c #475155",
"- 	c #465054",
"; 	c #444E52",
"> 	c #434D51",
", 	c #555C5F",
"' 	c #575D60",
") 	c #52595D",
"! 	c #52595C",
"~ 	c #535A5D",
"{ 	c #4E5559",
"] 	c #4D5457",
"^ 	c #51575A",
"/ 	c #353F43",
"( 	c #343E42",
"_ 	c #323C40",
": 	c #313B3F",
"< 	c #2F393D",
"[ 	c #2E383C",
"} 	c #2C363A",
"| 	c #2B3539",
"1 	c #293337",
"2 	c #283236",
"3 	c #263034",
"4 	c #3B4144",
"5 	c #BFBDB4",
"6 	c #BFBDB6",
"7 	c #CECAC5",
"8 	c #CEC8C4",
"9 	c #CDCBC7",
"0 	c #CDCAC5",
"a 	c #CDC9C4",
"b 	c #CCCAC6",
"c 	c #CDCAC6",
"d 	c #CCC9C4",
"e 	c #CCC9C5",
"f 	c #CCCCC7",
"g 	c #CCCBC7",
"h 	c #CBCBC6",
"i 	c #CCCBC6",
"j 	c #CBCAC6",
"k 	c #CACAC5",
"l 	c #CBCAC5",
"m 	c #CAC9C4",
"n 	c #CAC9C5",
"o 	c #C9C9C4",
"p 	c #C9C8C3",
"q 	c #A5A39B",
"r 	c #C1BEB5",
"s 	c #E4E0D4",
"t 	c #EEE9E2",
"u 	c #FFE1E1",
"v 	c #FFEAEA",
"w 	c #FDE3E3",
"x 	c #FFE5E5",
"y 	c #FFDCDC",
"z 	c #FFE2E2",
"A 	c #FDF5F5",
"B 	c #FFFFFF",
"C 	c #FDFDFD",
"D 	c #000000",
"E 	c #FDFCFB",
"F 	c #7EE277",
"G 	c #C9C3BB",
"H 	c #CCC6BE",
"I 	c #FFF1F1",
"J 	c #FDE0E0",
"K 	c #FFE8E8",
"L 	c #FFDFDF",
"M 	c #FDE9E9",
"N 	c #FFE7E7",
"O 	c #FCFCFB",
"P 	c #BDC3B0",
"Q 	c #CCC8BE",
"R 	c #DBD7CC",
"S 	c #FFEEEE",
"T 	c #FDDFDF",
"U 	c #FDE4E4",
"V 	c #CDC7BF",
"W 	c #BAB4AD",
"X 	c #D3CDC4",
"Y 	c #DEDACE",
"Z 	c #E3DFD9",
"` 	c #FCEDED",
" .	c #FCF4F4",
"..	c #FAECEC",
"+.	c #FCF1F1",
"@.	c #FCECEC",
"#.	c #FBEDED",
"$.	c #FCEEEE",
"%.	c #FCFCFC",
"&.	c #FBFBFB",
"*.	c #8F8F8F",
"=.	c #5A5A5A",
"-.	c #FAFAF9",
";.	c #C9C2BB",
">.	c #B2ACA6",
",.	c #C7C0B9",
"'.	c #EEECE6",
").	c #959595",
"!.	c #474747",
"~.	c #F8F8F8",
"{.	c #C3BCB6",
"].	c #ABA59F",
"^.	c #C1BBB4",
"/.	c #989898",
"(.	c #343434",
"_.	c #F3F3F3",
":.	c #C6C3B9",
"<.	c #D5D1C6",
"[.	c #E0DCD1",
"}.	c #FF0000",
"|.	c #9E9E9E",
"1.	c #242424",
"2.	c #E9E9E9",
"3.	c #D1CBC3",
"4.	c #BEB9B1",
"5.	c #D7D1C8",
"6.	c #E3E1DB",
"7.	c #9D9DFC",
"8.	c #010101",
"9.	c #CCC5BE",
"0.	c #B0AAA4",
"a.	c #C8C1BA",
"b.	c #C7C0BA",
"c.	c #ADA7A1",
"d.	c #C6BFB8",
"e.	c #C9C6BB",
"f.	c #CCC9BE",
"g.	c #DDDACE",
"h.	c #D3CDC5",
"i.	c #BCB7AF",
"j.	c #E6E4DE",
"k.	c #CDC6BF",
"l.	c #B3ADA6",
"m.	c #E2DFD3",
"n.	c #E7E5E4",
"o.	c #FFFAFA",
"p.	c #B3ADA7",
"q.	c #C7C1B9",
"r.	c #DDDBE6",
"s.	c #FFFCFC",
"t.	c #F9E0E7",
"u.	c #C6C0B9",
"v.	c #A8A39D",
"w.	c #C2BCB5",
"x.	c #EEEEFF",
"y.	c #CECABF",
"z.	c #E0DCD0",
"A.	c #E9E9FD",
"B.	c #D5CFC6",
"C.	c #BCB6AF",
"D.	c #D6D0C7",
"E.	c #DFDCD0",
"F.	c #E9E9FF",
"G.	c #E7E53C",
"H.	c #C8C730",
"I.	c #E2E043",
"J.	c #FDFDFF",
"K.	c #E8E8FF",
"L.	c #FAFAFD",
"M.	c #DDD9C0",
"N.	c #DCD9BE",
"O.	c #DDD9C1",
"P.	c #E2E2FF",
"Q.	c #EAEAFF",
"R.	c #F5F5FF",
"S.	c #EDEDFD",
"T.	c #FAFAFF",
"U.	c #CAC7BC",
"V.	c #CDCABF",
"W.	c #DDD9CE",
"X.	c #E1DDD2",
"Y.	c #D6D4E4",
"Z.	c #B6B6FF",
"`.	c #E7E7FF",
" +	c #FBFBFF",
".+	c #DEDAD0",
"++	c #DAD6CC",
"@+	c #E2E0DE",
"#+	c #9F9FFC",
"$+	c #C8C8FC",
"%+	c #EDEDFB",
"&+	c #FAFAFC",
"*+	c #E4E4FC",
"=+	c #E6E6FB",
"-+	c #EEEEFC",
";+	c #FBFBFC",
">+	c #F3F3FC",
",+	c #DAD6CB",
"'+	c #CAC5BC",
")+	c #D3D3FF",
"!+	c #9595FF",
"~+	c #AEAEFD",
"{+	c #CECEFF",
"]+	c #E8E8FD",
"^+	c #DADAFF",
"/+	c #E4E4FD",
"(+	c #EBEBFF",
"_+	c #FCFCFF",
":+	c #EDEDFF",
"<+	c #FCFCFA",
"[+	c #C8C4BA",
"}+	c #DAD6CA",
"|+	c #F0F0FF",
"1+	c #A3A3FF",
"2+	c #B1B1FD",
"3+	c #A0A0FF",
"4+	c #C9C9FD",
"5+	c #B0B0FF",
"6+	c #CACAFF",
"7+	c #F3F3FF",
"8+	c #D2D2FD",
"9+	c #C3C3FF",
"0+	c #CFCFFF",
"a+	c #D9D9FF",
"b+	c #F6F6FD",
"c+	c #F1F1FF",
"d+	c #DEDEFF",
"e+	c #F9F9FF",
"f+	c #DFDFFD",
"g+	c #BFBFFF",
"h+	c #FCFCFD",
"i+	c #FCFBFB",
"j+	c #CEC8C0",
"k+	c #7DD175",
"l+	c #B4C6A9",
"m+	c #EEECE5",
"n+	c #C8C8FF",
"o+	c #D3D3FD",
"p+	c #9D9DFF",
"q+	c #C1C1FD",
"r+	c #B1B1FF",
"s+	c #C9C9FF",
"t+	c #AAAAFD",
"u+	c #BCBCFF",
"v+	c #D7D7FD",
"w+	c #E9E8FB",
"x+	c #D0DEC2",
"y+	c #74D86D",
"z+	c #DBD7CB",
"A+	c #E4E2DC",
"B+	c #E1E1FC",
"C+	c #E9E9FB",
"D+	c #E7E7FC",
"E+	c #D1D1FC",
"F+	c #AEAEFB",
"G+	c #ACACFC",
"H+	c #A2A2FC",
"I+	c #A8A8FC",
"J+	c #9E9EFB",
"K+	c #C3C3FC",
"L+	c #B0B0FC",
"M+	c #9D9DFB",
"N+	c #9A9AFC",
"O+	c #9797FB",
"P+	c #C7C7F9",
"Q+	c #D5D0C7",
"R+	c #C6C9B9",
"S+	c #A2D097",
"T+	c #F2F2FF",
"U+	c #F4F4FF",
"V+	c #DDDDFD",
"W+	c #E1E1FF",
"X+	c #CBCBFF",
"Y+	c #CCCCFD",
"Z+	c #ACACFF",
"`+	c #AEAEFF",
" @	c #ADADFF",
".@	c #D4CFC5",
"+@	c #CDC8BF",
"@@	c #FEFEFF",
"#@	c #F5F5FD",
"$@	c #F8F8FF",
"%@	c #EFEFFF",
"&@	c #EAEAFD",
"*@	c #EBEBFD",
"=@	c #E5E5FF",
"-@	c #F1F1FD",
";@	c #DCDCFD",
">@	c #D5D5FF",
",@	c #DCDCFF",
"'@	c #DBDBFD",
")@	c #D2D2FF",
"!@	c #C0C0FD",
"~@	c #D4D4FB",
"{@	c #CBC7BE",
"]@	c #E1DDD3",
"^@	c #C0BBB3",
"/@	c #F9F9FD",
"(@	c #F8F8FD",
"_@	c #EEEEFD",
":@	c #ECECFB",
"<@	c #AEA8A2",
"[@	c #DCD8CC",
"}@	c #D5D2C9",
"|@	c #EAE7DF",
"1@	c #E7E5DC",
"2@	c #DEDBD3",
"3@	c #E7E5DD",
"4@	c #E2DFD7",
"5@	c #E3E1D9",
"6@	c #E9E6DE",
"7@	c #DBD9D1",
"8@	c #E9E7DF",
"9@	c #DAD8D0",
"0@	c #E6E4DC",
"a@	c #DCD9D2",
"b@	c #E4E1DC",
"c@	c #E5E2DC",
"d@	c #E5E2DA",
"e@	c #E0DDD5",
"f@	c #D8D6D0",
"g@	c #E7E4DC",
"h@	c #D1CBC2",
"i@	c #BAB5AC",
"j@	c #CEC8BF",
"k@	c #C8C5C1",
"l@	c #C7C3BF",
"m@	c #C5C2BD",
"n@	c #C7C4C0",
"o@	c #C5C2BE",
"p@	c #C6C3BE",
"q@	c #C8C5C0",
"r@	c #C4C0BC",
"s@	c #C2BFBB",
"t@	c #C3C0BB",
"u@	c #C4C1BC",
"v@	c #C7C4BF",
"w@	c #C9C5C1",
". + @ # $ % & * = - ; > , ' ) ! ~ { ] ^ / ( _ : < [ } | 1 2 3 4 ",
"5 6 7 8 9 0 a b c c d e f g h i i j h j k l l k m n n o p q r r ",
"s t u v w x y w v z v A B B C B D C B B C D B B C B B C E F G H ",
"s t z I J K L M v N B C B B C B D C B B C D B B C B B C O P Q R ",
"s t u S T v z U K I B C B B C B D C B B C D B D D D D D O V W X ",
"Y Z `  ...+.@.#.$.%.%.&.%.%.&.%.D D D D D D %.%.&.%.*.=.-.;.>.,.",
"s '.B B C B B C B B B C B B C B D C B B C D B B C ).!.~.E {.].^.",
"s '.B B C B B C B B B C B B C B D C B B C D B B /.(._.C E :.<.[.",
"s '.B B C }.}.}.B B B C B B C B D C B B C D B |.1.2.B C E 3.4.5.",
"R 6.%.%.&.}.7.}.%.%.%.&.%.%.&.%.D &.%.%.&.D %.8.D D D D -.9.0.a.",
"s '.B B C }.}.}.B B B C B B C B B C B B C B B B C B B C E b.c.d.",
"s '.B B C B 7.C B B B C B B C B B C B B }.}.}.B C B B C E e.f.g.",
"s '.B B C B 7.C B B B C B B C B B C B B }.7.}.B C B B C E h.i.5.",
"Y j.%.%.&.%.7.&.%.%.%.&.%.%.&.%.%.&.%.%.}.}.}.%.&.%.%.&.-.k.l.a.",
"m.n.B o.C B 7.C B B B C B B C B B C B B C 7.B B C B B C E 9.p.q.",
"s r.s.t.C B 7.C B B B C B B C B B C B B C 7.B B C B B C E u.v.w.",
"s 7.B x.C B 7.C B B B C B B C B B C B B C 7.B B C B B C O Q y.s ",
"z.7.C A.&.C 7.&.C C C &.}.}.}.C C &.C C &.7.C C &.C C &.-.B.C.D.",
"E.7.B F.C B 7.C B B B C }.7.}.B B C B B C 7.B B C B B C O G.H.I.",
"s 7.J.K.C B 7.C B J.B L.}.}.}.B B C B B C 7.B B C B B C E M.N.O.",
"s 7.P.Q.C B 7.C B R.B S.T.7.C B B C B B C 7.B B C B B C E U.V.W.",
"X.Y.Z.`.C B 7.C B R.B S.R.7.C B B C B B C 7.B B C  +B C E X..+++",
"W.@+#+$+%+&+7.&.%.*+%.=+-+7.&.%.;+&.%.;+&.7.%.%.&.>+%.&.-.s ,+'+",
"s '.)+!+~+{+7.]+x.^+B /+(+7.7._+:+C B R.C 7.B B L.Q.B C <+[+}+s ",
"s '.|+1+2+3+7.4+5+6+7+8+9+7.7.0+a+b+c+d+L.7.e+c+f+g+(+h+i+j+k+l+",
"s m+_+n+o+Z.p+7.7.7.7.7.7.7.7.7.7.7.7.p+q+7.r+s+t+!+u+v+w+[+x+y+",
"z+A+%.B+C+D+E+F+G+H+I+J+K+L+M+7.N+O+7.7.7.7.7.7.7.7.7.7.P+Q+R+S+",
"s '.B T+L.e+U+V+W+0+s+4+a+X+4+{+s+Y+6+Z+~+`+ @`+2+7.7.7.F+.@'++@",
"s '.B e+C B @@#@$@c+%@&@%@`.*@7+=@-@:+^+;@>@{+,@'@:+)@!@~@{@]@^@",
"s '.B B C B B C B @@ +L. + +/@J. +C @@%@/@x.Q.R.(@J.T._@:@k.<@a.",
"[@}@|@1@2@3@1@4@5@1@6@7@1@8@9@|@0@9@|@0@a@b@c@d@e@1@6@f@g@h@i@j@",
"k@l@k@k@m@n@k@o@p@k@q@r@k@k@s@k@k@t@k@k@u@v@k@n@m@k@q@t@k@k@w@k@"};
