/* XPM */
static char *gmidimonitor___[] = {
/* columns rows colors chars-per-pixel */
"64 64 16 1",
"  c #000200",
". c #3D2B22",
"X c #783417",
"o c #4B4436",
"O c #474E55",
"+ c #B63F18",
"@ c #575956",
"# c #565D64",
"$ c #6B6E6E",
"% c #D05A29",
"& c #72777B",
"* c #838990",
"= c #959A2B",
"- c #949EA6",
"; c #BEC6C8",
": c #D7D74D",
/* pixels */
";;;;;;;;;;;;;-;;;;;;;;;;;;;;;;;;                                ",
";------;;;;;;;-------;----------                                ",
";-------;;;;;--;;;----;;;-------                                ",
";------;--;--;---*---;----------                                ",
";;;;;;;;;;;;;;;;;;;;;;;;;;;;;;;;$$$$$$$$$$$$$$$$$$$$$$$$$$$$$$$$",
"&@@@@@@@@@@@@@@@@@@@@@@@@@@@@@@@@@@@@@@@@@@@@@@@@@@@@@@@@@@@@@@@",
"&#&&&&&&&&&&&&&&*@@@@@@@@@@@@@@@@@@@@@@@@@@@@@@@@@@@@@@@@@@@@@@@",
"&#@@@@@.%%.@@@@@$@@@@@#.#@@@@@@@@@@@@@@@@;$  @@@@@@@@@@@=oo=@@@@",
"&#@@@@o%+%+.@@@@$@@@@@@*o@@@@@@@@@@@@@@..;;  @@@@@@@@@@@:..:o@@@",
"&#@@@@X%;;%X#@@@$@@@@@@@o@O@@@@@@@@@@@O%+X$  @@@@@@@@@@@O@@O@@@@",
"&#@@@@X+;;%X#@@@$@@@@@@#$*$O@@@@@@@@@@OXX&;. @@@@@@@@@@@=OO=@@@@",
"&#@@@@@++++o@@@@$@@@@@@@o;$.O@@@@@@@@@#@.;$oo@@@@@@@@@@@:oo:o@@@",
"&#@@@@@OX.o@@@@@$@@@@@@@OOo@@@@@@@@@@@@@@ooo.@@@@@@@@@@@Oo@O@@@@",
"&#@@@@$@@@@@@@@@$@@#@#@@@@@#@#@@@@@@@@@#$@@$$@@@@@@@@@#@$@@@@#@@",
"&#@@@#$$*&@*@@@@$@@$#@-@-$$$@&*$$@@@@@@*$#@&-@@@@@@@@@$*-$*@@-$@",
"&#@@@@$*$$$*$@@@$@@&$#$&*$@$#*&@#@@@@@@&&#&**@@@@@@@@@**-&$#&*@@",
"&#@@@@@#@@@$@@@@$@@@@@@@@@@@@@@@@@@@@@@@@@@@@@@@@@@@@@@@@@@@@@@@",
"&@@@@@@@@@@@@@@@@@@@@@@@@@@@@@@@@@@@@@@@@@@@@@@@@@@@@@@@@@@@@@@@",
"$OOOOOOOOOOOOOOOOOOOOOOOOOOOOOOOOOOOOOOOOOOOOOOOOOOOOOOOOOOOOOOO",
"&&$$$$$$$$$$$$$$$$$$$$$$$$$$$$$$$$$$$$$$$$$$$$$$$$$$$$$$$$$$$$$$",
"&&$$$$$$$$$$$$$$$$$$$$$$$$$$$$$$$$$$$$$$$$$$$$$$$$$$$$$$$$$$$$$$",
"&&-&-$-$-&*&&*$$&$-*$-$*&*&&*$$$$$$$$$$$$$$$$$$$$$$$$$$$$$$$$$$$",
"&&-&--&$&-*-&*$$&*-*$**-***--*$$$$$$$$$$$$$$$$$$$$$$$$$$$$$$$$$$",
"&&&$&&&$$&&$&&$$$$&&$&$&&&**&$$$$$$$$$$$$$$$$$$$$$$$$$$$$$$$$$$$",
"&&$$$$$$$$$$$$$$$$$$$$$$$$$$$$$$$$$$$$$$$$$$$$$$$$$$$$$$$$$$$$$$",
"&OOOOOOOOOOOOOOOOOOOOOOOOOOOOOOOOOOOOOOOOOOOOOOOOOOOOOOOOOOOOOOO",
"&OOOOOOOOOOOOOOOOOOOOOOOOOOOOOOOOOOOOOOOOOOOOOOOOOOOOOOOOOOOOOOO",
"&OOOOOOOOOOOOOOO#**&O&-#OO&#&O&$&##$#*O&#&OOOOOOOOOOOOOOOOOOOOOO",
"&OOOOOOOOOOOOOOO#*O#O#*OOO*&&#O--;&&O&&-#&OOOOOOOOOOOOOOOOOOOOOO",
"&OOOOOOOOOOOOOOOOOOOOOOOOOOOOOOOOOOOOOOOOOOOOOOOOOOOOOOOOOOOOOOO",
"&OOOOOOOOOOOOOOOOOOOOOOOOOOOOOOOOOOOOOOOOOOOOOOOOOOOOOOOOOOOOOOO",
"&OOOOOOOOOOOOOOOOOOOOOOOOOOOOOOOOOOOOOOOOOOOOOOOOOOOOOOOOOOOOOOO",
"&OOOOOOOOOOOOOOOOOOOOOOOOOOOOOOOOOOOOO#OOOOOOOOOOOOO#OOOO$OOOOOO",
"&O#OOOOOOOOOOOOO#@OOOO-#&O&*OO--&;O*#-*&OO#O-O-@-@O&OO-*--OOOO*&",
"&O**OOOOOOOOOOOOO-&-OO*-**#*O##O&*O-&-*&OO#O-&-O-#O#@#O--*O*OO#&",
"&OOOOOOOOOOOOOOOOOOOOOOOOOOOOOOOOOOOOOOOOOOOOOOOOOOOOOOOOOOOOOOO",
"&OOOOOOOOOOOOOOOOOOOOOOOOOOOOOOOOOOOOOOOOOOOOOOOOOOOOOOOOOOOOOOO",
"&OOOOOOOOOOOOOOOOOOOOOOOOOOOOOOOOOOOOOOOOOOOOOOOOOOOOOOOOOOOOOOO",
"&O&OOOOOOOOOOOOOO*#&OO&&&&#$OO-OO&OOOO&OOO*&OOOOOOO#$&*&&*OOOOOO",
"&O#OOOOOOOOOOOOO#@OOOO*$&O--O#-*$;O-$-**OO#O*O;#-#O&OO*#--OOOO*&",
"&O**OOOOOOOOOOOOO-&*OO**&*O&O#OO&&#*#*&#OO#O*&*#*#O#$#O***O*OO#$",
"&OOOOOOOOOOOOOOOOOOOOOOOOOOOOOOOOOOOOOOOOOOOOOOOOOOOOOOOOOOOOOOO",
"&OOOOOOOOOOOOOOOOOOOOOOOOOOOOOOOOOOOOOOOOOOOOOOOOOOOOOOOOOOOOOOO",
"&OOOOOOOOOOOOOOOOOOOOOOOOOOOOOOOOOOOOOOOOOOOOOOOOOOOOOOOOOOOOOOO",
"&O*OOOOOOOOOOOOOO-&-OO*-**&*OO;OO-OOOO&OOO--OOOOOOO#@*---*OOOOOO",
"&O#OOOOOOOOOOOOO#@OOOOO-$O;-O#-OO-O-&&&-OO#OOO-O-#O&OO$O--OOOO&&",
"&OOOOOOOOOOOOOOOOOOOOOOOOOOOOOOOOOOOOOOOOOOOOOOOOOOO@OOOO$O#OOOO",
"&OOOOOOOOOOOOOOOOOOOOOOOOOOOOOOOOOOOOOOOOOOOOOOOOOOOOOOOOOOOOOOO",
"&OOOOOOOOOOOOOOOOOOOOOOOOOOOOOOOOOOOOOOOOOOOOOOOOOOOOOOOOOOOOOOO",
"&OOOOOOOOOOOOOOOOOOOOOOOOOOOOOOOOOOOOOOOOOOOOOOOOOOOOOOOOOOOOO*O",
"&O&OOOOOOOOOOOOO#--*&&&$OO*$*OOOOOO-*OOO#*#*;O&O##*OO#-OOOO##**O",
"&O&&OOOOOOOOOOOO#O-&O&-*OO--#OOOOOO*$$OO$&*&-O-#-&-OO&-OOOO-*-&#",
"&OOOOOOOOOOOOOOOOOOOOOOOOOOOOOOOOOOOO#OOOOOOOOOOOOOOOOO#OOOOOOOO",
"&OOOOOOOOOOOOOOOOOOOOOOOOOOOOOOOOOOOOOOOOOOOOOOOOOOOOOOOOOOOOOOO",
"&OOOOOOOOOOOOOOOOOOOOOOOOOOOOOOOOOOOOOOOOOOOOOOOOOOOOOOOOOOOOOOO",
"&OOOOOOOOOOOOOOOOOOOOOOOOOOO&O*OOOOOOOOOOOOOOOOOOOOOOO#OOOOOOOOO",
"&O#OOOOOOOOOOOOO#----***OO-$;O;OOOO-*OOO#-&-;O-@&&-OO$*OOOOOOOOO",
"&O**OOOOOOOOOOOO#O--O***OO-@*O-OOOO-*&OO#-&-*O-#-#-OOO*OOOOOOOOO",
"&OOOOOOOOOOOOOOOOOOOOOOOOOOOOOOOOOOOOOOOOOOOOOOOOOOOOOOOOOOOOOOO",
"&OOOOOOOOOOOOOOOOOOOOOOOOOOOOOOOOOOOOOOOOOOOOOOOOOOOOOOOOOOOOOOO",
"&OOOOOOOOOOOOOOOOOOOOOOOOOOOOOOOOOOOOOOOOOOOOOOOOOOOOOOOOOOOOOOO",
"&O*OOOOOOOOOOOOO#$*OO#OOOOOOOOOOOOO*&OOOOOOO*OOOOOOOOO-OOOOOOO*O",
"&O#OOOOOOOOOOOOO#&-&&$-*OO--&OOOOOO#&OOO$&*$-O-#-*-OO--OOOO**-*O",
"&O&&OOOOOOOOOOOO#O&*O$#$OO*$#OOOOOO&$&OO#&#&#O&#&O&OOO$#OOO&#&##"
};
