/* XPM */
static char * jack_capture_gui2_48_xpm[] = {
"48 48 529 2",
"  	c None",
". 	c #ACACB2",
"+ 	c #A8A7AA",
"@ 	c #D2D2D1",
"# 	c #C2C2C3",
"$ 	c #ADADB0",
"% 	c #B6B6B9",
"& 	c #A4A4AA",
"* 	c #959599",
"= 	c #949297",
"- 	c #95979F",
"; 	c #919197",
"> 	c #999A9F",
", 	c #AAACAC",
"' 	c #D0CECF",
") 	c #CACBCA",
"! 	c #ACACB1",
"~ 	c #CCCBC5",
"{ 	c #CCCAC9",
"] 	c #989A9B",
"^ 	c #FFFFFF",
"/ 	c #9E9E9F",
"( 	c #8B888B",
"_ 	c #707076",
": 	c #6F7076",
"< 	c #7C7E89",
"[ 	c #827D79",
"} 	c #595B64",
"| 	c #828387",
"1 	c #7F8084",
"2 	c #686967",
"3 	c #757173",
"4 	c #B2B2B4",
"5 	c #ABABB1",
"6 	c #A9ABAB",
"7 	c #ADAFB1",
"8 	c #8A8A8D",
"9 	c #A5A5AB",
"0 	c #8D8D92",
"a 	c #A9ADB4",
"b 	c #B2B2B5",
"c 	c #ADADB3",
"d 	c #AEAEB4",
"e 	c #A0A0A5",
"f 	c #A7A7AA",
"g 	c #A9A9B0",
"h 	c #969698",
"i 	c #929297",
"j 	c #9999A0",
"k 	c #A6A5AB",
"l 	c #A8A7AC",
"m 	c #A8A8AD",
"n 	c #AAAAAF",
"o 	c #9A9AA0",
"p 	c #ADAFB0",
"q 	c #B8B7BA",
"r 	c #B5B5B8",
"s 	c #B5B5B7",
"t 	c #B7B7B9",
"u 	c #B5B4B7",
"v 	c #ACACAF",
"w 	c #9F9FA0",
"x 	c #939395",
"y 	c #86868D",
"z 	c #8D8E96",
"A 	c #A5A5A7",
"B 	c #98989E",
"C 	c #9E9C95",
"D 	c #A6A7AC",
"E 	c #72747A",
"F 	c #7E7A7D",
"G 	c #767980",
"H 	c #74777E",
"I 	c #70716E",
"J 	c #6D6E74",
"K 	c #AFAFB5",
"L 	c #B3B5B4",
"M 	c #ADADB2",
"N 	c #6E6D6E",
"O 	c #6C6A69",
"P 	c #6F6D6D",
"Q 	c #B0B0B7",
"R 	c #AAAAAB",
"S 	c #939396",
"T 	c #9E9B9E",
"U 	c #767677",
"V 	c #797A7D",
"W 	c #9B9BA0",
"X 	c #B9B9BB",
"Y 	c #8E8E90",
"Z 	c #8E8E92",
"` 	c #83848A",
" .	c #8E8D91",
"..	c #9C9CA1",
"+.	c #9A9A9F",
"@.	c #95959C",
"#.	c #B4B5B5",
"$.	c #ACACAD",
"%.	c #868487",
"&.	c #717378",
"*.	c #8B8B8B",
"=.	c #8F8E90",
"-.	c #808086",
";.	c #777A79",
">.	c #6E7077",
",.	c #9A9799",
"'.	c #65666A",
").	c #4F535A",
"!.	c #616367",
"~.	c #B2B2B8",
"{.	c #B1B1B3",
"].	c #8F8F93",
"^.	c #A8A8AE",
"/.	c #8C8C91",
"(.	c #919196",
"_.	c #AAAAB0",
":.	c #B4B6B5",
"<.	c #A6A6A8",
"[.	c #B3B3B3",
"}.	c #7C7B7F",
"|.	c #72757D",
"1.	c #858688",
"2.	c #88868A",
"3.	c #908D92",
"4.	c #999BA1",
"5.	c #7C7A7D",
"6.	c #7D7E89",
"7.	c #8B8A8D",
"8.	c #B0B0B6",
"9.	c #B1B1B7",
"0.	c #B3B4B4",
"a.	c #A3A3AA",
"b.	c #ACADB3",
"c.	c #9C9DA3",
"d.	c #ABACB2",
"e.	c #BCBEBD",
"f.	c #D5D5D4",
"g.	c #D6D5D4",
"h.	c #AFAEB1",
"i.	c #ABABAE",
"j.	c #A4A4A9",
"k.	c #A2A2A9",
"l.	c #9B9A9D",
"m.	c #98999B",
"n.	c #9D9DA2",
"o.	c #C0C1BF",
"p.	c #DCD9D4",
"q.	c #DCDAD4",
"r.	c #ADADAE",
"s.	c #99999C",
"t.	c #A29EA1",
"u.	c #717078",
"v.	c #656B67",
"w.	c #99999B",
"x.	c #C3C3C3",
"y.	c #9C9CA2",
"z.	c #908C90",
"A.	c #8F8F94",
"B.	c #6F6F74",
"C.	c #808084",
"D.	c #9999A1",
"E.	c #DBD9D4",
"F.	c #DCDAD5",
"G.	c #A3A3A9",
"H.	c #A7A7AC",
"I.	c #9E9EA3",
"J.	c #ACACAE",
"K.	c #ADADAF",
"L.	c #A1A1A7",
"M.	c #7A7A7E",
"N.	c #909096",
"O.	c #A09FA0",
"P.	c #A2A2A5",
"Q.	c #A1A1A2",
"R.	c #626061",
"S.	c #848387",
"T.	c #88868B",
"U.	c #8A8B8E",
"V.	c #939294",
"W.	c #7B7A7D",
"X.	c #61636B",
"Y.	c #8E929A",
"Z.	c #7C7879",
"`.	c #A9A9AE",
" +	c #ABAAB0",
".+	c #A9A8AE",
"++	c #C1C2C0",
"@+	c #E1DFD9",
"#+	c #898A8F",
"$+	c #6D6D70",
"%+	c #909296",
"&+	c #AFB1B0",
"*+	c #8A898B",
"=+	c #8C8C8D",
"-+	c #9C9C9E",
";+	c #A6A6AC",
">+	c #919094",
",+	c #9D9CA1",
"'+	c #8C9198",
")+	c #C9CAC9",
"!+	c #BEBDBE",
"~+	c #C2C1C2",
"{+	c #C1C1C1",
"]+	c #BDBCBD",
"^+	c #CCCAC5",
"/+	c #BFC0BF",
"(+	c #DAD9D5",
"_+	c #DBD9D5",
":+	c #ABABAC",
"<+	c #939397",
"[+	c #AAA8A1",
"}+	c #64656D",
"|+	c #767679",
"1+	c #CACBC9",
"2+	c #7F7F7F",
"3+	c #4B4B4B",
"4+	c #4D4D4D",
"5+	c #4C4C4C",
"6+	c #92918F",
"7+	c #CCCBC6",
"8+	c #AFAFB2",
"9+	c #9E9EA1",
"0+	c #8B8B8F",
"a+	c #8A8A90",
"b+	c #A1A1A5",
"c+	c #838383",
"d+	c #535353",
"e+	c #515151",
"f+	c #575758",
"g+	c #525353",
"h+	c #545453",
"i+	c #525252",
"j+	c #5E5E5E",
"k+	c #4F4F4F",
"l+	c #959492",
"m+	c #828282",
"n+	c #72757A",
"o+	c #868689",
"p+	c #717171",
"q+	c #716E6D",
"r+	c #61646A",
"s+	c #6B6C6B",
"t+	c #8F8F92",
"u+	c #78787C",
"v+	c #88888C",
"w+	c #767678",
"x+	c #75767B",
"y+	c #898688",
"z+	c #949392",
"A+	c #C0C1C0",
"B+	c #DDDBD6",
"C+	c #DEDCD6",
"D+	c #B1B0B7",
"E+	c #626263",
"F+	c #5E5D5F",
"G+	c #595A5A",
"H+	c #616161",
"I+	c #676769",
"J+	c #656566",
"K+	c #595959",
"L+	c #5C5D5E",
"M+	c #5F5F60",
"N+	c #585859",
"O+	c #5A5959",
"P+	c #B4B5B4",
"Q+	c #969491",
"R+	c #989693",
"S+	c #979592",
"T+	c #6C6E72",
"U+	c #7E7E83",
"V+	c #A9AAB1",
"W+	c #A8A7AD",
"X+	c #565656",
"Y+	c #575757",
"Z+	c #565657",
"`+	c #69696A",
" @	c #56585A",
".@	c #5D5D5E",
"+@	c #696666",
"@@	c #686767",
"#@	c #545454",
"$@	c #555555",
"%@	c #ADADB4",
"&@	c #AEAEB5",
"*@	c #C2C2C8",
"=@	c #AFAEB4",
"-@	c #717174",
";@	c #707277",
">@	c #A9A8B1",
",@	c #EBEBEB",
"'@	c #99999D",
")@	c #888689",
"!@	c #8C8D94",
"~@	c #62666B",
"{@	c #726E6F",
"]@	c #5D5C5D",
"^@	c #7A7C82",
"/@	c #5B5D60",
"(@	c #767477",
"_@	c #5A5A5B",
":@	c #797A81",
"<@	c #605E5D",
"[@	c #AAAAB1",
"}@	c #C0C0C7",
"|@	c #85858A",
"1@	c #A9A9AB",
"2@	c #F0F0F0",
"3@	c #97979B",
"4@	c #868588",
"5@	c #8B8D93",
"6@	c #525152",
"7@	c #5E5E60",
"8@	c #626161",
"9@	c #575859",
"0@	c #5A5A5C",
"a@	c #606061",
"b@	c #5B5A58",
"c@	c #545555",
"d@	c #A9A8AA",
"e@	c #9F9FA4",
"f@	c #A3A4AA",
"g@	c #ACACB3",
"h@	c #808080",
"i@	c #4D4D4E",
"j@	c #4E4E4F",
"k@	c #929190",
"l@	c #A9A9B1",
"m@	c #AAABB1",
"n@	c #B9B9C2",
"o@	c #A6A5A5",
"p@	c #D2D2D0",
"q@	c #AAAAAA",
"r@	c #A6A8A7",
"s@	c #D0CFCF",
"t@	c #C8C9C8",
"u@	c #B1B0AB",
"v@	c #AAA8A4",
"w@	c #A9A8A3",
"x@	c #BAB9B4",
"y@	c #ACADAC",
"z@	c #B8B7B4",
"A@	c #B9B7B4",
"B@	c #94938F",
"C@	c #C4C4C0",
"D@	c #C5C4C0",
"E@	c #CBCAC7",
"F@	c #C1C0BD",
"G@	c #C2C1BD",
"H@	c #BFBFBA",
"I@	c #C5C4C3",
"J@	c #CBCAC5",
"K@	c #C3C3BF",
"L@	c #CECCC6",
"M@	c #C3C1BE",
"N@	c #C4C3BF",
"O@	c #C5C5C1",
"P@	c #CFCFD4",
"Q@	c #D0CFD4",
"R@	c #C9C7C2",
"S@	c #BFBFC4",
"T@	c #BFBFC5",
"U@	c #BDBEC3",
"V@	c #BDBDC2",
"W@	c #BDBDC3",
"X@	c #BEBFC4",
"Y@	c #BEBEC4",
"Z@	c #BEBEC3",
"`@	c #888A91",
" #	c #8A898F",
".#	c #787A7F",
"+#	c #706D6D",
"@#	c #9799A2",
"##	c #8A8C91",
"$#	c #8B8A8B",
"%#	c #81838A",
"&#	c #88858C",
"*#	c #8C8D90",
"=#	c #818186",
"-#	c #77777A",
";#	c #737275",
">#	c #84858B",
",#	c #848589",
"'#	c #8A8C8F",
")#	c #878990",
"!#	c #8D8B8C",
"~#	c #717379",
"{#	c #98999E",
"]#	c #C7C7C8",
"^#	c #ABABAB",
"/#	c #6D6E71",
"(#	c #86868A",
"_#	c #817F83",
":#	c #7A7C83",
"<#	c #73757C",
"[#	c #6B6D73",
"}#	c #8F9096",
"|#	c #838387",
"1#	c #7F7E83",
"2#	c #8E9098",
"3#	c #898788",
"4#	c #7F8187",
"5#	c #7B7B7E",
"6#	c #82848C",
"7#	c #7F7C7E",
"8#	c #787577",
"9#	c #94949E",
"0#	c #848489",
"a#	c #6F6D6F",
"b#	c #6A6D73",
"c#	c #696663",
"d#	c #9F9FAA",
"e#	c #787A80",
"f#	c #7A7878",
"g#	c #7C7F88",
"h#	c #717175",
"i#	c #7B7B7C",
"j#	c #7B7A7F",
"k#	c #76777A",
"l#	c #A5A4A9",
"m#	c #686769",
"n#	c #707278",
"o#	c #919195",
"p#	c #7F7E7D",
"q#	c #92929C",
"r#	c #85807E",
"s#	c #6D7078",
"t#	c #CACACB",
"u#	c #BEBEBE",
"v#	c #A5A4A8",
"w#	c #6D7279",
"x#	c #6B6B6E",
"y#	c #646465",
"z#	c #696C75",
"A#	c #797A83",
"B#	c #8B8B90",
"C#	c #9F9FA6",
"D#	c #646361",
"E#	c #9E9EA8",
"F#	c #7B7B7A",
"G#	c #808087",
"H#	c #7D7D80",
"I#	c #737780",
"J#	c #706A69",
"K#	c #716C6B",
"L#	c #B6B5B8",
"M#	c #B7B6B9",
"N#	c #B8B8BB",
"O#	c #B8B8BC",
"P#	c #B7B7BA",
"Q#	c #A4A3A6",
"R#	c #B6B6B8",
"S#	c #B8B8BA",
"T#	c #B4B4B7",
"U#	c #A8A7A9",
"V#	c #A3A3A5",
"W#	c #B9B8BB",
"X#	c #B9B8BC",
"Y#	c #A7A6A9",
"Z#	c #B0AFB2",
"`#	c #B9B9B9",
" $	c #CFCDC8",
".$	c #BABBBA",
"+$	c #A8ACAE",
"@$	c #E7C8C5",
"#$	c #E7C9C6",
"$$	c #C9B7B3",
"%$	c #BDBDBB",
"&$	c #D3D3D1",
"*$	c #FBA6A6",
"=$	c #FBA7A7",
"-$	c #BE8E8D",
";$	c #B7B9B9",
">$	c #C0C5C7",
",$	c #C1C6C8",
"'$	c #BFC5C7",
")$	c #FAA5A5",
"!$	c #F09F9F",
"~$	c #EE9D9D",
"{$	c #E99A9B",
"]$	c #ED9B9A",
"^$	c #DE9495",
"/$	c #FCA6A6",
"($	c #C1C6C9",
"_$	c #BDC2C4",
":$	c #BCC2C4",
"<$	c #AEB2B4",
"[$	c #F5A2A2",
"}$	c #BF7B72",
"|$	c #94615E",
"1$	c #CE8A89",
"2$	c #BA7D77",
"3$	c #DE989A",
"4$	c #AB6E6A",
"5$	c #FEA8A8",
"6$	c #C4C7C0",
"7$	c #7D8387",
"8$	c #828585",
"9$	c #8D9091",
"0$	c #F7A3A3",
"a$	c #E39391",
"b$	c #E19395",
"c$	c #D18A8B",
"d$	c #BD7E7E",
"e$	c #CD8786",
"f$	c #FDA7A7",
"g$	c #C2C7C9",
"h$	c #A8ABAE",
"i$	c #8C9093",
"j$	c #A8ACAD",
"k$	c #F8A4A4",
"l$	c #C1C6C7",
"m$	c #FCA8A8",
"n$	c #BF8E8D",
"o$	c #D18A89",
"p$	c #D28B8A",
"q$	c #B28C8A",
"r$	c #A2A6A6",
"s$	c #A3A7A7",
"t$	c #CACBC8",
"u$	c #CECECC",
"v$	c #CBCAC8",
"w$	c #979999",
"x$	c #969999",
"y$	c #9CA4A6",
"z$	c #A0A4A6",
"A$	c #A9ADAE",
"B$	c #A7ABAD",
"C$	c #A6AAAC",
"D$	c #A6ABAD",
". . . . . + @ # $ % & * = - ; > , ' ) . . . . . . . . . . . . . ! ~ { ] ^ / ( _ : < [ } | 1 2 3 ",
". . . . . + @ # 4 5 . . . . . . 6 ' ) . . . . . . . . . . . . . ! ~ { 7 8 9 . 0 a 5 5 5 5 5 5 5 ",
". . . . . + @ # b . . c d c . . 6 ' ) e f g h 5 i j k l m n o c ! ~ { p q r s t u s s s s s s s ",
"c c c 5 . + @ # v w & x y z . . 6 ' ) A ^ B C 5 D E F G H I J K ! ~ { L 5 . . . M . . c . c c . ",
"N O P Q . + @ # R ^ S T U V . . 6 ' ) W X 9 Y . Z `  ...W +.@.c ! ~ { #.$.# 5 %.&.*.=.-.9 ;.>.,.",
"'.).!.~.. + @ # {.].^./.(._.. . 6 ' ) . _.. . 5 . _.5 . . . . 5 ! ~ { :.<.[.M }.|.1.2.3.4.5.6.7.",
"8.~.9.5 . + @ # 4 d . d c . . . 6 ' ) . . . . . . . . . . . . . ! ~ { 0.a.a.g b.c . . c.o b.. d.",
". . . . . + @ # 4 c . . . . . . 6 ' ) . . . . . . . . . . . . . ! ~ { e.f.f.f.f.f.f.f.g.g.f.f.f.",
". . . . . + @ # h.i.j.k.l.m.. . 6 ' ) 5 n.c c c _.d . . . . . . ! ~ { o.p.q.q.q.q.q.q.q.q.q.q.q.",
". . . . . + @ # r.^ s.t.u.v.. . 6 ' ) w.x.y.z.A.B.C.D.. . . . . ! ~ { o.E.F.F.F.F.F.F.F.F.F.F.F.",
"G._.H.I.. + @ # J.K.L.M.N.O.. . 6 ' ) P.Q.G.R.S.T.U.V.. . . . . ! ~ { o.E.F.F.F.F.F.F.F.F.F.F.F.",
"W.X.Y.Z.c + @ # 4 5 . . . . . . 6 ' ) n `.. G.n  +.+d.. . . . . ! ~ { ++@+@+@+@+@+@+@+@+@+@+@+@+",
"#+$+%+Z . + @ # b . . b.. c . . 6 ' ) 5 5 5 5 5 5 5 5 5 5 5 5 5 5 ~ { &+*+=+=+=+=+=+=+=+=+=+=+=+",
"9 9 . . . + @ # $ -+;+>+,+'+. . 6 ' )+!+~+{+{+{+{+{+{+{+{+{+{+~+]+^+{ /+(+_+_+_+_+_+_+_+_+_+_+_+",
". . . . . + @ # :+^ <+[+}+|+. . 6 ' 1+2+3+4+4+4+4+4+4+4+5+4+4+3+6+7+{ o.E.F.F.F.F.F.F.F.F.F.F.F.",
". . . . . + @ # 8+9+9 0+a+b+. . 6 ' 1+c+d+e+f+g+h+d+e+i+j+i+i+k+l+7+{ o.E.F.F.F.F.F.F.F.F.F.F.F.",
". . . . . + @ # 4 d . d c . . . 6 ' 1+m+n+o+p+q+r+s+t+u+v+w+x+y+z+7+{ A+B+C+C+C+C+C+C+C+C+C+C+C+",
"D+d c . . + @ # 4 . . . . . . . 6 ' 1+m+E+F+G+H+I+G+J+K+L+M+N+O+l+7+{ P+Q+R+R+R+R+R+R+R+R+R+R+S+",
"T+U+].V+. + @ # {.m _.W+^.. . . 6 ' 1+c+X+Y+Z+`+ @H+.@+@@@#@$@d+l+7+{ L %@d d d d d d d d d &@*@",
"=@-@;@>@. + @ # J.,@'@)@!@. . . 6 ' 1+c+~@{@]@^@/@(@_@:@<@#@$@d+l+7+{ L [@. . . . . . . . . . }@",
"|@c K . . + @ # 1@2@3@4@5@. . . 6 ' 1+c+6@7@#@8@9@0@a@b@c@$@$@d+l+7+{ L [@. . . . . . . . . . }@",
"%@. . . . d@@ # b e@. f@9 . . g@6 ' 1+h@i@j@k+j@k+j@j@j@k+k+k+4+k@7+{ #.l@m@m@m@m@m@m@m@m@m@5 n@",
"d@d@d@d@d@o@p@# q@d@d@d@d@d@d@d@r@s@t@u@v@v@v@v@v@v@v@v@v@v@v@w@x@^+{ y@z@A@A@A@A@A@A@A@A@A@A@B@",
"C@C@C@C@C@D@E@F@G@C@C@C@C@C@C@C@H@I@J@C@D@D@D@D@D@D@D@D@D@D@D@D@K@L@M@F@N@N@N@N@N@N@N@N@N@N@N@O@",
"P@P@P@P@P@P@P@Q@P@P@P@P@P@P@P@P@P@Q@P@P@P@P@P@P@P@P@P@P@P@P@P@P@P@P@Q@P@P@P@P@P@P@P@P@P@P@P@P@P@",
"R@R@R@R@R@R@R@R@R@R@R@R@R@R@R@R@R@R@R@R@R@R@R@R@R@R@R@R@R@R@R@R@R@R@R@R@R@R@R@R@R@R@R@R@R@R@R@R@",
"S@S@T@U@V@S@S@S@S@S@S@W@T@S@V@X@S@S@S@S@Y@T@S@S@S@S@S@S@S@Z@V@S@T@S@T@U@V@T@S@S@S@S@S@T@U@S@Y@V@",
"`@!@ #.#+#@###$#%#&#*#=#-#m ;#>#A.,#'#)#!#~#{#_._._._._.5 ]#^#.+/#(#_#:#<#[#}#|#1#2#3#4#5#6#7#8#",
"9#0#a#b#c#d#e#f#g#h#i#j#k#l#m#n#o#G.p#q#r#s#8.5 5 5 5 5 . t#u#v#w#d.x#y#z#A#B#C#D#E#F#G#H#I#J#K#",
"L#M#N#N#O#s q P#t q P#P#q {.Q#N#% r P#R#P#S#T#u u u u u u U#V#% q u N#W#S#q % r X#r P#q Y#Z#N#`#",
" $ $ $ $ $ $ $ $ $ $ $ $ $ $ $ $ $ $ $ $ $ $ $ $ $ $ $ $ $ $ $ $ $ $ $ $ $ $ $ $ $ $ $ $ $ $ $ $",
".$.$.$.$.$.$.$.$.$.$.$.$.$.$.$.$.$.$.$.$.$.$.$.$.$.$.$.$.$.$.$.$.$.$.$.$.$.$.$.$.$.$.$.$.$.$.$.$",
"+$+$+$+$+$+$+$+$+$+$+$+$+$+$+$+$+$+$+$+$+$+$+$+$+$+$+$+$+$+$+$+$+$+$+$+$+$+$+$+$+$+$+$+$+$+$+$+$",
"@$@$@$@$@$@$@$@$@$@$@$@$@$@$@$@$@$@$@$@$@$@$@$@$@$@$@$@$@$#$$$%$&$&$&$&$&$&$&$&$&$&$&$&$&$&$&$&$",
"*$*$*$*$*$*$*$*$*$*$*$*$*$*$*$*$*$*$*$*$*$*$*$*$*$*$*$*$*$=$-$;$>$,$,$,$,$,$,$,$,$,$,$,$,$,$,$,$",
"*$*$*$*$*$*$*$*$*$*$*$*$*$*$*$*$*$*$*$*$*$*$*$*$*$*$*$*$*$=$-$;$'$,$,$,$,$,$,$,$,$,$,$,$,$,$,$,$",
"*$*$*$*$*$*$*$*$*$*$*$*$*$*$*$*$*$*$*$*$*$*$*$*$*$*$*$*$*$=$-$;$'$,$,$,$,$,$,$,$,$,$,$,$,$,$,$,$",
"*$*$*$*$*$*$*$*$*$)$!$*$~${$]$^$/$*$*$*$*$*$*$*$*$*$*$*$*$=$-$;$'$,$,$,$,$,$,$,$,$>$($_$:$<$,$,$",
"*$*$*$*$*$*$*$*$*$[$}$|$1$2$3$4$5$*$*$*$*$*$*$*$*$*$*$*$*$=$-$;$'$,$,$,$,$,$,$,$,$,$6$7$8$9$,$,$",
"*$*$*$*$*$*$*$*$*$0$a$b$c$d$/$e$f$*$*$*$*$*$*$*$*$*$*$*$*$=$-$;$'$,$,$,$,$,$,$,$,$>$g$h$i$j$,$,$",
"*$*$*$*$*$*$*$*$*$)$k$*$*$*$*$*$)$*$*$*$*$*$*$*$*$*$*$*$*$=$-$;$'$,$,$,$,$,$,$,$,$l$>$>$_$,$>$,$",
"*$*$*$*$*$*$*$*$*$*$*$*$*$*$*$*$*$*$*$*$*$*$*$*$*$*$*$*$*$=$-$;$'$,$,$,$,$,$,$,$,$,$,$,$,$,$,$,$",
"=$=$=$=$=$=$=$=$=$=$=$=$=$=$=$=$=$=$=$=$=$=$=$=$=$=$=$=$=$m$n$;$>$,$,$,$,$,$,$,$,$,$,$,$,$,$,$,$",
"o$o$o$o$o$o$o$o$o$o$o$o$o$o$o$o$o$o$o$o$o$o$o$o$o$o$o$o$o$p$q$&+r$s$s$s$s$s$s$s$s$s$s$s$s$s$s$s$",
"t$t$t$t$t$t$t$t$t$t$t$t$t$t$t$t$t$t$t$t$t$t$t$t$t$t$t$t$t$t$u$u$v$v$v$v$v$v$v$v$v$v$v$v$v$v$v$v$",
"w$x$x$x$x$x$x$x$x$x$x$x$x$x$x$x$x$x$x$x$x$x$x$x$x$x$x$x$x$x$x$x$x$x$x$x$x$x$x$x$x$x$x$x$x$x$x$x$",
"y$z$z$z$z$z$z$z$z$z$z$z$z$z$z$z$z$z$z$z$z$z$z$z$z$z$z$z$z$z$z$z$z$z$z$z$z$z$z$z$z$z$z$z$z$z$z$z$",
"A$B$C$C$C$C$C$C$B$C$C$C$B$+$+$+$+$B$C$C$C$B$C$C$C$D$C$C$C$B$C$C$C$C$C$C$C$C$C$C$C$C$C$C$C$C$C$C$"};
