/* XPM */
static char * fvwm-menu_xpm[] = {
"25 118 4 1",
" 	c None s None",
".	c white",
"X	c #c0c0c0",
"o	c black",
"                         ",
"                         ",
"                         ",
"                         ",
"                         ",
"                         ",
"                         ",
"    ...       ....       ",
"    .XXX    ...XXXX      ",
"    .XXXo  ..XXXXXXX     ",
"    .XXXo  .XXXXXXXXX    ",
"    .XXXo  .XXXXXXXXXo   ",
"    .XXXo ..XXXXXXXXXX   ",
"    .XXXo .XXXXoooXXXXo  ",
"    .XXXo .XXXXo  .XXXo  ",
"    .XXXo .XXXoo  .XXXo  ",
"    .XXXo..XXXo   .XXXo  ",
"    .XXXXXXXXXo   .XXXo  ",
"    .XXXXXXXXXo  ..XXXo  ",
"     XXXXXXXXXo   XXXoo  ",
"      ooooooooo    ooo   ",
"                         ",
"                         ",
"         .......         ",
"       ...XXXXXXX.       ",
"      ..XXXXXXXXXXX      ",
"     ..XXXXXXXXXXXXX     ",
"    ..XXXXXXXXXXXXXXX    ",
"    .XXXXXXXXXXXXXXXXo   ",
"    .XXXXoooXXXooXXXXXo  ",
"    .XXXoo  .XXo  XXXXo  ",
"    .XXXo  ..XXX  .XXXo  ",
"    .XXXX...XXXXo .XXXo  ",
"     XXXXXXXXXXXo .XXXo  ",
"     .XXXXXXXXXXXo.XXXo  ",
"      XXXXXXXXXXoo XXoo  ",
"       XXXXXXXXXo   oo   ",
"        XXXXXXooo        ",
"         oooooo          ",
"                         ",
"                         ",
"         ............    ",
"        ..XXXXXXXXXXXX   ",
"        .XXXXXXXXXXXXXo  ",
"        .XXXXXXXXXXXXXo  ",
"        .XXXXXXXXXXXXXo  ",
"        .XXXXXXXXXXXXXo  ",
"         XXXXoooooooooo  ",
"          XXXo           ",
"          .XXX.......    ",
"         ..XXXXXXXXXXX   ",
"        ..XXXXXXXXXXXXo  ",
"        .XXXXXXXXXXXXXo  ",
"        .XXXXXXXXXXXXXo  ",
"        .XXXXXXXXXXXXXo  ",
"        .XXXXoooooooooo  ",
"         XXXXo           ",
"        ..XXXX.......    ",
"        .XXXXXXXXXXXXX   ",
"        .XXXXXXXXXXXXXo  ",
"        .XXXXXXXXXXXXXo  ",
"        .XXXXXXXXXXXXXo  ",
"         XXXXXXXXXXXXXo  ",
"          ooooooooooooo  ",
"        ..               ",
"        .XX..            ",
"        .XXXXX...        ",
"         XXXXXXXXX...    ",
"          oXXXXXXXXXXX   ",
"            ooXXXXXXXXo  ",
"            ...ooXXXXXo  ",
"        .....XXXXXXXXXo  ",
"        .XXXXXXXXXXXXXo  ",
"        .XXXXXXXXXXXooo  ",
"        .XXXXXXXooooo    ",
"        .XXXXXXXo.       ",
"         XXXXXXXXXX..    ",
"          ooXXXXXXXXXX   ",
"             oooXXXXXXo  ",
"         .....XXXXXXXXo  ",
"        ..XXXXXXXXXXXXo  ",
"        .XXXXXXXXXXXXXo  ",
"        .XXXXXXXXXXoooo  ",
"        .XXXXXXooooo     ",
"         XXooooo         ",
"          oo             ",
"        ..               ",
"        .X..             ",
"        .XXXX..          ",
"         XXXXXXX.        ",
"          XXXXXXXX..     ",
"           oXXXXXXXXX    ",
"             ooXXXXXXX   ",
"              ..oXXXXXo  ",
"           ....XXXXXXXo  ",
"         ...XXXXXXXXXXo  ",
"        ..XXXXXXXXXXXXo  ",
"        .XXXXXXXXXXXXoo  ",
"        .XXXXXXXXXoooo   ",
"        .XXXXXXXooo      ",
"        .XXXXoooo        ",
"   ...   XXooo           ",
"   .XXX ..oo             ",
"   .XXXo.XXX             ",
"   .XXXo.XXXo            ",
"   .XXXo.XXXo........    ",
"   .XXXXXXXXXXXXXXXXXX   ",
"   .XXXXXXXXXXXXXXXXXXo  ",
"    XXXXXXXXXXXXXXXXXXo  ",
"     XXXXXXXXXXXXXXXXXo  ",
"      XXXXXXXXXXXXXXXXo  ",
"       ooXXXooooooooooo  ",
"         XXXo            ",
"          ooo            ",
"                         ",
"                         ",
"                         ",
"                         "};
