/* XPM */
static char * amule_xpm[] = {
"48 48 811 2",
"  	c None",
". 	c #864F25",
"+ 	c #884E22",
"@ 	c #965D33",
"# 	c #7C4720",
"$ 	c #A8622E",
"% 	c #94603A",
"& 	c #6F421E",
"* 	c #874C1F",
"= 	c #B9733D",
"- 	c #834E25",
"; 	c #7B461E",
"> 	c #A5612D",
", 	c #B26D38",
"' 	c #774F30",
") 	c #894C1E",
"! 	c #BD7740",
"~ 	c #A05C29",
"{ 	c #75563E",
"] 	c #5E381E",
"^ 	c #5B341A",
"/ 	c #65432A",
"( 	c #7C481F",
"_ 	c #A5602C",
": 	c #C67F46",
"< 	c #8F5022",
"[ 	c #7E522F",
"} 	c #574030",
"| 	c #5C381E",
"1 	c #643A1D",
"2 	c #704523",
"3 	c #78583E",
"4 	c #8B4D1F",
"5 	c #B8713B",
"6 	c #BD723E",
"7 	c #864F26",
"8 	c #755840",
"9 	c #593A24",
"0 	c #61371C",
"a 	c #6A3B1C",
"b 	c #764824",
"c 	c #774E2B",
"d 	c #79461F",
"e 	c #A05925",
"f 	c #C67E46",
"g 	c #B06333",
"h 	c #815029",
"i 	c #7A624C",
"j 	c #564335",
"k 	c #58331C",
"l 	c #5B331A",
"m 	c #6C3B1B",
"n 	c #7B471D",
"o 	c #795435",
"p 	c #6E5944",
"q 	c #7D4C24",
"r 	c #B36836",
"s 	c #C8824A",
"t 	c #A55C28",
"u 	c #7B5231",
"v 	c #6F6963",
"w 	c #523F32",
"x 	c #4D2D19",
"y 	c #58321A",
"z 	c #75421C",
"A 	c #875027",
"B 	c #895D3C",
"C 	c #715236",
"D 	c #804B20",
"E 	c #C0783F",
"F 	c #C78048",
"G 	c #9F5A26",
"H 	c #725136",
"I 	c #482F21",
"J 	c #472919",
"K 	c #623619",
"L 	c #7D4A24",
"M 	c #A5734D",
"N 	c #977558",
"O 	c #725338",
"P 	c #7F4B22",
"Q 	c #C68047",
"R 	c #C57D45",
"S 	c #9A5224",
"T 	c #664E3A",
"U 	c #3E271B",
"V 	c #492A19",
"W 	c #64381B",
"X 	c #854E25",
"Y 	c #C49A79",
"Z 	c #A37956",
"` 	c #523D30",
" .	c #5E4939",
"..	c #774823",
"+.	c #C57F48",
"@.	c #C07940",
"#.	c #8E5225",
"$.	c #4C4743",
"%.	c #382C26",
"&.	c #362117",
"*.	c #502E19",
"=.	c #6B3D1B",
"-.	c #9A6842",
";.	c #896243",
">.	c #503929",
",.	c #59331A",
"'.	c #643F24",
").	c #74431F",
"!.	c #9C6031",
"~.	c #A86531",
"{.	c #95592B",
"].	c #685647",
"^.	c #392F29",
"/.	c #322016",
"(.	c #553018",
"_.	c #663C1E",
":.	c #61391C",
"<.	c #6E401D",
"[.	c #7E491F",
"}.	c #864E21",
"|.	c #985D30",
"1.	c #B98963",
"2.	c #A77247",
"3.	c #9A5C29",
"4.	c #7C6855",
"5.	c #2A2320",
"6.	c #362319",
"7.	c #60371A",
"8.	c #7D481E",
"9.	c #8B5222",
"0.	c #995A26",
"a.	c #A15F2A",
"b.	c #A7632C",
"c.	c #A9642E",
"d.	c #A36230",
"e.	c #955827",
"f.	c #7A6553",
"g.	c #2D2724",
"h.	c #482D1A",
"i.	c #8D5323",
"j.	c #9E5E29",
"k.	c #AC662E",
"l.	c #B36A31",
"m.	c #B66C32",
"n.	c #B66B31",
"o.	c #B1682F",
"p.	c #A8632C",
"q.	c #916642",
"r.	c #423125",
"s.	c #653C1D",
"t.	c #8C5021",
"u.	c #9E5D28",
"v.	c #B0662E",
"w.	c #B96E33",
"x.	c #C17336",
"y.	c #C57536",
"z.	c #C5783B",
"A.	c #C98651",
"B.	c #9B673D",
"C.	c #5F4229",
"D.	c #774620",
"E.	c #AC7B54",
"F.	c #CCA281",
"G.	c #C58552",
"H.	c #C77637",
"I.	c #D07D3D",
"J.	c #D68240",
"K.	c #E8BD9A",
"L.	c #FCFCFC",
"M.	c #F3EEEA",
"N.	c #AE7A51",
"O.	c #7B695A",
"P.	c #644B36",
"Q.	c #835530",
"R.	c #F0E5DD",
"S.	c #FDFDFD",
"T.	c #EED9C9",
"U.	c #D4884A",
"V.	c #D88644",
"W.	c #DB8F51",
"X.	c #F6EBE1",
"Y.	c #FEFEFE",
"Z.	c #CCAF96",
"`.	c #7E6956",
" +	c #6C5746",
".+	c #946C4D",
"++	c #FEFDFC",
"@+	c #EAC09D",
"#+	c #D88C4A",
"$+	c #DF9F68",
"%+	c #D7D5D4",
"&+	c #D7D6D5",
"*+	c #FDFDFC",
"=+	c #DACEC4",
"-+	c #83654C",
";+	c #635B53",
">+	c #8D6A4C",
",+	c #DDDCDC",
"'+	c #7D7B79",
")+	c #DDCDC0",
"!+	c #D8955C",
"~+	c #D49965",
"{+	c #5F5D5C",
"]+	c #747371",
"^+	c #EFEFEF",
"/+	c #E5DFD9",
"(+	c #837466",
"_+	c #524E4B",
":+	c #7D6149",
"<+	c #F5F5F4",
"[+	c #CBCBCA",
"}+	c #585654",
"|+	c #C3B8AE",
"1+	c #C09877",
"2+	c #B9987E",
"3+	c #C0BCB8",
"4+	c #EDEAE7",
"5+	c #B4A9A0",
"6+	c #7C7874",
"7+	c #52514F",
"8+	c #907E6C",
"9+	c #E4DFDA",
"0+	c #F9F9F8",
"a+	c #E0DFDE",
"b+	c #D6D3D1",
"c+	c #CAC5C1",
"d+	c #C9C7C4",
"e+	c #C9C7C5",
"f+	c #CECECF",
"g+	c #D1D2D1",
"h+	c #D2D2D2",
"i+	c #D1D0CF",
"j+	c #9C9B9A",
"k+	c #5A5855",
"l+	c #ABAAA7",
"m+	c #DAD8D6",
"n+	c #DDDDDC",
"o+	c #C2C2C2",
"p+	c #B1B0AD",
"q+	c #B7B6B5",
"r+	c #C9C9C8",
"s+	c #D2D2D1",
"t+	c #D5D6D5",
"u+	c #D3D3D2",
"v+	c #AEADAC",
"w+	c #6F6C6B",
"x+	c #9E9D9B",
"y+	c #878684",
"z+	c #6A6867",
"A+	c #B8B8B7",
"B+	c #BCBBBA",
"C+	c #A5A5A5",
"D+	c #9C9B9B",
"E+	c #9E9D9C",
"F+	c #AAAAAA",
"G+	c #B4B3B3",
"H+	c #B3B4B4",
"I+	c #B5B5B4",
"J+	c #B2B2B1",
"K+	c #989797",
"L+	c #53504E",
"M+	c #727170",
"N+	c #7C7977",
"O+	c #A2A1A1",
"P+	c #A6A5A4",
"Q+	c #6F6D6C",
"R+	c #9A9898",
"S+	c #9A9A9A",
"T+	c #999798",
"U+	c #9A9897",
"V+	c #9A999A",
"W+	c #9A9998",
"X+	c #898786",
"Y+	c #484543",
"Z+	c #7E7D7C",
"`+	c #C6C6C6",
" @	c #92918E",
".@	c #A1A0A0",
"+@	c #969594",
"@@	c #44413F",
"#@	c #7D7C7B",
"$@	c #9A9899",
"%@	c #999797",
"&@	c #999998",
"*@	c #7A7877",
"=@	c #545150",
"-@	c #A09F9F",
";@	c #C1C1C1",
">@	c #ACABAA",
",@	c #72706E",
"'@	c #B0B0AF",
")@	c #B2B1B0",
"!@	c #4C4948",
"~@	c #5C5A58",
"{@	c #929091",
"]@	c #979596",
"^@	c #959393",
"/@	c #949292",
"(@	c #706E6D",
"_@	c #828180",
":@	c #ABABAA",
"<@	c #B6B6B6",
"[@	c #757473",
"}@	c #626261",
"|@	c #BCBCBB",
"1@	c #BBBBBA",
"2@	c #848482",
"3@	c #504D4B",
"4@	c #7B7979",
"5@	c #908E8D",
"6@	c #8E8E8C",
"7@	c #8D8C8C",
"8@	c #8D8B8B",
"9@	c #8C8A8A",
"0@	c #8A8988",
"a@	c #797876",
"b@	c #A19F9E",
"c@	c #A8A7A7",
"d@	c #ABABA9",
"e@	c #ADACAB",
"f@	c #666463",
"g@	c #615C5A",
"h@	c #BDBCBB",
"i@	c #A9A8A7",
"j@	c #91908F",
"k@	c #6B6967",
"l@	c #878685",
"m@	c #858483",
"n@	c #838383",
"o@	c #81807F",
"p@	c #868685",
"q@	c #9D9C9B",
"r@	c #9E9D9D",
"s@	c #A29F9E",
"t@	c #948C86",
"u@	c #6D6055",
"v@	c #64574C",
"w@	c #60534A",
"x@	c #5E5B57",
"y@	c #676564",
"z@	c #6D6969",
"A@	c #504C4A",
"B@	c #656260",
"C@	c #6D6A66",
"D@	c #706964",
"E@	c #856348",
"F@	c #8E5E3A",
"G@	c #8B664A",
"H@	c #B7ADA4",
"I@	c #ABAAAA",
"J@	c #A2A2A2",
"K@	c #A0A0A0",
"L@	c #8A8A88",
"M@	c #7E7D7B",
"N@	c #7A7A78",
"O@	c #797877",
"P@	c #787776",
"Q@	c #7F7F7E",
"R@	c #9F9892",
"S@	c #956D4C",
"T@	c #955928",
"U@	c #AC6632",
"V@	c #B4713E",
"W@	c #9C795E",
"X@	c #807B76",
"Y@	c #625F5E",
"Z@	c #565452",
"`@	c #8B8580",
" #	c #A77A55",
".#	c #C77B3C",
"+#	c #C87534",
"@#	c #B56B2E",
"##	c #B29077",
"$#	c #A6A4A3",
"%#	c #9C9C9C",
"&#	c #9B9B9B",
"*#	c #767473",
"=#	c #737371",
"-#	c #747372",
";#	c #716F6D",
">#	c #71706F",
",#	c #757474",
"'#	c #A4A19F",
")#	c #927053",
"!#	c #915627",
"~#	c #A75C23",
"{#	c #C37030",
"]#	c #CF7A37",
"^#	c #C57A3F",
"/#	c #A09286",
"(#	c #706E6C",
"_#	c #535150",
":#	c #898888",
"<#	c #A29E9A",
"[#	c #AE7546",
"}#	c #CC7B38",
"|#	c #CE7936",
"1#	c #BC6A29",
"2#	c #A8622B",
"3#	c #A4866C",
"4#	c #9C948E",
"5#	c #9C9895",
"6#	c #989592",
"7#	c #716F6E",
"8#	c #6F6E6D",
"9#	c #6E6D6D",
"0#	c #706F6E",
"a#	c #706F6C",
"b#	c #736D69",
"c#	c #7A6664",
"d#	c #9E6E6C",
"e#	c #C05651",
"f#	c #8D4A25",
"g#	c #975322",
"h#	c #B06125",
"i#	c #C97533",
"j#	c #D07B38",
"k#	c #C17B42",
"l#	c #AD9F92",
"m#	c #929190",
"n#	c #565453",
"o#	c #4E4A47",
"p#	c #858482",
"q#	c #AAA7A4",
"r#	c #A98668",
"s#	c #C67A3B",
"t#	c #D07B37",
"u#	c #C06D2C",
"v#	c #A75D23",
"w#	c #8B5020",
"x#	c #805B3D",
"y#	c #8B6B50",
"z#	c #93735A",
"A#	c #78604C",
"B#	c #7D6450",
"C#	c #846750",
"D#	c #8C694F",
"E#	c #936C4D",
"F#	c #9C5443",
"G#	c #B64341",
"H#	c #D45350",
"I#	c #E36B6B",
"J#	c #BC614E",
"K#	c #A05523",
"L#	c #B86628",
"M#	c #CC7835",
"N#	c #C67B41",
"O#	c #A47F61",
"P#	c #9D9C9C",
"Q#	c #9C9C9B",
"R#	c #666361",
"S#	c #4F4C49",
"T#	c #8A8887",
"U#	c #8E8D8C",
"V#	c #867E76",
"W#	c #A87A53",
"X#	c #CE7B3A",
"Y#	c #C5712F",
"Z#	c #AE6124",
"`#	c #8D5120",
" $	c #6A3E1B",
".$	c #7C481E",
"+$	c #895023",
"@$	c #945929",
"#$	c #975B2B",
"$$	c #9B5D2B",
"%$	c #A5622E",
"&$	c #B0692F",
"*$	c #BF5532",
"=$	c #CE383D",
"-$	c #DD5A57",
";$	c #E46869",
">$	c #D08A7F",
",$	c #AE572A",
"'$	c #BA692C",
")$	c #CA7937",
"!$	c #A0724E",
"~$	c #746E69",
"{$	c #777573",
"]$	c #7E7C7B",
"^$	c #5E5B59",
"/$	c #5D5A58",
"($	c #63605F",
"_$	c #5E5C5A",
":$	c #6F5E50",
"<$	c #B06F3C",
"[$	c #A96532",
"}$	c #8B562D",
"|$	c #6B4425",
"1$	c #70421C",
"2$	c #864E20",
"3$	c #985B27",
"4$	c #AE672E",
"5$	c #B66C31",
"6$	c #C07235",
"7$	c #CC7A39",
"8$	c #D27E3C",
"9$	c #D3793F",
"0$	c #CC3739",
"a$	c #D24444",
"b$	c #DF625E",
"c$	c #D76A61",
"d$	c #965534",
"e$	c #734C33",
"f$	c #915F37",
"g$	c #6D5542",
"h$	c #555250",
"i$	c #585553",
"j$	c #4B4746",
"k$	c #3D3A39",
"l$	c #464342",
"m$	c #433F3C",
"n$	c #47403C",
"o$	c #574231",
"p$	c #5C432F",
"q$	c #352F2B",
"r$	c #443021",
"s$	c #78461D",
"t$	c #8C5322",
"u$	c #A05F29",
"v$	c #B26A30",
"w$	c #BD7034",
"x$	c #C97838",
"y$	c #D4803E",
"z$	c #D88544",
"A$	c #D98948",
"B$	c #D46542",
"C$	c #CF453E",
"D$	c #D25545",
"E$	c #C95E40",
"F$	c #995B32",
"G$	c #4C3B2F",
"H$	c #322E2B",
"I$	c #403A36",
"J$	c #433E3B",
"K$	c #383533",
"L$	c #3D3A38",
"M$	c #292422",
"N$	c #282321",
"O$	c #272422",
"P$	c #232120",
"Q$	c #2A2623",
"R$	c #262220",
"S$	c #2C2724",
"T$	c #2E2724",
"U$	c #4C2F1D",
"V$	c #905423",
"W$	c #A4612A",
"X$	c #B56D31",
"Y$	c #C17335",
"Z$	c #CF7C3A",
"`$	c #D68544",
" %	c #D98D4E",
".%	c #DA9153",
"+%	c #DA8A4E",
"@%	c #D67844",
"#%	c #CE6F3C",
"$%	c #C26F36",
"%%	c #AE6831",
"&%	c #594232",
"*%	c #333232",
"=%	c #373433",
"-%	c #3B3938",
";%	c #484645",
">%	c #73716F",
",%	c #8A837C",
"'%	c #9C785A",
")%	c #A6632C",
"!%	c #935422",
"~%	c #824D23",
"{%	c #744723",
"]%	c #6B3E20",
"^%	c #5C341C",
"/%	c #58331A",
"(%	c #7E4A1F",
"_%	c #915524",
":%	c #A6622B",
"<%	c #B56D32",
"[%	c #C37435",
"}%	c #D07E3B",
"|%	c #D78645",
"1%	c #DA8E51",
"2%	c #DA9356",
"3%	c #DA8F51",
"4%	c #D78544",
"5%	c #D07D3A",
"6%	c #C27435",
"7%	c #B46C32",
"8%	c #764B28",
"9%	c #614126",
"0%	c #6B4528",
"a%	c #7E4E2A",
"b%	c #915A33",
"c%	c #986137",
"d%	c #856851",
"e%	c #716C68",
"f%	c #706C6A",
"g%	c #6A6866",
"h%	c #3F3C3A",
"i%	c #3A3634",
"j%	c #868483",
"k%	c #8E8E8D",
"l%	c #8E7762",
"m%	c #A8652F",
"n%	c #B96828",
"o%	c #A55C23",
"p%	c #915322",
"q%	c #804C20",
"r%	c #71421C",
"s%	c #63371B",
"t%	c #59321A",
"u%	c #7C471E",
"v%	c #8F5424",
"w%	c #A4612B",
"x%	c #B56A31",
"y%	c #CD7A3A",
"z%	c #D78442",
"A%	c #D88A4A",
"B%	c #D98E4F",
"C%	c #D88949",
"D%	c #D68241",
"E%	c #CE7C3A",
"F%	c #BF7135",
"G%	c #B06A2F",
"H%	c #804E22",
"I%	c #79481F",
"J%	c #905222",
"K%	c #AC6025",
"L%	c #C57131",
"M%	c #D07A38",
"N%	c #BE7943",
"O%	c #967C68",
"P%	c #8E8D8A",
"Q%	c #8F8E8D",
"R%	c #514E4D",
"S%	c #302C2A",
"T%	c #747170",
"U%	c #A09F9E",
"V%	c #937257",
"W%	c #A36029",
"X%	c #B8692A",
"Y%	c #AA5E23",
"Z%	c #965522",
"`%	c #844D20",
" &	c #74451D",
".&	c #693B1B",
"+&	c #55301A",
"@&	c #75431D",
"#&	c #8A5022",
"$&	c #9E5F29",
"%&	c #B16830",
"&&	c #BB6F33",
"*&	c #C67637",
"=&	c #D27F3D",
"-&	c #D68341",
";&	c #D68443",
">&	c #D17E3D",
",&	c #C87738",
"'&	c #BA6E33",
")&	c #7B4B20",
"!&	c #7E4B20",
"~&	c #995622",
"{&	c #B36426",
"]&	c #CA7633",
"^&	c #D17A38",
"/&	c #C07334",
"(&	c #A07553",
"_&	c #A4A09D",
":&	c #918F8E",
"<&	c #4E4B49",
"[&	c #4D4B4A",
"}&	c #ACAAA9",
"|&	c #A69C94",
"1&	c #9E6C40",
"2&	c #B56B2C",
"3&	c #AD6023",
"4&	c #9A5722",
"5&	c #894F21",
"6&	c #77461E",
"7&	c #6D3E1C",
"8&	c #5C341A",
"9&	c #653A1B",
"0&	c #824B20",
"a&	c #925625",
"b&	c #A9652D",
"c&	c #B36A30",
"d&	c #BC6F34",
"e&	c #C57537",
"f&	c #CB7839",
"g&	c #BC7134",
"h&	c #AE682F",
"i&	c #895224",
"j&	c #73461E",
"k&	c #874D20",
"l&	c #A05A22",
"m&	c #BA6829",
"n&	c #CD7935",
"o&	c #CF7B38",
"p&	c #B47137",
"q&	c #AA9C8F",
"r&	c #ACAAA8",
"s&	c #393532",
"t&	c #3C3836",
"u&	c #7F7D7C",
"v&	c #8C8A89",
"w&	c #858280",
"x&	c #857463",
"y&	c #AC6E37",
"z&	c #B16425",
"A&	c #9F5922",
"B&	c #8C5022",
"C&	c #7A481E",
"D&	c #6F3F1C",
"E&	c #60361B",
"F&	c #55321A",
"G&	c #6A3D1C",
"H&	c #834D21",
"I&	c #9B5D28",
"J&	c #AA662D",
"K&	c #B46B30",
"L&	c #BF7234",
"M&	c #C07234",
"N&	c #B96E32",
"O&	c #A8642C",
"P&	c #885123",
"Q&	c #74461E",
"R&	c #76461E",
"S&	c #BF6C2C",
"T&	c #CE7A36",
"U&	c #C87B3C",
"V&	c #9D7958",
"W&	c #908983",
"X&	c #999897",
"Y&	c #9F9E9E",
"Z&	c #433D3A",
"`&	c #363330",
" *	c #696766",
".*	c #615E5C",
"+*	c #8C6440",
"@*	c #B46527",
"#*	c #895021",
"$*	c #6C411D",
"%*	c #56321A",
"&*	c #43291A",
"**	c #362921",
"=*	c #392D25",
"-*	c #443326",
";*	c #5C3B1F",
">*	c #744722",
",*	c #865026",
"'*	c #93592B",
")*	c #94592B",
"!*	c #8B5429",
"~*	c #724A28",
"{*	c #5D3F28",
"]*	c #513520",
"^*	c #53341C",
"/*	c #5E3A1D",
"(*	c #71431E",
"_*	c #8A5120",
":*	c #A85E24",
"<*	c #C16E2C",
"[*	c #CE7A38",
"}*	c #AD7346",
"|*	c #736B63",
"1*	c #7D7B7A",
"2*	c #3D3834",
"3*	c #363332",
"4*	c #4A4645",
"5*	c #464140",
"6*	c #433F3D",
"7*	c #4E4034",
"8*	c #5B3B22",
"9*	c #422E20",
"0*	c #302822",
"a*	c #22201F",
"b*	c #2A2828",
"c*	c #353333",
"d*	c #302F2D",
"e*	c #262424",
"f*	c #2F2E2E",
"g*	c #2B2A2A",
"h*	c #2C2B2A",
"i*	c #363535",
"j*	c #3B3A39",
"k*	c #363534",
"l*	c #404040",
"m*	c #3F3D3B",
"n*	c #2A2724",
"o*	c #38291E",
"p*	c #4D321E",
"q*	c #6C4223",
"r*	c #965F31",
"s*	c #71533C",
"t*	c #4C4947",
"u*	c #524F4D",
"v*	c #3B3634",
"w*	c #211D1A",
"x*	c #2C2826",
"y*	c #332F2D",
"z*	c #26211E",
"A*	c #282523",
"B*	c #2C2B2B",
"C*	c #2E2E2D",
"D*	c #1E1E1D",
"E*	c #1F1D1C",
"F*	c #2E2824",
"G*	c #312D2C",
"H*	c #34302E",
"I*	c #3A3735",
"J*	c #363331",
"                                                        .                                       ",
"                                                      + @                                       ",
"                                                    # $ %                                       ",
"                                                  & * = -                                       ",
"                                                  ; > , '                                       ",
"                                                  ) ! ~ {                                       ",
"                    ] ^ /                       ( _ : < [                                       ",
"                    } | 1 2 3                   4 5 6 7 8                                       ",
"                      9 0 a b c               d e f g h i                                       ",
"                      j k l m n o           p q r s t u v                                       ",
"                        w x y z A B         C D E F G H                                         ",
"                          I J K L M N       O P Q R S T                                         ",
"                            U V W X Y Z   `  ...+.@.#.$.                                        ",
"                            %.&.*.=.-.;.>.,.'.).!.~.{.].                                        ",
"                              ^./.(._.:.<.[.}.|.1.2.3.4.                                        ",
"                                5.6.7.8.9.0.a.b.c.d.e.f.                                        ",
"                                g.h.8.i.j.k.l.m.n.o.p.q.                                        ",
"                                r.s.t.u.v.w.x.y.z.A.= B.                                        ",
"                                C.D.E.F.G.H.I.J.K.L.M.N.O.                                      ",
"                                P.Q.R.S.T.U.V.W.X.Y.Y.Z.`.                                      ",
"                                 +.+Y.Y.++@+#+$+%+&+*+=+-+                                      ",
"                                ;+>+S.,+'+)+!+~+{+]+^+/+(+                                      ",
"                                _+:+<+[+}+|+1+2+3+&+L.4+5+6+                                    ",
"                                7+8+9+0+a+b+c+d+e+f+g+h+i+j+                                    ",
"                                k+l+m+n+o+p+q+r+s+t+u+v+w+x+y+                                  ",
"                                z+A+B+C+D+E+F+G+H+I+J+K+L+M+q+N+                                ",
"                                O+P+Q+R+S+T+U+R+V+W+S+X+Y+Z+`+ @                                ",
"                                .@+@@@#@S+$@$@T+T+%@&@*@=@-@;@>@                                ",
"                              ,@'@)@!@~@{@]@]@+@^@^@/@(@_@:@<@q+[@                              ",
"                              }@|@1@2@3@4@5@6@7@8@9@0@a@b@c@d@e@f@                              ",
"                              g@h@J+i@j@k@l@m@n@_@_@o@p@q@r@s@t@u@v@w@x@y@z@                    ",
"                  A@B@C@D@E@F@G@H@I@J@K@L@#@M@#@N@O@P@Q@+@S+R@S@T@U@V@W@X@'+Y@                  ",
"                  Z@l@`@ #.#+#@###$#%#&#+@*#=#-#;#>#>#,#9@'#)#!#~#{#]#^#/#U+(#                  ",
"                  _#:#<#[#}#|#1#2#3#4#5#6#7#8#9#0#a#b#c#d#e#f#g#h#i#j#k#l#m#n#                  ",
"                  o#p#q#r#s#t#u#v#w#x#y#z#A#B#C#D#E#F#G#H#I#J#K#L#M#N#O#P#Q#R#                  ",
"                  S#T#U#V#W#X#Y#Z#`# $.$+$@$#$$$%$&$*$=$-$;$>$,$'$)$!$~${$]$^$                  ",
"                  @@/$($_$:$<$[$}$|$1$2$3$4$5$6$7$8$9$0$a$b$c$d$e$f$g$3@h$i$j$                  ",
"                    k$l$m$n$o$p$q$r$s$t$u$v$w$x$y$z$A$B$C$D$E$F$G$H$I$J$K$L$                    ",
"                M$N$O$P$Q$  R$S$T$U$8.V$W$X$Y$Z$`$ %.%+%@%#%$%%%&%      *%=%-%l$;%              ",
"              >%X+,%'%)%!%~%{%]%^%/%(%_%:%<%[%}%|%1%2%3%4%5%6%7%8%9%0%a%b%c%d%e%f%g%h%          ",
"            i%j%k%l%m%n%o%p%q%r%s%t%u%v%w%x%6$y%z%A%B%C%D%E%F%G%H%I%J%K%L%M%N%O%P%Q%R%          ",
"            S%T%U%V%W%X%Y%Z%`% &.&+&@&#&$&%&&&*&=&-&;&J.>&,&'&:%)&!&~&{&]&^&/&(&_&:&<&[&        ",
"            i%]$}&|&1&2&3&4&5&6&7&8&9&0&a&b&c&d&e&7$X#f&y.g&h&i&j&k&l&m&n&o&p&q&r&Z+s&          ",
"            t&u&v&w&x&y&z&A&B&C&D&E&F&G&H&I&J&K&&&L&M&L&N&O&P&Q&R&w#v#S&T&U&V&W&X&Y&Z&          ",
"            `&/$ *R#.*+*@*A&#*$*%*&***=*-*;*>*,*'*)*!*~*{*]*^*/*(*_*:*<*[*}*|*7#*#1*2*          ",
"              3*4*5*6*7*8*9*0*a*b*c*      d*e*f*g*h*i*j*k*l*m*d*n*o*p*q*r*s*t*u*i$h$v*          ",
"              w*x*y*z*A*B*C*                                        D*E*F*0*G*H*I*J*            ",
"                                                                                                "};
