/* XPM */
static char * gnustep_xpm[] = {
"48 48 80 1",
" 	c None",
".	c #868686",
"+	c #9E9A9E",
"@	c #717579",
"#	c #696D71",
"$	c #696969",
"%	c #616569",
"&	c #595D61",
"*	c #595961",
"=	c #515559",
"-	c #515151",
";	c #494D51",
">	c #515551",
",	c #8E8E8E",
"'	c #86868E",
")	c #86828E",
"!	c #868286",
"~	c #717571",
"{	c #717171",
"]	c #616561",
"^	c #595959",
"/	c #494949",
"(	c #414141",
"_	c #383838",
":	c #303030",
"<	c #282828",
"[	c #181C18",
"}	c #101410",
"|	c #A6A6A6",
"1	c #969296",
"2	c #969696",
"3	c #797979",
"4	c #696D69",
"5	c #303430",
"6	c #282C28",
"7	c #202020",
"8	c #181818",
"9	c #080C08",
"0	c #000400",
"a	c #000000",
"b	c #96969E",
"c	c #AEAAAE",
"d	c #9E9E9E",
"e	c #616161",
"f	c #202420",
"g	c #080808",
"h	c #B6B2B6",
"i	c #797D79",
"j	c #494D49",
"k	c #101010",
"l	c #AEAEAE",
"m	c #8E8A8E",
"n	c #595D59",
"o	c #414541",
"p	c #383C38",
"q	c #303438",
"r	c #181C20",
"s	c #A6A2A6",
"t	c #D7D7D7",
"u	c #CFCFCF",
"v	c #C7C7C7",
"w	c #E7E7E7",
"x	c #FFFFFF",
"y	c #BEBEBE",
"z	c #101418",
"A	c #8E8E96",
"B	c #D7D3D7",
"C	c #F7F7F7",
"D	c #EFEFEF",
"E	c #DFDBDF",
"F	c #B6B6B6",
"G	c #F7F3F7",
"H	c #E7E3E7",
"I	c #DFDFDF",
"J	c #8E8A96",
"K	c #CFCBCF",
"L	c #FFFBFF",
"M	c #C7C3C7",
"N	c #BEBABE",
"O	c #EFEBEF",
"                                                ",
"                                                ",
"                                                ",
"                  .+@#$%&*=-;>                  ",
"              +,')!~{]^-/(_:<[}_/               ",
"            +|12,.34]^-/(_5678}90a              ",
"           +bcd,!34e^-/(_:6f[}9gaaaa            ",
"          |hcd,i{$e>j/(_:6f[8kg0aaaaa<          ",
"         bhl+mi{]n>j/(_56<78}90aaaaaaaa         ",
"        blcdm3{]n^-/op5:<f[}kgaaaaaaaaaa_qqqqqr ",
"       cl|+,3{$e^>jo(_56f78}90aaag8[[<8>aaaaaaa ",
"      sc|+,i{$en>-/op5:<f[}kgaaa}~ttuv|1<aaaaaa ",
"     slls1!~4]e^>jo(_56f78}90aaa6wxxxxxy.zaaaaa ",
"     lcs1.3{$en>-/op5:<f[}kg0aaa6txxxxxws{zaaaa ",
"    A|d1.i{4]e^>jo(_56f78}90aaaa6BxxxCDEF1$aaaa ",
"    |s2m!~{$en>-/op5:<f[}kg0aaaa6uxxGHIuys3zaaa ",
"   J|d1.i{4]e^>jo(_56f78}90aaaaa6KxxDIBKys.naaa ",
"   +d2m!~{$en>-/op5:<f[}kg0aaaaa6vxLwtuvFsm^aaa ",
"   d+1.i{4]e^>jo(_56f78}90aaaaaa6MxCHBKMNc14zaa ",
"  )sd1.3{$en>-/op5:<f[}kg0aaaaaa6yxDIuvyFc13^aa ",
"  2+1mi{4]e^>jo(_56f78}90aaaaaaa6NCOEKMNh|2.naa ",
"  .1,.3{$en>-/op56f78}kg0aaaaaaa6FGwBMNFl|+.]pa ",
"  {1,!~4]e^>jo(_6f[8}kg0aaaaaaaa6hDHuyFhcs1i4_a ",
"  $1,i{$en>-/op:f8}k9g0aaaaaaaaa6lwEKNhc|d,3$5a ",
"  $1m34]e^>jop5f}g9gg0aaaaaaaaaa6yGEvFl|s2m{]5a ",
"  $1.~4en>-/(_6[908}f}fkf9}<9k874ELEMhcsd1.4e5a ",
"  $,!~$e^>jop5<89}~hscd|++2N+,hMECOuFcsd2,!4n5a ",
"  $mi{]n>-/op:f8k6txxxxxxxxxxCxxxOuNl|d+1m3$n5a ",
"  ]!34e^>jo(_:f896txxxxxxxxxxLCDHBNl|s+2,i$n(7a ",
"  e~{$n>-/op567}96BxxxxxxLCDwHIBKNlcs+2,.3e>6aa ",
"  >]$e^>jo(_:<7}96BxxxLGDwHEtuKMNhcsd21m!{e^:aa ",
"   $]e^-/op56f[kg6BxxxGOHItuKMyFhc|d+1,.~$^(7aa ",
"   $]n>jo(_56f8kg6BxxxDHItBKvyNhl|s+1,.i{]>6gaa ",
"   ->>-/op5:<78906BxxLOIEBuvMNFl|s+2,m!~]np[aaa ",
"    j-j/(_:6f[}906uxxCHEtuvMNFlcsd21m.3{n-<aaaa ",
"    /ooo_:6f78kg06KxxDItuKMyFhc|d+1m.i~]>_[aaaa ",
"     ___567[8}9ga6vxxOEBKvyNhc|d+1,.i~]>5k0aaaa ",
"      op:7}kk9g0a6vxCwtuvyNhl|s+2,m!~4e-<0aaaaa ",
"       o6}9g00aaa6txLHBvMNFlcsd2,m!~]en_[aaaaaa ",
"  $4]n-pf:[8[[[[7iCxLIKMyFhcsd21m!~]-j59aaaaaaa ",
"  e]n-/5<qtIOEuKECxxwBvyFhc|d2,mi{e-:7kaaaaaaaa ",
"  ^^-/p:<[}FLxxxxxxHuMNFl|sd2m!~$e>6gaaaaaaaaaa ",
"  >-/(56f[kg5mhHHBvyhc|s+2,m!{]]^j59aaaaaaaaaaa ",
"  >j(56f7[}90a53m1|d1,m!i3~{{e>-_7kaaaaaaaaaaaa ",
"  -o5<7[8}kg0aaa6-{3i3~{4$]enpffkaaaaaaaaaaaaaa ",
"  o578}kk9g0aaaaaaa6ff55::6ffkaaaaaaaaaaaaaaaaa ",
"  g0aaaaaaaaaaaaaaaaaaaaaaaaaaaaaaaaaaaaaaaaaaa ",
"                                                "};
