/* XPM */
static char * gqview_xpm[] = {
"48 48 470 2",
"  	c None",
". 	c #000000",
"+ 	c #101010",
"@ 	c #0B0B0B",
"# 	c #121212",
"$ 	c #0F0F0F",
"% 	c #080808",
"& 	c #010101",
"* 	c #4D4D4D",
"= 	c #BEBEBE",
"- 	c #FDFDFD",
"; 	c #F9F9F9",
"> 	c #DADADA",
", 	c #BBBBBB",
"' 	c #9B9B9B",
") 	c #7D7D7D",
"! 	c #595959",
"~ 	c #272727",
"{ 	c #0D0D0D",
"] 	c #C0C0C0",
"^ 	c #FFFFFF",
"/ 	c #929292",
"( 	c #030303",
"_ 	c #4C4C4C",
": 	c #828282",
"< 	c #6E6E6E",
"[ 	c #C8C8C8",
"} 	c #A3A3A3",
"| 	c #C4C4C4",
"1 	c #E5E5E5",
"2 	c #FEFEFE",
"3 	c #FCFCFC",
"4 	c #313131",
"5 	c #8A8A8A",
"6 	c #95766D",
"7 	c #B23401",
"8 	c #8C3D05",
"9 	c #6C420A",
"0 	c #594916",
"a 	c #63643B",
"b 	c #747A61",
"c 	c #898C86",
"d 	c #ABABAB",
"e 	c #CBCBCB",
"f 	c #EEEEEE",
"g 	c #ACACAC",
"h 	c #191919",
"i 	c #A5A5A5",
"j 	c #8D4F3F",
"k 	c #C53900",
"l 	c #B34B00",
"m 	c #A25C00",
"n 	c #906E00",
"o 	c #7E8000",
"p 	c #6C9200",
"q 	c #5AA200",
"r 	c #42A101",
"s 	c #2F9906",
"t 	c #208B0A",
"u 	c #228419",
"v 	c #000B00",
"w 	c #1B1B1B",
"x 	c #BFBFBF",
"y 	c #882E17",
"z 	c #5BA300",
"A 	c #49B500",
"B 	c #37C700",
"C 	c #25D900",
"D 	c #14EA00",
"E 	c #024000",
"F 	c #464646",
"G 	c #1A1A1A",
"H 	c #1C1C1C",
"I 	c #D7D7D7",
"J 	c #EAEAEA",
"K 	c #972407",
"L 	c #036200",
"M 	c #D0D0D0",
"N 	c #F4F4F4",
"O 	c #B9B9B9",
"P 	c #9C9C9C",
"Q 	c #808080",
"R 	c #616161",
"S 	c #434343",
"T 	c #252525",
"U 	c #F1F1F1",
"V 	c #CCCCCC",
"W 	c #B12403",
"X 	c #036B00",
"Y 	c #C6C6C6",
"Z 	c #E8E8E8",
"` 	c #CACACA",
" .	c #ADADAD",
"..	c #909090",
"+.	c #727272",
"@.	c #545454",
"#.	c #363636",
"$.	c #1D1D1D",
"%.	c #B1B0B0",
"&.	c #C82500",
"*.	c #036100",
"=.	c #80867A",
"-.	c #B8B9B8",
";.	c #D9D9D9",
">.	c #F7F7F7",
",.	c #404040",
"'.	c #9F9493",
").	c #D72700",
"!.	c #024300",
"~.	c #4F9800",
"{.	c #49AC00",
"].	c #38A103",
"^.	c #2C9407",
"/.	c #3A9B23",
"(.	c #52A746",
"_.	c #6DAE68",
":.	c #8DB08D",
"<.	c #AEB0B6",
"[.	c #D1D1D1",
"}.	c #F0F0F0",
"|.	c #9A9A9A",
"1.	c #5C5C5C",
"2.	c #9C7974",
"3.	c #14E900",
"4.	c #011100",
"5.	c #090F00",
"6.	c #57A700",
"7.	c #4CB200",
"8.	c #40BE00",
"9.	c #34CA00",
"0.	c #29D500",
"a.	c #1DE100",
"b.	c #10D60E",
"c.	c #025D8C",
"d.	c #002FCD",
"e.	c #0125C0",
"f.	c #051EAD",
"g.	c #1828A8",
"h.	c #3C45B0",
"i.	c #5F63B6",
"j.	c #8282B3",
"k.	c #E6E6E6",
"l.	c #737373",
"m.	c #777777",
"n.	c #995E56",
"o.	c #11B400",
"p.	c #070707",
"q.	c #191D14",
"r.	c #284D01",
"s.	c #3C8E00",
"t.	c #16B522",
"u.	c #0249A7",
"v.	c #0037C7",
"w.	c #0030CE",
"x.	c #0028D6",
"y.	c #0021DD",
"z.	c #0019E5",
"A.	c #0012EC",
"B.	c #000AF4",
"C.	c #0609BC",
"D.	c #E3E3E3",
"E.	c #4B4B4B",
"F.	c #974136",
"G.	c #186A0E",
"H.	c #6A6A6A",
"I.	c #6D6D6D",
"J.	c #5B5B5B",
"K.	c #373737",
"L.	c #1D2F15",
"M.	c #196000",
"N.	c #168128",
"O.	c #0147B0",
"P.	c #003FBF",
"Q.	c #1E20A3",
"R.	c #B1B1B1",
"S.	c #952517",
"T.	c #23C300",
"U.	c #747B73",
"V.	c #939393",
"W.	c #5A5A5A",
"X.	c #131E30",
"Y.	c #001F5E",
"Z.	c #002EA5",
"`.	c #5052A5",
" +	c #A41707",
".+	c #458535",
"++	c #B8B8B8",
"@+	c #AFAFAF",
"#+	c #A6A6A6",
"$+	c #9D9D9D",
"%+	c #818181",
"&+	c #787878",
"*+	c #6F6F6F",
"=+	c #343434",
"-+	c #121A35",
";+	c #00146D",
">+	c #001BBC",
",+	c #8081A8",
"'+	c #171717",
")+	c #F5F5F5",
"!+	c #D4D4D4",
"~+	c #BF1603",
"{+	c #288A00",
"]+	c #696969",
"^+	c #B4B4B4",
"/+	c #C1C1C1",
"(+	c #B0B0B0",
"_+	c #A7A7A7",
":+	c #949494",
"<+	c #8B8B8B",
"[+	c #585858",
"}+	c #333333",
"|+	c #10153B",
"1+	c #00097D",
"2+	c #0009DC",
"3+	c #AFAFB3",
"4+	c #A0A0A0",
"5+	c #3D3D3D",
"6+	c #B5B4B4",
"7+	c #DD1500",
"8+	c #3E9700",
"9+	c #040C00",
"0+	c #484848",
"a+	c #6B6B6B",
"b+	c #848484",
"c+	c #B3B3B3",
"d+	c #BABABA",
"e+	c #9E9E9E",
"f+	c #959595",
"g+	c #797979",
"h+	c #2B2B2B",
"i+	c #040767",
"j+	c #DBDBDB",
"k+	c #7B7B7B",
"l+	c #A88D8C",
"m+	c #E91500",
"n+	c #4C8700",
"o+	c #081100",
"p+	c #010100",
"q+	c #1A1809",
"r+	c #515151",
"s+	c #B2B2B2",
"t+	c #A8A8A8",
"u+	c #9F9F9F",
"v+	c #757575",
"w+	c #303030",
"x+	c #161960",
"y+	c #A76461",
"z+	c #4A6200",
"A+	c #060A00",
"B+	c #020100",
"C+	c #534302",
"D+	c #3D7536",
"E+	c #016660",
"F+	c #00383C",
"G+	c #0A181A",
"H+	c #505050",
"I+	c #686868",
"J+	c #999999",
"K+	c #C2C2C2",
"L+	c #474747",
"M+	c #1C1A20",
"N+	c #654C7C",
"O+	c #A6332F",
"P+	c #795C00",
"Q+	c #2A2800",
"R+	c #0A0600",
"S+	c #344F1F",
"T+	c #0F855C",
"U+	c #008A74",
"V+	c #00827C",
"W+	c #007A84",
"X+	c #00738A",
"Y+	c #005471",
"Z+	c #012D44",
"`+	c #0A131A",
" @	c #353535",
".@	c #4E4E4E",
"+@	c #666666",
"@@	c #7F7F7F",
"#@	c #989898",
"$@	c #3E3E3E",
"%@	c #6E0206",
"&@	c #AE7F80",
"*@	c #E4E4E4",
"=@	c #232323",
"-@	c #850906",
";@	c #CA1300",
">@	c #BC2200",
",@	c #972B00",
"'@	c #652900",
")@	c #2A1700",
"!@	c #023119",
"~@	c #08814A",
"{@	c #009866",
"]@	c #00916D",
"^@	c #00738B",
"/@	c #006C92",
"(@	c #00649A",
"_@	c #005CA0",
":@	c #004180",
"<@	c #01214A",
"[@	c #09101A",
"}@	c #4A4A4A",
"|@	c #2D1416",
"1@	c #D5000B",
"2@	c #BEBABB",
"3@	c #B5B5B5",
"4@	c #151515",
"5@	c #000903",
"6@	c #00431A",
"7@	c #008B3F",
"8@	c #00A856",
"9@	c #00A05E",
"0@	c #005CA2",
"a@	c #0055A9",
"b@	c #004EB0",
"c@	c #0045B5",
"d@	c #002F8D",
"e@	c #011750",
"f@	c #090D19",
"g@	c #242424",
"h@	c #231A1B",
"i@	c #B10012",
"j@	c #B20A15",
"k@	c #F2F2F2",
"l@	c #838383",
"m@	c #181818",
"n@	c #AAAAAA",
"o@	c #253A0C",
"p@	c #0A6719",
"q@	c #00952B",
"r@	c #00B93F",
"s@	c #00B648",
"t@	c #00AF4F",
"u@	c #0046B8",
"v@	c #28229D",
"w@	c #8E0127",
"x@	c #BB001F",
"y@	c #E60018",
"z@	c #AB464D",
"A@	c #7AA983",
"B@	c #00D42A",
"C@	c #00CD31",
"D@	c #00C539",
"E@	c #00BE40",
"F@	c #003EBE",
"G@	c #481D82",
"H@	c #BA013E",
"I@	c #CC0032",
"J@	c #D90025",
"K@	c #E40018",
"L@	c #B19699",
"M@	c #ECECEC",
"N@	c #C7C7C7",
"O@	c #11A92A",
"P@	c #0C3EA8",
"Q@	c #70116A",
"R@	c #B4004A",
"S@	c #C0003E",
"T@	c #B6071C",
"U@	c #E9E9E9",
"V@	c #141414",
"W@	c #888888",
"X@	c #55975E",
"Y@	c #00DB22",
"Z@	c #0054A7",
"`@	c #322D8B",
" #	c #8D0463",
".#	c #A70057",
"+#	c #AD5863",
"@#	c #5F5F5F",
"##	c #7C9A7F",
"$#	c #01D11A",
"%#	c #00DC22",
"&#	c #174490",
"*#	c #61107B",
"=#	c #8E0070",
"-#	c #9B0063",
";#	c #C30223",
">#	c #D1CBCC",
",#	c #1E1E1E",
"'#	c #EDEDED",
")#	c #609263",
"!#	c #02D214",
"~#	c #00E31B",
"{#	c #12508A",
"]#	c #461A8A",
"^#	c #740088",
"/#	c #82007C",
"(#	c #A75565",
"_#	c #3B3B3B",
":#	c #B6B6B6",
"<#	c #FAFAFA",
"[#	c #9D9E9D",
"}#	c #1E6B21",
"|#	c #02CD0C",
"1#	c #00E513",
"2#	c #017B79",
"3#	c #164A8B",
"4#	c #3B169A",
"5#	c #5C00A1",
"6#	c #690095",
"7#	c #750089",
"8#	c #A91137",
"9#	c #E5E3E4",
"0#	c #EFEFEF",
"a#	c #2C2C2C",
"b#	c #1F1F1F",
"c#	c #F3F3F3",
"d#	c #D5D5D5",
"e#	c #B2B5B2",
"f#	c #8EAD92",
"g#	c #69A573",
"h#	c #459E57",
"i#	c #20933C",
"j#	c #07912F",
"k#	c #02A339",
"l#	c #00B146",
"m#	c #009064",
"n#	c #086083",
"o#	c #192FA3",
"p#	c #3305BB",
"q#	c #4400BA",
"r#	c #5000AE",
"s#	c #5C00A2",
"t#	c #AD033B",
"u#	c #C7B2B8",
"v#	c #656565",
"w#	c #868686",
"x#	c #B2B4B3",
"y#	c #8EA499",
"z#	c #699680",
"A#	c #466978",
"B#	c #292398",
"C#	c #1C07A2",
"D#	c #2602B3",
"E#	c #3500C0",
"F#	c #9E0445",
"G#	c #BDA3AC",
"H#	c #6C6C6C",
"I#	c #8D8D8D",
"J#	c #AEAEAE",
"K#	c #CECECE",
"L#	c #B2B2B3",
"M#	c #968EA4",
"N#	c #7D6996",
"O#	c #6A4586",
"P#	c #592072",
"Q#	c #580865",
"R#	c #6E036A",
"S#	c #89006C",
"T#	c #960061",
"U#	c #822256",
"V#	c #C8BEC3",
"W#	c #E0E0E0",
"X#	c #111111",
"Y#	c #161616",
"Z#	c #2E2E2E",
"`#	c #B3B2B3",
" $	c #ABA5AA",
".$	c #D8D8D8",
"+$	c #393939",
"@$	c #131313",
"#$	c #575757",
"$$	c #7A7A7A",
"%$	c #FBFBFB",
"&$	c #3C3C3C",
"*$	c #5E5E5E",
"=$	c #383838",
"                                                                                                ",
"                                                                                                ",
"                                                                                                ",
"                                                                                                ",
"                              . . . .                                                           ",
"                        . . + @ + # $ % . .                                                     ",
"                    . & * = - ; > , ' ) ! ~ . .                                                 ",
"                  . { ] ^ ^ ^ ^ ^ ^ ^ ^ ^ ^ / & .                                               ",
"                . ( _ ^ ^ ^ ^ ^ ^ ^ ^ ^ ^ ^ ^ : . .                                             ",
"              . .   < ^ ^ [ } | 1 2 ^ ^ ^ ^ ^ 3 4 .                                             ",
"            . .     5 ^ ^ 6 7 8 9 0 a b c d e f g . .                                           ",
"            .     h i ^ ^ j k l m n o p q r s t u v .                                           ",
"          .       w x ^ ^ y k l m n o p z A B C D E . F 4 w w G                                 ",
"          .       H I ^ J K k l m n o p z A B C D L . M ^ N I O P Q R S T H H                   ",
"        . .       G U ^ V W k l m n o p z A B C D X . Y ^ ^ ^ ^ ^ ^ ^ ^ 2 Z `  ...+.@.#.$.      ",
"        .         T ^ ^ %.&.k l m n o p z A B C D *.. =.-.;.>.^ ^ ^ ^ ^ ^ ^ ^ ^ ^ ^ ^ ^ = G     ",
"        .         ,.^ ^ '.).k l m n o p z A B C D !.. ~.{.].^./.(._.:.<.[.}.^ ^ ^ ^ ^ ^ |.      ",
"        .         1.^ ^ 2.).k l m n o p z A B C 3.4.5.6.7.8.9.0.a.b.c.d.e.f.g.h.i.j.k.^ l.      ",
"        .         m.^ ^ n.).k l m n o p z A B C o.p.q.r.s.8.9.0.t.u.v.w.x.y.z.A.B.C.D.^ E.      ",
"        .         / ^ ^ F.).k l m n o p z A B C G.H.I.J.K.L.M.N.O.P.v.w.x.y.z.A.B.Q.^ 2 ~       ",
"        .       h R.^ ^ S.).k l m n o p z A B T.U.V.5 Q m.< W.#.X.Y.Z.w.x.y.z.A.B.`.^ k.h       ",
"        .       w [.^ }. +).k l m n o p z A B .+++@+#+$+V.5 %+&+*+! =+-+;+>+z.A.B.,+^ | '+      ",
"        .       H )+^ !+~+).k l m n o p z A {+]+^+] /+O (+_+$+:+<+: &+*+[+}+|+1+2+3+^ 4+#       ",
"        . .     5+^ ^ 6+7+).k l m n o p z 8+9+0+a+b+P c+x /+d+(+_+e+f+<+: g+@.h+i+j+^ k+        ",
"          .     H.^ ^ l+m+).k l m n o p n+o+p+q+$.K.r+H.: ' s+x /+d+R.t+u+v+F w+x+- ^ @.        ",
"          . . # P ^ ^ y+m+).k l m n o z+A+B+C+D+E+F+G+H #.H+I+%+J+(+x K+^+* L+M+N+^ ^ h+        ",
"            . & ) 3 ^ O+m+).k l m P+Q+. R+S+T+U+V+W+X+Y+Z+`+H  @.@+@@@#@: L+$@%@&@^ *@h         ",
"              . . =@) -@;@>@,@'@)@p+. !@~@{@]@U+V+W+^@/@(@_@:@<@[@w }+* }@L+|@1@2@^ 3@4@        ",
"                  . . . . . . . 5@6@7@8@9@{@]@U+V+W+^@/@(@0@a@b@c@d@e@f@g@h@i@j@k@^ l@          ",
"                  m@4+n@l.o@p@q@r@s@t@8@9@{@]@U+V+W+^@/@(@0@a@b@u@P.v.v@w@x@y@z@^ ^ E.          ",
"                  0+2 ^ A@B@C@D@E@s@t@8@9@{@]@U+V+W+^@/@(@0@a@b@u@F@G@H@I@J@K@L@^ M@$.          ",
"                $.N@^ k.O@B@C@D@E@s@t@8@9@{@]@U+V+W+^@/@(@0@a@b@P@Q@R@S@I@J@T@U@^ d V@          ",
"                W@^ 2 X@Y@B@C@D@E@s@t@8@9@{@]@U+V+W+^@/@(@0@Z@`@ #.#R@S@I@J@+#^ ^ @#            ",
"              I.- 2 ##$#%#B@C@D@E@s@t@8@9@{@]@U+V+W+^@/@(@&#*#=#-#.#R@S@I@;#>#^ Z ,#            ",
"            ) 3 '#)#!#~#%#B@C@D@E@s@t@8@9@{@]@U+V+W+^@{#]#^#/#=#-#.#R@S@I@(#^ ^ 5 +             ",
"        _#:#<#[#}#|#1#~#%#B@C@D@E@s@t@8@9@{@]@U+2#3#4#5#6#7#/#=#-#.#R@S@8#9#^ 0#a#              ",
"    b#k+c#^ ^ ^ N d#e#f#g#h#i#j#k#l#t@8@9@m#n#o#p#q#r#s#6#7#/#=#-#.#R@t#u#^ ^ ) +               ",
"      w g@F v#w#_+N@Z ^ ^ ^ ^ N !+x#y#z#A#B#C#D#E#q#r#s#6#7#/#=#-#.#F#G#^ ^ N@$.                ",
"                  4@m@~ E.H#I#J#K#}.^ ^ ^ ^ N !+L#M#N#O#P#Q#R#S#T#U#V#^ ^ W#}+                  ",
"                              X#Y#h Z#r++.:+^+d#)+^ ^ ^ ^ N !+`# $)+^ ^ .$+$                    ",
"                                            @$m@w #.#$$$|., j+<#^ ^ %$$+~                       ",
"                                                        + 4@h $.&$*$=$4@                        ",
"                                                                                                ",
"                                                                                                ",
"                                                                                                ",
"                                                                                                ",
"                                                                                                ",
"                                                                                                "};
