/* XPM */
static char * inkscape_xpm[] = {
"48 48 57 1",
" 	c None",
".	c #000000",
"+	c #2A2A2A",
"@	c #2F2F2F",
"#	c #727272",
"$	c #FCFCFC",
"%	c #FFFFFF",
"&	c #9E9E9E",
"*	c #030303",
"=	c #010101",
"-	c #4E4E4E",
";	c #FEFEFE",
">	c #A6A6A6",
",	c #363636",
"'	c #F5F5F5",
")	c #9D9D9D",
"!	c #1C1C1C",
"~	c #E3E3E3",
"{	c #939393",
"]	c #0C0C0C",
"^	c #D2D2D2",
"/	c #8B8B8B",
"(	c #B1B1B1",
"_	c #8F8F8F",
":	c #CACACA",
"<	c #FBFBFB",
"[	c #D8D8D8",
"}	c #616161",
"|	c #909090",
"1	c #F9F9F9",
"2	c #1E1E1E",
"3	c #7A7A7A",
"4	c #E8E8E8",
"5	c #F0F0F0",
"6	c #1B1B1B",
"7	c #4C4C4C",
"8	c #696969",
"9	c #A0A0A0",
"0	c #464646",
"a	c #484848",
"b	c #212121",
"c	c #A9A9A9",
"d	c #929292",
"e	c #5F5F5F",
"f	c #1A1A1A",
"g	c #656565",
"h	c #6C6C6C",
"i	c #040404",
"j	c #050505",
"k	c #919191",
"l	c #666666",
"m	c #2B2B2B",
"n	c #505050",
"o	c #8D8D8D",
"p	c #B4B4B4",
"q	c #C7C7C7",
"r	c #383838",
"                                                ",
"                                                ",
"                                                ",
"                                                ",
"                                                ",
"                                                ",
"                       ..                       ",
"                     ......                     ",
"                    ...+@...                    ",
"                   ...#$%&*.=                   ",
"                  ...-;%%%>*.=                  ",
"                 ...,'%%%%%)=.=                 ",
"                ...!~%%%%%%%{..=                ",
"               ...]^%';%%%%%%/..=               ",
"              ...*(%%_:%%%%<[%}..=              ",
"             ....|%%123%45%5.67...=             ",
"            ....8%%%9.+;0a$5.......=            ",
"           ....bcd3ef..g..h5.........           ",
"          .................|..........          ",
"         ..................i...........         ",
"        ................................        ",
"       ..................................       ",
"      ....................................      ",
"      .....................................     ",
"      .....................................     ",
"      .....................................     ",
"         ..................................     ",
"            .............................       ",
"              ...*.....................         ",
"             ....jk9lm*.............            ",
"           ........]nopqr........               ",
"           .............*.......                ",
"            .....................               ",
"               ...................              ",
"                  .................             ",
"                   ...............              ",
"                   .............                ",
"                  ............                  ",
"                  ..........                    ",
"                     ........                   ",
"                      ........                  ",
"                      ......                    ",
"                                                ",
"                                                ",
"                                                ",
"                                                ",
"                                                ",
"                                                "};
