/* XPM */
static char * mplayer_xpm[] = {
"48 48 343 2",
"  	c None",
". 	c #A59FC1",
"+ 	c #ACA5C7",
"@ 	c #B5AECC",
"# 	c #B7B2CF",
"$ 	c #8E86B3",
"% 	c #AEA7C9",
"& 	c #B3AECC",
"* 	c #BCB7D2",
"= 	c #C7C2D9",
"- 	c #D0CCDF",
"; 	c #D7D3E4",
"> 	c #D9D6E6",
", 	c #DAD7E6",
"' 	c #CFCBDE",
") 	c #C3BED6",
"! 	c #B6B0CD",
"~ 	c #A9A3C5",
"{ 	c #9D96BC",
"] 	c #9088B4",
"^ 	c #847BAC",
"/ 	c #483A83",
"( 	c #322374",
"_ 	c #ADA8C8",
": 	c #B5AFCB",
"< 	c #BBB6D1",
"[ 	c #C7C2D8",
"} 	c #D0CDDF",
"| 	c #DCDAE7",
"1 	c #E4E2EC",
"2 	c #E5E3EE",
"3 	c #DCDAE8",
"4 	c #C4BFD7",
"5 	c #B7B1CE",
"6 	c #AAA4C5",
"7 	c #9E97BD",
"8 	c #9189B4",
"9 	c #857CAC",
"0 	c #786EA3",
"a 	c #6C619B",
"b 	c #5F5393",
"c 	c #52468A",
"d 	c #463982",
"e 	c #392B79",
"f 	c #CCEDF9",
"g 	c #CAECFA",
"h 	c #E1E2ED",
"i 	c #D5D2E2",
"j 	c #DBD9E7",
"k 	c #DEDBE8",
"l 	c #DFDCE9",
"m 	c #DFDDEA",
"n 	c #E0DDEA",
"o 	c #DFDDE9",
"p 	c #DEDCE9",
"q 	c #DDDAE8",
"r 	c #DBD8E6",
"s 	c #D7D4E4",
"t 	c #D2CFE1",
"u 	c #CECADE",
"v 	c #CAC6DB",
"w 	c #C6C1D8",
"x 	c #C2BDD5",
"y 	c #BDB9D2",
"z 	c #493D85",
"A 	c #EDF8FD",
"B 	c #FFFFFF",
"C 	c #F1EFF5",
"D 	c #8ED8F5",
"E 	c #C1CADF",
"F 	c #07A7E6",
"G 	c #B3E4F7",
"H 	c #D2EFFB",
"I 	c #31B5EA",
"J 	c #B6E5F8",
"K 	c #D5F1FB",
"L 	c #96DAF4",
"M 	c #66C8F0",
"N 	c #D3EFFA",
"O 	c #B5E5F8",
"P 	c #76CEF1",
"Q 	c #AAE1F7",
"R 	c #87D4F3",
"S 	c #CFEEFA",
"T 	c #97DAF5",
"U 	c #B8E5F8",
"V 	c #CCEDFA",
"W 	c #A7E0F6",
"X 	c #BCE7F8",
"Y 	c #F4F3F7",
"Z 	c #F9F9FB",
"` 	c #F9F8FB",
" .	c #F1F0F6",
"..	c #F7F6FA",
"+.	c #F8F8F8",
"@.	c #D5D5D5",
"#.	c #C8EBF9",
"$.	c #7DD1F3",
"%.	c #B7E5F7",
"&.	c #C1E9F9",
"*.	c #3E307C",
"=.	c #837AAB",
"-.	c #8077A9",
";.	c #453881",
">.	c #443680",
",.	c #ABA4C6",
"'.	c #FAFAFA",
").	c #585858",
"!.	c #343434",
"~.	c #C5EAF9",
"{.	c #79CFF1",
"].	c #C2E9F9",
"^.	c #C6EBF9",
"/.	c #E7E5EF",
"(.	c #42347F",
"_.	c #FCFCFD",
":.	c #FAFAFC",
"<.	c #3F317D",
"[.	c #F0EFF5",
"}.	c #A49EC1",
"|.	c #928BB5",
"1.	c #848484",
"2.	c #646464",
"3.	c #6FCCF0",
"4.	c #C0E9F9",
"5.	c #CBECFA",
"6.	c #3A2C79",
"7.	c #3C2D7B",
"8.	c #C8C4DA",
"9.	c #352676",
"0.	c #CDCADD",
"a.	c #867DAD",
"b.	c #7369A0",
"c.	c #4B3E85",
"d.	c #545454",
"e.	c #939393",
"f.	c #9D9D9D",
"g.	c #595959",
"h.	c #606060",
"i.	c #2B2B2B",
"j.	c #CACACA",
"k.	c #323232",
"l.	c #AFAFAF",
"m.	c #FEFEFE",
"n.	c #3E3E3E",
"o.	c #D9D9D9",
"p.	c #ACACAC",
"q.	c #7B7B7B",
"r.	c #3D3D3D",
"s.	c #D8D8D8",
"t.	c #616161",
"u.	c #565656",
"v.	c #717171",
"w.	c #68C9F0",
"x.	c #BDE7F8",
"y.	c #A19ABF",
"z.	c #5B4F90",
"A.	c #7E74A7",
"B.	c #54478B",
"C.	c #4F4288",
"D.	c #6E649D",
"E.	c #D3D0E1",
"F.	c #252525",
"G.	c #C4C4C4",
"H.	c #CECECE",
"I.	c #1A1A1A",
"J.	c #9C9C9C",
"K.	c #4C4C4C",
"L.	c #808080",
"M.	c #666666",
"N.	c #BDBDBD",
"O.	c #898989",
"P.	c #CCCCCC",
"Q.	c #2A2A2A",
"R.	c #DCDCDC",
"S.	c #242424",
"T.	c #E5E5E5",
"U.	c #6D6D6D",
"V.	c #464646",
"W.	c #D4D4D4",
"X.	c #5CC5EF",
"Y.	c #B9E6F8",
"Z.	c #D4F0FB",
"`.	c #7D73A7",
" +	c #7F76A8",
".+	c #43357F",
"++	c #C6C2D8",
"@+	c #776DA3",
"#+	c #877EAE",
"$+	c #F2F2F2",
"%+	c #030303",
"&+	c #575757",
"*+	c #6F6F6F",
"=+	c #7D7D7D",
"-+	c #B3B3B3",
";+	c #3C3C3C",
">+	c #707070",
",+	c #F7F7F7",
"'+	c #787878",
")+	c #414141",
"!+	c #909090",
"~+	c #3A3A3A",
"{+	c #AAAAAA",
"]+	c #50C1ED",
"^+	c #AEE2F7",
"/+	c #D9F1FB",
"(+	c #594C8E",
"_+	c #A39DC1",
":+	c #F8F7FA",
"<+	c #41337E",
"[+	c #FBFBFC",
"}+	c #9A92BA",
"|+	c #655996",
"1+	c #C6C6C6",
"2+	c #171717",
"3+	c #7E7E7E",
"4+	c #373737",
"5+	c #2D2D2D",
"6+	c #9B9B9B",
"7+	c #0C0C0C",
"8+	c #929292",
"9+	c #7C7C7C",
"0+	c #4B4B4B",
"a+	c #ADADAD",
"b+	c #FCFCFC",
"c+	c #0B0B0B",
"d+	c #DADADA",
"e+	c #3EBAEB",
"f+	c #A3DEF5",
"g+	c #DEF3FC",
"h+	c #D6D3E3",
"i+	c #766CA2",
"j+	c #E4E4E4",
"k+	c #5E5E5E",
"l+	c #959595",
"m+	c #E7E7E7",
"n+	c #626262",
"o+	c #989898",
"p+	c #DFDFDF",
"q+	c #3B3B3B",
"r+	c #F3F3F3",
"s+	c #ECECEC",
"t+	c #6A6A6A",
"u+	c #656565",
"v+	c #EBEBEB",
"w+	c #676767",
"x+	c #2EB4EA",
"y+	c #E2F5FC",
"z+	c #F5F5F5",
"A+	c #8E8E8E",
"B+	c #B5B5B5",
"C+	c #1DAFE8",
"D+	c #E7F6FD",
"E+	c #FDFDFD",
"F+	c #B7B7B7",
"G+	c #0DA9E6",
"H+	c #74CEF2",
"I+	c #E5F6FC",
"J+	c #08A7E6",
"K+	c #6FCCF1",
"L+	c #DDF3FC",
"M+	c #67C9EF",
"N+	c #8A81AF",
"O+	c #4E4187",
"P+	c #342575",
"Q+	c #3B2C7A",
"R+	c #665B97",
"S+	c #B3ADCB",
"T+	c #FDFCFD",
"U+	c #46BCEE",
"V+	c #CAEBFA",
"W+	c #C0BCD4",
"X+	c #9C95BC",
"Y+	c #B9B4D0",
"Z+	c #F3F2F7",
"`+	c #8A82B0",
" @	c #D5D5D6",
".@	c #FBFBFB",
"+@	c #4D3F86",
"@@	c #71669F",
"#@	c #DCDCEA",
"$@	c #685D99",
"%@	c #7C72A6",
"&@	c #313131",
"*@	c #BFBFBF",
"=@	c #E2E0EB",
"-@	c #8EABD2",
";@	c #DCD9E7",
">@	c #000000",
",@	c #515151",
"'@	c #DBDBDB",
")@	c #8278AA",
"!@	c #4B458B",
"~@	c #AAA3C5",
"{@	c #9B94BB",
"]@	c #070707",
"^@	c #AFA9C8",
"/@	c #352776",
"(@	c #3E2F7B",
"_@	c #5C5091",
":@	c #70659D",
"<@	c #7A70A5",
"[@	c #857AAC",
"}@	c #8E86B2",
"|@	c #9790B8",
"1@	c #A097BD",
"2@	c #A69FC2",
"3@	c #ADA6C7",
"4@	c #4E4288",
"5@	c #B4AFCC",
"6@	c #332374",
"7@	c #574A8D",
"8@	c #615594",
"9@	c #6B619B",
"0@	c #756BA1",
"a@	c #7B71A5",
"b@	c #8179AB",
"c@	c #857EAD",
"d@	c #332575",
"e@	c #383838",
"f@	c #9991BA",
"g@	c #392A79",
"h@	c #786DA4",
"i@	c #7D76A6",
"j@	c #372977",
"k@	c #A9A9A9",
"l@	c #4C4086",
"m@	c #8C8C8C",
"n@	c #949494",
"o@	c #F9F9F9",
"p@	c #8178AA",
"q@	c #382878",
"r@	c #362777",
"s@	c #362776",
"t@	c #9891B9",
"u@	c #EBE9F1",
"v@	c #FDFDFE",
"w@	c #CCC9DD",
"x@	c #615593",
"y@	c #352576",
"z@	c #352777",
"A@	c #3A2B79",
"B@	c #372878",
"                                                                                                ",
"                                                                                                ",
"                                                                                                ",
"                                                                                                ",
"                                                                                                ",
"                                                                                                ",
"                                                                      . + @ # $                 ",
"                                                  % & * = - ; > , ' ) ! ~ { ] ^ / (             ",
"                            _ : < [ } | 1 2 3 - 4 5 6 7 8 9 0 a b c d e ( ( ( ( ( ( (           ",
"          f g h } i j k l m n o p q r s t u v w x y < < < < < < < < < < < < < < < < 7 z         ",
"        A B B B B B B B B B B B B B B B B B B B B B B B B B B B B B B B B B B B B B B C         ",
"      D B B B B B B B B B B B B B B B B B B B B B B B B B B B B B B B B B B B B B B B B E       ",
"    F G B B B B B B B B B B B B B B B B B B B B B B B B B B B B B B B B B B B B B B B B H       ",
"    I J B B B B B B B B B B B B B B B B B B B B B B B B B B B B B B B B B B B B B B B B K       ",
"  L M J B B B B B B B B B B B B B B B B B B B B B B B B B B B B B B B B B B B B B B B B N       ",
"  O P J B B B B B B B B B B B B B B B B B B B B B B B B B B B B B B B B B B B B B B B B H       ",
"  Q R J B B B B B B B B B B B B B B B B B B B B B B B B B B B B B B B B B B B B B B B B S       ",
"    T U B B B B B B B B B B B B B B B B B B B B B B B B B B B B B B B B B B B B B B B B V       ",
"    W X B B B B Y Z B B ` Y B B  ...B B B +.@.B B B B B B B B B B B B B B B B B B B B B #.$.    ",
"    %.&.B B B B *.=.B B -.;.B B ( ( >.,.'.).!.B B B B B B B B B B B B B B B B B B B B B ~.{.    ",
"    ].^.B B B /.( (._.:.<.( [.B ( }.|.*.B 1.2.B B B B B B B B B B B B B B B B B B B B B ~.3.    ",
"    4.5.B B B 4 6.7.8.) <.9.0.B ( a.b.c.B d.e.B f.g.h.i.j.k.l.m.n.o.p.q.r.s.).t.u.v.B B ~.w.    ",
"    x.S B B B y.z.0 ^ A.-.B.,.B ( C.D.E.B F.G.H.I.+.J.K.B L.M.N.O.P.Q.R.S.T.U.V.W.P.B B ~.X.    ",
"    Y.Z.B B B `. +* .+*.++@+#+B ( ) B B $+%+$+q.&+B *+=+B -+;+>+,+'+)+!+o.B ~+{+B B B B ~.]+    ",
"    ^+/+B B B (+_+:+7.<+[+}+|+B ( ) B B 1+2+B 3+4+R.5+6+B T.7+8+B 9+0+$+a+b+c+d+B B B B ~.e+    ",
"    f+g+B B B `.h+B 7 }.B - a.B i+s B B j+k+l+m+n+!+o+q.p+B q+r+B s+t+u+H.v+w+b+B B B B ~.x+    ",
"      y+B B B B B B B B B B B B B B B B B B B B B B B z+L.A+B+B B B B B B B B B B B B B ~.C+    ",
"      D+B B B B B B B B B B B B B B B B B B B B B B B E+'+F+B B B B B B B B B B B B B B ~.G+H+  ",
"      I+B B B B B B B B B B B B B B B B B B B B B B B B B B B B B B B B B B B B B B B B ~.J+K+  ",
"      L+B B B B B B B B B B B B B B B B B B B B B B B B B B B B B B B B B B B B B B B B ~.J+M+  ",
"      H B B B B B B B B B B B B B B B B B B B B B B B B B B B B B B B /.N+O+P+Q+R+S+T+B ~.J+U+  ",
"      V+B B B B B B B B B B B B B B B B B B B B B B B B B B B B B B W+7.O+X+Y+S+A.9.R+Z+~.J+    ",
"      S B B B B B B B B B B B B B B B B B B B B B B B B B B B B B , 6.`+ @.@B B B 3 +@@@~.J+    ",
"      #@B B B B B B B B B B B B B B B B B B B B B B B B B B B B B $@%@B '+&@*@B B B =@7.-@      ",
"        B B B B B B B B B B B B B B B B B B B B B B B B B B B B ;@( l B '+>@>@,@'@B B )@!@      ",
"        ~@_.B B B B B B B B B B B B B B B B B B B B B B B B B B {@( B B '+>@>@>@]@q.r+^@/@      ",
"          (@(+z.z.z.z.z.z.z.z.z.z.z.z.z.z.z._@R+:@<@[@}@|@1@2@3@4@( B B '+>@>@>@>@>@u+5@P+      ",
"            6@( ( ( ( ( ( <.c.7@8@9@0@a@b@c@                      d@Z+B '+>@>@>@e@*@B f@g@      ",
"                  h@i@                                            j@,.B '+>@S.k@m.B _.l@        ",
"                                                                    g@E.m@n@o@B B T+p@q@        ",
"                                                                    r@s@t@u@B v@w@x@y@          ",
"                                                                        z@( A@P+( B@            ",
"                                                                                                ",
"                                                                                                ",
"                                                                                                ",
"                                                                                                ",
"                                                                                                ",
"                                                                                                "};
