/* XPM */
static char * pl_utf_xpm[] = {
"48 48 4 1",
" 	c None",
".	c #FFFFFF",
"+	c #000000",
"@	c #FF0000",
"                                                ",
"                                                ",
"                                                ",
"                                                ",
"                                                ",
"                                                ",
"                                                ",
"  ............................................  ",
"  ............................................  ",
"  ............................................  ",
"  ............................................  ",
"  ............................................  ",
"  ............................................  ",
"  ............................................  ",
"  ............................................  ",
"  ............................................  ",
"  ............................................  ",
"  ............................................  ",
"  .......+++....+++.+++++++++++.++++++++......  ",
"  .......+++....+++.+++++++++++.++++++++......  ",
"  .......+++....+++.....+++.....+++...........  ",
"  .......+++....+++.....+++.....+++...........  ",
"  .......+++....+++.....+++.....+++...........  ",
"  .......+++....+++.....+++.....++++++++......  ",
"  @@@@@@@+++@@@@+++@@@@@+++@@@@@++++++++@@@@@@  ",
"  @@@@@@@+++@@@@+++@@@@@+++@@@@@+++@@@@@@@@@@@  ",
"  @@@@@@@+++@@@@+++@@@@@+++@@@@@+++@@@@@@@@@@@  ",
"  @@@@@@@++++@@++++@@@@@+++@@@@@+++@@@@@@@@@@@  ",
"  @@@@@@@@++++++++@@@@@@+++@@@@@+++@@@@@@@@@@@  ",
"  @@@@@@@@@++++++@@@@@@@+++@@@@@+++@@@@@@@@@@@  ",
"  @@@@@@@@@@@@@@@@@@@@@@@@@@@@@@@@@@@@@@@@@@@@  ",
"  @@@@@@@@@@@@@@@@@@@@@@@@@@@@@@@@@@@@@@@@@@@@  ",
"  @@@@@@@@@@@@@@@@@@@@@@@@@@@@@@@@@@@@@@@@@@@@  ",
"  @@@@@@@@@@@@@@@@@@@@@@@@@@@@@@@@@@@@@@@@@@@@  ",
"  @@@@@@@@@@@@@@@@@@@@@@@@@@@@@@@@@@@@@@@@@@@@  ",
"  @@@@@@@@@@@@@@@@@@@@@@@@@@@@@@@@@@@@@@@@@@@@  ",
"  @@@@@@@@@@@@@@@@@@@@@@@@@@@@@@@@@@@@@@@@@@@@  ",
"  @@@@@@@@@@@@@@@@@@@@@@@@@@@@@@@@@@@@@@@@@@@@  ",
"  @@@@@@@@@@@@@@@@@@@@@@@@@@@@@@@@@@@@@@@@@@@@  ",
"  @@@@@@@@@@@@@@@@@@@@@@@@@@@@@@@@@@@@@@@@@@@@  ",
"  @@@@@@@@@@@@@@@@@@@@@@@@@@@@@@@@@@@@@@@@@@@@  ",
"                                                ",
"                                                ",
"                                                ",
"                                                ",
"                                                ",
"                                                ",
"                                                "};
