/* XPM */
static char * point_r_xpm[] = {
"48 48 75 1",
" 	c None",
".	c #5A5C41",
"+	c #645D56",
"@	c #5C5C5A",
"#	c #6A5440",
"$	c #807371",
"%	c #A47E5C",
"&	c #947E44",
"*	c #C09981",
"=	c #ABA39E",
"-	c #958F85",
";	c #C48A5E",
">	c #CBB399",
",	c #A48374",
"'	c #945E3B",
")	c #A36F4C",
"!	c #BC7D52",
"~	c #B4724C",
"{	c #DCAE7C",
"]	c #ECAA74",
"^	c #E2AB6C",
"/	c #F3BB7C",
"(	c #F3B26C",
"_	c #E4A264",
":	c #744E2C",
"<	c #7F5037",
"[	c #8F692F",
"}	c #C48A84",
"|	c #A87C2C",
"1	c #CC8A5C",
"2	c #704322",
"3	c #AE8E86",
"4	c #F7CA8E",
"5	c #7E491F",
"6	c #6C4B36",
"7	c #4F4C36",
"8	c #653C24",
"9	c #341D14",
"0	c #4E321F",
"a	c #A05E28",
"b	c #815B42",
"c	c #94694F",
"d	c #684339",
"e	c #5F352B",
"f	c #7D6753",
"g	c #170B0A",
"h	c #472B21",
"i	c #7C7854",
"j	c #90836B",
"k	c #908583",
"l	c #FCD27C",
"m	c #39281B",
"n	c #5C553A",
"o	c #C1AB91",
"p	c #4C452C",
"q	c #F3B244",
"r	c #FCD991",
"s	c #FCEBA4",
"t	c #493D23",
"u	c #543244",
"v	c #D3C294",
"w	c #241917",
"x	c #EAF5F1",
"y	c #250B22",
"z	c #E9CA51",
"A	c #9CA28C",
"B	c #171515",
"C	c #282521",
"D	c #8F561F",
"E	c #969782",
"F	c #4B3231",
"G	c #828470",
"H	c #717464",
"I	c #4D4535",
"J	c #71754F",
"                                                ",
"                                                ",
"                                                ",
"                                                ",
"                                                ",
"                                                ",
"                                                ",
"                                                ",
"                         .+@#.$%&%*=%-*-;***;>*-",
"                     ,%')!~!;{]]^;;;;^/{/(/{{_)%",
"                   */_;':<[)!!__]};;!!|1;|1))<2 ",
"                  34_!;'56<7890);;~abc'bd2:e:f  ",
"                %;^(_)a'<8<<<69g9h2#ij          ",
"              %}_^^4_~b:6e:)![809gk             ",
"            *_{((/l(;)':d:edb;)<emn             ",
"          o*{(((//(];a5<6:899p')de@             ",
"         >/(//(q///^)2d0<c<8h90e5e:             ",
"       {/4444ll4rll_a2e8h:;)6299h0@             ",
"      /lrlrsrrrr4(^;)b88t90%'22ugh              ",
"    >>4lssrssrss4;;!~):2de9m''e:e               ",
"    4rssssssssv4{~b:'))588u9wheec               ",
"   *rsssssxsr(^;15ee<<!'6dehwy995%              ",
"  *4lslrlllzv_)'e0m9h9*;b0e8099med<             ",
"  Arsrzr////])<0h99wBg$;)e0t89ym0e2b            ",
"  4sz({_/^4;!e0h99w9ggCo{:he89gwheu8f           ",
" -sr/_1%^/()2hh9w99m9ge>*d8;   89w0e<           ",
" ;s4^_De!_^Dhehh9mh9mw0b0<      -<w9d           ",
"E*sl/!)h2;)ue0F9BgywgB9h8         k8-           ",
"G{sl_~5e0ggBw9e@    m90b                        ",
"$4sl^!20e0mww                                   ",
"$rs4_)eeeh0me                                   ",
"Hrrl_~2e0ehm                                    ",
"fssl{;5eeee9                                    ",
"H4sr^)5uee0m                                    ",
"E}sl^!<eeIeh                                    ",
" Jsr^~<ede9+                                    ",
"  &{(~'eemh                                     ",
"    )<eh9$                                      ",
"                                                ",
"                                                ",
"                                                ",
"                                                ",
"                                                ",
"                                                ",
"                                                ",
"                                                ",
"                                                ",
"                                                "};
