/* XPM */
static char * point_u_xpm[] = {
"48 48 74 1",
" 	c None",
".	c #704322",
"+	c #A36F4C",
"@	c #C09981",
"#	c #7D6753",
"$	c #7F5037",
"%	c #E4A264",
"&	c #CBB399",
"*	c #744E2C",
"=	c #DCAE7C",
"-	c #C48A5E",
";	c #5F352B",
">	c #CC8A5C",
",	c #F3BB7C",
"'	c #A87C2C",
")	c #F3B26C",
"!	c #684339",
"~	c #815B42",
"{	c #958F85",
"]	c #945E3B",
"^	c #90836B",
"/	c #94694F",
"(	c #BC7D52",
"_	c #E2AB6C",
":	c #7C7854",
"<	c #A47E5C",
"[	c #653C24",
"}	c #341D14",
"|	c #6A5440",
"1	c #A05E28",
"2	c #ABA39E",
"3	c #908583",
"4	c #241917",
"5	c #4E321F",
"6	c #543244",
"7	c #5C5C5A",
"8	c #5C553A",
"9	c #B4724C",
"0	c #472B21",
"a	c #39281B",
"b	c #170B0A",
"c	c #C48A84",
"d	c #7E491F",
"e	c #ECAA74",
"f	c #947E44",
"g	c #250B22",
"h	c #807371",
"i	c #4C452C",
"j	c #8F692F",
"k	c #6C4B36",
"l	c #5A5C41",
"m	c #493D23",
"n	c #4F4C36",
"o	c #645D56",
"p	c #C1AB91",
"q	c #282521",
"r	c #171515",
"s	c #A48374",
"t	c #F7CA8E",
"u	c #FCD27C",
"v	c #AE8E86",
"w	c #FCD991",
"x	c #4B3231",
"y	c #D3C294",
"z	c #FCEBA4",
"A	c #8F561F",
"B	c #E9CA51",
"C	c #EAF5F1",
"D	c #4D4535",
"E	c #9CA28C",
"F	c #71754F",
"G	c #969782",
"H	c #717464",
"I	c #828470",
"                                                ",
"                                      .+@       ",
"                                      .+@       ",
"                                     #$%&       ",
"                                     *+=-       ",
"                                     ;+=@       ",
"                                     *>,@       ",
"                                     .')@       ",
"                                     !-,-       ",
"                                     ~>={       ",
"                                     ]',@       ",
"                                    ^/(_{       ",
"                     {!$#           :~(-<       ",
"                     [};[~          |1--2       ",
"                     3456.$    7*783.9--@       ",
"                      $4;;!<  05;;ab0-c-<       ",
"                      {}05;d/;b0d!;}}-e_f       ",
"                       [4aa};*6};+$5b+%e<       ",
"                        bg}};;.}5]+[}5%eh       ",
"                        }}}g0]..}i-jk}(=l       ",
"                        [[544]]k0}~($[(-|       ",
"                       -;m[0}a<+[}!+$n+(7       ",
"                       [05;;6}5-$[;*$$j9o       ",
"                      $!*;5![;}*/**;[k$(l       ",
"                     [5@=+~k[!m0$k!k$d*+        ",
"                    ~0~&p--]d.[[5$**]]]]        ",
"                    5}5;qh@(+*[;!d]~1--<        ",
"                    }r4bbb}$++~..1+9+(%s        ",
"                    aba}br0$]9+1+--%%%,         ",
"                     4}a}4};*(-%_e)t)t@         ",
"                     g0}4}a;~-_u,)u__v          ",
"                     ba}}}5d9-)u,,,_-           ",
"                     r}4}0;>=ttw,,)%<           ",
"                    ;x005$+_yzwu))=<            ",
"                    }5;0;+%)zwwu,)%             ",
"                  ;44;0.(eywzzwt,=@             ",
"             o0a}aa4r6A+-,Bzzzzt)@              ",
"            0};5;05ab+_)t,uCzwwt,p              ",
"           ha;D;;;05b-%,_,uzzzut&               ",
"           };!;;;5;;5.(_,,uzzzw,                ",
"           0;;;6;;;5;0;<%wwzzuu=                ",
"           ;]$$dd.;.d+A>=Buzzt,                 ",
"           $99(+-9+(9(%%)wzzw&                  ",
"           +)___=%%_%,_,Bzuwt&                  ",
"            =wuwuutuuutwzwt@                    ",
"            fzzzzwzzzzzztE@                     ",
"             Fctzwwt=@-{                        ",
"              GH#HhhIG                          "};
