/* XPM */
static char * point_l_xpm[] = {
"48 48 75 1",
" 	c None",
".	c #958F85",
"+	c #C09981",
"@	c #CBB399",
"#	c #C48A5E",
"$	c #A47E5C",
"%	c #ABA39E",
"&	c #947E44",
"*	c #807371",
"=	c #5A5C41",
"-	c #6A5440",
";	c #5C5C5A",
">	c #645D56",
",	c #A36F4C",
"'	c #E4A264",
")	c #DCAE7C",
"!	c #F3BB7C",
"~	c #F3B26C",
"{	c #E2AB6C",
"]	c #ECAA74",
"^	c #BC7D52",
"/	c #B4724C",
"(	c #945E3B",
"_	c #A48374",
":	c #704322",
"<	c #7F5037",
"[	c #CC8A5C",
"}	c #A87C2C",
"|	c #C48A84",
"1	c #8F692F",
"2	c #744E2C",
"3	c #7D6753",
"4	c #5F352B",
"5	c #684339",
"6	c #815B42",
"7	c #94694F",
"8	c #A05E28",
"9	c #4E321F",
"0	c #341D14",
"a	c #653C24",
"b	c #4F4C36",
"c	c #6C4B36",
"d	c #7E491F",
"e	c #F7CA8E",
"f	c #AE8E86",
"g	c #90836B",
"h	c #7C7854",
"i	c #472B21",
"j	c #170B0A",
"k	c #908583",
"l	c #5C553A",
"m	c #39281B",
"n	c #FCD27C",
"o	c #4C452C",
"p	c #C1AB91",
"q	c #F3B244",
"r	c #FCD991",
"s	c #543244",
"t	c #493D23",
"u	c #FCEBA4",
"v	c #241917",
"w	c #D3C294",
"x	c #250B22",
"y	c #EAF5F1",
"z	c #E9CA51",
"A	c #171515",
"B	c #9CA28C",
"C	c #282521",
"D	c #8F561F",
"E	c #4B3231",
"F	c #969782",
"G	c #828470",
"H	c #717464",
"I	c #4D4535",
"J	c #71754F",
"                                                ",
"                                                ",
"                                                ",
"                                                ",
"                                                ",
"                                                ",
"                                                ",
"                                                ",
".+@#+++#.+.$%+$&$*=-;>=                         ",
"$,'))!~!)!{####{]])#^/^,($_                     ",
" :<,,[}#[}^^##|]''^^,1<2(#'!+                   ",
"  3242:56(768/##,90ab<cd(#^'ef                  ",
"          gh-:i0j0c<<<a<(8,'~{#$                ",
"             kj09a1^,24c26/'e{{'|$              ",
"             lm4<,#654252(,#~n!~~)'+            ",
"             ;45,(o00a2c<d8#]~!!~~~)+p          ",
"             24d490ia<7<95:,{!!!q~!!~!@         ",
"             ;9i00:c,#2ia4:8'nnrenneeee!)       ",
"              ijs::($90taa6,#{~errrrurnrn!      ",
"               424((m045:2,/^##euuruuruune@@    ",
"               744iv0saad,,(26/)ewuuuuuuuure    ",
"              $d00xvi45c(^<<44d[#{~ruyuuuuur+   ",
"             <54m009a496#+0i0m94(,'wznnnrnune+  ",
"            6:49mx0at94,#*jAv00i9<,]!!!!rzrurB  ",
"           3as4ivj0a4i2)pCjj0v00i94^#e{!')~zue  ",
"           <49v0a   #a5+@4j0m00v0ii:,~!{$['!ru. ",
"           50v<.      <969vm0im0ii4iD{'^4D'{eu# ",
"           .ak         ai0AjvxjA0E94s,#:i,^!nu+F",
"                        690m    ;40vAjj94d/'nu)G",
"                                   vvm949:^{nue*",
"                                   4m9i444,'eur*",
"                                    mi494:/'nrrH",
"                                    04444d#)nuu3",
"                                    m944sd,{rueH",
"                                    i4I44<^{nu|F",
"                                    >0454</{ruJ ",
"                                     im44(/~)&  ",
"                                      *0i4<,    ",
"                                                ",
"                                                ",
"                                                ",
"                                                ",
"                                                ",
"                                                ",
"                                                ",
"                                                ",
"                                                ",
"                                                "};
