/* XPM */
static char * point_d_xpm[] = {
"48 48 75 1",
" 	c None",
".	c #969782",
"+	c #717464",
"@	c #7D6753",
"#	c #807371",
"$	c #828470",
"%	c #71754F",
"&	c #C48A84",
"*	c #F7CA8E",
"=	c #FCEBA4",
"-	c #FCD991",
";	c #DCAE7C",
">	c #C09981",
",	c #C48A5E",
"'	c #958F85",
")	c #947E44",
"!	c #9CA28C",
"~	c #FCD27C",
"{	c #A36F4C",
"]	c #F3B26C",
"^	c #E2AB6C",
"/	c #E4A264",
"(	c #F3BB7C",
"_	c #E9CA51",
":	c #CBB399",
"<	c #7F5037",
"[	c #B4724C",
"}	c #BC7D52",
"|	c #5F352B",
"1	c #945E3B",
"2	c #7E491F",
"3	c #704322",
"4	c #8F561F",
"5	c #CC8A5C",
"6	c #472B21",
"7	c #543244",
"8	c #4E321F",
"9	c #A47E5C",
"0	c #341D14",
"a	c #684339",
"b	c #39281B",
"c	c #4D4535",
"d	c #170B0A",
"e	c #EAF5F1",
"f	c #C1AB91",
"g	c #645D56",
"h	c #241917",
"i	c #171515",
"j	c #ECAA74",
"k	c #D3C294",
"l	c #4B3231",
"m	c #5C5C5A",
"n	c #F3B244",
"o	c #250B22",
"p	c #815B42",
"q	c #AE8E86",
"r	c #744E2C",
"s	c #A05E28",
"t	c #A48374",
"u	c #282521",
"v	c #653C24",
"w	c #6C4B36",
"x	c #493D23",
"y	c #94694F",
"z	c #5A5C41",
"A	c #8F692F",
"B	c #4F4C36",
"C	c #6A5440",
"D	c #4C452C",
"E	c #908583",
"F	c #5C553A",
"G	c #ABA39E",
"H	c #7C7854",
"I	c #90836B",
"J	c #A87C2C",
"                                                ",
"              .+@+##$.                          ",
"             %&*=--*;>,'                        ",
"            )====-======*!>                     ",
"            ;-~-~~*~~~*-=-*>                    ",
"           {]^^^;//^/(^(_=~-*:                  ",
"           <[[}{,[{}[}//]-==-:                  ",
"           |1<<223|32{45;_~==*(                 ",
"           6|||7|||8|6|9/--==~~;                ",
"           0|a|||8||83}^((~===-(                ",
"           #b|c|||68d,/(^(~===~*:               ",
"            60|8|68bd{^]*(~e=--*(f              ",
"             g6b0bbhi74{,(_====*]>              ",
"                  |hh|63}jk-==-*(;>             ",
"                    08|6|{/]=--~(]/             ",
"                    |l668<{^k=-~]];9            ",
"                    m060681,*=-*n]]&            ",
"                     i0h06|5;**-((]/9           ",
"                     db00082[,]~(((^,           ",
"                     o60h0b|p,^~(]~^^q          ",
"                     h0b0h0|r},/^j]*]*>         ",
"                    bdb0di6<1[{s{,,///(         ",
"                    0ihddd0<{{p33s{[{}/t        ",
"                    808|u#>}{rv|a21ps,,9        ",
"                    p6p:f,,123vv8<rr1111        ",
"                     v8>;{pwvax6<waw<2r{        ",
"                      <ar|8av|0ryrr|vw<}z       ",
"                       v68||708,<v|r<<A[g       ",
"                       ,|xv60b9{v0a{<B{}m       ",
"                        vv8hh11w60p}<v},C       ",
"                        000o61330D,Aw0};z       ",
"                        do00||3081{v08/j#       ",
"                       vhbb0|r70|{<8d{/j9       ",
"                      <h||a9  68||bd6,&,9       ",
"                     Eh873<    mrmFE3[,,>       ",
"                     v0|vp          Cs,,G       ",
"                     'a<@           Hp},9       ",
"                                    Iy}^'       ",
"                                     1J(>       ",
"                                     p5;'       ",
"                                     a,(,       ",
"                                     3J]>       ",
"                                     r5(>       ",
"                                     |{;>       ",
"                                     r{;,       ",
"                                     @</:       ",
"                                      3{>       ",
"                                       9'       "};
