/* XPM */
static char * skype_xpm[] = {
"48 48 372 2",
"  	c None",
". 	c #00AFF0",
"+ 	c #4BC7F5",
"@ 	c #7FD7F7",
"# 	c #9FE1F9",
"$ 	c #C5EDFC",
"% 	c #C1ECFB",
"& 	c #BCEAFB",
"* 	c #99DFF9",
"= 	c #76D4F7",
"- 	c #3CC2F4",
"; 	c #3FC3F4",
"> 	c #BDEBFB",
", 	c #C8EDFC",
"' 	c #A1E1F9",
") 	c #87D9F8",
"! 	c #75D4F7",
"~ 	c #68D0F6",
"{ 	c #65CEF6",
"] 	c #6BD1F7",
"^ 	c #8ADAF9",
"/ 	c #8DDBF9",
"( 	c #53CAF5",
"_ 	c #6CD1F7",
": 	c #7AD6F7",
"< 	c #8DDCF9",
"[ 	c #89DAF8",
"} 	c #82D8F8",
"| 	c #7CD6F7",
"1 	c #61CEF5",
"2 	c #56CAF5",
"3 	c #35C0F3",
"4 	c #1AB7F1",
"5 	c #91DCF8",
"6 	c #CCEEFC",
"7 	c #71D2F7",
"8 	c #88DAF8",
"9 	c #A0E2F9",
"0 	c #A8E4FA",
"a 	c #A7E3FA",
"b 	c #A3E2FA",
"c 	c #9AE0F9",
"d 	c #86D9F8",
"e 	c #70D2F7",
"f 	c #58CAF5",
"g 	c #70D3F6",
"h 	c #61CDF6",
"i 	c #55CAF5",
"j 	c #4CC7F4",
"k 	c #49C6F4",
"l 	c #46C5F4",
"m 	c #44C4F4",
"n 	c #48C5F4",
"o 	c #4FC8F5",
"p 	c #55C9F5",
"q 	c #52C9F5",
"r 	c #0FB4F1",
"s 	c #9DE0F9",
"t 	c #C0EBFB",
"u 	c #84D8F7",
"v 	c #8CDBF8",
"w 	c #B1E7FB",
"x 	c #B1E7FA",
"y 	c #ACE5FA",
"z 	c #9EE1F9",
"A 	c #95DEF9",
"B 	c #90DCF8",
"C 	c #6DD1F6",
"D 	c #7BD6F7",
"E 	c #79D5F7",
"F 	c #74D3F7",
"G 	c #6BD1F6",
"H 	c #64CEF6",
"I 	c #58CBF5",
"J 	c #4DC7F4",
"K 	c #3EC3F4",
"L 	c #35BFF3",
"M 	c #3BC2F4",
"N 	c #47C5F4",
"O 	c #34BFF3",
"P 	c #0CB3F1",
"Q 	c #78D5F7",
"R 	c #9EE0F9",
"S 	c #B5E8FB",
"T 	c #8BDBF8",
"U 	c #7ED7F7",
"V 	c #66CFF6",
"W 	c #62CEF6",
"X 	c #5DCCF5",
"Y 	c #54C9F5",
"Z 	c #4DC7F5",
"` 	c #3DC2F3",
" .	c #2EBDF3",
"..	c #31BEF3",
"+.	c #39C1F4",
"@.	c #20B9F2",
"#.	c #03B0F0",
"$.	c #4AC6F4",
"%.	c #41C3F4",
"&.	c #30BEF3",
"*.	c #22BAF2",
"=.	c #2BBDF3",
"-.	c #26BBF2",
";.	c #08B2F0",
">.	c #A0E1F9",
",.	c #90DCF9",
"'.	c #81D8F8",
").	c #74D4F7",
"!.	c #6DD1F7",
"~.	c #67CFF6",
"{.	c #5BCCF5",
"].	c #51C9F5",
"^.	c #4FC7F5",
"/.	c #4CC7F5",
"(.	c #38C1F3",
"_.	c #06B1F0",
":.	c #7ED7F8",
"<.	c #75D4F6",
"[.	c #69D0F6",
"}.	c #5FCCF6",
"|.	c #4DC8F4",
"1.	c #42C4F4",
"2.	c #3FC3F3",
"3.	c #3DC2F4",
"4.	c #3AC1F4",
"5.	c #33BFF3",
"6.	c #2FBEF3",
"7.	c #2ABCF2",
"8.	c #1CB8F2",
"9.	c #16B6F1",
"0.	c #19B7F2",
"a.	c #04B0F0",
"b.	c #8ADBF8",
"c.	c #84D8F8",
"d.	c #6CD1F6",
"e.	c #5CCCF5",
"f.	c #57CAF5",
"g.	c #B3E7FA",
"h.	c #CAEEFC",
"i.	c #FFFFFF",
"j.	c #C7EEFC",
"k.	c #9FE1FA",
"l.	c #38C0F3",
"m.	c #2DBDF3",
"n.	c #25BBF2",
"o.	c #21B9F2",
"p.	c #15B6F2",
"q.	c #10B4F1",
"r.	c #12B5F1",
"s.	c #83D8F8",
"t.	c #64CFF6",
"u.	c #63CEF6",
"v.	c #B5E7FA",
"w.	c #AAE4FA",
"x.	c #3CC2F3",
"y.	c #23BAF2",
"z.	c #24BBF2",
"A.	c #17B6F1",
"B.	c #0EB4F1",
"C.	c #0BB2F1",
"D.	c #07B1F0",
"E.	c #F1FBFE",
"F.	c #1BB8F1",
"G.	c #1DB8F2",
"H.	c #1BB8F2",
"I.	c #13B5F1",
"J.	c #0EB3F1",
"K.	c #06B1F1",
"L.	c #04B1F0",
"M.	c #7AD6F8",
"N.	c #65CFF6",
"O.	c #80D7F8",
"P.	c #A5E2FA",
"Q.	c #15B6F1",
"R.	c #15B5F1",
"S.	c #0DB3F1",
"T.	c #0AB3F0",
"U.	c #01AFF0",
"V.	c #7FD7F8",
"W.	c #6FD2F6",
"X.	c #5CCCF6",
"Y.	c #C6EDFB",
"Z.	c #C6EEFB",
"`.	c #D3F1FC",
" +	c #18B7F2",
".+	c #17B6F2",
"++	c #14B6F1",
"@+	c #11B4F1",
"#+	c #92DDF8",
"$+	c #91DDF9",
"%+	c #3BC1F4",
"&+	c #32BFF3",
"*+	c #2FBDF3",
"=+	c #40C3F3",
"-+	c #8EDCF8",
";+	c #1FB8F2",
">+	c #1EB9F2",
",+	c #1EB9F1",
"'+	c #1BB7F2",
")+	c #1FB9F2",
"!+	c #08B2F1",
"~+	c #77D4F7",
"{+	c #CBEEFC",
"]+	c #37C0F3",
"^+	c #42C4F3",
"/+	c #43C4F4",
"(+	c #40C3F5",
"_+	c #3DC3F4",
":+	c #5ECCF5",
"<+	c #F0FAFE",
"[+	c #C8EDFB",
"}+	c #27BBF3",
"|+	c #27BCF2",
"1+	c #27BBF2",
"2+	c #29BCF2",
"3+	c #8ADBF9",
"4+	c #6AD0F6",
"5+	c #51C8F5",
"6+	c #E4F6FE",
"7+	c #66CFF7",
"8+	c #45C4F4",
"9+	c #4BC7F4",
"0+	c #48C6F4",
"a+	c #40C3F4",
"b+	c #38C1F4",
"c+	c #97DFF9",
"d+	c #30BFF3",
"e+	c #36C0F3",
"f+	c #37C1F3",
"g+	c #09B2F1",
"h+	c #88D9F8",
"i+	c #84D9F8",
"j+	c #80D7F7",
"k+	c #7DD6F7",
"l+	c #4FC7F4",
"m+	c #47C6F4",
"n+	c #5FCCF5",
"o+	c #3AC2F3",
"p+	c #3AC1F3",
"q+	c #3EC2F4",
"r+	c #71D3F6",
"s+	c #71D2F6",
"t+	c #85D9F7",
"u+	c #7ED6F8",
"v+	c #7CD6F8",
"w+	c #CFF0FC",
"x+	c #F2FBFE",
"y+	c #72D3F7",
"z+	c #50C8F4",
"A+	c #50C8F5",
"B+	c #4EC8F5",
"C+	c #43C5F4",
"D+	c #2EBEF2",
"E+	c #7FD8F8",
"F+	c #8ADAF8",
"G+	c #81D7F8",
"H+	c #DCF4FD",
"I+	c #A5E3FA",
"J+	c #5BCBF5",
"K+	c #51C8F4",
"L+	c #39C1F3",
"M+	c #28BCF2",
"N+	c #14B5F1",
"O+	c #05B1F0",
"P+	c #5DCCF6",
"Q+	c #70D2F6",
"R+	c #DEF5FD",
"S+	c #BFEBFB",
"T+	c #1AB7F2",
"U+	c #09B3F0",
"V+	c #8EDCF9",
"W+	c #8FDBF9",
"X+	c #81D8F7",
"Y+	c #6ED2F7",
"Z+	c #B9E9FB",
"`+	c #DFF5FD",
" @	c #94DDF9",
".@	c #92DDF9",
"+@	c #8FDCF8",
"@@	c #71D3F7",
"#@	c #AEE5FA",
"$@	c #97DEF9",
"%@	c #75D3F7",
"&@	c #EEFAFE",
"*@	c #5FCDF6",
"=@	c #9BE0F9",
"-@	c #98DFF9",
";@	c #94DDF8",
">@	c #91DCF9",
",@	c #8FDCF9",
"'@	c #56C9F5",
")@	c #37C0F4",
"!@	c #2BBCF3",
"~@	c #A5E3F9",
"{@	c #E1F5FD",
"]@	c #CEF0FC",
"^@	c #67D0F6",
"/@	c #9CE0F9",
"(@	c #9BDFF9",
"_@	c #98DEF9",
":@	c #7BD6F8",
"<@	c #61CDF5",
"[@	c #36C1F3",
"}@	c #2ABCF3",
"|@	c #25BAF2",
"1@	c #2BBCF2",
"2@	c #69CFF6",
"3@	c #93DDF9",
"4@	c #6FD2F7",
"5@	c #54CAF5",
"6@	c #29BBF3",
"7@	c #07B1F1",
"8@	c #BFEAFC",
"9@	c #73D3F7",
"0@	c #19B7F1",
"a@	c #34C0F3",
"b@	c #85D8F8",
"c@	c #BEEBFB",
"d@	c #BEEBFC",
"e@	c #1FB9F1",
"f@	c #D2F1FC",
"g@	c #AFE6FA",
"h@	c #6ED2F6",
"i@	c #28BBF2",
"j@	c #B0E6FA",
"k@	c #2DBDF2",
"l@	c #18B6F1",
"m@	c #A4E2FA",
"n@	c #02B0F0",
"o@	c #1EB8F2",
"p@	c #28BCF3",
"q@	c #29BCF3",
"r@	c #78D4F7",
"s@	c #EFFAFE",
"t@	c #3BC2F3",
"u@	c #A4E3F9",
"v@	c #1DB8F1",
"w@	c #30BFF2",
"x@	c #10B4F0",
"y@	c #33C0F3",
"z@	c #39C0F3",
"A@	c #2EBEF3",
"B@	c #26BBF3",
"C@	c #C3ECFC",
"D@	c #EFFBFE",
"E@	c #A6E4FA",
"F@	c #2CBDF3",
"G@	c #2EBDF2",
"H@	c #4AC7F5",
"I@	c #2DBEF2",
"J@	c #2BBDF2",
"K@	c #30BEF2",
"L@	c #45C5F4",
"M@	c #41C4F4",
"N@	c #44C5F4",
"O@	c #5ECCF6",
"P@	c #4BC6F4",
"Q@	c #3EC2F3",
"R@	c #4BC6F5",
"S@	c #53C9F5",
"T@	c #62CDF6",
"U@	c #3FC2F4",
"V@	c #5ECDF6",
"W@	c #5BCCF6",
"X@	c #73D3F6",
"Y@	c #59CBF5",
"Z@	c #63CEF5",
"`@	c #60CDF5",
" #	c #8DDBF8",
".#	c #84D9F7",
"+#	c #A3E3F9",
"@#	c #A7E4FA",
"                                                                                                ",
"                    . . . . . . .                                                               ",
"                . + @ # $ % & * = - . . . . . . . . . .                                         ",
"            . ; > , ' ) ! ~ { ] = ^ / ( _ : < [ } | 1 2 3 4 .                                   ",
"          . 5 6 # 7 8 9 0 a b c d e f g h i j k l m l n o p q 3 r .                             ",
"        . s t u v w x y a b z * A B 8 C ! D E F e G H I J K L M N O P .                         ",
"      . 5 t Q R S x y a b z * A B T ) } U E F e G V W X I Y Z `  ...+.@.#.                      ",
"      ; 6 u R S x y a b z * A B T ) } U E F e G V W X I Y o $.l %.&.*.=.-.;.                    ",
"    . > >.,.S x y a b z * A B T ) '.| ).!.~.1 {.I Y ].^./.k l %.- (...@.@.*._.                  ",
"    + , 7 w x y a b z * A B T d :.<.[.}.i |.l 1.2.` 3.3.` ` - 4.(.5.6.7.8.9.0.a.                ",
"  . U ' 8 x y a b z * A B b.c.E d.e.f.) g.h.i.i.i.i.j.k.Q l.m.&.6.m.7.n.o.p.q.r.#.              ",
"  . # 8 9 y a b z * A B T s.= t.u.v.i.i.i.i.i.i.i.i.i.i.i.i.w.x.y.n.z.o.8.A.B.C.D..             ",
"  . $ ! 0 a b z * A B T c.= 1 T E.i.i.i.i.i.i.i.i.i.i.i.i.i.i.i.T F.G.H.A.I.J.K.L.. .           ",
"  . % ~ a b z * A B T d M.N.O.i.i.i.i.i.i.i.i.i.i.i.i.i.i.i.i.i.i.P.Q.R.I.q.S.T.U.. .           ",
"  . & { b z * A B T ) V.W.X.E.i.i.i.i.i.i.i.Y.Z.Y.`.i.i.i.i.i.i.i.i.d.0. +.+++@+P . . .         ",
"  . * ] c * A B T ) } E W #+i.i.i.i.i.i.$+%+&+&+*+=.=+-+i.i.i.i.i.i.Y.;+>+,+'+G.)+!+. .         ",
"  . = ~+d A B T ) } U e 2 {+i.i.i.i.i.5 ]+^+l /+(+_+]+..:+<+i.i.i.i.[+}+|+n.1+2+7.)+. .         ",
"    %+3+e B T ) } U E 4+5+6+i.i.i.i.i.7+8+^.o Z 9+0+m a+b+{ E.i.i.i.c+d+6...&+O e+f+g+. .       ",
"    . / :+8 h+i+j+k+E C i i.i.i.i.i.i.= n l+].5+o Z 9+m+m ; n+0 0 4+o+(.p+- q+a+1.m )+. .       ",
"    . ( r+s+[ t+} u+v+7 e.w+i.i.i.i.i.x+y++ z+z+A+z+o B+/.k N 8+/+C+1.m l 0+$.j Z a+D+. .       ",
"    . _ t.E+F+) c.G+U = V & i.i.i.i.i.i.i.H+I+E J+K+q q 5+5+o B+k L+..M+N+Q.O+. . . . . . .     ",
"    . : P+v v [ ) i+G+v+Q+d i.i.i.i.i.i.i.i.i.i.i.R+S+v u.&.T+U+. . . . . . . . . . . . . .     ",
"    . V+f.#+W+/ [ d i+X+: Y+Z+i.i.i.i.i.i.i.i.i.i.i.i.i.i.`+' &.. . . . . . . . . . . . . .     ",
"    . h+J+ @.@+@v T 8 d } | @@g.i.i.i.i.i.i.i.i.i.i.i.i.i.i.i.i.#@q.. . . . . . . . . . . .     ",
"    . } e.$@A .@$++@v F+8 c.O.%@V.S i.i.i.i.i.i.i.i.i.i.i.i.i.i.i.&@&.. . . . . . . . . . .     ",
"    . | *@=@-@c+;@#+>@,@[ y+'@)@6.-.!@!.~@{@i.i.i.i.i.i.i.i.i.i.i.i.]@. . . . . . . . . . .     ",
"    . 1 ^@c /@(@* _@:@<@l %.M [@..}@|@>+0.I.1@N.' `+i.i.i.i.i.i.i.i.i.*@. . . . . . . . . .     ",
"    . i 2@3@' #+4@5@$.l a++.5.m.6@1+y.)+T+R.q.C.7@#.)+*@`+i.i.i.i.i.i.8@. . . . . . . . . .     ",
"      3 d.9@V Y o $.l a+b+D+&+2 L+G.G.H.A.I.J.g+O+. . . r ]@i.i.i.i.i.&@. . . . . . . . . .     ",
"      0@p K Y o $.l %.+.6.V <+i.i.$@++N+r.J.g+O+. . . . . }.i.i.i.i.i.i.. . . . . . . . . .     ",
"      . q L Z $.l %.- a@1+{@i.i.i.i.b@J.P g+O+. . . . . . *@i.i.i.i.i.i.. . . . . . . . . U.    ",
"        O M ` l %.- (.6.o.i.i.i.i.i.i.H K.L.. . . . . . . c@i.i.i.i.i.d@. . . . . . . . U._..   ",
"        r N  .%.- (.5.!@e@f@i.i.i.i.i.i.>@q.. . . . . q.g@i.i.i.i.i.i.h@. . . . . . . . U.S..   ",
"        . O ..&.(.5. .i@)+X.i.i.i.i.i.i.i.&@j@O.O.O.j@i.i.i.i.i.i.i.&@r . . . . . . . . . Q..   ",
"          S.- -.5...k@|+@.l@m@i.i.i.i.i.i.i.i.i.i.i.i.i.i.i.i.i.i.i.A+#.a.a.a.a.a.a.a.a.n@o@.   ",
"          . p@(.q@L+a@&.=.*.4 r@i.i.i.i.i.i.i.i.i.i.i.i.i.i.i.i.s@2 B.q.r.r.r.r.r.r.r.r.B.6..   ",
"            O+t@O d+- b+O *+}+)+5.u@i.i.i.i.i.i.i.i.i.i.i.i.i.u@..0.G.)+@.@.@.@.@.@.@.G.v@w@.   ",
"              x@l &.y@=+` z@y@A@B@*.!@Y+-@C@D@i.i.i.D@C@E@Y+!@*.B@}@F@m.m.m.m.m.m.m.m.*.&+G@.   ",
"                @+H@O l.l 1.2.t@L+f+a@w@I@J@2+M+M+M+2+J@I@K@a@f+L+t@t@t@t@t@t@t@t@t@o+i@2 )+    ",
"                  @+o K 3 k k k k k 0+l L@/+1.M@M@M@1./+N@l 0+k k k k k k k k k k k L+l O@.     ",
"                    N+P@j (.L@2 2 2 2 2 2 2 2 2 2 2 2 2 2 2 2 2 2 2 2 2 2 2 2 2 2 k Q@e @.      ",
"                      D.(.*@R@%.S@T@H H H H H H H H H H H H H H H H H H H H H H p U@7 2 .       ",
"                        . Q.i !.2 0+A+V@~.4@y+y+y+y+4@~.W@4@y+y+y+y+y+y+y+y+4@2 A+k+V .         ",
"                            . A.o ~+X@V Y@S@J J J J S@Y@Z@S@`@Q+| @ @ | X@`@S@h@#+N..           ",
"                                  . y.l 4+y+ # # # #y+h l E E ~.e.i i e.4+| (@B m..             ",
"                                        . . . . . . . . . . ..{ .#+#I+@#s.V M .                 ",
"                                                              . . . . . . .                     ",
"                                                                                                "};
