/* XPM */
static char * wicd_xpm[] = {
"48 48 215 2",
"  	c None",
". 	c #000000",
"+ 	c #001804",
"@ 	c #001503",
"# 	c #001303",
"$ 	c #001B04",
"% 	c #000200",
"& 	c #001C04",
"* 	c #007E14",
"= 	c #008916",
"- 	c #001604",
"; 	c #008415",
"> 	c #008516",
", 	c #001F05",
"' 	c #000300",
") 	c #000501",
"! 	c #003A09",
"~ 	c #00B01C",
"{ 	c #00CA20",
"] 	c #002E07",
"^ 	c #002806",
"/ 	c #00C31F",
"( 	c #00B71D",
"_ 	c #00400A",
": 	c #000701",
"< 	c #003C0A",
"[ 	c #00CE21",
"} 	c #00FC28",
"| 	c #00560E",
"1 	c #004A0C",
"2 	c #00FC29",
"3 	c #00D422",
"4 	c #00430B",
"5 	c #000100",
"6 	c #00EA26",
"7 	c #00FF29",
"8 	c #00B21D",
"9 	c #00A41B",
"0 	c #00EF26",
"a 	c #003608",
"b 	c #00B51D",
"c 	c #00EE26",
"d 	c #004B0C",
"e 	c #00E825",
"f 	c #00BD1E",
"g 	c #002406",
"h 	c #000901",
"i 	c #007A14",
"j 	c #00F527",
"k 	c #00B31D",
"l 	c #001A04",
"m 	c #00AA1B",
"n 	c #00F728",
"o 	c #008315",
"p 	c #000A01",
"q 	c #003B09",
"r 	c #00E224",
"s 	c #00F327",
"t 	c #006A11",
"u 	c #00600F",
"v 	c #00420A",
"w 	c #009217",
"x 	c #00DA23",
"y 	c #003509",
"z 	c #002807",
"A 	c #002506",
"B 	c #00450B",
"C 	c #002C07",
"D 	c #00D522",
"E 	c #009F1A",
"F 	c #000A02",
"G 	c #00BF1E",
"H 	c #000B02",
"I 	c #005F0F",
"J 	c #009318",
"K 	c #008F17",
"L 	c #006811",
"M 	c #00B61D",
"N 	c #00F127",
"O 	c #001203",
"P 	c #00590E",
"Q 	c #008616",
"R 	c #00480C",
"S 	c #00DF24",
"T 	c #006110",
"U 	c #00540D",
"V 	c #007814",
"W 	c #006710",
"X 	c #009C19",
"Y 	c #00580E",
"Z 	c #002F07",
"` 	c #00C21F",
" .	c #002B07",
"..	c #002005",
"+.	c #00BA1E",
"@.	c #00BE1E",
"#.	c #00A81B",
"$.	c #001003",
"%.	c #00C41F",
"&.	c #003208",
"*.	c #006610",
"=.	c #00EC26",
"-.	c #009518",
";.	c #00F027",
">.	c #007012",
",.	c #00CA21",
"'.	c #002F08",
").	c #00D723",
"!.	c #001103",
"~.	c #009D19",
"{.	c #00570E",
"].	c #00460B",
"^.	c #00A61B",
"/.	c #000601",
"(.	c #00FD29",
"_.	c #00DB23",
":.	c #003809",
"<.	c #00410A",
"[.	c #00E024",
"}.	c #00C11F",
"|.	c #001404",
"1.	c #00FE29",
"2.	c #00E425",
"3.	c #004C0C",
"4.	c #00E525",
"5.	c #00F427",
"6.	c #00D622",
"7.	c #000802",
"8.	c #00F628",
"9.	c #003008",
"0.	c #00E625",
"a.	c #00550E",
"b.	c #004F0D",
"c.	c #00E725",
"d.	c #00DD23",
"e.	c #003308",
"f.	c #00EB26",
"g.	c #00490C",
"h.	c #00FB28",
"i.	c #00420B",
"j.	c #00D222",
"k.	c #00DC23",
"l.	c #00530D",
"m.	c #003D0A",
"n.	c #00DE24",
"o.	c #000F02",
"p.	c #003D09",
"q.	c #002B06",
"r.	c #000401",
"s.	c #002306",
"t.	c #00D122",
"u.	c #008716",
"v.	c #008215",
"w.	c #007212",
"x.	c #009017",
"y.	c #002105",
"z.	c #00BC1E",
"A.	c #00E324",
"B.	c #000E02",
"C.	c #000801",
"D.	c #009F19",
"E.	c #006B11",
"F.	c #00C420",
"G.	c #008B16",
"H.	c #008015",
"I.	c #001703",
"J.	c #00A11A",
"K.	c #00D823",
"L.	c #00D322",
"M.	c #00AB1B",
"N.	c #001D05",
"O.	c #007213",
"P.	c #009818",
"Q.	c #00C620",
"R.	c #00CB20",
"S.	c #002A07",
"T.	c #00D722",
"U.	c #004E0C",
"V.	c #00510D",
"W.	c #009418",
"X.	c #002606",
"Y.	c #000902",
"Z.	c #007313",
"`.	c #006310",
" +	c #002706",
".+	c #003408",
"++	c #000301",
"@+	c #005A0E",
"#+	c #00BD1F",
"$+	c #00AC1C",
"%+	c #00A21A",
"&+	c #00C720",
"*+	c #005C0F",
"=+	c #00E925",
"-+	c #00ED26",
";+	c #006510",
">+	c #000D02",
",+	c #00A31A",
"'+	c #009718",
")+	c #001002",
"!+	c #00F828",
"~+	c #00480B",
"{+	c #00FA28",
"]+	c #00B91E",
"^+	c #002206",
"/+	c #00F528",
"(+	c #00C01F",
"_+	c #00B81D",
":+	c #001904",
"<+	c #007D14",
"[+	c #008816",
"}+	c #001C05",
"|+	c #009E19",
"1+	c #00A01A",
"2+	c #003108",
"                                                                                                ",
"                      . . . .                                     . . . .                       ",
"                  . + @ . .                                         . . # $ .                   ",
"              % & * = - .                                             . # ; > , '               ",
"            ) ! ~ { ] .                                                 . ^ / ( _ :             ",
"          . < [ } | '                                                     % 1 2 3 4 .           ",
"        5 ] 6 7 8 .                                                         . 9 7 0 a 5         ",
"        , b 7 c d .                                                         . 4 e 7 f g .       ",
"      h i j 7 k l                                                             @ m 7 n o p       ",
"    . q r 7 s t 5                                                             . u 0 7 e v .     ",
"    . w 7 7 x y                 v z                         A B                 C D 7 7 E .     ",
"  . F 6 7 7 G H               I J                             K L               : M 7 7 N O .   ",
"  . P 7 7 7 Q .             R S T                             | S U             . V 7 7 7 W .   ",
"  5 X 7 7 7 Y .           Z M `  .                            ..+.@.!           . 1 7 7 7 #.'   ",
"  $.%.7 7 7 &..           *.=.Q %                               -.;.>.          . A 7 7 7 ,.+   ",
"  '.).7 7 7 !..           ~.7 {.            . . . .             ].7 ^.          . /.(.7 7 _.:.  ",
"  <.[.7 7 2 % .           }.7 A           . . . . . . .         |.1.{ <         . . ;.7 7 2.1   ",
"  3.4.7 7 5.. .         y 6.7 7.        . . . . . . . .         5 8.[.9.        . . 0.7 7 6 a.  ",
"  b.c.7 7 5.. .         Z d.1.%         . . . . . . . .         . s 0.e.        . . 0.7 7 f.Y   ",
"  g.2.7 7 h.5 .         i.j.7 @         . . . . . . . .         : } k.]         . . c 7 7 e l.  ",
"  m.n.7 7 7 o..           +.7 p.          . . . . . .           q.7 /           . r.2 7 7 r ].  ",
"  s.t.7 7 7 '..           u.h.v.            . . . . .           w.(.x.          . y.7 7 7 D C   ",
"  F z.7 7 7 U .           I A.m B.          . . . . .         C.D.c.E.          . ].7 7 7 F.$.  ",
"  . G.7 7 7 H..           I.J.K.L           . . . . .         {.L.M.N.          . O.7 7 7 P.5   ",
"  . y (.7 7 +.C.            ..Q.J           . . . . .         G.R.S.            ) ~ 7 7 1.v .   ",
"    ) D 7 7 T.Z               U.J V.        . . . . .       1 W.Y               X.j.7 7 n.Y..   ",
"    . Z.1.7 ;.`..                +.+r.      . . . . .     ++&.S.              . @+=.7 7 H..     ",
"    . ..#+1.7 $+-                           . . . . .                         O %+7 1.&+g .     ",
"      ) *+6 7 =+4 .                         . . . . .                         q A.7 -+;+C.      ",
"        >+W.7 1.,+.                         . . . . .                       . '+1.7 D.)+        ",
"          /.~ !+1.~+5                       . . . . .                     5 < } {+]+F           ",
"            ^+%+/+(+A .                     . . . . .                   . , _+n m  +            ",
"              :+<+s w $..                   . . . . .                   >+[+s > }+              ",
"                . e.|+E.) .                 . . . . .                 ) `.1+:..                 ",
"                  . H 9.H . .               . . . . .             . . 7.2+>+.                   ",
"                          . . .             . . . . .           . . .                           ",
"                                            . . . . .                                           ",
"                                            . . . . .                                           ",
"                                            . . . . .                                           ",
"                                            . . . . .                                           ",
"                                            . . . . .                                           ",
"                                            . . . . .                                           ",
"                                          . . . . . .                                           ",
"                            . . . . . . . . . . . . . . . . . . . .                             ",
"                            . . . . . . . . . . . . . . . . . . . .                             ",
"                            . . . . . . . . . . . . . . . . . . . .                             ",
"                            . . . . . . . . . . . . . . . . . . . .                             ",
"                              . . . . . . . . . . . . . . . . . . .                             "};
