/* XPM */
static char * wmakerconf_xpm[] = {
"45 45 132 2",
"  	c None",
". 	c #868686",
"+ 	c #9E9A9E",
"@ 	c #717579",
"# 	c #696D71",
"$ 	c #696969",
"% 	c #616569",
"& 	c #595D61",
"* 	c #595961",
"= 	c #515559",
"- 	c #515151",
"; 	c #494D51",
"> 	c #515551",
", 	c #EFEFEF",
"' 	c #BECFDF",
") 	c #CFCFEF",
"! 	c #8E8E8E",
"~ 	c #86868E",
"{ 	c #86828E",
"] 	c #868286",
"^ 	c #717571",
"/ 	c #717171",
"( 	c #616561",
"_ 	c #595959",
": 	c #494949",
"< 	c #414141",
"[ 	c #383838",
"} 	c #303030",
"| 	c #282828",
"1 	c #181C18",
"2 	c #101410",
"3 	c #8692CF",
"4 	c #8692BE",
"5 	c #BECFEF",
"6 	c #797979",
"7 	c #696D69",
"8 	c #303430",
"9 	c #282C28",
"0 	c #202020",
"a 	c #181818",
"b 	c #080C08",
"c 	c #000400",
"d 	c #000000",
"e 	c #8682BE",
"f 	c #8692AE",
"g 	c #616161",
"h 	c #202420",
"i 	c #080808",
"j 	c #A6A6A6",
"k 	c #7192AE",
"l 	c #494D49",
"m 	c #101010",
"n 	c #96969E",
"o 	c #B6B2B6",
"p 	c #AEAEAE",
"q 	c #8682AE",
"r 	c #AEAAAE",
"s 	c #9E9E9E",
"t 	c #8E8A8E",
"u 	c #383C38",
"v 	c #303438",
"w 	c #181C20",
"x 	c #CFBEEF",
"y 	c #7182AE",
"z 	c #797D79",
"A 	c #71829E",
"B 	c #D7D7D7",
"C 	c #CFCFCF",
"D 	c #C7C7C7",
"E 	c #969296",
"F 	c #CFBEDF",
"G 	c #E7E7E7",
"H 	c #FFFFFF",
"I 	c #BEBEBE",
"J 	c #101418",
"K 	c #595D59",
"L 	c #A6A2A6",
"M 	c #D7D3D7",
"N 	c #F7F7F7",
"O 	c #DFDBDF",
"P 	c #B6B6B6",
"Q 	c #F7F3F7",
"R 	c #E7E3E7",
"S 	c #DFDFDF",
"T 	c #8E8A96",
"U 	c #86829E",
"V 	c #86719E",
"W 	c #CFCBCF",
"X 	c #969696",
"Y 	c #FFFBFF",
"Z 	c #71719E",
"` 	c #718296",
" .	c #C7C3C7",
"..	c #BEBABE",
"+.	c #618296",
"@.	c #303051",
"#.	c #201020",
"$.	c #717196",
"%.	c #413051",
"&.	c #EFEBEF",
"*.	c #202030",
"=.	c #203030",
"-.	c #617196",
";.	c #302041",
">.	c #414541",
",.	c #302030",
"'.	c #617186",
").	c #303041",
"!.	c #204141",
"~.	c #202041",
"{.	c #413041",
"].	c #304141",
"^.	c #716186",
"/.	c #414151",
"(.	c #304151",
"_.	c #616186",
":.	c #716196",
"<.	c #414161",
"[.	c #305151",
"}.	c #517171",
"|.	c #514161",
"1.	c #617171",
"2.	c #616171",
"3.	c #96AEDF",
"4.	c #516171",
"5.	c #615171",
"6.	c #516161",
"7.	c #615161",
"8.	c #515161",
"9.	c #515171",
"0.	c #514151",
"a.	c #415151",
"                                                                                          ",
"                                . + @ # $ % & * = - ; >                                   ",
"                , , , ' ) ! ~ { ] ^ / ( _ - : < [ } | 1 2 [ :                             ",
"                - 3 4 4 4 5 ' . 6 7 ( _ - : < [ 8 9 0 a 2 b c d                           ",
"                d - 4 4 e f e ' 7 g _ - : < [ } 9 h 1 2 b i d d d d                       ",
"                j d - 4 4 4 k e k > l : < [ } 9 h 1 a m i c d d d d d |                   ",
"              n o p d - e f q f q - : < [ 8 9 | 0 a 2 b c d d d d d d d d                 ",
"      5     n p r s t d - e k e k q - u 8 } | h 1 2 m i d d d d d d d d d d [ v v v v v w ",
"    , 4 x r p j + ! 6 / d - q k q y - [ 8 9 h 0 a 2 b c d d d i a 1 1 | a > d d d d d d d ",
"    , 3 4 5 j + ! z / $ - - k q k q A - } | h 1 2 m i d d d 2 ^ B B C D j E | d d d d d d ",
"    , 4 4 f F E ] ^ 7 ( g - q q q A q - 9 h 0 a 2 b c d d d 9 G H H H H H I . J d d d d d ",
"    , 4 4 4 4 5 6 / $ g K - k q A q A - | h 1 2 m i c d d d 9 B H H H H H G L / J d d d d ",
"    x f e f e f x 7 ( g x y q A q A q - h 0 a 2 b c d d d d 9 M H H H N , O P E $ d d d d ",
"    j 5 4 4 k e k 5 ' 5 k q A y A y A - h 1 2 m i c d d d d 9 C H H Q R S C I L 6 J d d d ",
"  T j ' e f q f q k q A q A U A U A V A - a 2 b c d d d d d 9 W H H , S M W I L . K d d d ",
"  + s X k e k q k q k q A y A y A y A A A - m i c d d d d d 9 D H Y G B C D P L t _ d d d ",
"  s + E - q q k q y q A q A U A V A Z ` Z ` - c d d d d d d 9  .H N R M W  ...r E 7 J d d ",
"{ L s E . - d - k q A y A y A A A , - - ` Z +.@.d d d d d d 9 I H , S C D I P r E 6 _ d d ",
"X + E t z / 7 d d - - - - - V A Z , #.0 - ` $.$.%.d d d d d 9 ..N &.O W  ...o j X . K d d ",
". E ! . 6 / $ g - d d d d d - A A Z , *.=.- +.$.-.;.d d d d 9 P Q G M  ...P p j + . ( u d ",
"/ E ! ] ^ 7 ( g _ > l >.< [ d - Z ` Z , ,.=.- '.$.'.,.d d d 9 o , R C I P o r L E z 7 [ d ",
"$ E ! z / $ g K > - : >.u } h d - Z +.Z , ).!.- -.$.'.~.d d 9 p G O W ..o r j s ! 6 $ 8 d ",
"$ E t 6 7 ( g _ > l >.u 8 h 2 i d - $.$.$., {.].- '.^.'.,.d 9 I Q O D P p j L X t / ( 8 d ",
"$ E . ^ 7 g K > - : < [ 9 1 b c a d - $.-.$., /.(.- '._.'.d 7 O Y O  .o r L s E . 7 g 8 d ",
"$ ! ] ^ $ g _ > l >.u 8 | a b 2 ^ o d - :.'.$.' /./.- '._._.d N &.C P r L s X ! ] 7 K 8 d ",
"$ t z / ( K > - : >.u } h a m 9 B H H d - $.'.-.' <.[.- '._.}.d C ..p j s + E t 6 $ K 8 d ",
"( ] 6 7 g _ > l >.< [ } h a b 9 B H H H d - ^.'.^.' |./.- 1._.2.d p j L + X ! z $ K < 0 d ",
"g ^ / $ K > - : >.u 8 9 0 2 b 9 M H H H H d - _.'._.3.<.(.- }._.4.d L + X ! . 6 g > 9 d d ",
"> ( $ g _ > l >.< [ } | 0 2 b 9 M H H H Y Q d - _.2._.3./.(.- 4.5.2.d X E t ] / g _ } d d ",
"  $ ( g _ - : >.u 8 9 h 1 m i 9 M H H H Q &.R d - _.}._.3./.].- 4.2.6.d ! . ^ $ _ < 0 d d ",
"  $ ( K > l >.< [ 8 9 h a m i 9 M H H H , R S B d - 2.2.2.3.{.} - 6.5.6.d z / ( > 9 i d d ",
"  - > > - : >.u 8 } | 0 a b c 9 M H H Y &.S O M C d - _.4.2.4 ).=.- 6.5.6.d ( K u 1 d d d ",
"    l - l : < [ } 9 h 1 2 b c 9 C H H N R O B C D  .d - 5.4.5.4 ,.- 5.6.7.8.d - | d d d d ",
"    : >.>.>.[ } 9 h 0 a m i c 9 W H H , S B C W  .I P d - 2.6.9.4 4 6.9.6.8.6.d 1 d d d d ",
"      [ [ [ 8 9 0 1 a 2 b i d 9 D H H &.O M W D I ..o r d - 5.6.5.6.7.8.- - 8.- d d d d d ",
"        >.u } 0 2 m m b i c d 9 D H N G B C D I ..o p j L d - 5.6.9.6.- d d - 8.- d d d d ",
"          >.9 2 b i c c d d d 9 B H Y R M D  ...P p r L s X d - 7.8.- d K [ - - - d d d d ",
"$ 7 ( K - u h } 1 a 1 1 1 1 0 z N H Y S W  .I P o r L s X E t d - 8.6.8.8 b , 8.- d d d d ",
"g ( K - : 8 | v B S &.O C W O N H H G M D I P o r j s X ! t z / d - 8.- ) , 0.- - d d d d ",
"_ _ - : u } | 1 2 P Y H H H H H H R C  ...P p j L s X t ] ^ $ g > d - 8.a.8.a.- d d d d d ",
"> - : < 8 9 h 1 m i 8 t o R R M D I o r j L + X ! t ] / ( ( _ l 8 b d - - - - d - d d d d ",
"> l < 8 9 h 0 1 2 b c d 8 6 t E j s E ! t ] z 6 ^ / / g > - [ 0 m d d d d d d - d d d d d ",
"- >.8 | 0 1 a 2 m i c d d d 9 - / 6 z 6 ^ / 7 $ ( g K u h h m d d d d d d d d d d d d d d ",
">.8 0 a 2 m m b i c d d d d d d d 9 h h 8 8 } } 9 h h m d d d d d d d d d d d d d d d d d ",
"i c d d d d d d d d d d d d d d d d d d d d d d d d d d d d d d d d d d d d d d d d d d d "};
