/* XPM */
static char * xboard_xpm[] = {
"48 48 459 2",
"  	c None",
". 	c #000000",
"+ 	c #CCC667",
"@ 	c #DAD46D",
"# 	c #D8D26D",
"$ 	c #D6D06B",
"% 	c #D5CF6B",
"& 	c #D3CD6A",
"* 	c #D2CC69",
"= 	c #D1CB69",
"- 	c #D0CA68",
"; 	c #CFCA67",
"> 	c #CFC967",
", 	c #CEC866",
"' 	c #CEC965",
") 	c #CFC965",
"! 	c #D0CA65",
"~ 	c #D0CA64",
"{ 	c #E8E375",
"] 	c #E6E174",
"^ 	c #E4DF73",
"/ 	c #E3DD72",
"( 	c #E1DB72",
"_ 	c #E0DA71",
": 	c #DFD970",
"< 	c #DED870",
"[ 	c #DDD86F",
"} 	c #DDD76F",
"| 	c #DCD66E",
"1 	c #DCD66D",
"2 	c #DDD76D",
"3 	c #DED86D",
"4 	c #DED86C",
"5 	c #DED96C",
"6 	c #DFD96C",
"7 	c #DDD86C",
"8 	c #D8D26C",
"9 	c #E4DE73",
"0 	c #E2DC72",
"a 	c #E0DB71",
"b 	c #DDD870",
"c 	c #DCD76F",
"d 	c #DBD56E",
"e 	c #DAD56D",
"f 	c #D9D46C",
"g 	c #DAD46C",
"h 	c #DAD56B",
"i 	c #DBD56B",
"j 	c #DBD66B",
"k 	c #DCD66A",
"l 	c #DCD76A",
"m 	c #DDD76A",
"n 	c #DED970",
"o 	c #DBD66F",
"p 	c #DAD56E",
"q 	c #D9D46D",
"r 	c #D9D36D",
"s 	c #D8D36C",
"t 	c #D7D26B",
"u 	c #D7D26A",
"v 	c #D8D26A",
"w 	c #D8D36A",
"x 	c #D9D369",
"y 	c #DAD469",
"z 	c #DAD468",
"A 	c #D9D469",
"B 	c #D4CF6B",
"C 	c #D9D46E",
"D 	c #D8D36D",
"E 	c #D7D16C",
"F 	c #D6D16B",
"G 	c #D5D06A",
"H 	c #D5D069",
"I 	c #D6D069",
"J 	c #D6D168",
"K 	c #D7D168",
"L 	c #D7D167",
"M 	c #D8D267",
"N 	c #D8D266",
"O 	c #D7D164",
"P 	c #B4B057",
"Q 	c #B4B056",
"R 	c #D7D267",
"S 	c #D7D26C",
"T 	c #E1DB71",
"U 	c #D4CF6A",
"V 	c #D3CE69",
"W 	c #D3CE68",
"X 	c #D4CE67",
"Y 	c #D4CF67",
"Z 	c #D5CF66",
"` 	c #D5D065",
" .	c #D6D065",
"..	c #A5A04F",
"+.	c #5B5831",
"@.	c #A4A04F",
"#.	c #D5CF65",
"$.	c #D1CC69",
"%.	c #D7D26D",
"&.	c #D6D16C",
"*.	c #D5D06B",
"=.	c #D4CE6A",
"-.	c #D3CD69",
";.	c #D2CC67",
">.	c #D2CC66",
",.	c #D2CD66",
"'.	c #D3CD65",
").	c #D3CE64",
"!.	c #D4CE64",
"~.	c #AEAA54",
"{.	c #000008",
"].	c #000015",
"^.	c #DBDCC1",
"/.	c #D3CD64",
"(.	c #D4CE69",
"_.	c #D0CB68",
":.	c #DCD66F",
"<.	c #DAD46E",
"[.	c #D3CE6A",
"}.	c #D2CD69",
"|.	c #D1CC68",
"1.	c #D1CB66",
"2.	c #D0CB65",
"3.	c #D1CB64",
"4.	c #D1CC64",
"5.	c #D2CC63",
"6.	c #D2CC62",
"7.	c #09090F",
"8.	c #101124",
"9.	c #F2F4D2",
"0.	c #FFFFFA",
"a.	c #FFFFF9",
"b.	c #F2F3D2",
"c.	c #D0CB66",
"d.	c #CFCA68",
"e.	c #DBD56F",
"f.	c #D0CB67",
"g.	c #CFCA65",
"h.	c #CFCA64",
"i.	c #D0CA63",
"j.	c #D0CA62",
"k.	c #D0CB61",
"l.	c #D1CB60",
"m.	c #08080D",
"n.	c #656666",
"o.	c #FFFFF8",
"p.	c #FFFFF7",
"q.	c #D0CA61",
"r.	c #CFCA63",
"s.	c #CFC964",
"t.	c #D4CE6B",
"u.	c #CEC968",
"v.	c #D6D06C",
"w.	c #CFCA66",
"x.	c #CEC964",
"y.	c #CEC963",
"z.	c #CFC962",
"A.	c #CFC961",
"B.	c #CFC960",
"C.	c #CFC95E",
"D.	c #07060B",
"E.	c #646564",
"F.	c #FFFFF6",
"G.	c #FFFFF5",
"H.	c #06060B",
"I.	c #CFC95F",
"J.	c #CEC962",
"K.	c #CEC863",
"L.	c #CDC867",
"M.	c #D9D36E",
"N.	c #CDC863",
"O.	c #CDC762",
"P.	c #CDC761",
"Q.	c #CDC85F",
"R.	c #CEC85E",
"S.	c #CEC85D",
"T.	c #050509",
"U.	c #626362",
"V.	c #FFFFF4",
"W.	c #FFFFF3",
"X.	c #CDC85E",
"Y.	c #CDC75F",
"Z.	c #CCC766",
"`.	c #D2CD6A",
" +	c #CEC966",
".+	c #CDC864",
"++	c #CCC762",
"@+	c #CCC661",
"#+	c #CCC65F",
"$+	c #CCC65E",
"%+	c #CCC65C",
"&+	c #CCC65B",
"*+	c #35331A",
"=+	c #84857B",
"-+	c #E2E3C2",
";+	c #FFFFF0",
">+	c #FFFFF1",
",+	c #8A8B7E",
"'+	c #34331A",
")+	c #CBC661",
"!+	c #CCC662",
"~+	c #D5D06C",
"{+	c #CCC666",
"]+	c #CEC865",
"^+	c #CDC763",
"/+	c #CBC662",
"(+	c #CBC560",
"_+	c #CBC55E",
":+	c #CBC55D",
"<+	c #CBC55B",
"[+	c #827D3B",
"}+	c #292714",
"|+	c #4B4C4D",
"1+	c #FFFFEF",
"2+	c #9FA08D",
"3+	c #AEA84C",
"4+	c #CBC559",
"5+	c #CCC764",
"6+	c #D3CE6B",
"7+	c #CFC966",
"8+	c #CBC55F",
"9+	c #CBC55C",
"0+	c #7B7839",
"a+	c #0C0D1E",
"b+	c #7E7F74",
"c+	c #FFFFD8",
"d+	c #FFFFE0",
"e+	c #FFFFED",
"f+	c #C6C6AB",
"g+	c #1B1C28",
"h+	c #3E3A1E",
"i+	c #C0BC56",
"j+	c #D1CB68",
"k+	c #D0CA67",
"l+	c #000001",
"m+	c #272833",
"n+	c #FFFFEE",
"o+	c #FFFFEC",
"p+	c #FFFFEB",
"q+	c #70716C",
"r+	c #423F20",
"s+	c #CCC660",
"t+	c #55522A",
"u+	c #8E8F83",
"v+	c #FFFFEA",
"w+	c #FFFFE7",
"x+	c #595A5B",
"y+	c #B2AE51",
"z+	c #424022",
"A+	c #07081B",
"B+	c #FFFFE9",
"C+	c #C3C4AC",
"D+	c #000005",
"E+	c #CBC660",
"F+	c #CAC45B",
"G+	c #414021",
"H+	c #06071A",
"I+	c #FFFFE8",
"J+	c #CBC65F",
"K+	c #CAC55D",
"L+	c #CAC45A",
"M+	c #413F20",
"N+	c #060719",
"O+	c #FFFFE6",
"P+	c #413F21",
"Q+	c #CAC45C",
"R+	c #403F20",
"S+	c #050619",
"T+	c #FFFFE5",
"U+	c #C9C359",
"V+	c #403E1F",
"W+	c #000009",
"X+	c #D9DABA",
"Y+	c #FFFFE4",
"Z+	c #CBC65E",
"`+	c #D2CC68",
" @	c #CDC760",
".@	c #C9C358",
"+@	c #9D9844",
"@@	c #6C6D67",
"#@	c #FFFFE3",
"$@	c #C8C155",
"%@	c #252310",
"&@	c #8B8C7D",
"*@	c #FFFFE2",
"=@	c #FFFFE1",
"-@	c #D5CF6A",
";@	c #CFC963",
">@	c #CEC861",
",@	c #CCC75F",
"'@	c #CAC55C",
")@	c #C8C257",
"!@	c #C7C154",
"~@	c #B5B04B",
"{@	c #1A1907",
"]@	c #434342",
"^@	c #DEDEB8",
"/@	c #1A1908",
"(@	c #CDC766",
"_@	c #C6C052",
":@	c #8D8839",
"<@	c #28250C",
"[@	c #1B1B22",
"}@	c #D2D2AF",
"|@	c #FFFFDF",
"1@	c #D2D3AF",
"2@	c #D9D36C",
"3@	c #D7D16B",
"4@	c #D5CF69",
"5@	c #D0CB64",
"6@	c #CEC860",
"7@	c #CCC65D",
"8@	c #A6A147",
"9@	c #363417",
"0@	c #24252C",
"a@	c #959582",
"b@	c #FFFFDE",
"c@	c #DBD66E",
"d@	c #CEC85F",
"e@	c #AAA44B",
"f@	c #000006",
"g@	c #D0D1B1",
"h@	c #FFFFD6",
"i@	c #FFFFDD",
"j@	c #CDC866",
"k@	c #A4A04A",
"l@	c #000002",
"m@	c #00000A",
"n@	c #CDCEB2",
"o@	c #D2CD65",
"p@	c #D1CB63",
"q@	c #000004",
"r@	c #D9DABC",
"s@	c #817C3C",
"t@	c #959688",
"u@	c #CFCA60",
"v@	c #C6C15B",
"w@	c #201E15",
"x@	c #171929",
"y@	c #FDFED7",
"z@	c #CEC867",
"A@	c #D6D068",
"B@	c #77743A",
"C@	c #898B80",
"D@	c #CEC967",
"E@	c #DDD76E",
"F@	c #DAD56C",
"G@	c #D8D36B",
"H@	c #D6D169",
"I@	c #D5CF67",
"J@	c #78753A",
"K@	c #DED86F",
"L@	c #DAD46B",
"M@	c #D8D269",
"N@	c #D4CF66",
"O@	c #CEC960",
"P@	c #423F25",
"Q@	c #DFD96F",
"R@	c #DBD56C",
"S@	c #D9D36A",
"T@	c #D6D066",
"U@	c #646565",
"V@	c #FFFFF2",
"W@	c #E0DA70",
"X@	c #DED86E",
"Y@	c #DCD66C",
"Z@	c #B2B3A1",
"`@	c #E1DB70",
" #	c #D9D46A",
".#	c #D8D268",
"+#	c #D6D166",
"@#	c #B3B4A2",
"##	c #E2DC71",
"$#	c #E0DA6F",
"%#	c #00000F",
"&#	c #00000D",
"*#	c #00000B",
"=#	c #000007",
"-#	c #000003",
";#	c #DFDA6F",
">#	c #DBD56A",
",#	c #646135",
"'#	c #635F34",
")#	c #615E32",
"!#	c #605D30",
"~#	c #5F5C2F",
"{#	c #5F5B2D",
"]#	c #5E5B2C",
"^#	c #5D5A2B",
"/#	c #5D592A",
"(#	c #5C5929",
"_#	c #5C5828",
":#	c #5B5828",
"<#	c #5B5727",
"[#	c #E5DF72",
"}#	c #E3DD71",
"|#	c #DFD96E",
"1#	c #DCD76B",
"2#	c #D9D367",
"3#	c #D6D062",
"4#	c #D5CF61",
"5#	c #D5CF60",
"6#	c #D4CE5F",
"7#	c #D4CD5E",
"8#	c #D3CD5D",
"9#	c #D3CC5C",
"0#	c #D2CC5C",
"a#	c #D2CC5B",
"b#	c #D2CB5B",
"c#	c #E6E073",
"d#	c #E4DF72",
"e#	c #E1DB6F",
"f#	c #E0DA6E",
"g#	c #DED96D",
"h#	c #DDD76C",
"i#	c #DBD569",
"j#	c #D9D366",
"k#	c #D8D265",
"l#	c #D8D264",
"m#	c #D7D163",
"n#	c #D7D162",
"o#	c #D7D061",
"p#	c #D6D060",
"q#	c #D6CF5F",
"r#	c #D5CF5F",
"s#	c #E8E274",
"t#	c #E2DC6F",
"u#	c #E0DB6E",
"v#	c #DFDA6D",
"w#	c #DED86B",
"x#	c #DBD568",
"y#	c #DBD567",
"z#	c #DBD466",
"A#	c #DAD466",
"B#	c #DAD465",
"C#	c #DAD464",
"D#	c #D9D364",
"E#	c #D9D363",
"F#	c #D9D262",
"G#	c #D8D262",
"H#	c #EAE475",
"I#	c #E7E173",
"J#	c #E4DE71",
"K#	c #E2DD70",
"L#	c #E1DB6E",
"M#	c #E0DA6D",
"N#	c #DDD769",
"O#	c #DDD768",
"P#	c #DDD767",
"Q#	c #DDD667",
"R#	c #DCD666",
"S#	c #CDC767",
"T#	c #D8D26B",
"U#	c #D7D16A",
"V#	c #D4CF68",
"W#	c #D3CE67",
"X#	c #D3CD67",
"Y#	c #D1CB65",
"Z#	c #D0C962",
". . . . . . . . . . . . . . . . . . . . . . . . . . . . . . . . . . . . . . . . . . . . . . . . ",
". . . . . . . . . . . . . . . . . . . . . . . . . . . . . . . . . . . . . . . . . . . . . . . . ",
". . + @ # $ % & * = - ; > , , , ' ) ) ! ! ! ~ ~ ~ ~ ! ! ! ) ) ' , , , > ; - = * & % $ # @ + . . ",
". . @ { ] ^ / ( _ : < [ } | 1 1 2 2 3 4 4 5 6 6 6 6 4 4 4 7 2 2 1 1 | } [ < : _ ( / ^ ] { @ . . ",
". . 8 ] 9 0 a : b c | d e f f g h i j k k k l m l k k k k i i h g f f e d | c b : a 0 9 ] 8 . . ",
". . $ ^ 0 _ n } o p q r s t u v w x x y z z z z z z z z A x x w v u t s r q p o } n _ 0 ^ $ . . ",
". . B / a < c d C D 8 E F G H I J K L M N O P Q P P O N R L K J I H G F E S D C d c < a / B . . ",
". . & T : c d r # E $ G U V W X Y Z `  ...+.. . . . +.@. .#.Z Y X W V U G $ E # r d c : T & . . ",
". . $._ b d q %.&.*.U =.-.;.>.,.'.).!.~.{.].^.^.^.^.].{.~.!./.'.>.>.;.-.(.U *.&.%.q d b _ $.. . ",
". . _.n :.<.# &.*.U [.}.|.1.2.3.4.5.6.7.8.9.0.a.0.0.b.8.7.6.5.3.3.2.c.|.}.[.U % &.# <.:.n _.. . ",
". . d.b e.r E *.U [.}.|.f.g.h.i.j.k.l.m.n.o.o.p.p.o.o.n.m.l.q.j.r.s.g.f.|.* & t.*.E r e.b d.. . ",
". . u.c <.# v.B [.}.|.f.w.x.y.z.A.B.C.D.E.F.G.G.G.G.F.E.H.I.B.A.J.K.x.w.f.|.}.[.B v.# <.c u.. . ",
". . L.o M.E % [.}.|.f.w.' N.O.P.Q.R.S.T.U.V.W.W.W.W.V.U.T.S.X.Y.P.O.N.' w._.$.}.[.% E M.o L.. . ",
". . Z.p # v.t.`.$._.>  +.+++@+#+$+%+&+*+. =+-+;+;+>+,+. '+&+%+$+#+)+!+.+ +> - = `.t.~+# p Z.. . ",
". . {+<.%.*.[.* _.;  +]+^+/+(+_+:+<+[+}+. . |+1+1+2+. . 3+4+<+:+_+(+/+5+]+ +; _.* [.*.%.<.{+. . ",
". . {+<.%.*.6+}._.; 7+]+^+)+8+_+9+0+. a+b+c+d+e+e+d+f+g+. h+i+9+_+(+)+^+]+7+; _.* [.*.%.<.{+. . ",
". . {+<.%.*.t.}.j+k+7+' ^+@+8+:+<+l+m+c+n+e+o+p+o+o+e+n+q+. r+<+:+8+)+^+]+7+k+j+}.6+*.%.<.{+. . ",
". . {+<.%.*.t.}.|.k+7+x.^+s+_+9+t+. u+1+e+p+v+v+v+v+o+e+w+x+. y+:+8+)+^+]+7+k+j+}.t.*.%.<.{+. . ",
". . {+<.%.~+t.}.|.f.7+x.O.s+_+9+z+A+1+e+o+v+B+B+B+B+v+o+n+C+D+z+9+_+E+O.x.7+k+|.}.t.~+%.<.{+. . ",
". . {+<.%.~+B }.|.f.w.x.O.E+:+F+G+H+n+o+v+B+I+w+w+I+B+v+o+1+H+G+F+_+E+O.x.w.f.|.}.t.~+%.<.{+. . ",
". . {+<.%.v.B }.|.f.g.x.O.J+K+L+M+N+e+p+B+I+O+O+O+O+I+B+p+n+H+P+F+:+J+O.x.g.f.|.}.B v.%.<.{+. . ",
". . {+<.# v.B -.|.f.g.y.P.J+Q+L+R+S+o+v+I+O+T+T+T+T+w+I+v+e+S+R+L+Q+J+P.y.g.f.|.-.U v.# <.{+. . ",
". . Z.p # $ U -.|.c.g.y.P._+Q+U+V+W+X+B+w+T+Y+Y+Y+Y+O+w+B+X+W+V+U+Q+Z+P.y.g.c.|.-.U $ # p Z.. . ",
". . Z.p D F U V `+c.h.y. @_+F+.@+@. @@I+O+Y+#@#@#@#@Y+O+I+@@. +@U+F+_+ @y.g.c.`+V U F D p Z.. . ",
". . Z.p D F U V ;.c.h.J. @:+L+.@$@%@. &@T+#@*@=@=@*@#@T+&@. %@$@.@L+:+ @J.h.c.;.V U F D p Z.. . ",
". . Z.d D F -@V ;.2.;@>@,@'@U+)@!@~@{@. ]@^@=@d+d+=@^@]@. /@~@!@)@U+'@,@>@s.2.;.V -@F D d Z.. . ",
". . (@d D F -@W ;.2.;@>@$+F+.@$@_@:@<@. [@}@|@|@|@|@1@[@. <@:@_@$@.@F+$+>@;@2.;.W -@F D d (@. . ",
". . (@d 2@3@4@W >.5@z.6@7@L+)@8@9@. 0@a@=@|@b@b@b@b@d+=@a@0@. 9@8@)@L+7@6@z.5@>.W 4@3@2@d (@. . ",
". . (@c@2@3@H W >.3.z.d@7@L+e@. f@g@h@#@=@|@b@i@i@b@|@=@#@h@g@f@. e@L+7@d@z.3.>.W H 3@2@c@(@. . ",
". . j@c@f t H X ,.3.A.d@%+k@l@m@n@I+T+*@d+|@i@i@i@i@|@d+*@T+I+n@m@l@k@%+d@A.3.,.X H t f c@j@. . ",
". . j@| f t H X o@p@A.R.%+. q@r@v+w+T+*@d+b@i@i@i@i@b@d+*@T+w+v+r@q@. %+R.A.p@o@X H t f | j@. . ",
". . , | g t I X o@p@A.R.s@. t@e+v+w+Y+*@d+b@i@i@i@i@b@d+*@Y+w+v+e+t@. s@R.A.p@o@X I t g | , . . ",
". . , | g v I X o@p@u@v@w@x@y@e+v+w+T+*@d+|@b@i@i@b@|@d+*@T+w+v+e+y@x@w@v@u@p@o@X I v g | , . . ",
". . z@| g v A@Y '.p@u@B@. C@;+e+v+I+T+#@=@d+|@b@b@|@d+=@#@T+I+v+e+;+C@. B@u@p@'.Y A@v g | z@. . ",
". . D@E@F@G@H@I@'.5.q.J@. p+;+n+p+B+O+Y+#@=@d+d+d+d+=@#@Y+O+B+p+n+;+p+. J@q.5.'.I@H@G@F@E@D@. . ",
". . k+K@1 L@M@A@N@/.O@P@. e+>+1+e+p+I+w+T+Y+#@*@*@#@Y+T+w+I+p+e+1+>+e+. P@O@/.N@A@M@L@1 K@k+. . ",
". . j+Q@E@R@S@K T@!.8+. U@V@W.>+1+e+p+B+I+O+O+T+T+O+O+I+B+p+e+1+>+W.V@U@. 8+!.T@K S@R@E@Q@j+. . ",
". . |.W@X@Y@L@M@L #.s+. Z@p.V.V@>+1+e+p+v+B+I+I+I+I+B+v+p+e+1+>+V@V.p.Z@. s+#.L M@L@Y@X@W@|.. . ",
". . }.`@Q@2 i  #.#+#>@. @#o.F.V.W.>+1+n+e+o+p+p+p+p+o+e+n+1+>+W.V.F.o.@#. >@+#.# #i 2 Q@`@}.. . ",
". . V ##$#X@Y@i x M z.. W+%#&#*#m@{.=#f@q@q@-#-#-#-#q@q@f@=#{.m@*#&#%#W+. z.M x i Y@X@$###V . . ",
". . -@/ `@;#3 Y@>#A #.,#'#)#!#~#{#]#^#/#(#_#:#<#<#:#_#(#/#^#]#{#~#!#)#'#,##.A >#Y@3 ;#`@/ -@. . ",
". . $ [#}#`@|#3 1#>#z 2#N O 3#4#5#6#7#8#9#0#a#b#b#a#0#9#8#7#6#5#4#3#O N 2#z >#1#3 |#`@}#[#$ . . ",
". . 8 c#d#}#e#f#g#h#k i#z j#k#l#m#n#o#p#p#q#r#r#r#r#q#p#p#o#n#m#l#k#j#z i#k h#g#f#e#}#d#c#8 . . ",
". . @ s#c#[#}#t#u#v#4 w#m x#y#z#A#B#C#D#E#E#F#G#G#F#E#E#D#C#B#A#z#y#x#m w#4 v#u#t#}#[#c#s#@ . . ",
". . c@H#s#I#[#J#K#t#L#M#6 w#m N#O#O#P#Q#R#R#R#R#R#R#R#R#Q#P#O#O#N#m w#6 M#L#t#K#J#[#I#s#H#c@. . ",
". . S#| @ T#U#I V#W#X#>.Y#~ i.i.j.Z#A.A.A.B.B.B.B.B.B.A.A.A.Z#j.i.i.~ Y#>.X#W#V#I U#T#@ | S#. . ",
". . . . . . . . . . . . . . . . . . . . . . . . . . . . . . . . . . . . . . . . . . . . . . . . ",
". . . . . . . . . . . . . . . . . . . . . . . . . . . . . . . . . . . . . . . . . . . . . . . . "};
