/* XPM */
static char * aeolus_64_xpm[] = {
"64 64 8 1",
" 	c #272744",
".	c #3D3522",
"+	c #4B4838",
"@	c #4A4A5F",
"#	c #59595B",
"$	c #666865",
"%	c #6F707F",
"&	c #9A9BA1",
"$$$$$$$$$$$$$$$$$$$$$$$$$$$$$$$$$$$$$$$$$$$$$$$$$$$$$$$$$$$$$$$$",
"$$$$$$$$$$$@@@@@@@@@@#@@@@@@@@@@@@@@@@@@@@#@@@@@@@@@@@@@@@@@@@@#",
"$&&&&$$$$$$@%%%%%%%& #@%%&%&%%@@@ %%%%%%  # @%%%&%% @ %&%%%&&% #",
"$&&&$$$$$$$@   @@@@@ # @ @@@   @@ @@@@ @  #   @@@   @@ @ @   @ #",
"$$$$$$$$$$$@   @@    #    @@   @@ @@@@ %  #    @@   @@    @    #",
"$$$$$$$$$$$@   @@    #    @@   @@ @%%%@%  #    @@   @@   @@    #",
"$$$$#######@@@##################################################",
"$$$#@         #+++..+.+++$$$$$$$$$$$$$$$$$$$$$$$$$$$$$$$$$$$$$$$",
"$$$$@  @@@@   #$++$+$$+$+$$$$$$$$$$$$$$$$$$$$$$$$$$$$$$$$$$$$$$$",
"$$$$@  %%%%   #$$$&$$$$$+$$$$$$$$$$$$$$$$$$$$$$$$$$$$$$$$$$$$$$$",
"$$$$@         #+..+...+.+$$$$$$$$$$$$$$$$$$$$$$$$$$$$$$$$$$$$$$$",
"$$$$#@@@@@@@@@#++++++++++$$$$$$$$$$$$$$$$$$$$$$$$$$$$$$$$$$$$$$$",
"$$$$$$########$$$$$$$$$$$$$$$$$$$$$$$$$$$$$$$$$$$$$$$$$$$$$$$$$$",
"$$$$$$$$$$$$$$$$$$$$$$$$$$$$$$$$$$$$$$$$$$$$$$$$$$$$$$$$$$$$$$$$",
"$$$$$$$$$$$$$$$$$$$$$$$$$$$$$$$$$$$$$$$$$$$$$$$$$$$$$$$$$$$$$$$$",
"$$$$$$$$$$$@@@@@@@@ @#@#     @@@@@@@@ @ @@#@@@@  @@@@@@@@@ @  @#",
"$&&$$$$$$$$@%&&&%&&& #@&&%&&&&%@@ %%&&%%  #  &&&&&% @@@&&&%%&& #",
"$&&$$$$$$$$@         #         @@         #         @@         #",
"$$$$$$$$$$$@   @%    #  &%%%@% @@ %%%%@%  #   %@%%  @@    @    #",
"$$$$$$$$$$$@         #  @@@@@@ @@ @@@@@@  #   @@@@  @@    @    #",
"$$$$$#####$##########$##########################################",
"$$$$@         #+........++.........#$$$$$$$$$$$$$$$$$$$$$$$$$$$$",
"$$$$@ @@@ @@  #$++++++++++..$++$+..#$$$$$$$$$$$$$$$$$$$$$$$$$$$$",
"$$$$@ &&&&%&@ +$$&&&&&&&++.+&$&&+..#$$$$$$$$$$$$$$$$$$$$$$$$$$$$",
"$$$$@         #+........++.........#$$$$$$$$$$$$$$$$$$$$$$$$$$$$",
"$$$$@         #++++++++++#.........#$$$$$$$$$$$$$$$$$$$$$$$$$$$$",
"$$$$$$$$$$$$$$$$$$$$$$$$$$$$$$$$$$$$$$$$$$$$$$$$$$$$$$$$$$$$$$$$",
"$$$$$$$$$$$$$$$$$$$$$$$$$$$$$$$$$$$$$$$$$$$$$$$$$$$$$$$$$$$$$$$$",
"$$$$$$$$$$$$$$$$$$$$$$$$$$$$$$$$$$$$$$$$$$$$$$$$$$$$$$$$$$$$$$$$",
"$$$$$$$$$$$####@##@#@#@%##@###@##@###@#@@@#@@###@#@@##@@###@#@@#",
"$&$$$$$$$$$@@%@@@%@% # %@%@%%%@ @ @%%@@@  #  %%@@@@ @@  %%%@@  #",
"$&$$$$$$$$$@ @@@@%@% # @@@@@%%@@@  @@%@@  #  @@@@@@ @@  @%@@@  #",
"$$$$$$$$$$$@   @@    #    @@   @@    @    #         @@  @@@%   #",
"$$$$$$$$$$$@   @@    #    @@   @@    @    #    @    @@  @@@@   #",
"$$$$#######@@@@@@@@@@#@@@@@@@@@@@@@@@@@@@@#@@@#@##@###@#####@@##",
"$$$#@ @%%%@@ @@ @@@%%@% @@        @@@        @+.......++#+......",
"$$$$@  %@@@   @ @@%%%%@  @ @@@@@   @ @@@@@ @  +..++++...+..+.#$+",
"$$$$@    @    @   @@@    @ %%%%%@  @ @@%%%%%  +..+$$$...+..$$$$$",
"$$$$@   @@    @   @@%    @         @          +.........+.......",
"$$$$@    @    @@   @@   @@         @@        @#........+#+......",
"$$$$$########$$$########$$########$$$########$$$$$$$$$$$$$$$$$$$",
"$$$$$$$$$$$$$$$$$$$$$$$$$$$$$$$$$$$$$$$$$$$$$$$$$$$$$$$$$$$$$$$$",
"$$$$$$$$$$$$$$$$$$$$$$$$$$$$$$$$$$$$$$$$$$$$$$$$$$$$$$$$$$$$$$$$",
"$$$$$$$$$$$#@@@@@@@@@#@#@@@@@@@##@@@@@@@@@#@#@@@@@@@##@@@@@@@@@#",
"$&&$$$$$$$$@ %%%%@%@ # &@%@%%%@@ %%%@%%@% # &@%@%%%@ @ @%%@@@  #",
"$&$$$$$$$$$@ @@@@%%@ # @@@%%%%@@@ @@%@%%% # @@@%%%%@@@ @@@%@@  #",
"$$$$$$$$$$$@   @@    #    @@   @@    @    #         @@    @    #",
"$$$$$$$$$$$@   @&    #    %%   @@   @@    #    @@   @@    @    #",
"$$$$#######@ @@@ @@@@#@@@@  @@@@@@@@@@@@@@#@@@@@@@@@##@@@@@@@@@#",
"$$$#@@@@@@@@@@@%@@@%@@%@@#        @#++++++++++#+++++++++#+++++++",
"$$$#@@%%%%%%%@@%%%%%%@%@ @ @ @@ @  #...+++....+..++++...+..+++++",
"$$$$@   @@    @@  @@@    @ %%%%%%@ #...&$$....+..$$$$...+..$$$$$",
"$$$$@   @@    @    %@    @   @@@   #.....+....+....++...+.....++",
"$$$$@   @@@  @@@  @@@   @@         #+.+...++++#........+#+..+...",
"$$$$##########################################$#########$#######",
"$$$$$$$$$$$$$$$$$$$$$$$$$$$$$$$$$$$$$$$$$$$$$$$$$$$$$$$$$$$$$$$$",
"$$$$$$$$$$$$$$$$$$$$$$$$$$$$$$$$$$$$$$$$$$$$$$$$$$$$$$$$$$$$$$$$",
"$$$$$$$$$$$$$$$$$$$$$$$$$$$$$$$$$##$$$$$$$$###$$$$$$$##$$$$$$$$$",
"$$&$&&$$$$$$$$$&$&$$$$$$$$$$$###$&$$######$$&$###$##$&&$###$$$$$",
"$$$$$$$$$$$$$$$$$$$$$$$$$$$$$##############################$$$$$",
"$$$$$$$$$$$$$$$$$$$$$$$$$$$$$$#######$$$$$####$#$$#######$$$$$$$",
"$$&&&&$$$$$$$$$&$&$$$$$$$$$$$###$$$$######$$$$###$##&&$$###$$$$$",
"$$$$$$$$$$$$$$$$$$#$$$$$$$$$$##############################$$$$$",
"$$$$$$$$$$$$$$$$$$$$$$$$$$$$$$$$$$$$$$$$$$$$$$$$$$$$$$$$$$$$$$$$"};
