/* XPM */
static char *glest-2[] = {
/* columns rows colors chars-per-pixel */
"48 48 255 2",
"   c #101004",
".  c #191203",
"X  c #1A1807",
"o  c #1C292A",
"O  c #230501",
"+  c #231800",
"@  c #221A08",
"#  c #23180D",
"$  c #2A2008",
"%  c #2F240E",
"&  c #292110",
"*  c #2A2417",
"=  c #332506",
"-  c #39290B",
";  c #312710",
":  c #322A19",
">  c #3B3016",
",  c #322C20",
"<  c #3B3220",
"1  c gray20",
"2  c #162970",
"3  c #354A3A",
"4  c #3F433C",
"5  c #2D4057",
"6  c #24505E",
"7  c #3B4B59",
"8  c #35476D",
"9  c #3C5A7B",
"0  c #4E3706",
"q  c #48350C",
"w  c #423210",
"e  c #423519",
"r  c #4A3A1A",
"t  c #523D0E",
"y  c #593D00",
"u  c #533A1D",
"i  c #423821",
"p  c #493B20",
"a  c #4A3E22",
"s  c #6D3E09",
"d  c #4C4C0C",
"f  c #5E4207",
"g  c #52421C",
"h  c #5A4313",
"j  c #4F4329",
"k  c #4E4C38",
"l  c #514223",
"z  c #544927",
"x  c #5C4A21",
"c  c #5A4B28",
"v  c #5A4D30",
"b  c #5B5738",
"n  c #694309",
"m  c #634911",
"M  c #614B1A",
"N  c #6B521B",
"B  c #744C0C",
"V  c #7A510F",
"C  c #735E1E",
"Z  c #645328",
"A  c #6A5420",
"S  c #6C572A",
"D  c #625436",
"F  c #645430",
"G  c #6F5B31",
"H  c #6B5D3B",
"J  c #725B2A",
"K  c #65670B",
"L  c #736C11",
"P  c #756924",
"I  c #766132",
"U  c #786339",
"Y  c #7E693A",
"T  c #485255",
"R  c #5A5256",
"E  c #475560",
"W  c #58716D",
"Q  c #655A62",
"!  c #696450",
"~  c #756440",
"^  c #7D6B42",
"/  c #777355",
"(  c #64737B",
")  c #7C706F",
"_  c #1B48AF",
"`  c #2D4B9B",
"'  c #0F5AE3",
"]  c #2F76D4",
"[  c #3366CC",
"{  c #3C77FC",
"}  c #4F6D87",
"|  c #5C7387",
" . c #597893",
".. c #456BAA",
"X. c #4F6ABE",
"o. c #6076A7",
"O. c #4177C7",
"+. c #6C7ACA",
"@. c #3F9DFA",
"#. c #5B859B",
"$. c #52949C",
"%. c #6A869E",
"&. c #7F8D9B",
"*. c #6F8FA8",
"=. c #7A94B0",
"-. c #4E83E0",
";. c #55A1FF",
":. c #6C96C1",
">. c #7B8FD7",
",. c #739BE2",
"<. c #70ABE9",
"1. c #73A8F7",
"2. c #78AFFF",
"3. c #73BAFF",
"4. c #7CCFFF",
"5. c #804D02",
"6. c #8E5103",
"7. c #905A15",
"8. c #8D6100",
"9. c #996600",
"0. c #9C7F1D",
"q. c #896C2D",
"w. c #A54C00",
"e. c #B34100",
"r. c #A86A00",
"t. c #B16704",
"y. c #846F42",
"u. c #857249",
"i. c #89754A",
"p. c #857D55",
"a. c #CC6600",
"s. c #C47700",
"d. c #D77B00",
"f. c #8C8D02",
"g. c #828415",
"h. c #8A832C",
"j. c #838A37",
"k. c #9B8238",
"l. c #A2830A",
"z. c #A09B02",
"x. c #A99317",
"c. c #B08C07",
"v. c #B88101",
"b. c #B4900B",
"n. c #A2973F",
"m. c #B2AA00",
"M. c #ADA224",
"N. c #B1A733",
"B. c #998D58",
"V. c #8D8E79",
"C. c #96AA55",
"Z. c #AD964B",
"A. c #B29C5F",
"S. c #A6997C",
"D. c #B2A157",
"F. c #B1AB77",
"G. c #C08600",
"H. c #CF8F0A",
"J. c #C09100",
"K. c #C0941A",
"L. c #DC8300",
"P. c #CC9933",
"I. c #C1BD06",
"U. c #D4AD02",
"Y. c #E09F00",
"T. c #ED9A00",
"R. c #F28300",
"E. c #F89D02",
"W. c #FF9900",
"Q. c #F7AC00",
"!. c #FFAF00",
"~. c #F5B902",
"^. c #F5B828",
"/. c #C0A659",
"(. c #D0CD0A",
"). c #DDC108",
"_. c #D8C01E",
"`. c #DBD406",
"'. c #CCCC33",
"]. c #DEDA3A",
"[. c #DAE128",
"{. c #EFCF00",
"}. c #FFC000",
"|. c #FFCC00",
" X c #FCCF13",
".X c #FBDC18",
"XX c #F8D83A",
"oX c #E3E104",
"OX c #FFE000",
"+X c #FDF200",
"@X c yellow",
"#X c #F4F711",
"$X c #FDF418",
"%X c #E3E123",
"&X c #FFFF33",
"*X c #D2C370",
"=X c #D9E273",
"-X c #F4CB52",
";X c #F9F642",
":X c #FFF246",
">X c #F9E965",
",X c #858F90",
"<X c #909E88",
"1X c gray60",
"2X c #949FAC",
"3X c #9CB184",
"4X c #89A1AD",
"5X c #94A4B5",
"6X c #9BB7BC",
"7X c #AA9F86",
"8X c #AEA38A",
"9X c #A5A59F",
"0X c #B4A78C",
"qX c #B5AD94",
"wX c #BBAF96",
"eX c #BFBC8A",
"rX c #BFB69F",
"tX c #B2B2AD",
"yX c #B2B3B7",
"uX c #8898C5",
"iX c #81A4DE",
"pX c #97ABD5",
"aX c #85B2FF",
"sX c #93A8E5",
"dX c #91BEE0",
"fX c #91B6F0",
"gX c #AFBCD7",
"hX c #99CCFF",
"jX c #94DCFF",
"kX c #BAC5D4",
"lX c #BED2D2",
"zX c #A6CDFF",
"xX c #B3C5E0",
"cX c #A6E3FF",
"vX c #A6F0F3",
"bX c #AFFFFF",
"nX c #BDE3FF",
"mX c #CFCB91",
"MX c #CFE8A6",
"NX c #D9F6B6",
"BX c #EFEE84",
"VX c #FFFF8E",
"CX c #F2F199",
"ZX c #EFF1B5",
"AX c #FFFFA3",
"SX c gray80",
"DX c #CADFF9",
"FX c #DAE6CE",
"GX c #CCFFFF",
"HX c #D7EAFF",
"JX c #D7FFFF",
"KX c #FFFFCC",
"LX c #E6FFE6",
"PX c #EDFFFF",
"IX c gray100",
/* pixels */
"wXBXAXZXqXwXrXrXrX0X0XwXwXrXrX0XrXrXrXrX7XwXwX0XrXrXrXrXrXqX7XwXwXrXrXwXwX8X8XwXwX0X0XwXrXwXp.~ ",
"k.^.KXFXN N M I u.^ f y y N J y y m U u.A U i.f J Y Y ^ ^ i.Y J J i.i.I U I J Y J N U N N ^ I r ",
"-XVXKX>XN.S h S U H D ~ N I i.y.A A t D Z A i.A A A x r h u.i.A y y S H D ~ J u.U y Y u.t c H @ ",
"mXmX X!.XXN.0 G ~ z b.D S A i.i.i.U q b.z m A N m G c b.v u.u.Y J m m z b.D ^ i.i.N J u.c b.D : ",
"S.h 7.L.t. Xx.Z F g r x y y i.Y Y J x D H I Y Y A u.~ g G I N y.i.I m h q t u.i.y.J J I G D x * ",
"0XG M V t.W.XXx.& & & & : ; > > > $ $ : $ ; < : : ; $ $ : $ ; < % > < < $ : < % $ : & N h G M & ",
"wXu.A 0 0.T.d. Xn.> > > i i i p p p > a > - j p p p > - a - - j > > - a a > j a = = & Y k.Y u.: ",
"0Xu.S 0 h B t.R.;Xh.e e p p p p l z z z z a w a a c c w z r w c c r l = v - r l p $ m `.I.M S : ",
"7Xy.y.~ Z & V Q.E.~.x.p.v p l p.B.F l l l l l l l l l z z z - z z l r w l - - r L m.@XoXm t t & ",
"0XI ^ ^ M & > B t.w.>XAXmXp.*XF.D p l l l l a r - r p w j j - j j r w - a z L I.OXOX+XC p g x @ ",
"0X0 c H U % e > s -XCXF.BXCXp.e a a a j a a g h C n V n t g r r e j - - L (.@X|.d.OXK a j - q + ",
"qXg c.D ^ : - p h VXeXBXAXlXk > p p - g g.I.).{.~.~.E.E.R.d.s.r.6.s 0.`.@X|.v.e.}.I.. - j l.v & ",
"qX~ g g N : p w l A.BXAX} o.kXk ; g z.oX@X|.T.s.r.8.8.l.v.v.L.R.R.R.}.}.d.` 2 Q.+X. X = w c F & ",
"7XI G M m ; a a r u =XS.} | =.6Xg.oX@X!.r.G ( *.iXfXzXnXhX<.uX&.V.n.V y.3.' s.@Xd X # t h M h $ ",
"0Xy.y.A m % e v l q.*Xi 4 %.W '.@X}.7.9 ,.nXIXIXIXIXIXIXIXIXIXPXJXJXDXPX3.t.+Xf.X * @ Z ^ y.J @ ",
"qXY Y y.J % > > z A.~ > ; k [.@Xd.R 1.PXIXIXIXLXNXMXMXFXGXJXPXIXIXIXIXcXv }.`.X @ @ & M A i.i.& ",
"qXU y.i.I $ $ r M B.p > e (.@X6.` cXIXIXJXdX/.Q.}.}.}.Q.T.Z.#.1.IXIXPX9 a.|.= & : < : I J u.y.& ",
"wXI U u.U > e r x x a i I.@X6._ GXIXIXJX] t.}.|.m.z.m.U.E.R.s.3 ,.IXhXM }.5.X * > e : A A u.u.@ ",
"qXZ g Z ^ < j j a r a L +XL.2 bXIXIXIX] 6.+XI.$   # . . - - 5.s.| JXuXv.|.$ & : i i : f t c F @ ",
"8Xr c.g u.: j j j e e (.OX, 4.IXIXIX3.s +X(.X X & & ; $ : @ . a.*XjXV.E.b.X ; > p p : M g b.v & ",
"0Xx r x A $ j r r r m +Xt.O.IXIXIXPX8 !.@Xo T , @ > a - e > = a./.4.Z.!.B # ; e a a : I Z v ~ : ",
"qXJ U I m $ e z r r l.|.C nXIXIXIXaX9.@XL o E ,X< ; > > > > $ a./.;.P.}.d & > i a a : i.Y U U % ",
"qXJ y.U U : e - z > H.W.) PXIXIXIXuXY.+X# 5 5 %.yXj ; ; 0 d f a.Z.[ H.{.$ * > p p p : A y.J Y : ",
"0XA Y Y i.> > r r w L.L.2XIXIXIXIX1X!.U.  1 } 9 *.eXM.(.oXoX{.}.0.8 |.).X * > e p p : N Y f f : ",
"8XN y.J Y : > l l w d.G.6XIXIXIXIX8X!.r.X # 4 C.[.#X@X|.J.r.G.Y.P j |.}.B # > a a e : Y Y Y A ; ",
"8Xf J y.I : > e j > s.v.5XIXIXIXPX<XQ.5.X d `.+XOXG.V Q o.+.pXxXdX=.y.L.!.9.& > a e : y.J Y Y : ",
"qXI S I J < e e a ; t.v.4XIXIXIXPX%.L.v.m.+XOXv.! +.hXGXPXPXIXIXIXIXcXO.x.!.9.& e e : u.J I A $ ",
"qX~ D x f > p p w < 6.G.( IXIXIXIX<.G.@X+XJ.) 1.bXJXIXKXVXVXdXzXIXIXIXJX@.x.!.n : > : I x D ~ & ",
"7Xg b.D A % j - - i s Y.k nXIXIXIXGX0.U.( ;.jXLXVXXX|.OXOX}.J.6 fXIXIXIXJX:.E.s.& > ; I g b.D : ",
"7Xt F ~ U ; = v = = $ L.P ,.PXDXHXIX:.$.4.ZX:XOXOX+X{.I.g.f t.l.` IXIXIXIX3.l.E.- ; ; G h g F & ",
"wXA S Y J > a a - e > 5.J.` gXlX5XSXcX4XOXOXOXm.f.K = X o o O d./ aXIXPXIX4.k.!.f & & S N U U $ ",
"rXy.i.i.A < a z - r > : OXg._ yX2X&.xXhXK.|.J.    . # # # 1 v !.h.-.HXkXDXjXZ.}.n & & U J y.y., ",
"wXJ Y i.J < j j - r r z.+X|.2 X.tX4X,XxXhXN.!.s.0 # * * * e %XOX/ aXgX,XDX2.K.|.q & & A A Y y., ",
"0Xy M i.J $ p z - g.oX+X+X$X).O.fXtX4X,XxXhXC.|.|.~.U.m.m.#X@Xx.sXxX( 7XhX .~.~.# * * A A f m : ",
"wXI G S S : e e I.$X$X.XXX0.U.%X..+.kXtX1XgX2.#.M.|.OXOX+X{.j.,.gX) 1XcX-.J.@XL @ ; ; ^ U N N & ",
"8XF c c ^ + K %X&X&XN.G X   O Y.oX} [ >.tX8XtXuXX.:.,Xp.b 5 >.gX1XzXbX:.G.@X'.X & & & ^ F z ~ & ",
"8Xz l.r h.'.;X;XN.r & & , * # O G.+XC.[ { 1.5X2XyXuX+.+.+.>.sXcXbXbXD.Q.$X'.4 # : : * ^ g c.D : ",
"qXH P '.;X;XN.g % % % > % i < &   r.OXoX3XaX1.3.4.<.<.4.jXvXvXNX>X!.OX>XC.o E ) < : : ~ x r ~ : ",
"qXn.].;XN.$ + + ; i ; a j e j i : . s Q.OXOXXX>XBX=X=X>X>X:X$XOX+X&XD.< o 7 7 &.9Xi * ~ Z t N * ",
"F.N.N.N v . + + $ e e w p p l l a % @ @ 5.J.{.+X+X$X$X$X$X.X_.M.h.> # # # 4 | 9 6XtX: ~ ~ m y * ",
"S.m Z F x . ; ; - r l w w - - e l > ; < $ @ > d K L L K d - X X # : % > < ; T *.} pX9XF ~ ~ M : ",
"S.f S G x . ; j j j p > j p > - > - - i ; @ $ : : * * & @ & : & & : : $ i ; ; T =. .xX8XF F Z : ",
"0XN J y.J . . < < < : $ < < : % < < + $ $ : : . @ * * * @ @ : $ , : + : % : @ @ T %. .xXV.t 0 & ",
"wXA h Y I N J U A m I U u.Y J i.i.Y U U U J ^ ^ I I G G Z h A ^ U N A I Z Z Z G g R | #.gX! g X ",
"8Xx q F J m A u.Y 0 0 x Y Y J J A ^ h q F A A i.Y y g g F A m J y.I M M c F M U S Z b | =.5Xb @ ",
"8Xz b.F ^ J f I u.z b.v ^ J Y y.A U c b.D U y U u.S g c.g ^ U Y u.Y M F b.v h A S S H v W %.( X ",
"p.Z r h u.u.A A u.x q H y.I I i.I S S z H u.J J i.u.~ D x Y J f y.y.h t z H Y J A A ~ D - 4 ( o ",
"~ p & & : : & * : & @ * : : : : : * @ @ & : & @ : : & & & : : & & : : + + * * & & * * * # # #   "
};
