/* XPM */
static char * mysqlcc_64_xpm[] = {
"64 64 158 2",
"  	c #18ADBD",
". 	c #1EB2B7",
"+ 	c #21B5BD",
"@ 	c #29B5BD",
"# 	c #33ADC0",
"$ 	c #29A9B9",
"% 	c #299CAE",
"& 	c #21ADB5",
"* 	c #29B5C6",
"= 	c #18B5BD",
"- 	c #10B5B5",
"; 	c #29B1B9",
"> 	c #139FB1",
", 	c #219AAD",
"' 	c #42A5B5",
") 	c #4799AF",
"! 	c #3C91A7",
"~ 	c #4296AF",
"{ 	c #359FB2",
"] 	c #2B88A0",
"^ 	c #188498",
"/ 	c #127B96",
"( 	c #087B94",
"_ 	c #29849C",
": 	c #468EA9",
"< 	c #5294AD",
"[ 	c #539DB3",
"} 	c #5D9FB5",
"| 	c #1D889F",
"1 	c #3191AA",
"2 	c #31B5C1",
"3 	c #3DB5C1",
"4 	c #217B94",
"5 	c #3589A2",
"6 	c #84B5CE",
"7 	c #9CC6D6",
"8 	c #ADCED6",
"9 	c #A5C6D6",
"0 	c #8CBDCE",
"a 	c #74B2C1",
"b 	c #297B9C",
"c 	c #217394",
"d 	c #1C7B9C",
"e 	c #46B4C1",
"f 	c #10ADB5",
"g 	c #68A8C2",
"h 	c #B5CEDE",
"i 	c #C6DEE7",
"j 	c #BDDEE7",
"k 	c #94BDCE",
"l 	c #CEDEE7",
"m 	c #DEEFEF",
"n 	c #E7EFF7",
"o 	c #EFF7F7",
"p 	c #D6E7EF",
"q 	c #31A5BD",
"r 	c #10ADBD",
"s 	c #08ADBD",
"t 	c #08A9B9",
"u 	c #F7F7FF",
"v 	c #F7F7F7",
"w 	c #FFFFFF",
"x 	c #CEE7E7",
"y 	c #BDD6DE",
"z 	c #4AA5BD",
"A 	c #39B2C3",
"B 	c #10B5BD",
"C 	c #94C6CE",
"D 	c #F7FFFF",
"E 	c #18B5C6",
"F 	c #10B5C6",
"G 	c #E7EFEF",
"H 	c #B5D6DE",
"I 	c #1CA9B9",
"J 	c #BDD6E7",
"K 	c #5ABDC6",
"L 	c #46A0B1",
"M 	c #A5CED6",
"N 	c #31BDC6",
"O 	c #39A5BD",
"P 	c #107390",
"Q 	c #42BDC6",
"R 	c #39BDBD",
"S 	c #54B7C6",
"T 	c #52C6C6",
"U 	c #46BDCA",
"V 	c #52C1CE",
"W 	c #65BDCE",
"X 	c #6DC1CE",
"Y 	c #64BCC4",
"Z 	c #75BACE",
"` 	c #7BBDCE",
" .	c #7BCCD4",
"..	c #187394",
"+.	c #47AAB5",
"@.	c #31BDBD",
"#.	c #56AAC0",
"$.	c #29BDBD",
"%.	c #C6D6DE",
"&.	c #46C1CA",
"*.	c #DEEBEB",
"=.	c #5ABDCE",
"-.	c #8CB5CE",
";.	c #39ADB5",
">.	c #36C3CB",
",.	c #106B8C",
"'.	c #CEF3F3",
").	c #BDE7EF",
"!.	c #C6EFEF",
"~.	c #D6F7F7",
"{.	c #DEEFF7",
"].	c #84BDCE",
"^.	c #B5E7EB",
"/.	c #5DC8D6",
"(.	c #80D4DF",
"_.	c #A5E2E7",
":.	c #A9DAE6",
"<.	c #31ADB5",
"[.	c #94C6D6",
"}.	c #D6EFF7",
"|.	c #ADEBEB",
"1.	c #63CECE",
"2.	c #21B5C6",
"3.	c #29BDC6",
"4.	c #21BDC6",
"5.	c #88C8D4",
"6.	c #8CCED6",
"7.	c #ADD6DE",
"8.	c #5AC6CE",
"9.	c #21BDBD",
"0.	c #73CED6",
"a.	c #46C9CF",
"b.	c #18BDC6",
"c.	c #D6E7E7",
"d.	c #31C1CA",
"e.	c #18BDBD",
"f.	c #08B5BD",
"g.	c #00B5BD",
"h.	c #08B5B5",
"i.	c #00B5B5",
"j.	c #00ADB5",
"k.	c #00ADBD",
"l.	c #9CBDCE",
"m.	c #10BDBD",
"n.	c #21C6C6",
"o.	c #29C6C6",
"p.	c #10BDC6",
"q.	c #08BDC6",
"r.	c #086B8C",
"s.	c #08BDBD",
"t.	c #39CBD0",
"u.	c #52CECE",
"v.	c #31CECE",
"w.	c #29C6CE",
"x.	c #21C8D0",
"y.	c #10C6CE",
"z.	c #006384",
"A.	c #08C8C8",
"              . . + . . . . + @ @ # $ % $ $ $ & . . . + + @ @ @ @ @ + + + + + + + + + . + @ @ @ @ @ @ * @ @ + = - -   . . . .   ",
". = = . + ; & > > > > > > > , , $ ' ) ! ! ~ { , > > > & ; @ + + + @ @ @ @ @ @ + + + + + @ @ @ + + @ * * @ + + = - -   = . . .   ",
"+ . . . ; { ] ^ ^ ^ / ( ( / / / _ : < [ } < : ] ^ ( ( | 1 % $ ; ; ; @ 2 2 3 @ @ + + + + @ @ ; + + + + + + + + + . . . + + + + + ",
"+ + . . $ ] 4 5 < } < : 5 4 4 5 } 6 7 8 8 9 0 a } 5 b c 4 d 1 ' e # 2 2 2 2 @ + . . . + + + + + + + + + + + . . + + + @ @ @ @ @ ",
"+ +   f > ^ b g h i j 8 k 6 6 9 l m n o o o m p i 9 6 } : 5 5 : ~ % q 3 2 + . r         = . + + + + + + + . . . + + + + @ @ @ @ ",
"    s t > ] b g i o u o n m m n n m n v w w w w u o m x y 9 6 } 5 / ] z A   f r r r r r B = = + + + + + + + = = + + + + + + + + ",
"    r r + ' 5 : 0 i n u w w w n y C 8 p v w w w w w w w D o m 8 } b c 5 ' $   = E F B r r r   = + + + = = = = = = = =     = = = ",
"    + + @ 3 { 1 [ a 7 i n u w G 8 a a H o w w w w w w w w w D n y 6 < 5 5 1 &   r B B r r r     = = = = = = = = = + = = = + + = ",
"    . + + + I $ ' } } g 9 m D v m y 9 J o w w w w w w w w w w w v m H a : _ ] > f   = = = + + + + + + + + + + + + + + + + + @ @ ",
"  . . = = = r   3 K L 5 [ M G D w v G n u w w w w w w w w w w w w w o l 0 < 4 | > + + @ @ 2 2 2 2 2 2 2 2 2 2 2 2 2 @ @ @ 2 2 N ",
"+ + + + + + + + * 2 O 1 _ } 8 o w w w w w w w w w w w w w w w w w w w v p 0 _ P | , ; 2 3 Q Q Q Q Q e e e 3 3 3 3 R R R R R 3 Q ",
"2 @ @ 2 2 2 2 2 2 ; 3 z 1 5 g i v w w w w w w w w w w w w w w w w w w w u l g 5 4 | { e e S S S T T T T e e e e e U U e e e e Q ",
"3 3 3 3 3 Q Q Q Q e S S O { : 6 i o w w w w w w w w w w w w w w w w w w w o i k [ b _ L S K K K K K K K K K S K K K K K K K K S ",
"S e e S S S S V S K K K S e [ < a J o w w w w w w w w w w w w w w w w w w w v m M [ 4 _ L S W X X X X X X X W W X X X X X X W W ",
"S S S S S V K K K K K K Y Y a [ < a 8 x n D w w w w w w w w w w w w w w w w w D G 9 < b _ { S Z ` ` ` ` `  .` ` `  . . .X X X X ",
"e e e U U U U U S S S S S Y ` ` g [ < g h n D w w w w w w w w w w w w w w w w w D m 8 a 5 d ! } a a a a a ` ` X Y X X X X X Y Y ",
"3 3 3 3 3 3 A 3 3 R 3 Q e S K X X g 5 b a x D w w w w w w w w w w w w w w w w w w D o i a _ ..b 5 5 5 : < [ } +.3 S X W K K K K ",
"3 A 2 2 2 2 2 @ @ @ @.R Q U S S K W } _ < J u w w w w w w w w w w w w w w w w w w w w v i a : : : : : < < < [ L z Y Y #.#.Y Y K ",
"Q A 2 2 2 2 2 2 $.$.@ 2 3 U S K K X a : : h v w w w w w w w w w w w w w w w w w w w w w o p %.y y H y y y H 8 7 k 6 } 5 ~ a X Y ",
"Q 3 2 2 R 3 Q Q R R R Q Q S K W W  .` : : M o w w w w w w w w w w w w w w w w w w w w w w w w w w w w w w D o m y 0 < b 5 g X Y ",
"Q R @.@.R Q Q U U U &.T T K W X X  .X ~ ! k n w w o n o D w w w w w w w w w w w w w w w w w w w w w w w w w o i 0 } ! 1 { 3 S K ",
"2 @.@ $.@.R Q Q U &.T T T K K Y Y W W [ ! a *.w o l 9 8 m D w w w w w w w w w w w w w w w w w w w w w w o m h a : ] ] % ; 2 Q Q ",
"@ @ @ @ 2 N R Q Q Q Q U U S S K K K =.#.! } l w n C : < 7 n D w w w w w w w w w w w w w w w w w w w w o i -.< : ~ ' ;.3 2 Q V K ",
"@ @ @ @ N >.>.N N 2 3 Q Q U S S S V =.K ) < H v m 6 4 P [ 8 m v w w w w w w w w w w w w w w w w w w w n 7 ! ,._ } Y T Q 3 V W X ",
"2 2 2 3 Q U U Q N A 3 Q U U U U U V V =.#.[ k p m 0 b ,.5 g k i n D w w w w w w w w w w w w o '.).!.~.{.M [ b b : L { , , q S X ",
"R 3 Q Q Q Q Q N 2 2 A Q Q U Q Q Q Q Q U K g } 7 i ]._ b } } < } M m D w w w w w w w w w w o ^./.U V (._.:.].#.1 ! 5 | / / | ~ g ",
"2 @.R Q T S ;.$ <.e U Q Q R N N 2 2 2 2 U #.! [ [.` ! 5 a Z ) : } 9 *.v w w w w w w w o }.|.1.2.r r * &.&.U 2 # z z { ] ] ] ] 1 ",
"@ @ @ Q Y [ 1 ] 1 [ S e R 2 2 3.2.2.* $.N 3 1 ! g a ) 5 [ S 3 L ~ #.M p G o u w w o {.^.(.T R 2 + + @ @ @ + + 2 Q R @ ; ; <.<.$ ",
"@ @ 2 3 ~ b c ....4 _ ! +.3 R 3.4.4.3.3.3.2 # L [ : b b L 2 @ 3 ;.3 X 5.6.J n o m ^.6.1.T U Q 2 2 @ 2 2 2 3 3 Q R @.@.R Q &.U U ",
"+ * 3 z _ c : < 5 4 ,.P b ! S U * 2.3.3.N N N 3 z ! 4 5 z R @.R 3 3 e 3 e ` 7.^.6.X K K T U Q R N @.@.R Q S K K V &.T 8.1.X X X ",
"2.E A z b : 9 i 8 6 < b ,...! z <.; 2 Q &.&.3.9.R +.~ { # @.@.@.@.R R N Q V X 0.8.K T T T U Q R N @.@.R Q K X X =.S T 8.1.X ` ` ",
"E E N z b : y v v m y -.: ..,.4 ] 1 ~ z g Y 3 R &.Q 2 ; + @ @.@.@.@.Q &.a.V V V S e U U U Q Q R N N @.R Q U V V U Q R Q T K Y Y ",
"E b.N #._ b -.m w w u m 8 g b ..P ....4 b ] 1 z W V N * 2 2 N N N N N Q &.U Q Q Q 3 Q Q Q Q N 2 * @ @ N N R Q N N N @.N R Q e e ",
"+ + 3.3 ~ 4 : 8 o w w w o i -.} < : 5 5 b P ,.4 ! z e U 3 2 N N N 2 2 2 R R 3 3 A A N N N N 2 @ + + + * * * * * 2.2.+ @ 2 A 3 Q ",
"2 2 @ Q Y ! 4 } %.v w w w v G x i %.y 8 0 } 5 ..,.4 ! #.e 2 @ @.@.@.@.@.R R R R N N N N N N @ @ + + + 2.2.2.2.E = = + + 2 N Q Q ",
"Q U U T X g _ b a c.u w w w w w w w w v G l 9 g 5 ...._ ~ e &.T &.&.Q Q Q Q Q Q Q R R R R N N $.@ @ * * 2.E = B B = = * N >.Q Q ",
"K K X X X Z [ 4 5 k G w w w w u o o D w w w o c.9 } b ,...! Y X W W 8.K K K K T U Q Q Q Q Q R N @.@ @ 4.4.= B B B = = + 3.N d.N ",
"S K X X X ` a : 4 < y v w w w G y 8 l o w w w w o i 6 : ....! g ` X X X X X W K K S U U Q Q >.N $.$.9.9.= B B B B = = + + 4.4.b.",
"R 3 Q U U V W Y 5 _ 6 m w w w p 6 < g %.v w w w w v *.9 } 4 ,._ } Z X X X X X W 8.V V U Q Q N $.$.9.e.e.= = = = e.e.e.= B B B f.",
"= = + = = + N U [ b < i w w w o 9 : 5 k n w w w w w w o y a _ ,.4 ) S S K 8.8.8.T T T U Q R N 3.4.9.9.9.4.3.3.3.3.4.e.B B f.f.g.",
"h.h.f.i.j.s f.$.e _ 5 9 o w w w m -.< k n w w w w w w w v l 6 5 ,...1 ;.2 N Q Q Q Q Q Q R R N N 3.3.3.N >.Q &.Q Q N 3.9.= B f.f.",
"g.k.k.k.k.s s B ; ] b a *.w w w u i l.%.v w w w w w w w w u p -.5 ,...1 $ = e.9.$.@.@.@.N N N N N N N Q &.T 8.K T Q Q N 3.4.b.e.",
"k.k.k.k.s s s s + ~ b < i w w w w o G o w w w w w w w w w w u p -.5 ,.d { @ B f.B = + + 9.4.4.3.3.N R Q T K K K K T T &.Q >.N N ",
"f.f.k.k.k.g.f.g.2.+._ 5 9 o w w w w w w w w w w w w w w w w w u p -.5 ,.b ' 2 B g.f.B = = = 9.9.9.$.@.R Q U T S S T T T &.&.&.Q ",
"B B f.f.f.f.g.g.B ; ] b a *.w w w w w w w w w w w w w w w w w w u c.a b ,.5 #.Q = B = = = e.e.9.9.$.$.N N N 2 R R R Q Q Q &.&.&.",
"b.E E B B f.f.g.g.+ L b < y u w w w w w w w w w w w w w w w w w w v i g c ..) Y >.4.+ 9.e.e.9.9.+ + + + + = = + + + @ @.R Q Q >.",
"4.4.4.2.E B B f.g.3.S 5 _ -.G w w w w w w w w w w w w w w w w w w w o h < ,.4 [ e 3.4.9.e.e.= = = B B B B B B B B = = 9.$.3.3.3.",
"3.3.3.4.4.e.e.B B 4.U L b < h o w w w w w w w w w w w w w w w w w w w G l.5 ,._ #.Q 3.+ = B B B B B B B f.f.f.B B B m.e.e.e.e.e.",
"n.3.3.3.3.o.3.3.N N &.Y 5 b g i v w w w w w w w w w w w w w w w w w w D c.a c ,.: Y 2 + = = = = = = B B B B = = = B m.m.m.m.m.B ",
"n.o.N >.>.>.>.>.>.>.>.Q ' 4 _ a p w w w w w w w w w w w w w w w w w w w v H < ,.4 [ e 2 @ @ @ @ + + 9.+ = = + + = = B f.m.m.B B ",
"3.d.>.&.&.&.Q >.>.o.o.9.R ~ c : H v w w w w w w w w w w w w w w w w w w w G 0 b ,.! Y e R R N N 3.3.3.+ + + + + + = = = = b.2.E ",
"3.N >.>.Q >.N N N 3.3.4.&.#.b 5 8 v w w w w w w w w w w w w w w w w w w w u i } ,.b #.K Q R N 3.3.2.2.+ = = = = + + @ * * N 3.* ",
"3.N N 3.* 4.4.4.4.4.4.4.>.#.b : y D w w w w w w w w w w w w w w w w w w w w G 0 b ,.! e R @ + + = = B B B - - - = + 2 2 N N N 3.",
"+ + + = B B p.p.p.p.q.q.+ 1 b g c.w w w w w w w w w w w w w w w w w w w w w u y : r._ z @ f.B B f.f.f.f.f.h.h.- = + @ * * @ @ + ",
"B B r s f.f.f.f.f.g.g.p.+ | 5 k n w w w w w w w w w w w w w w w w w w w w w w p a ....~ A B f.f.f.f.f.g.g.g.g.f.B B = = = = = = ",
"s s j.j.k.g.g.g.g.g.g.4.e _ : y u w w w w w w w w w w w w w w w w w w w w w w o M 5 r.] S 3.g.f.f.f.f.f.f.f.g.f.f.f.f.B f.f.- B ",
"s j.j.j.j.g.g.g.g.f.f.@ z 5 } l w w w w w w w w w w w w w w w w w w w w w w w w c.g ..c [ 3 B f.B F p.p.p.s.s.f.f.f.f.f.f.f.B = ",
"j.j.j.j.i.g.g.f.f.f.f.+ { 5 a *.w w w w w w w w w w w w w w w w w w w w w w w w o 7 5 ,.5 K N 4.4.b.b.b.p.m.s.f.f.f.f.f.B B B = ",
"s s s f.f.f.f.f.f.f.f.I ] 5 6 G w w w w w w w w w w w w w w w w w w w w w w w w D l } P 4 [ V d.4.b.b.b.b.m.m.m.m.m.m.m.m.m.m.= ",
"= B B = E p.F B B F f.I | 5 k n w w w o p *.v w w w w w w w w w w w w w w w w w w n l.5 ,.! Y t.n.n.b.n.n.n.b.e.b.b.b.b.m.m.m.B ",
"2.E E b.b.E B B f.f.f.f | 5 k n w w v i 6 k *.w w w w w w w w w w w w w w w w w w D i } ,.4 #.u.v.o.o.o.v.t.d.o.4.4.b.b.p.m.m.m.",
"b.E E E = B B f.f.f.g.f | 5 6 G w w *.6 5 < y u w w w w w w w w w w w w w w w w w w G k b r.! X u.>.>.t.a.a.t.w.n.b.p.p.m.s.m.m.",
"b.F B = = = B B B f.f.. 1 _ a *.w v 8 : r.b k n w w w w w w w w w w w w w w w w w w u y < ,.b g 1.&.t.t.t.t.w.x.y.p.q.s.s.s.s.p.",
"b.E E 4.4.$.$.3.4.4.4.R L _ } c.w G -.4 z.,.} i D w w w w w w w w w w w w w w w w w w G 0 b ,.: Z 1.t.>.o.n.n.y.A.q.s.s.s.s.q.p."};
