<?xml version="1.0" encoding="UTF-8" standalone="no"?>
<!-- Created with Inkscape (http://www.inkscape.org/) -->

<svg
   xmlns:dc="http://purl.org/dc/elements/1.1/"
   xmlns:cc="http://creativecommons.org/ns#"
   xmlns:rdf="http://www.w3.org/1999/02/22-rdf-syntax-ns#"
   xmlns:svg="http://www.w3.org/2000/svg"
   xmlns="http://www.w3.org/2000/svg"
   xmlns:sodipodi="http://sodipodi.sourceforge.net/DTD/sodipodi-0.dtd"
   xmlns:inkscape="http://www.inkscape.org/namespaces/inkscape"
   width="47.298313"
   height="49.527348"
   id="svg3711"
   version="1.1"
   inkscape:version="0.48.1 r9760"
   sodipodi:docname="Nuovo documento 2">
  <defs
     id="defs3713" />
  <sodipodi:namedview
     id="base"
     pagecolor="#ffffff"
     bordercolor="#666666"
     borderopacity="1.0"
     inkscape:pageopacity="0.0"
     inkscape:pageshadow="2"
     inkscape:zoom="1.9666667"
     inkscape:cx="45.670949"
     inkscape:cy="23.212821"
     inkscape:document-units="px"
     inkscape:current-layer="layer1"
     showgrid="false"
     fit-margin-top="2"
     fit-margin-left="5"
     fit-margin-right="5"
     fit-margin-bottom="5"
     inkscape:window-width="548"
     inkscape:window-height="457"
     inkscape:window-x="425"
     inkscape:window-y="208"
     inkscape:window-maximized="0" />
  <metadata
     id="metadata3716">
    <rdf:RDF>
      <cc:Work
         rdf:about="">
        <dc:format>image/svg+xml</dc:format>
        <dc:type
           rdf:resource="http://purl.org/dc/dcmitype/StillImage" />
        <dc:title></dc:title>
      </cc:Work>
    </rdf:RDF>
  </metadata>
  <g
     inkscape:label="Livello 1"
     inkscape:groupmode="layer"
     id="layer1"
     transform="translate(5.6709487,-3.1905169)">
    <path
       style="fill:#9b0101"
       d="m 11.481424,49.24329 c -1.11526,-0.18566 -2.2013895,-0.40425 -2.4476695,-1.58035 -0.284,-2.363 1.3719995,-3.027 2.3519995,-4.291 -1.1,-1.956 -1.7829996,0.814 -3.3449995,0.598 -0.981,-0.703 -0.625,-1.494 -0.175,-2.62 -1.0070005,-0.594 -1.7290005,-1.521 -2.7700005,-2.072 1.261,-2.249 -0.622,-4.286 -0.844,-7.089 -1.529,-0.268 -2.767,-0.87 -3.87199996,-1.621 -0.057,-0.875 -0.116,-1.745 -0.174,-2.621 1.55499996,-0.637 2.93399996,-1.426 3.97399996,-2.52 -0.737,-1.677 -3.83799996,0.698 -5.315,-0.775 -0.259,-1.4 0.67700004,-1.757 1.34500004,-2.344 1.29699996,0.132 1.82599996,1.138 3.44599996,0.9 0.286,-1.157 1.375,-1.621 1.694,-2.748 -0.245,-1.326 -1.127,-1.929 -0.993,-3.691 1.141,-0.761 1.888,-1.869 4.0140005,-1.771 -0.101,-0.951999 -0.77,-1.263999 -1.244,-1.797999 0.354,-0.863 0.496,-1.917001 0.946,-2.693001 2.2019995,-0.6329997 2.6009995,0.786 4.1959995,0.847 0.82,-0.097 0.055,-1.5959997 0.224,-2.2699997 1.124,-0.307 1.858,-0.9559997 1.725,-2.3679997 1.072,1.055 3.247,0.855 3.918,2.3719997 1.461,-0.482 2.147,-1.6439997 4.018,-1.7709997 1.214,-0.179 0.887,1.3989997 1.973,1.3739997 1.077,0.239 0.931,-0.5909997 1.848,-0.4999997 0.811,-0.122 1.209,0.23 1.194,1.0519997 1.702,-0.068 2.651,0.726 3.492,1.6489997 1.399,0.051 0.881,-1.5829997 2.548,-1.2979997 1.375,1.6439997 -1.214,2.3170007 -0.452,4.5410007 0.324,1.104999 2.212,0.424 2.718,1.325999 0.152,1.544 -0.709,2.198 -1.302,3.09 0.502,1.021 0.563,1.919 0.199,2.996 0.937,1.349 0.177,4.636 1.146,5.94 0.408,1.31 -0.932,2.314 0.554,2.595 -0.003,0.822 -0.896,0.867 -1.825,0.874 1.623,0.836 2.701,2.969 1.042,4.441 -1.517,0.263 -2.412,-0.188 -3.413,-0.525 -0.3,0.092 -0.352,0.402 -0.723,0.424 0.189,1.526 1.197,2.123 1.722,3.27 -0.312,0.787 -0.666,1.531 -0.978,2.322 -1.991,0.582 -2.061,-1.029 -3.395,-0.152 -0.309,-0.313 -0.458,-0.818 -0.47,-1.474 -1.38,0.206 -1.301,1.685 -2.095,2.396 -2.158,-1.003 -3.411,0.724 -4,2.145 -2.341,0.263 -4.222,-0.009 -5.337,-1.151 -1.104,0.563 -2.491,0.875 -3.667,1.374 0.359,1.597 1.258,3.354 0.692,4.839"
       id="path3653"
       inkscape:connector-curvature="0"
       sodipodi:nodetypes="ccccccccccccccccccccccccccccccccccccccccccccccc" />
    <g
       transform="translate(-430.83924,-152.40405)"
       id="g288">
      <g
         id="g290">
        <g
           id="g292">
          <g
             id="g294">
            <polygon
               style="fill:#ffffff"
               id="polygon296"
               points="450.12,179.294 450.858,190.419 461.441,182.747 460.705,171.616 " />
            <g
               id="g298">
              <polygon
                 style="fill:none"
                 id="polygon300"
                 points="450.12,179.294 450.858,190.419 461.441,182.747 460.705,171.616 " />
              <g
                 id="g302">
                <g
                   id="g304">
                  <g
                     id="g306">
                    <polygon
                       style="fill:#202020"
                       id="polygon308"
                       points="451.409,179.862 451.468,179.904 451.403,179.717 " />
                    <path
                       style="fill:#202020"
                       inkscape:connector-curvature="0"
                       id="path310"
                       d="m 451.47,179.3 -0.089,-0.094 0.138,0.568 c 0.259,0.189 -0.222,-0.602 -0.049,-0.474 z" />
                    <path
                       style="fill:#202020"
                       inkscape:connector-curvature="0"
                       id="path312"
                       d="m 451.555,179.305 c 0.145,0.052 0.024,-0.174 -0.011,-0.256 0.091,0.177 -0.166,0.046 0.011,0.256 z" />
                    <path
                       style="fill:#202020"
                       inkscape:connector-curvature="0"
                       id="path314"
                       d="m 457.629,174.742 -0.012,0.029 0.012,-0.029 z" />
                    <path
                       style="fill:#202020"
                       inkscape:connector-curvature="0"
                       id="path316"
                       d="m 458.729,172.882 -0.102,-0.175 c -0.088,0.508 -0.641,0.457 -0.864,0.814 l -0.021,-0.074 c -0.851,0.52 -1.393,1.33 -2.1,2.033 l -0.03,-0.106 c 0.002,0.084 0.035,0.22 -0.019,0.238 l -0.042,-0.112 c -0.364,-0.148 -0.37,0.53 -0.626,0.397 -0.024,0.064 0.034,0.191 0.124,0.259 -0.574,0.521 -1.204,1.058 -1.686,1.729 -0.059,-0.016 -0.116,-0.085 -0.177,-0.185 -0.226,0.833 -0.921,1.071 -1.527,1.403 0.062,0.13 0.145,0.081 0.178,0.241 0.283,0.014 0.121,-0.521 0.438,-0.428 l 0.06,0.126 c 0.169,-0.016 -0.18,-0.298 0.046,-0.244 0.116,0.059 0.091,0.15 0.12,0.143 0.217,-0.228 0.552,-0.316 0.591,-0.758 0.233,0.199 0.275,-0.187 0.536,-0.022 -0.005,-0.144 0.078,-0.166 -0.013,-0.344 0.969,-0.509 1.694,-1.392 2.606,-2.025 0.08,-0.773 0.988,-0.581 1.374,-1.1 l 0.033,0.048 c 0.08,-0.233 0.277,-0.459 0.514,-0.542 l 0.021,-0.317 c 0.731,-0.22 1.345,-0.619 1.938,-1.048 l 0.889,-0.649 c -1.812,-0.898 -0.48,0.383 -0.917,0.47 -0.034,1.672 -0.353,3.155 0.515,4.724 l -0.111,-0.024 c 0.146,0.459 -0.031,0.899 0.116,1.331 l -0.057,0.003 c 0.547,1.061 0.087,2.276 0.668,3.295 0.445,1.021 -1.795,1.691 -2.471,2.677 l -0.064,-0.095 c -0.739,0.834 -1.945,0.96 -2.718,1.743 -1.057,0.445 -1.473,1.878 -2.587,2.258 -0.895,-0.047 -0.93,1.464 -1.798,1.378 -0.082,0.038 -1.463,0.068 -0.338,0.297 0.04,-0.336 0.015,-0.665 -0.057,-0.992 -0.141,-0.654 -0.457,-1.296 -0.764,-1.949 0.229,-1.257 -0.653,-2.438 -0.097,-3.678 -0.445,-0.54 0.427,-1.228 0.268,-1.852 l -0.142,0.032 c 0.414,-0.255 -0.633,-0.465 -0.006,-0.648 l 0.032,0.021 c 0.314,-0.142 -0.783,-0.228 -0.401,-0.326 L 449.9,180.84 c -0.057,-0.143 0.181,-0.029 0.235,-0.146 -0.021,-0.041 -0.292,0.003 -0.206,-0.091 0.653,-0.063 -0.165,-0.347 0.568,-0.405 0.006,0.079 0.276,-0.144 0.443,0.024 0.07,-0.056 0.019,-0.297 -0.292,-0.254 -0.333,0.001 -0.629,-0.075 -0.873,0.09 l 0.242,0.014 c -0.237,0.066 -0.117,0.046 -0.298,0.076 -0.02,0.195 -0.369,0.244 -0.503,0.393 l 0.024,-0.003 c 0.295,0.076 0.134,0.219 0.097,0.296 l -0.133,0.04 c -0.277,0.063 0.563,0.183 0.078,0.156 0.146,0.385 0.17,0.836 0.204,1.274 0.188,0.05 0.006,0.338 0.353,0.219 -0.396,0.137 -0.475,0.47 -0.452,0.59 l -0.067,-0.024 c -0.505,0.271 0.503,0.247 -0.121,0.511 0.456,0.004 -0.117,0.41 0.421,0.499 l -0.27,0.045 c 0.019,0.397 -0.116,0.848 -0.114,1.185 0.413,0.262 -0.133,0.708 0.43,0.918 -0.104,0.213 -0.307,0.559 -0.07,0.83 l -0.066,-0.023 c 0.054,0.32 0.107,0.721 0.466,0.919 -0.519,0.13 -0.404,0.263 -0.562,0.413 0.258,0.198 0.214,0.638 0.455,0.951 -0.237,0.066 0.121,0.265 -0.229,0.305 0.185,0.219 0.313,0.455 0.395,0.702 l 0.029,0.093 0.006,0.023 0.002,0.006 c 0.542,0.255 -1.213,-0.566 1.216,0.573 l 0.002,-0.003 0.009,-0.009 0.033,-0.035 0.144,-0.132 0.314,-0.229 c 0.446,-0.275 0.986,-0.436 1.535,-0.517 l 0.003,0.028 c -0.009,-0.23 -0.14,-0.662 -0.182,-0.941 l 0.039,0.082 c 0.105,-0.159 0.446,0.022 0.553,-0.136 l 0.043,0.11 c 0.044,-0.226 0.446,0.022 0.448,-0.314 l 0.063,0.069 0.024,-0.181 c 0.065,0.096 0.164,0.24 0.087,0.249 1.316,-0.813 2.253,-2.236 3.588,-3.097 l 0.018,0.124 0.134,-0.341 0.041,0.11 c 0.433,-0.07 0.569,-0.574 0.907,-0.758 0.03,0.046 0.051,0.172 0.132,0.192 0.042,-0.423 0.608,0.067 0.338,-0.548 0.027,0.015 0.122,0.131 0.13,0.19 0.508,-0.638 1.168,-1.102 1.871,-1.479 0.464,-1.541 0.157,-1.645 -0.114,-2.503 l 0.119,-0.004 c -0.474,-0.857 -0.092,-1.825 -0.235,-2.736 0.021,-0.384 -0.136,-0.632 -0.169,-1.014 l 0.147,-0.019 c -0.604,-0.607 0.416,-1.387 -0.247,-2.018 l 0.203,0.033 c -0.317,-0.083 0.083,-0.414 -0.448,-0.338 l 0.153,-0.129 c -0.732,-0.41 0.271,-0.852 -0.224,-1.381 l 0.13,0.028 c -0.107,-0.142 -0.198,-0.311 -0.089,-0.428 l 0.093,0.039 c 0.393,-0.466 0.055,-1.054 -0.305,-1.399 l -0.094,-0.224 c -0.03,0.364 -0.535,0.412 -0.713,0.699 l -0.051,-0.102 -0.036,0.22 -0.133,-0.177 c -0.337,0.228 -0.534,0.609 -0.84,0.862 z" />
                    <path
                       style="fill:#202020"
                       inkscape:connector-curvature="0"
                       id="path318"
                       d="m 455.552,175.5 0.008,0.003 -0.008,-0.003 z" />
                    <path
                       style="fill:#202020"
                       inkscape:connector-curvature="0"
                       id="path320"
                       d="m 449.175,180.596 0.045,-0.053 -0.045,0.053 z" />
                  </g>
                </g>
              </g>
            </g>
          </g>
          <g
             id="g322">
            <polygon
               style="fill:#ffffff"
               id="polygon324"
               points="450.12,179.294 450.858,190.419 439.355,184.214 438.617,173.081 " />
            <g
               id="g326">
              <polygon
                 style="fill:none"
                 id="polygon328"
                 points="450.12,179.294 450.858,190.419 439.355,184.214 438.617,173.081 " />
              <g
                 id="g330">
                <g
                   id="g332">
                  <g
                     id="g334">
                    <polygon
                       style="fill:#202020"
                       id="polygon336"
                       points="450.074,177.886 450.087,177.815 449.946,177.954 " />
                    <path
                       style="fill:#202020"
                       inkscape:connector-curvature="0"
                       id="path338"
                       d="m 449.541,178.075 -0.046,0.12 0.452,-0.369 c 0.059,-0.316 -0.446,0.46 -0.406,0.249 z" />
                    <path
                       style="fill:#202020"
                       inkscape:connector-curvature="0"
                       id="path340"
                       d="m 449.509,177.997 c -0.016,-0.152 -0.167,0.053 -0.227,0.12 0.12,-0.158 0.114,0.129 0.227,-0.12 z" />
                    <path
                       style="fill:#202020"
                       inkscape:connector-curvature="0"
                       id="path342"
                       d="m 442.766,174.498 0.031,-10e-4 -0.031,10e-4 z" />
                    <path
                       style="fill:#202020"
                       inkscape:connector-curvature="0"
                       id="path344"
                       d="m 440.613,174.313 -0.114,0.167 c 0.496,-0.141 0.688,0.38 1.108,0.426 l -0.059,0.052 c 0.836,0.541 1.802,0.678 2.741,1.01 l -0.082,0.075 c 0.075,-0.038 0.183,-0.127 0.223,-0.088 l -0.083,0.086 c 0.023,0.393 0.639,0.104 0.629,0.393 0.069,-0.005 0.157,-0.114 0.181,-0.224 0.719,0.292 1.475,0.627 2.289,0.77 0.012,0.059 -0.025,0.142 -0.089,0.238 0.848,-0.158 1.362,0.366 1.926,0.771 0.091,-0.113 0.01,-0.166 0.141,-0.266 -0.109,-0.261 -0.521,0.116 -0.575,-0.207 l 0.088,-0.109 c -0.087,-0.146 -0.189,0.292 -0.238,0.063 0.002,-0.129 0.096,-0.147 0.075,-0.169 -0.299,-0.097 -0.522,-0.36 -0.938,-0.205 0.079,-0.297 -0.287,-0.167 -0.252,-0.474 -0.127,0.067 -0.185,0.002 -0.304,0.161 -0.879,-0.652 -1.989,-0.925 -2.955,-1.473 -0.732,0.263 -0.952,-0.639 -1.586,-0.762 l 0.027,-0.051 c -0.245,0.03 -0.533,-0.05 -0.711,-0.228 l -0.295,0.119 c -0.516,-0.564 -1.14,-0.944 -1.784,-1.292 l -0.97,-0.519 c -2.021,1.25 -0.538,0.979 -1.021,1.544 -0.034,1.672 -0.353,3.155 0.516,4.724 l -0.112,-0.023 c 0.146,0.46 -0.031,0.899 0.116,1.331 l -0.057,0.002 c 0.547,1.061 0.088,2.276 0.669,3.295 0.037,1.773 2.11,1.608 3.139,2.375 l -0.058,0.099 c 1.071,0.304 1.709,1.336 2.75,1.691 0.858,0.759 2.331,0.512 3.155,1.352 0.347,0.825 1.724,0.201 2.022,1.022 0.377,0.092 0.008,1.208 1.102,0.252 0.04,-0.335 0.015,-0.665 -0.057,-0.992 -0.141,-0.653 -0.457,-1.296 -0.764,-1.948 0.229,-1.257 -0.653,-2.438 -0.097,-3.678 -0.445,-0.541 0.427,-1.228 0.268,-1.852 l -0.142,0.032 c 0.414,-0.255 -0.633,-0.466 -0.006,-0.648 l 0.032,0.021 c 0.314,-0.142 -0.783,-0.229 -0.401,-0.327 l -0.161,-0.009 c -0.057,-0.142 0.181,-0.028 0.235,-0.146 -0.021,-0.04 -0.292,0.004 -0.206,-0.091 0.653,-0.063 -0.165,-0.346 0.568,-0.404 0.006,0.079 0.275,-0.144 0.441,0.024 0.072,-0.056 0.021,-0.297 -0.291,-0.255 -0.332,0.002 -0.628,-0.074 -0.872,0.091 l 0.242,0.014 c -0.237,0.065 -0.117,0.046 -0.298,0.075 -0.02,0.196 -0.369,0.245 -0.503,0.394 l 0.024,-0.003 c 0.295,0.076 0.134,0.219 0.097,0.296 l -0.133,0.039 c -0.277,0.064 0.563,0.184 0.078,0.157 0.146,0.385 0.17,0.836 0.204,1.274 0.188,0.05 0.006,0.337 0.353,0.218 -0.396,0.137 -0.475,0.471 -0.452,0.591 l -0.067,-0.024 c -0.505,0.271 0.503,0.247 -0.122,0.51 0.457,0.005 -0.116,0.411 0.422,0.5 l -0.27,0.045 c 0.019,0.397 -0.116,0.847 -0.114,1.185 0.413,0.261 -0.134,0.707 0.43,0.918 -0.104,0.212 -0.307,0.559 -0.07,0.829 l -0.066,-0.023 c 0.054,0.32 0.107,0.722 0.466,0.92 -0.519,0.13 -0.404,0.262 -0.562,0.412 0.258,0.199 0.214,0.639 0.455,0.952 -0.237,0.066 0.12,0.265 -0.229,0.305 0.185,0.219 0.313,0.454 0.395,0.701 l 0.029,0.094 0.006,0.023 c 0.503,-0.321 -1.121,0.735 1.129,-0.718 l -0.012,-0.003 -0.046,-0.016 -0.182,-0.071 -0.344,-0.185 c -0.441,-0.282 -0.819,-0.699 -1.132,-1.159 l 0.024,-0.015 c -0.204,0.108 -0.536,0.413 -0.77,0.572 l 0.057,-0.07 c -0.189,-0.027 -0.174,-0.412 -0.362,-0.439 l 0.081,-0.086 c -0.224,0.058 -0.173,-0.412 -0.479,-0.268 l 0.035,-0.088 -0.174,0.055 c 0.058,-0.1 0.146,-0.251 0.187,-0.186 -1.305,-0.833 -2.992,-1.06 -4.347,-1.889 l 0.104,-0.069 -0.363,0.028 0.081,-0.086 c -0.252,-0.358 -0.766,-0.263 -1.077,-0.487 0.028,-0.049 0.133,-0.12 0.116,-0.202 -0.399,0.145 -0.203,-0.578 -0.641,-0.066 l 0.115,-0.2 c -0.795,-0.181 -1.499,-0.575 -2.146,-1.044 -0.441,0.804 -0.096,-0.995 -0.567,-1.33 l 0.119,-0.004 c -0.474,-0.857 -0.092,-1.825 -0.236,-2.736 0.021,-0.384 -0.135,-0.632 -0.169,-1.014 l 0.147,-0.02 c -0.604,-0.606 0.416,-1.387 -0.247,-2.017 l 0.203,0.033 c -0.317,-0.083 0.083,-0.414 -0.448,-0.338 l 0.152,-0.129 c -0.732,-0.41 0.271,-0.852 -0.223,-1.381 l 0.129,0.028 c -0.107,-0.142 -0.198,-0.31 -0.088,-0.428 l 0.091,0.039 c 0.455,-0.417 -0.086,-1.163 -0.163,-1.291 l -0.159,0.181 c 0.341,-0.13 0.603,0.304 0.938,0.34 l -0.07,0.089 0.215,-0.062 -0.103,0.196 c 0.358,0.208 0.787,0.221 1.149,0.388 z" />
                    <path
                       style="fill:#202020"
                       inkscape:connector-curvature="0"
                       id="path346"
                       d="m 444.349,176.042 -10e-4,-0.008 10e-4,0.008 z" />
                    <path
                       style="fill:#202020"
                       inkscape:connector-curvature="0"
                       id="path348"
                       d="m 449.175,180.596 0.045,-0.053 -0.045,0.053 z" />
                  </g>
                </g>
              </g>
            </g>
          </g>
          <g
             id="g350">
            <polygon
               style="fill:#ffffff"
               id="polygon352"
               points="438.617,173.081 450.12,179.294 460.705,171.616 449.263,165.434 " />
            <g
               id="g354">
              <polygon
                 style="fill:none"
                 id="polygon356"
                 points="438.617,173.081 450.12,179.294 460.705,171.616 449.263,165.434 " />
              <g
                 id="g358">
                <g
                   id="g360">
                  <g
                     id="g362">
                    <polygon
                       style="fill:#202020"
                       id="polygon364"
                       points="440.995,172.871 441.054,172.913 440.991,172.725 " />
                    <path
                       style="fill:#202020"
                       inkscape:connector-curvature="0"
                       id="path366"
                       d="m 441.066,172.303 -0.09,-0.093 0.131,0.571 c 0.261,0.189 -0.215,-0.605 -0.041,-0.478 z" />
                    <path
                       style="fill:#202020"
                       inkscape:connector-curvature="0"
                       id="path368"
                       d="m 441.151,172.308 c 0.146,0.051 0.027,-0.175 -0.007,-0.258 0.09,0.177 -0.167,0.047 0.007,0.258 z" />
                    <path
                       style="fill:#202020"
                       inkscape:connector-curvature="0"
                       id="path370"
                       d="m 447.395,167.668 -0.013,0.029 0.013,-0.029 z" />
                    <path
                       style="fill:#202020"
                       inkscape:connector-curvature="0"
                       id="path372"
                       d="m 448.541,165.786 -0.101,-0.176 c -0.098,0.513 -0.658,0.465 -0.892,0.827 l -0.021,-0.075 c -0.871,0.529 -1.436,1.35 -2.164,2.064 l -0.03,-0.107 c 10e-4,0.084 0.032,0.222 -0.021,0.24 l -0.04,-0.113 c -0.368,-0.147 -0.386,0.537 -0.645,0.405 -0.026,0.065 0.032,0.192 0.122,0.26 -0.592,0.529 -1.239,1.074 -1.739,1.755 -0.059,-0.015 -0.117,-0.085 -0.176,-0.185 -0.242,0.841 -0.953,1.085 -1.575,1.424 0.063,0.131 0.146,0.081 0.178,0.243 0.286,0.012 0.132,-0.526 0.449,-0.435 l 0.06,0.126 c 0.172,-0.016 -0.179,-0.299 0.052,-0.246 0.116,0.058 0.09,0.151 0.119,0.143 0.224,-0.231 0.563,-0.323 0.611,-0.769 0.234,0.2 0.283,-0.19 0.546,-0.026 -0.003,-0.145 0.082,-0.168 -0.009,-0.346 0.992,-0.52 1.744,-1.415 2.682,-2.06 0.094,-0.78 1.014,-0.592 1.413,-1.118 l 0.032,0.048 c 0.085,-0.236 0.289,-0.465 0.531,-0.55 l 0.025,-0.32 c 0.46,-0.031 2.018,-1.071 1.341,-0.63 0.659,0.357 1.339,0.683 1.949,1.131 1.432,0.938 2.55,2.014 4.373,2.133 l -0.08,0.082 c 0.477,0.126 0.762,0.516 1.216,0.625 l -0.028,0.049 c 1.212,0.114 2.021,1.164 3.215,1.226 1.47,-0.077 -1.557,1.421 -2.023,2.177 l -0.064,-0.095 c -0.76,0.849 -1.985,0.99 -2.778,1.79 -1.077,0.461 -1.517,1.911 -2.652,2.306 -0.907,-0.036 -0.959,1.487 -1.842,1.411 -0.782,-0.279 -2.233,-1.245 -3.69,-1.18 -0.968,-0.878 -2.464,-0.774 -3.241,-1.92 -0.707,0.084 -0.838,-1.027 -1.464,-1.232 l -0.048,0.136 c 0,-0.489 -0.741,0.282 -0.564,-0.348 l 0.035,-0.015 c 0.046,-0.343 -0.615,0.538 -0.496,0.161 l -0.096,0.133 c -0.152,-0.03 0.071,-0.168 0,-0.279 -0.047,-0.003 -0.152,0.25 -0.188,0.125 0.294,-0.586 -0.39,-0.048 -0.048,-0.701 0.07,0.039 0.022,-0.312 0.258,-0.361 -0.011,-0.091 -0.247,-0.178 -0.376,0.108 -0.178,0.282 -0.4,0.491 -0.39,0.788 l 0.143,-0.198 c -0.069,0.237 -0.023,0.125 -0.093,0.293 0.158,0.123 0.016,0.445 0.071,0.639 l 0.012,-0.022 c 0.224,-0.208 0.261,0.005 0.308,0.08 l -0.036,0.133 c -0.093,0.27 0.46,-0.377 0.177,0.02 0.412,0.086 0.816,0.311 1.217,0.52 0.143,-0.132 0.295,0.179 0.377,-0.179 -0.094,0.409 0.153,0.657 0.271,0.703 l -0.058,0.045 c -0.036,0.575 0.481,-0.291 0.377,0.38 0.247,-0.383 0.293,0.322 0.658,-0.084 l -0.104,0.251 c 0.354,0.202 0.672,0.56 0.966,0.742 0.447,-0.208 0.543,0.497 1.025,0.136 0.129,0.203 0.32,0.563 0.683,0.51 l -0.057,0.044 c 0.307,0.129 0.684,0.301 1.046,0.106 -0.163,0.508 0.012,0.484 0.06,0.698 0.311,-0.109 0.667,0.167 1.068,0.133 -0.069,0.237 0.293,0.042 0.142,0.359 0.912,-0.253 0.342,0.48 2.301,-0.034 0.457,-0.283 1.007,-0.451 1.564,-0.539 l 0.003,0.028 c -0.007,-0.231 -0.135,-0.666 -0.175,-0.946 l 0.039,0.081 c 0.11,-0.161 0.453,0.018 0.563,-0.143 l 0.041,0.11 c 0.049,-0.229 0.454,0.018 0.459,-0.322 l 0.064,0.069 0.028,-0.182 c 0.063,0.095 0.163,0.239 0.085,0.249 1.346,-0.835 2.313,-2.281 3.678,-3.163 l 0.017,0.124 0.14,-0.344 0.041,0.11 c 0.438,-0.076 0.584,-0.586 0.93,-0.775 0.031,0.046 0.05,0.173 0.131,0.192 0.048,-0.427 0.618,0.061 0.351,-0.556 0.026,0.015 0.122,0.13 0.13,0.191 0.521,-0.649 1.198,-1.124 1.917,-1.514 0.137,-2.149 -1.003,-1.281 -1.618,-1.724 l 0.06,-0.104 c -0.996,-0.065 -1.632,-0.915 -2.499,-1.289 -0.32,-0.227 -0.621,-0.229 -0.97,-0.409 l 0.063,-0.135 c -0.85,0.181 -0.98,-1.106 -1.883,-0.888 l 0.138,-0.154 c -0.241,0.223 -0.314,-0.295 -0.532,0.195 l -0.031,-0.199 c -0.746,0.396 -0.595,-0.692 -1.315,-0.563 l 0.094,-0.094 c -0.183,0.014 -0.376,0 -0.419,-0.158 l 0.082,-0.057 c -0.183,-0.668 -0.913,-0.433 -1.349,-0.69 l 0.162,-0.18 c -0.346,0.127 -0.616,-0.312 -0.959,-0.352 l 0.07,-0.089 -0.218,0.061 0.102,-0.196 c -0.367,-0.393 -1.235,0.247 -1.264,0.451 z" />
                    <path
                       style="fill:#202020"
                       inkscape:connector-curvature="0"
                       id="path374"
                       d="m 445.273,168.446 0.008,0.003 -0.008,-0.003 z" />
                    <path
                       style="fill:#202020"
                       inkscape:connector-curvature="0"
                       id="path376"
                       d="m 440.409,175.219 -0.021,-0.066 0.021,0.066 z" />
                  </g>
                </g>
              </g>
            </g>
          </g>
        </g>
      </g>
    </g>
  </g>
</svg>
