/* XPM */
static char *djvusmooth[] = {
/* columns rows colors chars-per-pixel */
"48 48 256 2",
"   c #C7C6CA",
".  c #4F1BA3",
"X  c #FEB747",
"o  c #AF9264",
"O  c #7440CE",
"+  c #634794",
"@  c #73648C",
"#  c #FEA518",
"$  c #34007C",
"%  c #785232",
"&  c #FF9B01",
"*  c #965A02",
"=  c #B6B5B5",
"-  c #FEA505",
";  c #FEBB57",
":  c #FEC166",
">  c #959099",
",  c #B66836",
"<  c #CBC9D8",
"1  c #7542D0",
"2  c #FC9601",
"3  c #594C72",
"4  c #FBA727",
"5  c #C3B7DB",
"6  c #915DF6",
"7  c #926760",
"8  c #DB810B",
"9  c #AA93D5",
"0  c #78480A",
"q  c #7558A7",
"w  c #4E3106",
"e  c #7D49DB",
"r  c #573B82",
"t  c #EB8C04",
"y  c #6431BB",
"u  c #E58C22",
"i  c #FFC350",
"p  c #FFD495",
"a  c #9A78D9",
"s  c #A679FF",
"d  c #E6E4E9",
"f  c #FFB639",
"g  c #8955EB",
"h  c #FFBA16",
"j  c #B8A9D3",
"k  c #472877",
"l  c #C7B9E3",
"z  c #8468B4",
"x  c #5E2AB3",
"c  c #B28DB2",
"v  c #6C38C4",
"b  c #A385D7",
"n  c #AA9AC6",
"m  c #D47D0A",
"M  c #170055",
"N  c #827995",
"B  c #FFDDA9",
"V  c #8451E3",
"C  c #BFBEC4",
"Z  c #4D2D26",
"A  c #210451",
"S  c #966217",
"D  c #C87901",
"F  c #713DCB",
"G  c #F69302",
"H  c #9D95A8",
"J  c #C97511",
"K  c #DDB275",
"L  c #9561FB",
"P  c #D9DAD5",
"I  c #7A45D9",
"U  c #E68B0B",
"Y  c #FFC021",
"T  c #A5621A",
"R  c #5D418A",
"E  c #725E95",
"W  c #FEAC32",
"Q  c #2C0E77",
"!  c #B086FF",
"~  c #7F4CDE",
"^  c #622EB7",
"/  c #AAA8AC",
"(  c #AEA8B8",
")  c #5925AC",
"_  c #8E5AF3",
"`  c #EB9B3B",
"'  c #B2A2CC",
"]  c #824EE2",
"[  c #A28BCD",
"{  c #3A2405",
"}  c #7845D4",
"|  c #380482",
" . c #BE7710",
".. c #DBDCD9",
"X. c #4D2F79",
"o. c #FFCD83",
"O. c #E4CDBA",
"+. c #9D69FF",
"@. c #E99417",
"#. c #E2E5D9",
"$. c #FFB10A",
"%. c #6936C1",
"&. c #6A4E9A",
"*. c #563592",
"=. c #FEC871",
"-. c #E4DBD8",
";. c #FF9F0D",
":. c #D5984F",
">. c #6845A6",
",. c #451194",
"<. c #9987B4",
"1. c #36017F",
"2. c #6740B0",
"3. c #BCA2EE",
"4. c #A27DE6",
"5. c #521FA4",
"6. c #51357F",
"7. c #DFD0FB",
"8. c #7049BC",
"9. c #B79CEB",
"0. c #976F30",
"q. c #B66C07",
"w. c #9589A9",
"e. c #6E3BC8",
"r. c #4D1A9E",
"t. c #FFB01F",
"y. c #E4AE55",
"u. c #261233",
"i. c #2D0072",
"p. c #C4C6C2",
"a. c #9379C6",
"s. c #9865FE",
"d. c #D5D4D9",
"f. c #4A2886",
"g. c #CBB6F2",
"h. c #400D8C",
"j. c #B099DB",
"k. c #F29D19",
"l. c #3E0A89",
"z. c #DDE0D8",
"x. c #7C5423",
"c. c #E18515",
"v. c #0A0709",
"b. c #B76919",
"n. c #67538C",
"m. c #733DD3",
"M. c #E1870B",
"N. c #5622A8",
"B. c #542A87",
"V. c #531D90",
"C. c #554227",
"Z. c #4B179A",
"A. c #9262EC",
"S. c #8C59EF",
"D. c #BEC0B9",
"F. c #A16FFF",
"G. c #7C46E0",
"H. c #532B9A",
"J. c #7A5DB1",
"K. c #8653E7",
"L. c #5323B8",
"P. c #5D38A2",
"I. c #AD6A04",
"U. c #D1D4CD",
"Y. c #8E69D3",
"T. c #3C177A",
"R. c #926CDA",
"E. c #481596",
"W. c #8A71B8",
"Q. c #FFE6C0",
"!. c #C1ACE6",
"~. c #160433",
"^. c #D79227",
"/. c #D8840F",
"(. c #8765C1",
"). c #3A2366",
"_. c #3B0785",
"`. c #7642D7",
"'. c #220162",
"]. c #E78905",
"[. c #9E72F2",
"{. c #430F90",
"}. c #4F1DB3",
"|. c #8157CE",
" X c #CDCFC8",
".X c #F08F05",
"XX c #9C83C8",
"oX c #7C4FCF",
"OX c #613B02",
"+X c #6D3DBD",
"@X c #7053A0",
"#X c #FFEED5",
"$X c #625180",
"%X c #6734BE",
"&X c #7A5FA8",
"*X c #5A28C4",
"=X c #310077",
"-X c #360C85",
";X c #C58428",
":X c #5B28AF",
">X c #9E92B4",
",X c #BFB1D6",
"<X c #35087F",
"1X c #EFA131",
"2X c #692F9C",
"3X c #9E5A1A",
"4X c #672FA4",
"5X c #A56D99",
"6X c #C07065",
"7X c #DEA961",
"8X c #9FA5AF",
"9X c #7D40B3",
"0X c #ADACBA",
"qX c #411586",
"wX c #9B70EC",
"eX c #D9A757",
"rX c #8C5FE4",
"tX c #91578E",
"yX c #DF931F",
"uX c #EDC8A0",
"iX c #EDC790",
"pX c #E0D4F3",
"aX c #401E26",
"sX c #6E3FC4",
"dX c #C16F14",
"fX c #361184",
"gX c #C3A98E",
"hX c #9077BD",
"jX c #6732C1",
"kX c #6A35D3",
"lX c #B0782A",
"zX c #DF8503",
"xX c #CF871C",
"cX c #B08CF8",
"vX c #AF91EB",
"bX c #F4970C",
"nX c #BB93FF",
"mX c #ECE9F0",
"MX c #FFFAF3",
"NX c #D98435",
"BX c #CFC2E8",
"VX c #CFD7ED",
"CX c #F4A741",
"ZX c #D8D0E5",
"AX c #9460F8",
"SX c #382754",
"DX c #6A3831",
"FX c #D6D7D2",
"GX c #D9D5D1",
"HX c #5723BC",
"JX c #432079",
"KX c #412C6C",
"LX c #652FC3",
"PX c #7E63AC",
"IX c #8C7BAD",
"UX c None",
/* pixels */
"UXUXUXUXUXUXUXUXUXUXH X.X.6.).3 = @ SX> H + R R + + + + &.&.&.&.@X@X@X@Xq q q q J.J.J.J.J.>XUXUX",
"UXUXUXUXUXUXUXUXUXUX<.5.+X+X+X6./ ZXP.@ FXb v m.O O O 1 O O 1 1 1 1 `.1 1 1 1 1 1 O O 1 g [ UXUX",
"UXUXUXUXUXUXUXUXUXUX<.oXnX! ! wX+ D.7.2.N ..cX6 AX6 _ S.K.V ~ e } 1 F e.%.y ^ x ) N.. N.g [ UXUX",
"UXUXUXUXUXUXUXUXUXUX<.1 ! s s s rXn. Xg.P.H d.[._ _ g g V ] e e } O F v %.%X^ x :X) 5.) g [ UXUX",
"UXUXUXUXUXUXUXUXUXUX< oXs s F.F.F.oX@ ..9.*./ < A.g g K.V ~ e I 1 O e.v %.y ^ x :XN.. ) S.9 UXUX",
"UXUXUXUXUXUXUXUXUXUXd !.F.F.F.+.+.+.8.N d a R D.5 g K.V ] ~ e } 1 F e.v %Xy ^ :X) N.. N._ 9 UXUX",
"UXUXUXUXUXUXUXUXUXUX  z.3.L 3.g.s.s.+.2.> d |.$Xp.j.] ] ~ e I 1 O F v %.y ^ x :X) 5.r.N.6 9 UXUX",
"UXUXUXUXUXUXUXUXUXUXN H ..cXa.z.9.L s.AX>./ pX2.@  Xb G.e e } 1 F e.v %Xy ^ x ) N.5.r.N.6 9 UXUX",
"UXUXUXUXUXUXUXUXUXUXn JX= ..R.IXz.vX6 AXg + D.g.H.N  XR.`.} 1 O F v %.y y x :X) N.5.Z.N.AX9 UXUX",
"UXUXUXUXUXUXUXUXUXUXn e.+   ZX|.>X..4._ 6 e n.U.3.k >   |.m.1 F e.v %Xy ^ x :XN.5.. E.5.AXj.UXUX",
"UXUXUXUXUXUXUXUXUXUXn G.K.n.U.BX8.( d.wXg _ sX@ #.b k / ,X} F F v %.y y x :X) N.5.r.E.5.AXj.UXUX",
"UXUXUXUXUXUXUXUXUXUXn I +.} @ P !.>.C < A.V g P.N mX(.X.= n e.v %.%Xy ^ x :XN.5.. r.,.5.L j.UXUX",
"UXUXUXUXUXUXUXUXUXUX' I L s.2.N ..j.+  X5 K.] ] *.> mX>.3 D.XXLX%Xy ^ x :X) N.5.r.Z.,.. AX9 UXUX",
"UXUXUXUXUXUXUXUXUXUX' I AX6 6 P.w...a &.P j ~ G.} 6.= pXf.@ D.(.*X*Xx 4X) N.5.. r.E.{.r._ 9 UXUX",
"UXUXUXUXUXUXUXUXUXUX' I 6 S.S.g *./ P (.E z.9 `.I +X6.  l T.N = tX7 NXu 2X5.5.r.E.E.h.Z.g [ UXUX",
"UXUXUXUXUXUXUXUXUXUXj `.S.g g g ~ 6.= < >.N z.a m.`.L.3 d.c b.1Xt.X =.f DXfX. Z.E.,.l.E.V [ UXUX",
"UXUXUXUXUXUXUXUXUXUXj I g K.V V K.F R p.5 *.H P Y.9X6XS 7 -.X f ; : =.i * A . Z.,.{.l.,.~ XXUXUX",
"UXUXUXUXUXUXUXUXUXUXj I K.V ] ] ~ ] y $X Xj B.0X< 5X2 & S 0XuXW X X ; i m ~.Z.E.{.h._.{.I a.UXUX",
"UXUXUXUXUXUXUXUXUXUXj I ] ~ ~ e e e e H.@  X[ f.C < ` & m > O.4 W f X X # aX-X,.{.l._.h.1 hXUXUX",
"UXUXUXUXUXUXUXUXUXUX,X`.~ e e I } } } `.f.N  XhX6.C GX7X:.  O.;.# 4 W W t.0 i.,.l._.| l.F W.UXUX",
"UXUXUXUXUXUXUXUXUXUX,X`.I } } } 1 O O O e.JX> p.z f.H < VX-.CX2 ;.;.# # # b.A h.l._.$ l.%.W.UXUX",
"UXUXUXUXUXUXUXUXUXUX,X`.} 1 1 O O F F e.e.jXk H D.z B.lX:.@.2 2 & & & & ;.t u._._.| $ _.%Xz UXUX",
"UXUXUXUXUXUXUXUXUXUX5 `.O O F F e.e.v v %.%.^ JXN = <.u 2 G 2 2 2 & 2 2 & ;.Z i.| $ $ _.^ PXUXUX",
"UXUXUXUXUXUXUXUXUXUX5 `.e.e.e.e.v v %.%Xy y y x T.$X8XeXG t G G G 2 2 2 & - 3X'.1.$ $ _.x &XUXUX",
"UXUXUXUXUXUXUXUXUXUX5 m.v v v %.%.%Xy y ^ ^ x x :XqX).7 G ].t .XG & & G 8 3XZ '.$ $ $ _.) q UXUX",
"UXUXUXUXUXUXUXUXUXUXl m.%X%X%Xy y y ^ ^ x x :X:X) ) r.T.M.t G 2 ].q.0 aXA M i.=X$ $ $ _.N.@XUXUX",
"UXUXUXUXUXUXUXUXUXUXl m.y y y ^ ^ ^ x x :X:X) N.N.5.. }., c.* w u.M '.i.1.| 1.$ $ $ $ | 5.&.UXUX",
"UXUXUXUXUXUXUXUXUXUXl kXHXHXHXHXL.L.}.}.}.}.}.. . . r.Z.V.Z.'.'.<X_._.| 1.$ $ $ $ $ $ | r.+ UXUX",
";X;X;X;X;X;X;X;X;X;X;X . . . . . . . . . . . . . .Z.Z.E.,.{.{.h.l._.| $ $ $ $ $ $ $ $ | Z.+ UXUX",
" .W : ; ; X X X f f Y Y Y Y h h $.$.$.- - - G & , -XE.,.{.h.l._._.| $ $ $ $ $ $ $ $ $ | ,.R UXUX",
" .: MX#XQ.B iXK =.: X 1Xk.;.t 2 2 2 G .X].8 J U T '.{.{.h.l._.| 1.$ $ $ $ $ $ $ $ $ $ 1.,.r UXUX",
" .; #XQ.B B C.Z C.; i S 0 M.w & & & G .X].8 J U T M h.l._._.| $ $ $ $ $ $ $ $ $ $ $ $ 1.h.r UXUX",
" .; Q.B B p C.7XC.lXlXlXOXI.OXI.zX* t .X].8 dXU T '.l._.| 1.$ $ $ $ $ $ $ $ $ $ $ $ $ 1.l.6.UXUX",
" .X B p p o.C.eX0.x.w xXw 0 * OXD w zX.XM.m dXU T M | | $ $ $ $ $ $ $ $ $ $ $ $ $ $ $ 1._.X.UXUX",
" .X p o.o.=.C.y.x.0.w @.OX{ D w D w zX.XM.m b.M.T M 1.$ $ $ $ $ $ $ $ $ =X=X$ $ $ $ $ $ | X.UXUX",
" .W o.=.=.: Z x.w ^.w bX0 v.& w 0 { zXt 8 J b.M.T M $ $ $ $ $ $ $ $ 1.1.E.h.$ =X=X=X=X=Xl.k UXUX",
" .W : : ; X 0.x.^.yX{ G m I.& q.OX* ].M.m J T /.T M $ $ $ $ $ $ $ =XA '.oXs.g } %X:XN.2.r UXUXUX",
" .4 ; ; X X f f t.S * 2 & & 2 2 & 2 ].8 J dX3XJ T M $ $ $ $ $ $ $ 1.~.v.KX+.s.6 g ] 4.E UXUXUXUX",
" .;.# # # ;.;.;.- ;.$.$.h h Y Y h h t.# # k.@.- T M $ $ $ $ $ $ $ $ i.v.u.AXS.V e a E UXUXUXUXUX",
"o o o o o o o o o o gX% % % % % % % % % x.% x.x.aXA $ $ $ $ $ $ $ $ 1.~.v.V V e a E UXUXUXUXUXUX",
"UXUXUXUXUXUXUXUXUXUXn Q M M M M M M M M M M M M A '.$ $ $ $ $ $ $ $ 1.'.v.1 I a E UXUXUXUXUXUXUX",
"UXUXUXUXUXUXUXUXUXUXl N.$ 1.1.1.1.1.1.1.1.1.1.1.1.1.$ $ $ $ $ $ $ $ $ i.~.sXa E UXUXUXUXUXUXUXUX",
"UXUXUXUXUXUXUXUXUXUX5 . =X$ $ $ $ $ $ $ $ $ $ $ $ $ $ $ $ $ $ $ $ $ $ =XA Y.E UXUXUXUXUXUXUXUXUX",
"UXUXUXUXUXUXUXUXUXUX,X. $ 1.1.1.1.1.1.1.1.$ $ $ $ $ $ $ $ $ $ $ $ $ $ i.r E UXUXUXUXUXUXUXUXUXUX",
"UXUXUXUXUXUXUXUXUXUXj jXy ^ x :X) N.5.. r.Z.E.,.,.{.h.l._._.| | 1.$ $ T.$XUXUXUXUXUXUXUXUXUXUXUX",
"UXUXUXUXUXUXUXUXUXUX>Xz z PXPX&Xq @X@X&.&.+ + R R r r 6.6.X.X.X.k k k r UXUXUXUXUXUXUXUXUXUXUXUX",
"UXUXUXUXUXUXUXUXUXUXUXUXUXUXUXUXUXUXUXUXUXUXUXUXUXUXUXUXUXUXUXUXUXUXUXUXUXUXUXUXUXUXUXUXUXUXUXUX",
"UXUXUXUXUXUXUXUXUXUXUXUXUXUXUXUXUXUXUXUXUXUXUXUXUXUXUXUXUXUXUXUXUXUXUXUXUXUXUXUXUXUXUXUXUXUXUXUX"
};
