<?xml version="1.0" encoding="UTF-8" standalone="no"?>
<!-- Created with Inkscape (http://www.inkscape.org/) -->

<svg
   xmlns:dc="http://purl.org/dc/elements/1.1/"
   xmlns:cc="http://creativecommons.org/ns#"
   xmlns:rdf="http://www.w3.org/1999/02/22-rdf-syntax-ns#"
   xmlns:svg="http://www.w3.org/2000/svg"
   xmlns="http://www.w3.org/2000/svg"
   xmlns:xlink="http://www.w3.org/1999/xlink"
   xmlns:sodipodi="http://sodipodi.sourceforge.net/DTD/sodipodi-0.dtd"
   xmlns:inkscape="http://www.inkscape.org/namespaces/inkscape"
   version="1.1"
   width="128"
   height="128"
   id="svg2"
   inkscape:version="0.48.1 r9760"
   sodipodi:docname="dvdstyler.svg">
  <sodipodi:namedview
     pagecolor="#ffffff"
     bordercolor="#666666"
     borderopacity="1"
     objecttolerance="10"
     gridtolerance="10"
     guidetolerance="10"
     inkscape:pageopacity="0"
     inkscape:pageshadow="2"
     inkscape:window-width="1440"
     inkscape:window-height="843"
     id="namedview81"
     showgrid="false"
     inkscape:zoom="3.1972275"
     inkscape:cx="98.87867"
     inkscape:cy="40.181187"
     inkscape:window-x="-2"
     inkscape:window-y="0"
     inkscape:window-maximized="1"
     inkscape:current-layer="svg2" />
  <metadata
     id="metadata8">
    <rdf:RDF>
      <cc:Work
         rdf:about="">
        <dc:format>image/svg+xml</dc:format>
        <dc:type
           rdf:resource="http://purl.org/dc/dcmitype/StillImage" />
        <dc:title />
      </cc:Work>
    </rdf:RDF>
  </metadata>
  <defs
     id="defs6">
    <linearGradient
       id="linearGradient3995">
      <stop
         id="stop3997"
         style="stop-color:#ffffff;stop-opacity:0.79591835;"
         offset="0" />
      <stop
         id="stop3999"
         style="stop-color:#ffffff;stop-opacity:0"
         offset="1" />
    </linearGradient>
    <linearGradient
       id="linearGradient3981">
      <stop
         offset="0"
         style="stop-color:#ff99ff;stop-opacity:0.50340134;"
         id="stop3983" />
      <stop
         offset="1"
         style="stop-color:#ffffff;stop-opacity:0"
         id="stop3985" />
    </linearGradient>
    <linearGradient
       id="linearGradient3975">
      <stop
         offset="0"
         style="stop-color:#ff99ff;stop-opacity:0.50340134;"
         id="stop3977" />
      <stop
         offset="1"
         style="stop-color:#ffffff;stop-opacity:0"
         id="stop3979" />
    </linearGradient>
    <linearGradient
       id="linearGradient4372">
      <stop
         id="stop4374"
         style="stop-color:#99ccff;stop-opacity:0.50340134"
         offset="0" />
      <stop
         id="stop4376"
         style="stop-color:#ffffff;stop-opacity:0"
         offset="1" />
    </linearGradient>
    <linearGradient
       id="linearGradient4038">
      <stop
         id="stop4040"
         style="stop-color:#ffffff;stop-opacity:0.48979592"
         offset="0" />
      <stop
         id="stop4042"
         style="stop-color:#808080;stop-opacity:0"
         offset="1" />
    </linearGradient>
    <linearGradient
       id="linearGradient4012">
      <stop
         id="stop4014"
         style="stop-color:#bc8349;stop-opacity:1"
         offset="0" />
      <stop
         id="stop4016"
         style="stop-color:#632a04;stop-opacity:1"
         offset="1" />
    </linearGradient>
    <linearGradient
       id="linearGradient3986">
      <stop
         id="stop3992"
         style="stop-color:#edd39f;stop-opacity:1"
         offset="0" />
      <stop
         id="stop3990"
         style="stop-color:#ba8921;stop-opacity:1;"
         offset="1" />
    </linearGradient>
    <linearGradient
       id="linearGradient3957">
      <stop
         id="stop3959"
         style="stop-color:#e7e7e7;stop-opacity:1"
         offset="0" />
      <stop
         id="stop3961"
         style="stop-color:#999999;stop-opacity:1;"
         offset="1" />
    </linearGradient>
    <linearGradient
       id="linearGradient3898">
      <stop
         id="stop3900"
         style="stop-color:#f2e5ff;stop-opacity:1"
         offset="0" />
      <stop
         id="stop3902"
         style="stop-color:#cc99ff;stop-opacity:1"
         offset="1" />
    </linearGradient>
    <linearGradient
       id="linearGradient3880">
      <stop
         id="stop3890"
         style="stop-color:#ff26ff;stop-opacity:1"
         offset="0" />
      <stop
         id="stop3894"
         style="stop-color:#ff92ff;stop-opacity:0.98666668"
         offset="0.5" />
      <stop
         id="stop3888"
         style="stop-color:#ffffff;stop-opacity:1"
         offset="1" />
    </linearGradient>
    <filter
       color-interpolation-filters="sRGB"
       id="filter3867">
      <feGaussianBlur
         id="feGaussianBlur3869"
         stdDeviation="0.95680408" />
    </filter>
    <radialGradient
       cx="54.765625"
       cy="68.515625"
       r="47.703125"
       fx="54.765625"
       fy="68.515625"
       id="radialGradient3931"
       xlink:href="#linearGradient3898"
       gradientUnits="userSpaceOnUse"
       gradientTransform="matrix(1,0,0,1.0058958,0,-0.40395717)" />
    <radialGradient
       cx="66.114342"
       cy="87.547775"
       r="4.5402045"
       fx="66.114342"
       fy="87.547775"
       id="radialGradient3949"
       xlink:href="#linearGradient3957"
       gradientUnits="userSpaceOnUse"
       gradientTransform="matrix(1,0,0,0.86153267,0,12.122507)" />
    <radialGradient
       cx="68.273842"
       cy="84.44368"
       r="4.5620255"
       fx="68.273842"
       fy="84.44368"
       id="radialGradient3951"
       xlink:href="#linearGradient3957"
       gradientUnits="userSpaceOnUse"
       gradientTransform="matrix(1,0,0,0.85741176,0,12.040676)" />
    <radialGradient
       cx="72.559822"
       cy="78.328201"
       r="4.5700579"
       fx="72.559822"
       fy="78.328201"
       id="radialGradient3953"
       xlink:href="#linearGradient3957"
       gradientUnits="userSpaceOnUse"
       gradientTransform="matrix(1,0,0,0.85590485,0,11.286714)" />
    <radialGradient
       cx="70.387047"
       cy="81.433525"
       r="4.570745"
       fx="70.387047"
       fy="81.433525"
       id="radialGradient3955"
       xlink:href="#linearGradient3957"
       gradientUnits="userSpaceOnUse"
       gradientTransform="matrix(1,0,0,0.85604454,0,11.722801)" />
    <radialGradient
       cx="54.765625"
       cy="68.515625"
       r="47.703125"
       fx="54.765625"
       fy="68.515625"
       id="radialGradient3970"
       xlink:href="#linearGradient3898"
       gradientUnits="userSpaceOnUse"
       gradientTransform="matrix(1,0,0,1.0058958,0,-0.40395717)" />
    <linearGradient
       x1="51.315922"
       y1="94.884682"
       x2="61.327724"
       y2="102.33122"
       id="linearGradient3984"
       xlink:href="#linearGradient3986"
       gradientUnits="userSpaceOnUse" />
    <linearGradient
       x1="92.488106"
       y1="39.871323"
       x2="104.11462"
       y2="50.5266"
       id="linearGradient4010"
       xlink:href="#linearGradient4012"
       gradientUnits="userSpaceOnUse" />
    <filter
       color-interpolation-filters="sRGB"
       id="filter4024">
      <feGaussianBlur
         id="feGaussianBlur4026"
         stdDeviation="0.46093549" />
    </filter>
    <linearGradient
       x1="9.1188154"
       y1="110.21168"
       x2="9.6749611"
       y2="73.179085"
       id="linearGradient4046"
       xlink:href="#linearGradient4038"
       gradientUnits="userSpaceOnUse"
       gradientTransform="translate(-35.954205,-27.610505)" />
    <linearGradient
       x1="9.1188154"
       y1="110.21168"
       x2="9.6749611"
       y2="73.179085"
       id="linearGradient4050"
       xlink:href="#linearGradient4038"
       gradientUnits="userSpaceOnUse"
       gradientTransform="translate(34.764684,-192.22124)" />
    <linearGradient
       x1="9.1188154"
       y1="110.21168"
       x2="9.8433275"
       y2="61.137264"
       id="linearGradient4220"
       xlink:href="#linearGradient4038"
       gradientUnits="userSpaceOnUse"
       gradientTransform="translate(-35.954205,-27.610505)" />
    <linearGradient
       x1="9.1188154"
       y1="110.21168"
       x2="9.8433275"
       y2="61.137264"
       id="linearGradient4222"
       xlink:href="#linearGradient4038"
       gradientUnits="userSpaceOnUse"
       gradientTransform="translate(34.764684,-192.22124)" />
    <linearGradient
       x1="9.1188154"
       y1="110.21168"
       x2="9.8433275"
       y2="61.137264"
       id="linearGradient4220-8"
       xlink:href="#linearGradient4038-6"
       gradientUnits="userSpaceOnUse"
       gradientTransform="translate(-35.954205,-27.610505)" />
    <linearGradient
       id="linearGradient4038-6">
      <stop
         id="stop4040-9"
         style="stop-color:#ffffff;stop-opacity:0.48979592"
         offset="0" />
      <stop
         id="stop4042-3"
         style="stop-color:#808080;stop-opacity:0"
         offset="1" />
    </linearGradient>
    <linearGradient
       x1="9.1188154"
       y1="110.21168"
       x2="9.8433275"
       y2="61.137264"
       id="linearGradient4222-3"
       xlink:href="#linearGradient4038-6"
       gradientUnits="userSpaceOnUse"
       gradientTransform="translate(34.764684,-192.22124)" />
    <linearGradient
       id="linearGradient4251">
      <stop
         id="stop4253"
         style="stop-color:#ffffff;stop-opacity:0.48979592"
         offset="0" />
      <stop
         id="stop4255"
         style="stop-color:#808080;stop-opacity:0"
         offset="1" />
    </linearGradient>
    <linearGradient
       x1="9.1188154"
       y1="110.21168"
       x2="9.8433275"
       y2="61.137264"
       id="linearGradient4260"
       xlink:href="#linearGradient4038-6"
       gradientUnits="userSpaceOnUse"
       gradientTransform="translate(34.764684,-192.22124)" />
    <linearGradient
       x1="9.1188154"
       y1="110.21168"
       x2="9.8433275"
       y2="61.137264"
       id="linearGradient4303"
       xlink:href="#linearGradient4038-6"
       gradientUnits="userSpaceOnUse"
       gradientTransform="translate(-35.954205,-27.610505)" />
    <linearGradient
       x1="9.1188154"
       y1="110.21168"
       x2="9.8433275"
       y2="61.137264"
       id="linearGradient4305"
       xlink:href="#linearGradient4038-6"
       gradientUnits="userSpaceOnUse"
       gradientTransform="translate(34.764684,-192.22124)" />
    <radialGradient
       cx="54.765625"
       cy="68.515625"
       r="47.703125"
       fx="54.765625"
       fy="68.515625"
       id="radialGradient4317"
       xlink:href="#linearGradient3898"
       gradientUnits="userSpaceOnUse"
       gradientTransform="matrix(1,0,0,1.0058958,0,-0.40395717)" />
    <radialGradient
       cx="54.765625"
       cy="68.515625"
       r="47.703125"
       fx="54.765625"
       fy="68.515625"
       id="radialGradient4360"
       xlink:href="#linearGradient3898"
       gradientUnits="userSpaceOnUse"
       gradientTransform="matrix(0.59924679,0.23484342,-0.63991908,1.632873,65.791956,-56.22304)" />
    <radialGradient
       cx="41.795074"
       cy="41.223042"
       r="11.02853"
       fx="41.795074"
       fy="41.223042"
       id="radialGradient4378"
       xlink:href="#linearGradient4372"
       gradientUnits="userSpaceOnUse"
       gradientTransform="matrix(-2.0862443,-3.7268173,0.63565324,-0.35583382,102.78625,212.28864)" />
    <radialGradient
       cx="41.795074"
       cy="41.223042"
       r="11.02853"
       fx="41.795074"
       fy="41.223042"
       id="radialGradient4378-9"
       xlink:href="#linearGradient4372-7"
       gradientUnits="userSpaceOnUse"
       gradientTransform="matrix(-2.0862443,-3.7268173,0.63565324,-0.35583382,102.78625,212.28864)" />
    <linearGradient
       id="linearGradient4372-7">
      <stop
         id="stop4374-8"
         style="stop-color:#99ccff;stop-opacity:0.50340134"
         offset="0" />
      <stop
         id="stop4376-8"
         style="stop-color:#ffffff;stop-opacity:0"
         offset="1" />
    </linearGradient>
    <radialGradient
       cx="41.795074"
       cy="41.223042"
       r="11.02853"
       fx="41.795074"
       fy="41.223042"
       id="radialGradient4395"
       xlink:href="#linearGradient4372-7"
       gradientUnits="userSpaceOnUse"
       gradientTransform="matrix(2.0862443,3.7268173,-0.63565324,0.35583382,6.2623893,-75.105009)" />
    <radialGradient
       inkscape:collect="always"
       xlink:href="#linearGradient3898"
       id="radialGradient3830"
       gradientUnits="userSpaceOnUse"
       gradientTransform="matrix(0.59924679,0.23484342,-0.63991908,1.632873,65.791956,-56.22304)"
       cx="54.765625"
       cy="68.515625"
       fx="54.765625"
       fy="68.515625"
       r="47.703125" />
    <radialGradient
       inkscape:collect="always"
       xlink:href="#linearGradient3981"
       id="radialGradient3971"
       gradientUnits="userSpaceOnUse"
       gradientTransform="matrix(-3.6701492,-2.1843963,0.37257494,-0.62598775,168.16879,168.90595)"
       cx="41.795074"
       cy="41.223042"
       fx="41.795074"
       fy="41.223042"
       r="11.02853" />
    <radialGradient
       inkscape:collect="always"
       xlink:href="#linearGradient3975"
       id="radialGradient3973"
       gradientUnits="userSpaceOnUse"
       gradientTransform="matrix(3.6701492,2.1843963,-0.37257494,0.62598775,-59.12015,-31.72232)"
       cx="41.795074"
       cy="41.223042"
       fx="41.795074"
       fy="41.223042"
       r="11.02853" />
    <radialGradient
       inkscape:collect="always"
       xlink:href="#linearGradient3995"
       id="radialGradient3991"
       gradientUnits="userSpaceOnUse"
       gradientTransform="matrix(-2.1843963,3.6701492,-0.62598775,-0.37257494,154.83845,-45.052655)"
       cx="41.795074"
       cy="41.223042"
       fx="41.795074"
       fy="41.223042"
       r="11.02853" />
    <radialGradient
       inkscape:collect="always"
       xlink:href="#linearGradient3995"
       id="radialGradient3993"
       gradientUnits="userSpaceOnUse"
       gradientTransform="matrix(2.1843963,-3.6701492,0.62598775,0.37257494,-45.789818,182.23628)"
       cx="41.795074"
       cy="41.223042"
       fx="41.795074"
       fy="41.223042"
       r="11.02853" />
    <linearGradient
       inkscape:collect="always"
       xlink:href="#linearGradient3986"
       id="linearGradient4013"
       gradientUnits="userSpaceOnUse"
       x1="50.377609"
       y1="92.06974"
       x2="57.261703"
       y2="100.14182" />
    <radialGradient
       inkscape:collect="always"
       xlink:href="#linearGradient3957"
       id="radialGradient4016"
       gradientUnits="userSpaceOnUse"
       gradientTransform="matrix(1,0,0,0.86153267,0,12.122507)"
       cx="66.114342"
       cy="87.547775"
       fx="66.114342"
       fy="87.547775"
       r="4.5402045" />
    <radialGradient
       inkscape:collect="always"
       xlink:href="#linearGradient3957"
       id="radialGradient4019"
       gradientUnits="userSpaceOnUse"
       gradientTransform="matrix(1,0,0,0.85741176,0,12.040676)"
       cx="68.273842"
       cy="84.44368"
       fx="68.273842"
       fy="84.44368"
       r="4.5620255" />
    <radialGradient
       inkscape:collect="always"
       xlink:href="#linearGradient3957"
       id="radialGradient4022"
       gradientUnits="userSpaceOnUse"
       gradientTransform="matrix(1,0,0,0.85604454,0,11.722801)"
       cx="70.387047"
       cy="81.433525"
       fx="70.387047"
       fy="81.433525"
       r="4.570745" />
    <radialGradient
       inkscape:collect="always"
       xlink:href="#linearGradient3957"
       id="radialGradient4025"
       gradientUnits="userSpaceOnUse"
       gradientTransform="matrix(1,0,0,0.85590485,0,11.286714)"
       cx="72.559822"
       cy="78.328201"
       fx="72.559822"
       fy="78.328201"
       r="4.5700579" />
    <linearGradient
       inkscape:collect="always"
       xlink:href="#linearGradient4012"
       id="linearGradient4028"
       gradientUnits="userSpaceOnUse"
       x1="92.80088"
       y1="41.435177"
       x2="99.735817"
       y2="46.77335" />
  </defs>
  <g
     id="g4001">
    <path
       d="m 104.47005,70.526036 a 47.697681,47.982727 0 1 1 -95.3953609,0 47.697681,47.982727 0 1 1 95.3953609,0 z"
       id="path3832"
       style="fill:#808080;fill-opacity:1;stroke:none;filter:url(#filter3867)"
       inkscape:connector-curvature="0" />
    <path
       d="m 54.78125,20.53125 c -26.342702,0 -47.71875,21.499872 -47.71875,48 0,26.500128 21.376048,47.96875 47.71875,47.96875 26.342702,0 47.6875,-21.468622 47.6875,-47.96875 0,-26.500128 -21.344798,-48 -47.6875,-48 z m 0,32.625 c 8.429665,0 15.25,6.894959 15.25,15.375 0,8.480041 -6.820335,15.34375 -15.25,15.34375 C 46.351585,83.875 39.5,77.011291 39.5,68.53125 c 0,-8.480041 6.851585,-15.375 15.28125,-15.375 z"
       id="path3036"
       style="fill:url(#radialGradient3830);fill-opacity:1;stroke:#999999;stroke-width:0.30000001;stroke-miterlimit:4;stroke-opacity:1;stroke-dasharray:none"
       inkscape:connector-curvature="0" />
    <path
       style="fill:url(#radialGradient4378);fill-opacity:1;stroke:none"
       id="path4362"
       d="m 24.460222,31.435298 18.079294,27.650686 c 0,0 1.701581,-2.126976 3.828557,-3.828556 2.552371,-1.276186 5.530137,-2.126976 5.530137,-2.126976 L 49.345839,20.80042 c 0,0 -6.380927,0.85079 -13.18725,3.403161 -7.657113,3.403161 -11.698367,7.231717 -11.698367,7.231717 z" />
    <path
       style="fill:url(#radialGradient4395);fill-opacity:1;stroke:none"
       id="path4362-4"
       d="M 84.588416,105.74833 66.509122,78.097651 c 0,0 -1.701581,2.12697 -3.828557,3.82855 -2.552371,1.27619 -5.530136,2.12698 -5.530136,2.12698 l 2.55237,32.330029 c 0,0 6.380927,-0.85079 13.18725,-3.40316 7.657113,-3.40316 11.698367,-7.23172 11.698367,-7.23172 z" />
    <path
       inkscape:connector-curvature="0"
       d="M 9.9097888,51.445376 39.39226,66.351925 c 0,0 0.410124,-2.692805 1.401349,-5.229905 1.572325,-2.381395 3.725751,-4.607084 3.725751,-4.607084 L 26.143926,29.792493 c 0,0 -5.10065,3.927269 -9.718913,9.540849 -4.929674,6.77578 -6.5152242,12.112034 -6.5152242,12.112034 z"
       id="path3966"
       style="fill:url(#radialGradient3971);fill-opacity:1.0;stroke:none" />
    <path
       inkscape:connector-curvature="0"
       d="M 99.138848,85.738252 69.656381,70.831709 c 0,0 -0.410128,2.692801 -1.401353,5.2299 -1.572323,2.381398 -3.725748,4.607087 -3.725748,4.607087 l 18.375432,26.722444 c 0,0 5.10065,-3.92727 9.718913,-9.540851 4.929675,-6.775779 6.515223,-12.112037 6.515223,-12.112037 z"
       id="path3968"
       style="fill:url(#radialGradient3973);fill-opacity:1.0;stroke:none" />
    <path
       style="fill:url(#radialGradient3991);fill-opacity:1.0;stroke:none"
       id="path3987"
       d="M 37.377878,113.20635 52.284427,83.723875 c 0,0 -2.692805,-0.410124 -5.229905,-1.401349 -2.381395,-1.572325 -4.607084,-3.725751 -4.607084,-3.725751 L 15.724995,96.972209 c 0,0 3.927269,5.100651 9.540849,9.718911 6.77578,4.92968 12.112034,6.51523 12.112034,6.51523 z"
       inkscape:connector-curvature="0" />
    <path
       style="fill:url(#radialGradient3993);fill-opacity:1.0;stroke:none"
       id="path3989"
       d="M 71.670754,23.977287 56.764211,53.459754 c 0,0 2.692801,0.410128 5.2299,1.401353 2.381398,1.572323 4.607087,3.725748 4.607087,3.725748 L 93.323642,40.211423 c 0,0 -3.92727,-5.10065 -9.540851,-9.718913 -6.775779,-4.929675 -12.112037,-6.515223 -12.112037,-6.515223 z"
       inkscape:connector-curvature="0" />
  </g>
  <path
     inkscape:connector-curvature="0"
     style="fill:#ffffff;fill-opacity:1;stroke:none"
     id="path3826"
     d="m 60.973069,68.917 a 5.9661203,5.8467908 0 1 1 -11.932241,0 5.9661203,5.8467908 0 1 1 11.932241,0 z" />
  <path
     inkscape:connector-curvature="0"
     style="fill:#bfbfbf;fill-opacity:1;stroke:#999999;stroke-width:0.30000001;stroke-miterlimit:4;stroke-opacity:1;stroke-dasharray:none"
     id="path3906"
     d="m 54.78125,53.15625 c -8.429665,0 -15.28125,6.894959 -15.28125,15.375 0,8.480041 6.851585,15.34375 15.28125,15.34375 8.429665,0 15.25,-6.863709 15.25,-15.34375 0,-8.480041 -6.820335,-15.375 -15.25,-15.375 z m 0,5.78125 c 5.26854,0 9.53125,4.293724 9.53125,9.59375 0,5.300026 -4.26271,9.59375 -9.53125,9.59375 -5.26854,0 -9.5625,-4.293724 -9.5625,-9.59375 0,-5.300026 4.29396,-9.59375 9.5625,-9.59375 z" />
  <path
     style="fill:#d9d9d9;fill-opacity:1;stroke:#808080;stroke-width:0.28500003000000002;stroke-miterlimit:4;stroke-opacity:1;stroke-dasharray:none"
     d="m 55.3125,50.28125 a 18.125119,18.233438 0 0 0 -18.65625,18.25 18.125119,18.233438 0 0 0 36.25,0 18.125119,18.233438 0 0 0 -17.59375,-18.25 z m -0.53125,2.875 c 8.42966,0 15.25,6.894959 15.25,15.375 0,8.480041 -6.82034,15.34375 -15.25,15.34375 C 46.35158,83.875 39.5,77.011291 39.5,68.53125 c 0,-8.480041 6.85158,-15.375 15.28125,-15.375 z"
     id="path3961"
     inkscape:connector-curvature="0" />
  <path
     inkscape:connector-curvature="0"
     style="fill:#e5e5e5;fill-opacity:1;stroke:#989898;stroke-width:0.30000000999999998;stroke-miterlimit:4;stroke-opacity:1;stroke-dasharray:none"
     id="path3824"
     d="m 54.78125,58.9375 c -5.26854,0 -9.5625,4.293724 -9.5625,9.59375 0,5.300026 4.29396,9.59375 9.5625,9.59375 5.26854,0 9.53125,-4.293724 9.53125,-9.59375 0,-5.300026 -4.26271,-9.59375 -9.53125,-9.59375 z m 0,3.34375 c 3.424551,0 6.1875,2.804983 6.1875,6.25 0,3.445017 -2.762949,6.21875 -6.1875,6.21875 -3.424551,0 -6.21875,-2.773733 -6.21875,-6.21875 0,-3.445017 2.794199,-6.25 6.21875,-6.25 z" />
  <path
     d="m 54.78125,20.53125 c -26.342702,0 -47.71875,21.499872 -47.71875,48 0,26.500128 21.376048,47.96875 47.71875,47.96875 26.342702,0 47.6875,-21.468622 47.6875,-47.96875 0,-26.500128 -21.344798,-48 -47.6875,-48 z m 0,32.625 c 8.429665,0 15.25,6.894959 15.25,15.375 0,8.480041 -6.820335,15.34375 -15.25,15.34375 C 46.351585,83.875 39.5,77.011291 39.5,68.53125 c 0,-8.480041 6.851585,-15.375 15.28125,-15.375 z"
     id="path4309"
     style="fill:none;stroke:none" />
  <path
     d="m 122.09182,10.305091 c -0.80458,0.08398 -1.41875,0.471884 -1.6875,0.875 0,0 -34.346952,40.090739 -37.437502,45.0625 -3.49367,4.703017 -12.09375,19.71875 -12.09375,19.71875 0,0 -0.86876,0.246897 -1.40625,1.1875 -0.60467,0.940603 -0.70362,1.932125 -0.70362,1.932125 l 6.80812,4.484874 c 0,0 0.88458,-0.382646 1.48925,-1.323249 0.67189,-0.739046 0.65625,-1.84375 0.65625,-1.84375 0,0 11.95634,-11.796983 15.71875,-16.5 3.89679,-4.837389 32.593752,-48.71875 32.593752,-48.71875 0.40312,-0.806232 0.39371,-2.790652 -1.21875,-4 -0.94061,-0.739046 -1.91417,-0.958982 -2.71875,-0.875 z m -53.375002,68.78125 c 0,0 -0.9672,0.215647 -1.4375,1.15625 -0.60467,0.940603 -0.3125,2.09375 -0.3125,2.09375 l -0.375,-0.25 c 0,0 -0.9672,0.448454 -1.4375,1.1875 -0.53749,1.007789 -0.3125,2.0625 -0.3125,2.0625 l 6.15625,4.0625 c 0,0 1.21251,-0.225018 1.75,-1.03125 0.80623,-0.806232 0.65625,-1.84375 0.65625,-1.84375 l -0.1875,-0.125 c 0.21358,0.0042 1.06837,-0.03186 1.65625,-1.03125 0.73905,-0.940603 0.6875,-1.875 0.6875,-1.875 z m -4.3125,6.09375 c 0,0 -0.78396,0.150357 -1.40625,1.1875 -0.41486,1.037143 -0.3125,2.0625 -0.3125,2.0625 l 6.15625,4.09375 c 0,0 1.04689,-0.256268 1.71875,-1.0625 0.67189,-0.940603 0.6875,-1.84375 0.6875,-1.84375 z m -1.30713,3.557125 c 0,0 -7.2079,6.123372 -9.25537,8.224125 -3.08795,2.88052 -3.99093,5.786679 -6.6875,7.031249 -2.07429,1.65943 -7.625,2.90625 -7.625,2.90625 0,0 5.22508,1.16562 8.71875,1.03125 4.2999,-0.13437 9.43132,-1.16882 12.65625,-4.125 3.22493,-2.95618 7.46875,-11.437499 7.46875,-11.437499 z"
     id="path3846"
     style="fill:#808080;fill-opacity:1;stroke:none;filter:url(#filter4024)" />
  <path
     inkscape:connector-curvature="0"
     style="fill:url(#linearGradient4028);fill-opacity:1;stroke:#000000;stroke-width:0.50000000000000000;stroke-linecap:butt;stroke-linejoin:miter;stroke-miterlimit:4;stroke-opacity:1;stroke-dasharray:none"
     id="path2987"
     d="m 119.54717,9.8616352 c 0,0 -34.343408,40.1099998 -37.433962,45.0817608 -3.49367,4.703017 -12.075472,19.723271 -12.075472,19.723271 l 6.842767,4.427673 c 0,0 11.935699,-11.800128 15.698113,-16.503145 3.896786,-4.837389 32.603774,-48.704403 32.603774,-48.704403 0.40312,-0.806232 0.40491,-2.815809 -1.20755,-4.0251568 -1.88121,-1.4780912 -3.89018,-0.8062315 -4.42767,0 z" />
  <path
     inkscape:connector-curvature="0"
     style="fill:url(#radialGradient4025);fill-opacity:1;stroke:#666666;stroke-width:0.5;stroke-linecap:butt;stroke-linejoin:miter;stroke-miterlimit:4;stroke-opacity:1;stroke-dasharray:none"
     id="path2989"
     d="m 76.87988,79.09434 c 0,0 -0.0035,1.117961 -0.675388,1.857007 -0.604674,0.940603 -1.739706,1.038389 -1.739706,1.038389 l -6.153791,-4.077015 c 0,0 -0.293532,-1.123833 0.311142,-2.064436 0.537488,-0.940603 1.414976,-1.181618 1.414976,-1.181618 z" />
  <path
     inkscape:connector-curvature="0"
     style="fill:url(#radialGradient4022);fill-opacity:1;stroke:#666666;stroke-width:0.5;stroke-linecap:butt;stroke-linejoin:miter;stroke-miterlimit:4;stroke-opacity:1;stroke-dasharray:none"
     id="path2989-0"
     d="m 74.706419,82.19844 c 0,0 0.06366,0.916404 -0.675388,1.857007 -0.67186,1.142161 -1.739706,1.038389 -1.739706,1.038389 l -6.153791,-4.077015 c 0,0 -0.293532,-1.123833 0.311142,-2.064436 0.470302,-0.940603 1.414976,-1.181618 1.414976,-1.181618 z" />
  <path
     inkscape:connector-curvature="0"
     style="fill:url(#radialGradient4019);fill-opacity:1;stroke:#666666;stroke-width:0.5;stroke-linecap:butt;stroke-linejoin:miter;stroke-miterlimit:4;stroke-opacity:1;stroke-dasharray:none"
     id="path2989-5"
     d="m 72.578008,85.209817 c 0,0 0.130844,1.050775 -0.675388,1.857007 -0.537488,0.806232 -1.739706,1.038389 -1.739706,1.038389 l -6.153791,-4.077015 c 0,0 -0.226346,-1.056647 0.311142,-2.064436 0.470302,-0.739046 1.414976,-1.181618 1.414976,-1.181618 z" />
  <path
     inkscape:connector-curvature="0"
     style="fill:url(#radialGradient4016);fill-opacity:1;stroke:#666666;stroke-width:0.5;stroke-linecap:butt;stroke-linejoin:miter;stroke-miterlimit:4;stroke-opacity:1;stroke-dasharray:none"
     id="path2989-0-8"
     d="m 70.404547,88.313917 c 0,0 -0.0035,0.916404 -0.675388,1.857007 -0.67186,0.806232 -1.739706,1.038389 -1.739706,1.038389 l -6.153791,-4.077015 c 0,0 -0.103715,-1.027293 0.311142,-2.064436 0.622286,-1.037143 1.414976,-1.181618 1.414976,-1.181618 z" />
  <path
     inkscape:connector-curvature="0"
     style="fill:url(#linearGradient4013);fill-opacity:1;stroke:#000000;stroke-width:0.50000000000000000;stroke-linecap:butt;stroke-linejoin:miter;stroke-miterlimit:4;stroke-opacity:1;stroke-dasharray:none"
     id="path3030"
     d="m 62.124837,87.551442 c 0,0 -7.07938,5.988959 -9.126855,8.089712 -3.087946,2.880517 -3.990715,5.796266 -6.687286,7.040836 -2.074285,1.65943 -7.62528,2.91573 -7.62528,2.91573 0,0 5.218327,1.17151 8.711997,1.03714 4.299902,-0.13437 9.428213,-1.19239 12.653139,-4.14857 3.224926,-2.956182 7.467426,-11.408564 7.467426,-11.408564 z" />
</svg>
