/* XPM */
static char *dsmidiwifi_32[] = {
/* columns rows colors chars-per-pixel */
"32 32 103 2 ",
"   c #050301",
".  c #080500",
"X  c #0D0800",
"o  c #110A00",
"O  c #150D00",
"+  c #180F00",
"@  c #100F0C",
"#  c #1B1100",
"$  c #211400",
"%  c #2A1600",
"&  c #281800",
"*  c #301D00",
"=  c #261E11",
"-  c #352000",
";  c #382200",
":  c #3F2700",
">  c #2B2214",
",  c #412800",
"<  c #492D00",
"1  c #4E3102",
"2  c #503100",
"3  c #5B3900",
"4  c #573E18",
"5  c #603900",
"6  c #653F00",
"7  c #6C3800",
"8  c #5D441C",
"9  c #684000",
"0  c #744200",
"q  c #784700",
"w  c #754800",
"e  c #7A4900",
"r  c #7E7364",
"t  c #814F00",
"y  c #815000",
"u  c #885300",
"i  c #925900",
"p  c #995E00",
"a  c #9F6100",
"s  c #A16200",
"d  c #AB6300",
"f  c #AB6900",
"g  c #B36800",
"h  c #B36E00",
"j  c #BC7100",
"k  c #996F2D",
"l  c #826230",
"z  c #C47200",
"x  c #C17600",
"c  c #C47800",
"v  c #C87800",
"b  c #CD7E00",
"n  c #D07F00",
"m  c #9F7B44",
"M  c #B1833A",
"N  c #D28000",
"B  c #D88400",
"V  c #DB8600",
"C  c #C0801E",
"Z  c #E08900",
"A  c #E98F00",
"S  c #F18A00",
"D  c #EC9000",
"F  c #F09200",
"G  c #FF9000",
"H  c #F79800",
"J  c #F89800",
"K  c #FF9F00",
"L  c #F1950A",
"P  c #FE9F0F",
"I  c #F8A31F",
"U  c #C78C2E",
"Y  c #EDA83A",
"T  c #A28352",
"R  c #8E8577",
"E  c #BE9C67",
"W  c #C99645",
"Q  c #FFBD52",
"!  c #FBBE5F",
"~  c #C5A87C",
"^  c #EAB362",
"/  c #EAC07E",
"(  c #FCC876",
")  c #FBC77A",
"_  c #B9A687",
"`  c #B1A796",
"'  c #CAB38B",
"]  c #C9B492",
"[  c #C4B49C",
"{  c #FBD190",
"}  c #D2CABD",
"|  c #D0C9BE",
" . c #FBDAA8",
".. c #F0D7B0",
"X. c #FCE2B7",
"o. c #D4D1CC",
"O. c #FDE8C5",
"+. c #FEE8C6",
"@. c #E6E4E1",
"#. c #F8F2E7",
"$. c #EDEFF2",
"%. c #F8FDFF",
"&. c None",
/* pixels */
"&.&.&.&.&.&.&.&.&.&.&.&.&.&.&.&.&.&.&.&.&.&.&.&.&.&.&.&.&.&.&.&.",
"&.&.&.&.&.&.&.&.&.&.&.&.&.&.&.&.&.&.&.&.&.&.&.&.&.&.&.&.&.&.&.&.",
"&.&.&.&.&.&.&.&.&.& 3 u f c n N U j a e 2 & &.&.&.&.&.&.&.&.&.&.",
"&.&.&.&.&.&.; u N J J K J J J J O.Y S J J J N u ; &.&.&.&.&.&.&.",
"&.&.&.X 9 v J J K J K J K K K J O.#.^ I J K J K J c 3 &.&.&.&.&.",
"&.&.2 V J K K J K J K J J K J J X.%.%.%. .L J K J K J v , &.&.&.",
"&.y J K J K J K K J K K K J K J X.@.l [ %...A J J K J K J u . &.",
"3 J K J K K J K J K J F N f p t ' $.2 7 E %.W A K J K K J J f . ",
"f J K J K J K J F h 5 * o . . &.r %.@ o % ` ~ z J J K J K K K y ",
"i J K K J K D a , - 2 t s c N n / %.8 < - & > 1 N K K J K J J g ",
"o s Z Z c u , , i V J K J J K G ( %.k n J v 5 # . 3 b J K J K h ",
"&.&.X X &.&.9 D K K J K J J J G ! %.m x J K J V , &.X 3 h Z N 2 ",
"&.&.&.&.&.- F J K J K J K Q { ) { %.T g J J K K K 6 &.&.&.X &.&.",
"&.&.&.&.&.i J K J K J P X.%.%.%.%.%.T d J K J K J F & &.&.&.&.&.",
"&.&.&.&.&.p J K J K J Q %.%.%.%.%.%._ d J J K J K J e &.&.&.&.&.",
"&.&.&.&.&.; Z K J J v M %.%.%.%.%.%.R q J K K J K K 9 &.&.&.&.&.",
"&.&.&.&.&.&.# , , * &.  o.%.%.%.%.@.= + $ y v D D s o &.&.&.&.&.",
"&.&.&.&.&.&.&.&.&.&.&.7 j ] | | ` 4 5 e X &.&.o # &.&.&.&.&.&.&.",
"&.&.&.&.&.&.&.&.&.&.3 K L f e 7 3 q g F g   &.&.&.&.&.&.&.&.&.&.",
"&.&.&.&.&.&.&.&.&.&.c K H L V c c V H J K : &.&.&.&.&.&.&.&.&.&.",
"&.&.&.&.&.&.&.&.&.&.j J K K J J J K J K J 1 &.&.&.&.&.&.&.&.&.&.",
"&.&.&.&.&.&.&.&.&.&., Z J K K K K K J K v o &.&.&.&.&.&.&.&.&.&.",
"&.&.&.&.&.&.&.&.&.&.&.# 3 y i p s f s 0 O &.&.&.&.&.&.&.&.&.&.&.",
"&.&.&.&.&.&.&.&.&.&.&.&.&.&.&.&.&.&.&.&.&.&.&.&.&.&.&.&.&.&.&.&.",
"&.&.&.&.&.&.&.&.&.&.&.&.&.&.&.o &.&.&.&.&.&.&.&.&.&.&.&.&.&.&.&.",
"&.&.&.&.&.&.&.&.&.&.&.&.&.# g Z i . &.&.&.&.&.&.&.&.&.&.&.&.&.&.",
"&.&.&.&.&.&.&.&.&.&.&.&.&.y J J K 2 &.&.&.&.&.&.&.&.&.&.&.&.&.&.",
"&.&.&.&.&.&.&.&.&.&.&.&.&.f J K J w &.&.&.&.&.&.&.&.&.&.&.&.&.&.",
"&.&.&.&.&.&.&.&.&.&.&.&.&.1 F K V $ &.&.&.&.&.&.&.&.&.&.&.&.&.&.",
"&.&.&.&.&.&.&.&.&.&.&.&.&.&.& 2 # &.&.&.&.&.&.&.&.&.&.&.&.&.&.&.",
"&.&.&.&.&.&.&.&.&.&.&.&.&.&.&.&.&.&.&.&.&.&.&.&.&.&.&.&.&.&.&.&.",
"&.&.&.&.&.&.&.&.&.&.&.&.&.&.&.&.&.&.&.&.&.&.&.&.&.&.&.&.&.&.&.&."
};
