/* XPM */
static char * speed_dreams_xpm[] = {
"40 25 790 2",
"  	c None",
". 	c #AAAAAA",
"+ 	c #474746",
"@ 	c #494948",
"# 	c #818180",
"$ 	c #FEFEFC",
"% 	c #F9F9F8",
"& 	c #F5F5F4",
"* 	c #EEEDEC",
"= 	c #E7E7E6",
"- 	c #DDDDDB",
"; 	c #565758",
"> 	c #4D4E50",
", 	c #4E4F52",
"' 	c #515257",
") 	c #54575E",
"! 	c #555B65",
"~ 	c #A7ADBE",
"{ 	c #ADB5CB",
"] 	c #AEBAD4",
"^ 	c #B6C4E1",
"/ 	c #A6B7D9",
"( 	c #AFC3E6",
"_ 	c #D0DFF8",
": 	c #D3E2FC",
"< 	c #D9E9FC",
"[ 	c #EFF8FB",
"} 	c #F7FDFD",
"| 	c #EFFCFC",
"1 	c #F5FDFD",
"2 	c #F2FDFD",
"3 	c #F1FDFE",
"4 	c #EFFCFD",
"5 	c #F9FDFD",
"6 	c #FCFCFD",
"7 	c #EFF9FF",
"8 	c #7B8982",
"9 	c #879E9B",
"0 	c #96B8C0",
"a 	c #B4D5E2",
"b 	c #EEEEEF",
"c 	c #1E1E1E",
"d 	c #1D1D1C",
"e 	c #1C1C1B",
"f 	c #11100F",
"g 	c #C4C4C4",
"h 	c #F9F9F7",
"i 	c #F6F6F6",
"j 	c #EBEBEC",
"k 	c #E0E0DF",
"l 	c #D4D5D4",
"m 	c #C2C1C1",
"n 	c #1D1E1F",
"o 	c #151618",
"p 	c #3D3E42",
"q 	c #4E5056",
"r 	c #363B44",
"s 	c #525867",
"t 	c #A0A8C0",
"u 	c #9EAAC7",
"v 	c #B2C0DE",
"w 	c #ACC2E8",
"x 	c #9BB4DE",
"y 	c #B0C8F2",
"z 	c #C0D7FB",
"A 	c #D0E3FD",
"B 	c #E2EEFC",
"C 	c #E7F6FC",
"D 	c #ECFCFD",
"E 	c #F0FDFE",
"F 	c #FBFDFD",
"G 	c #FDFCFD",
"H 	c #FFFEFF",
"I 	c #96B0A5",
"J 	c #4F5B3F",
"K 	c #516141",
"L 	c #688773",
"M 	c #93BBC0",
"N 	c #A2A1A2",
"O 	c #868685",
"P 	c #1B1B1B",
"Q 	c #1E1E1D",
"R 	c #1C1C1C",
"S 	c #2C2C2B",
"T 	c #E3E3E3",
"U 	c #ECECEC",
"V 	c #F7F7F6",
"W 	c #F1F1F0",
"X 	c #D1D2D2",
"Y 	c #5C5C5C",
"Z 	c #CFCFD0",
"` 	c #C8C9CB",
" .	c #CECED1",
"..	c #D6D7DD",
"+.	c #B0B5BF",
"@.	c #83899A",
"#.	c #A7B2C6",
"$.	c #BCC7DC",
"%.	c #BACDED",
"&.	c #9DB7E2",
"*.	c #A3BBEA",
"=.	c #B2CCF5",
"-.	c #C1D4F8",
";.	c #CDDFFD",
">.	c #DFF2FD",
",.	c #F4FDFD",
"'.	c #FDFDFC",
").	c #FCFCFC",
"!.	c #FDFCFC",
"~.	c #FDFDFD",
"{.	c #FCFDFE",
"].	c #BFD5AF",
"^.	c #677B5C",
"/.	c #536145",
"(.	c #577053",
"_.	c #7FA297",
":.	c #393838",
"<.	c #1F1F1E",
"[.	c #767675",
"}.	c #151514",
"|.	c #1B1B1A",
"1.	c #7A7A7A",
"2.	c #D8D8D8",
"3.	c #DDDDDD",
"4.	c #D6D5D6",
"5.	c #6E6E6E",
"6.	c #131312",
"7.	c #171716",
"8.	c #9D9D9C",
"9.	c #CBCDCD",
"0.	c #BEBFC0",
"a.	c #BFC0C5",
"b.	c #C5C8CF",
"c.	c #7C828D",
"d.	c #495262",
"e.	c #97A1B3",
"f.	c #B4C4E4",
"g.	c #B3C8ED",
"h.	c #A4BAE3",
"i.	c #BBD1F7",
"j.	c #CFDEF9",
"k.	c #E6F5FD",
"l.	c #FCFDFC",
"m.	c #FEFDFD",
"n.	c #D1E9E8",
"o.	c #FBFEFF",
"p.	c #FCFDFD",
"q.	c #FDFDFE",
"r.	c #FFFFFA",
"s.	c #6B845D",
"t.	c #48543B",
"u.	c #475938",
"v.	c #758972",
"w.	c #3A3A3A",
"x.	c #161615",
"y.	c #999999",
"z.	c #5F5F5E",
"A.	c #4C4C4C",
"B.	c #A8A8A7",
"C.	c #555555",
"D.	c #121211",
"E.	c #1A1919",
"F.	c #1A1A19",
"G.	c #1A1A1A",
"H.	c #2B2B2A",
"I.	c #F4F4F4",
"J.	c #CECECF",
"K.	c #B9BBBD",
"L.	c #BABCC0",
"M.	c #BCBEC8",
"N.	c #39424F",
"O.	c #556277",
"P.	c #72819D",
"Q.	c #A8B7D3",
"R.	c #B3C5E6",
"S.	c #C0D2F3",
"T.	c #D4E3FD",
"U.	c #E8F8FD",
"V.	c #FFFDFD",
"W.	c #B5C7BA",
"X.	c #67825F",
"Y.	c #BCDDD1",
"Z.	c #ECF6F4",
"`.	c #F9FAFA",
" +	c #C1DCB7",
".+	c #91A47C",
"++	c #4E5A44",
"@+	c #424C34",
"#+	c #434D31",
"$+	c #657157",
"%+	c #3B3B3B",
"&+	c #191919",
"*+	c #4E4E4E",
"=+	c #F1F2F2",
"-+	c #F6F5F5",
";+	c #FFFFFF",
">+	c #C1C2C2",
",+	c #1C1B1B",
"'+	c #151515",
")+	c #B0B0B0",
"!+	c #C6C7C8",
"~+	c #B5B6B9",
"{+	c #BBBEC5",
"]+	c #5E6570",
"^+	c #545E6F",
"/+	c #727F94",
"(+	c #9CA8B9",
"_+	c #B2C2DC",
":+	c #D1E0FC",
"<+	c #D9EAFD",
"[+	c #EDFAFD",
"}+	c #F0F7F7",
"|+	c #446236",
"1+	c #496237",
"2+	c #75977B",
"3+	c #D8EFEF",
"4+	c #B3CCC0",
"5+	c #576C4A",
"6+	c #4D5642",
"7+	c #3A3D2E",
"8+	c #333725",
"9+	c #3F452B",
"0+	c #646C53",
"a+	c #3C3C3B",
"b+	c #0F0F0E",
"c+	c #E7E7E7",
"d+	c #EBEBEB",
"e+	c #4F4F4F",
"f+	c #5A5A5A",
"g+	c #F0F0F0",
"h+	c #E3E3E4",
"i+	c #B8B9BC",
"j+	c #B1B7BA",
"k+	c #8D969C",
"l+	c #4D5A6A",
"m+	c #65798F",
"n+	c #95ACC4",
"o+	c #C1D2E6",
"p+	c #EAF3FF",
"q+	c #F8FFFF",
"r+	c #C9E1E3",
"s+	c #A2BEB6",
"t+	c #324821",
"u+	c #344625",
"v+	c #4E6543",
"w+	c #D4E6E0",
"x+	c #DFEFEB",
"y+	c #788E73",
"z+	c #4F5941",
"A+	c #313425",
"B+	c #303223",
"C+	c #333723",
"D+	c #393F28",
"E+	c #59664C",
"F+	c #545453",
"G+	c #131313",
"H+	c #979697",
"I+	c #EAEAEA",
"J+	c #D2D2D2",
"K+	c #515150",
"L+	c #424242",
"M+	c #8D8D8D",
"N+	c #838382",
"O+	c #3E3E3E",
"P+	c #848484",
"Q+	c #4A4A4A",
"R+	c #808080",
"S+	c #767776",
"T+	c #7E7D7D",
"U+	c #5A585A",
"V+	c #213E1F",
"W+	c #20202F",
"X+	c #324724",
"Y+	c #2D2F38",
"Z+	c #454D27",
"`+	c #3C473D",
" @	c #748771",
".@	c #2E431F",
"+@	c #25301C",
"@@	c #465939",
"#@	c #92A993",
"$@	c #A8BDB1",
"%@	c #6A7A5F",
"&@	c #3A4129",
"*@	c #303222",
"=@	c #25261B",
"-@	c #2D2F1F",
";@	c #373D28",
">@	c #525843",
",@	c #F9F9F9",
"'@	c #B8B8B7",
")@	c #3C3C3C",
"!@	c #F8F8F8",
"~@	c #ABABAB",
"{@	c #575757",
"]@	c #7B7B7B",
"^@	c #DCDCDC",
"/@	c #868686",
"(@	c #353534",
"_@	c #9A9A9A",
":@	c #E6E6E6",
"<@	c #000800",
"[@	c #296418",
"}@	c #2C5013",
"|@	c #496B16",
"1@	c #63791B",
"2@	c #667010",
"3@	c #898D1D",
"4@	c #172114",
"5@	c #243019",
"6@	c #3E5139",
"7@	c #62805E",
"8@	c #82AEA2",
"9@	c #627667",
"0@	c #3A4130",
"a@	c #242419",
"b@	c #1E1D14",
"c@	c #232618",
"d@	c #343924",
"e@	c #687260",
"f@	c #8A8A8A",
"g@	c #767676",
"h@	c #7E7F7F",
"i@	c #585858",
"j@	c #797A7A",
"k@	c #797979",
"l@	c #747474",
"m@	c #5F5F5F",
"n@	c #404141",
"o@	c #ECEBEB",
"p@	c #CBCBCB",
"q@	c #4B4B4B",
"r@	c #000000",
"s@	c #505051",
"t@	c #888888",
"u@	c #A2A2A1",
"v@	c #2E2E2E",
"w@	c #A1A1A1",
"x@	c #575557",
"y@	c #285022",
"z@	c #2D5C21",
"A@	c #385A1E",
"B@	c #5A772A",
"C@	c #56661D",
"D@	c #838B2B",
"E@	c #3F4411",
"F@	c #1F2D19",
"G@	c #1C2414",
"H@	c #445847",
"I@	c #83A79E",
"J@	c #849F91",
"K@	c #79887F",
"L@	c #464D3F",
"M@	c #2C2F1E",
"N@	c #222217",
"O@	c #242518",
"P@	c #434127",
"Q@	c #65613F",
"R@	c #A17474",
"S@	c #925D5C",
"T@	c #925C5C",
"U@	c #935D5C",
"V@	c #925B5A",
"W@	c #945A58",
"X@	c #945858",
"Y@	c #683030",
"Z@	c #231A19",
"`@	c #151313",
" #	c #773636",
".#	c #893E3D",
"+#	c #7B3A3B",
"@#	c #130B0A",
"##	c #442A29",
"$#	c #813130",
"%#	c #8B3535",
"&#	c #842C27",
"*#	c #171617",
"=#	c #000004",
"-#	c #794231",
";#	c #4A1F11",
">#	c #1A1B16",
",#	c #1F1713",
"'#	c #815623",
")#	c #28200E",
"!#	c #695C28",
"~#	c #5E5211",
"{#	c #06090B",
"]#	c #58541F",
"^#	c #767015",
"/#	c #4A4716",
"(#	c #26281A",
"_#	c #2F3220",
":#	c #31331F",
"<#	c #363821",
"[#	c #515137",
"}#	c #795E5D",
"|#	c #634444",
"1#	c #644543",
"2#	c #634343",
"3#	c #4D2E2C",
"4#	c #3A1A19",
"5#	c #442020",
"6#	c #8A4645",
"7#	c #481B19",
"8#	c #C44A48",
"9#	c #BC3E3C",
"0#	c #623736",
"a#	c #F84140",
"b#	c #290A0A",
"c#	c #EE4443",
"d#	c #871E1D",
"e#	c #D24142",
"f#	c #B62121",
"g#	c #3C0C0B",
"h#	c #3C0F0C",
"i#	c #080B0B",
"j#	c #683C31",
"k#	c #F0521B",
"l#	c #A84214",
"m#	c #090D0C",
"n#	c #8D5B2A",
"o#	c #DB800B",
"p#	c #6D4608",
"q#	c #786631",
"r#	c #D2A70A",
"s#	c #766605",
"t#	c #9A962D",
"u#	c #9D9602",
"v#	c #403D05",
"w#	c #7E7906",
"x#	c #252318",
"y#	c #3C361D",
"z#	c #423C1B",
"A#	c #48431F",
"B#	c #615A35",
"C#	c #EEEEEE",
"D#	c #EFEFF0",
"E#	c #F2F2F2",
"F#	c #090909",
"G#	c #5E3736",
"H#	c #E54F4C",
"I#	c #AE4B49",
"J#	c #A1302E",
"K#	c #672F2E",
"L#	c #873434",
"M#	c #7A3635",
"N#	c #EC3A3A",
"O#	c #341313",
"P#	c #983231",
"Q#	c #9F2E2D",
"R#	c #9F2828",
"S#	c #000504",
"T#	c #221210",
"U#	c #FF502C",
"V#	c #C24A25",
"W#	c #C14614",
"X#	c #D6792B",
"Y#	c #D87B13",
"Z#	c #C98217",
"`#	c #D59A17",
" $	c #CEA104",
".$	c #312905",
"+$	c #968F10",
"@$	c #BDB408",
"#$	c #5A5713",
"$$	c #1F1C11",
"%$	c #353116",
"&$	c #373415",
"*$	c #423D1A",
"=$	c #4B461C",
"-$	c #5F5A34",
";$	c #838383",
">$	c #EFEFEF",
",$	c #888788",
"'$	c #9F4744",
")$	c #9A2F2E",
"!$	c #020809",
"~$	c #E84A48",
"{$	c #4E1716",
"]$	c #EF4645",
"^$	c #761919",
"/$	c #EF3634",
"($	c #681414",
"_$	c #572625",
":$	c #FF201E",
"<$	c #301C1D",
"[$	c #292020",
"}$	c #050B0B",
"|$	c #953229",
"1$	c #992F1F",
"2$	c #CB4523",
"3$	c #D54212",
"4$	c #1C1915",
"5$	c #E76711",
"6$	c #663A12",
"7$	c #B2670A",
"8$	c #7B5C20",
"9$	c #C69305",
"0$	c #000007",
"a$	c #000006",
"b$	c #3E3B0B",
"c$	c #C2B704",
"d$	c #47440B",
"e$	c #4F5027",
"f$	c #4C4C2A",
"g$	c #49492B",
"h$	c #45462B",
"i$	c #555641",
"j$	c #676767",
"k$	c #DC4A48",
"l$	c #B93836",
"m$	c #D44240",
"n$	c #7C1917",
"o$	c #42211F",
"p$	c #F52927",
"q$	c #070203",
"r$	c #C22929",
"s$	c #AB1716",
"t$	c #A92727",
"u$	c #F41D1C",
"v$	c #B22120",
"w$	c #A91B1B",
"x$	c #7D2623",
"y$	c #EF1C12",
"z$	c #0A0606",
"A$	c #782918",
"B$	c #EE3E11",
"C$	c #67341A",
"D$	c #D5500B",
"E$	c #0A1014",
"F$	c #000005",
"G$	c #9F6D19",
"H$	c #855E07",
"I$	c #716417",
"J$	c #B7A90C",
"K$	c #918A1A",
"L$	c #9A9005",
"M$	c #25241A",
"N$	c #53502F",
"O$	c #58542D",
"P$	c #565428",
"Q$	c #525120",
"R$	c #5D5D2D",
"S$	c #757675",
"T$	c #676363",
"U$	c #6C6666",
"V$	c #6F7574",
"W$	c #9EA1A1",
"X$	c #0A0B0B",
"Y$	c #0F0E0E",
"Z$	c #0F0F0F",
"`$	c #110D0D",
" %	c #090B0C",
".%	c #5A5758",
"+%	c #6D6564",
"@%	c #6E6665",
"#%	c #545454",
"$%	c #474241",
"%%	c #3C3E3E",
"&%	c #151412",
"*%	c #181717",
"=%	c #1B1816",
"-%	c #1C1B19",
";%	c #3E3D37",
">%	c #252420",
",%	c #1B1A16",
"'%	c #1B1A19",
")%	c #1E1D13",
"!%	c #232214",
"~%	c #19191D",
"{%	c #34342E",
"]%	c #31312B",
"^%	c #31302B",
"/%	c #312F2B",
"(%	c #34332F",
"_%	c #4D4B47",
":%	c #1B1C1B",
"<%	c #5E5E5E",
"[%	c #101010",
"}%	c #1D1C1B",
"|%	c #10100F",
"1%	c #F3F3F2",
"2%	c #FBFAFA",
"3%	c #CDCCCC",
"4%	c #A7A7A6",
"5%	c #8E8D8C",
"6%	c #6E6E6D",
"7%	c #1A1916",
"8%	c #33322E",
"9%	c #32312E",
"0%	c #2E2D29",
"a%	c #282722",
"b%	c #2D2B27",
"c%	c #2C2B27",
"d%	c #2A2925",
"e%	c #282723",
"f%	c #31312C",
"g%	c #4A4946",
"h%	c #292923",
"i%	c #282622",
"j%	c #302F2B",
"k%	c #2F2E2A",
"l%	c #2F2F2A",
"m%	c #43433D",
"n%	c #373736",
"o%	c #1B1A1A",
"p%	c #E2E2E2",
"q%	c #F3F3F4",
"r%	c #EDEDED",
"s%	c #D0CFD0",
"t%	c #121212",
"u%	c #7D7D7D",
"v%	c #7E7E7E",
"w%	c #ACACAB",
"x%	c #8F8F8F",
"y%	c #898989",
"z%	c #666666",
"A%	c #464543",
"B%	c #707070",
"C%	c #757674",
"D%	c #7C7D7C",
"E%	c #6D6E6C",
"F%	c #70706F",
"G%	c #767775",
"H%	c #6D6D6B",
"I%	c #535250",
"J%	c #727270",
"K%	c #686866",
"L%	c #767674",
"M%	c #2D2B25",
"N%	c #302F29",
"O%	c #2F2E29",
"P%	c #43423F",
"Q%	c #C3C3C3",
"R%	c #484848",
"S%	c #171616",
"T%	c #9B9B9B",
"U%	c #E7E6E6",
"V%	c #F3F3F3",
"W%	c #A6A6A6",
"X%	c #717171",
"Y%	c #ECEDEC",
"Z%	c #828281",
"`%	c #161716",
" &	c #0A0A0B",
".&	c #2B2B29",
"+&	c #6B6B6A",
"@&	c #3E3E3C",
"#&	c #1E1D1A",
"$&	c #22211D",
"%&	c #292823",
"&&	c #292922",
"*&	c #33332E",
"=&	c #272621",
"-&	c #2A2926",
";&	c #2D2D29",
">&	c #2C2A26",
",&	c #31302D",
"'&	c #31302C",
")&	c #302F2A",
"!&	c #42413E",
"~&	c #E3E2E3",
"{&	c #DFDFE0",
"]&	c #ABACAB",
"^&	c #DBDBDB",
"/&	c #FBFBFA",
"(&	c #F7F7F7",
"_&	c #D9D9D9",
":&	c #F6F6F5",
"<&	c #313131",
"[&	c #1A1A18",
"}&	c #141414",
"|&	c #141412",
"1&	c #10100E",
"2&	c #6F6E6C",
"3&	c #3B3B38",
"4&	c #2C2A27",
"5&	c #313128",
"6&	c #302E2B",
"7&	c #2F2F29",
"8&	c #30302A",
"9&	c #44433F",
"0&	c #D7D7D7",
"a&	c #CCCDCC",
"b&	c #CECECE",
"c&	c #BCBDBD",
"d&	c #636462",
"e&	c #717170",
"f&	c #525252",
"g&	c #0E0E0D",
"h&	c #D0D0D0",
"i&	c #F1F1F1",
"j&	c #D0D0CF",
"k&	c #111110",
"l&	c #141313",
"m&	c #141513",
"n&	c #171715",
"o&	c #434341",
"p&	c #959493",
"q&	c #8B8986",
"r&	c #6F6E6A",
"s&	c #4A4945",
"t&	c #3A3934",
"u&	c #32312C",
"v&	c #2D2C27",
"w&	c #2E2E29",
"x&	c #2F2F28",
"y&	c #302F2C",
"z&	c #42423D",
"A&	c #D1D1D1",
"B&	c #CDCDCD",
"C&	c #686767",
"D&	c #1D1D1D",
"E&	c #2D2D2D",
"F&	c #E9E9E9",
"G&	c #F1F1F2",
"H&	c #696868",
"I&	c #151414",
"J&	c #1A1A17",
"K&	c #161613",
"L&	c #9B9B99",
"M&	c #979694",
"N&	c #80807B",
"O&	c #656460",
"P&	c #3C3B36",
"Q&	c #2E2E28",
"R&	c #2E2D27",
"S&	c #2D2C28",
"T&	c #2E2D28",
"U&	c #302E2A",
"V&	c #31302A",
"W&	c #2E2D2A",
"X&	c #30302B",
"Y&	c #30302C",
"Z&	c #42413D",
"`&	c #E2E2E1",
" *	c #757575",
".*	c #EBEAEB",
"+*	c #E5E4E4",
"@*	c #666565",
"#*	c #161614",
"$*	c #636361",
"%*	c #A1A2A0",
"&*	c #858482",
"**	c #6A6965",
"=*	c #50504B",
"-*	c #3F3E3A",
";*	c #343330",
">*	c #2C2C26",
",*	c #2D2D27",
"'*	c #43423E",
")*	c #919190",
"!*	c #4D4D4C",
"~*	c #1E1F1E",
"{*	c #1E1D1D",
"]*	c #1D1C1C",
"^*	c #CECDCE",
"/*	c #ECECEB",
"(*	c #D9D9D7",
"_*	c #9D9D9B",
":*	c #4E4E4C",
"<*	c #767573",
"[*	c #636360",
"}*	c #50504C",
"|*	c #44423F",
"1*	c #383733",
"2*	c #2D2C26",
"3*	c #2E2E27",
"4*	c #2C2C25",
"5*	c #848483",
"6*	c #939393",
"7*	c #C3C3C2",
"8*	c #0A0A09",
"9*	c #C5C5C6",
"0*	c #F0F0EF",
"a*	c #E5E5E4",
"b*	c #C0BFBD",
"c*	c #90918F",
"d*	c #222220",
"e*	c #1D1C19",
"f*	c #3A3935",
"g*	c #454440",
"h*	c #3E3D39",
"i*	c #2C2B26",
"j*	c #2C2C27",
"k*	c #2F2E28",
"l*	c #2B2A26",
"m*	c #2D2D28",
"n*	c #2E2E2A",
"o*	c #2F2E27",
". + @ + # $ % & * = - ; > , ' ) ! ~ { ] ^ / ( _ : < [ } | 1 2 3 4 5 6 7 8 9 0 a ",
"b c d e f g h i j k l m n o p q r s t u v w x y z A B C D } 5 E F G H I J K L M ",
"N O P Q R S T U V V W X Y Z `  ...+.@.#.$.%.&.*.=.-.;.>.,.'.).!.~.~.{.].^./.(._.",
":.<.[.}.R |.1.2.3.4.5.6.7.8.9.0.a.b.c.d.e.f.g.h.i.j.k.l.m.n.o.~.p.).q.r.s.t.u.v.",
"w.x.. U y.z.A.B.C.D.E.F.G.H.I.J.K.L.M.N.O.P.Q.R.S.T.U.V.W.X.Y.Z.G `. +.+++@+#+$+",
"%+&+*+=+-+;+;+>+x.d ,+|.G.'+)+U !+~+{+]+^+/+(+_+:+<+[+}+|+1+2+3+H 4+5+6+7+8+9+0+",
"a+&+b+c+d+I.~.;+e+&+<.P e P f+g+h+i+j+k+l+m+n+o+p+q+r+s+t+u+v+w+x+y+z+A+B+C+D+E+",
"F+G+7.H+g+I+J+K++ y.L+M+N+O+P+Q+R+S+:.T+U+V+W+X+Y+Z+`+ @.@+@@@#@$@%@&@*@=@-@;@>@",
",@'@)@A.;+!@~@G.3.{@w.]@^@]@/@6.. (@_@G+:@<@[@}@|@1@2@3@4@5@6@7@8@9@0@a@b@c@d@e@",
"f@g@h@i@j@k@l@m@n@o@p@q@r@;+s@t@u@v@;+w@x@y@z@A@B@C@D@E@F@G@H@I@J@K@L@M@N@O@P@Q@",
"R@S@T@U@S@S@V@W@X@Y@Z@`@ #.#+#@###$#%#&#*#=#-#;#>#,#'#)#r@!#~#{#]#^#/#(#_#:#<#[#",
"}#|#1#2#3#4#5#6#7#8#9#0#a#b#c#d#e#f#g#h#i#j#k#l#m#n#o#p#q#r#s#t#u#v#w#x#y#z#A#B#",
"C#D#E#C#t@F#G#H#r@I#J#K#L#M#N#O#P#Q#R#S#T#U#V#W#r@X#Y#Z#`# $.$+$@$#$$$%$&$*$=$-$",
")@;$>$U ,$r@'$)$!$~${$]$^$/$($_$:$<$[$}$|$1$2$3$4$5$6$7$8$9$0$a$b$c$d$e$f$g$h$i$",
"%+F.c /@j$r@k$l$m$n$o$p$q$r$s$t$u$v$w$x$y$z$A$B$C$D$E$F$G$H$I$J$K$L$M$N$O$P$Q$R$",
")@,+e F.O+S$T$U$V$W$X$Y$Z$`$ %.%+%@%#%$%%%&%G+*%=%-%;%>%,%'%G+)%!%~%{%]%^%/%(%_%",
")@:%e e <%:@E#% C#g+[%}%|.d |%1%2%3%4%5%6%7%8%9%0%a%b%c%d%e%f%g%h%i%j%j%j%k%l%m%",
"n%e |.o%g@p%q%& r%s%}.|.t%f+u%R+v%w%x%y%z%A%B%C%D%[.E%F%G%H%I%J%K%L%M%l%N%O%O%P%",
"Q%R%D.S%T%U%V V%r%W%D.X%Y%).Z%S%`% &.&+&@&#&$&>%%&&&k%*&=&-&;&%&>&-&,&/%^%'&)&!&",
"~&{&]&%+^&I./&(&E#w@_&r%:&;+<&[&}&|&}.1&2&3&>%4&O%5&8%N%l%O%)&j%j%j%j%k%6&7&8&9&",
"0&a&b&c&<.d&e&f&g&h&p%& i&j&k&}&l&m&n&o&p&q&r&s&t&u&v&j%w&k%j%l%x&6&y&y&y&k%0%z&",
"A&B&^&C&Q D&Q d E&F&W G&,@H&I&}&n&J&K&L&M&N&O&s&P&Q&R&S&6&O%T&U&V&x&O%W&X&Y&j%Z&",
"3.T `&x.c d Q e  *.*E#i&+*t%Q+@*@ #*$*%*&***=*-*;*>*v&N%k%7&,*S&0%O%T&Q&0%k%O%'*",
")*V !*~*{*d ]*|%h&i&I.p@]@^*1%/*(*_*:*<*[*}*|*1*O%2*T&3*)&4*T&v&T&T&k%0%,*v&O%Z&",
"%+5*6*S d :%F.e+i 7*#%8*9*0*a*b*c*d*e*#&f*g*h*;*i*T&T&j*k*O%>*l*v&v&m*n*j%^%o*Z&"};
