/* XPM */
static char * mame_xpm[] = {
"32 32 126 2",
"  	c None",
". 	c #1A85BC",
"+ 	c #1A7EB8",
"@ 	c #197CB5",
"# 	c #1F74B5",
"$ 	c #1764A5",
"% 	c #1766A9",
"& 	c #1867AA",
"* 	c #186CAC",
"= 	c #1870AE",
"- 	c #11042C",
"; 	c #1C024F",
"> 	c #1E0043",
", 	c #160139",
"' 	c #0C0415",
") 	c #240155",
"! 	c #160436",
"~ 	c #26005C",
"{ 	c #1A1354",
"] 	c #0B0438",
"^ 	c #12051E",
"/ 	c #000003",
"( 	c #0C133F",
"_ 	c #1C025A",
": 	c #0C0219",
"< 	c #29015F",
"[ 	c #545180",
"} 	c #689BB3",
"| 	c #0A0842",
"1 	c #140521",
"2 	c #215582",
"3 	c #64849B",
"4 	c #397393",
"5 	c #2D016B",
"6 	c #07030B",
"7 	c #328AC5",
"8 	c #120645",
"9 	c #0D040D",
"0 	c #46A0CE",
"a 	c #356E8F",
"b 	c #2B0166",
"c 	c #250467",
"d 	c #36017B",
"e 	c #525274",
"f 	c #3680B8",
"g 	c #57B2E6",
"h 	c #499FD6",
"i 	c #3B7A9E",
"j 	c #2D0173",
"k 	c #340082",
"l 	c #390282",
"m 	c #5BB6E7",
"n 	c #2175B8",
"o 	c #47AFE6",
"p 	c #131543",
"q 	c #27037A",
"r 	c #5D528A",
"s 	c #6ED0FE",
"t 	c #5FC3F5",
"u 	c #3A049E",
"v 	c #5400BA",
"w 	c #3E0196",
"x 	c #360190",
"y 	c #2273B4",
"z 	c #63D5FE",
"A 	c #6FCBFC",
"B 	c #140A53",
"C 	c #43B2E8",
"D 	c #4DBAF3",
"E 	c #60C1F3",
"F 	c #15144D",
"G 	c #4F5263",
"H 	c #4CB4ED",
"I 	c #5CCBFE",
"J 	c #68879E",
"K 	c #4DB5F0",
"L 	c #5500C3",
"M 	c #4F526B",
"N 	c #368EC9",
"O 	c #3D7CA0",
"P 	c #0E0624",
"Q 	c #11113C",
"R 	c #5800D2",
"S 	c #6B54AF",
"T 	c #5FD2FE",
"U 	c #56BFF6",
"V 	c #57C4FC",
"W 	c #62BCF1",
"X 	c #97D9FF",
"Y 	c #2782CC",
"Z 	c #5E5293",
"` 	c #5CC3F9",
" .	c #89D2FB",
"..	c #5CBCED",
"+.	c #92D6FA",
"@.	c #2B739F",
"#.	c #2987B8",
"$.	c #5DBDF1",
"%.	c #75DAFE",
"&.	c #327FAB",
"*.	c #42A6DC",
"=.	c #1C0454",
"-.	c #86D4FB",
";.	c #184D70",
">.	c #2C7FB1",
",.	c #56C2F5",
"'.	c #43A2D5",
").	c #3FA4D7",
"!.	c #4D5964",
"~.	c #56B9ED",
"{.	c #63DAFE",
"].	c #7DD0FC",
"^.	c #2974A3",
"/.	c #23076B",
"(.	c #48A5D6",
"_.	c #77CFFD",
":.	c #360077",
"<.	c #2781AF",
"[.	c #316F96",
"}.	c #4A5A69",
"|.	c #250573",
"1.	c #06101B",
"2.	c #57B7EF",
"3.	c #32016F",
"4.	c #4CA8DA",
"5.	c #175FA3",
"                                                                ",
"                                                                ",
"    . . . . . . + + + @ @ @ @ @ @ @ # # # # # # # # # # # #     ",
"    . $ $ % % % % & & & & * * * * * * * # # # # # # # # # =     ",
"    . $ - ; > ; > ; , ' ' , ) ! ; ~ ) ) ; { ] ) ! - ^ / # =     ",
"    . % ( _ > : : > ; ' ' ; < > < ~ ) ~ [ } | ) 1 ^ ' / # 2 3 4 ",
"    . % ( 5 > / 6 > ~ - 1 ) 5 ) 5 ) ) [ } 7 8 ) - ^ 9 / 2 3 0 a ",
"    . % ( 5 ! / ' ; ~ ! - b c ~ d _ e 0 f g 8 < ! 1 ' / 3 0 h i ",
"    . % ( j > : - ) b > > k ) b l [ 0 # m m 8 b > ! : 3 0 n o i ",
"    + % p k d < ) c q j l d > j r 0 # o s m 8 5 ) ! 3 0 # o t i ",
"    + & p u v w 5 b x u x > - [ 0 y o z A m B j ) 3 0 # C D E i ",
"    + & F u v u ~ ) u u c - G 0 y H I I s m B b J 0 # K D D E i ",
"    + & p u L x > , u v j M 0 # H I I I A m F 3 N # D D D H E O ",
"    @ & ( u L d P , v L r 0 # H z I I I A m } N y D D D D H t O ",
"    @ & Q u L k > b R S 0 # H T T I I I A U 7 # U V D D K H W O ",
"    @ & Q u R u j w S } y H z z z z X V A t Y V V D D D K H W i ",
"    @ * F v R v u Z 0 y H z T z s X D V ` V V V V U  .K H H ..i ",
"    @ * { v L v Z 0 y H z T T s +.@.#.` ` V V V U +.H H H H $.i ",
"    @ * { u j [ 0 y H z z T %.+.2 B &.` V V V U +.*.7 o H H ..i ",
"    @ * p =.M 0 n H z z z %.-.;.j b >.` V ` ,.+.'.p @.*.H H ..i ",
"    @ * ( M 0 y H z z z %. .;.8 u 5 >.` V t +.).p ] @.*.H H ..i ",
"    # * !.f y ~.{.z z -.].;.] > x c >.` V +.'.p ) ! ^.*.H H ..i ",
"    # a 0 y ~.{.z z -.].;./.< ~ d ~ >.` +.'.p b b , ^.(.H H ..i ",
"    4 f y H {.{.z X _.;.q x :.b j ) <.+.'.p c c b ! [.(.C H ..i ",
"  }.f N W %.%.%.%.A 2 |.u w x d k =.>.0 ( ] > ; < ! [.*.m m W O ",
"1.O 7 ~.~.~.2.2.g ;._ x k k k d 3.8 &.( ' ' 1 ! > / ^.'.4.4.4.2 ",
"] ] 2 2 8 8 8 8 8 _ :.c ) > > > > ! ( 9 : ^ ' 1 : / 6 6 2 ;.6 / ",
"    # # 5 b b 3.:.j ; > ! 1 ^ ! , > > - 1 ' 9 9 6 / / / . 5.    ",
"    # # # # # # # # # # # # # @ @ @ @ @ @ @ @ + + + . . . 5.    ",
"    # # # # # # = = * = * * * * & * * * % $ $ $ $ $ $ 5.5.5.    ",
"                                                                ",
"                                                                "};
