/* XPM */
static char * mess_xpm[] = {
"64 64 514 2",
"  	c None",
". 	c #A1672F",
"+ 	c #AE793D",
"@ 	c #A36C34",
"# 	c #9B6028",
"$ 	c #9C642B",
"% 	c #AC773D",
"& 	c #A36D33",
"* 	c #DCBD7C",
"= 	c #A26F35",
"- 	c #A36A33",
"; 	c #D5B676",
"> 	c #AA793E",
", 	c #A16D32",
"' 	c #DBBE7D",
") 	c #FBEDA6",
"! 	c #A56D35",
"~ 	c #A16B2F",
"{ 	c #E5C887",
"] 	c #EAD490",
"^ 	c #AC773E",
"/ 	c #A26C32",
"( 	c #DCBC7D",
"_ 	c #FCE3AB",
": 	c #FCE7A9",
"< 	c #A36E33",
"[ 	c #A26B32",
"} 	c #DEC081",
"| 	c #FCE3A8",
"1 	c #EAD38E",
"2 	c #A16C33",
"3 	c #DBBE7B",
"4 	c #FDE2A6",
"5 	c #FDD8A9",
"6 	c #FCE6A7",
"7 	c #A46F35",
"8 	c #D9B877",
"9 	c #FDE1A6",
"0 	c #FDD8A8",
"a 	c #E9D390",
"b 	c #A26D32",
"c 	c #DBBE7C",
"d 	c #FDE1A5",
"e 	c #FED8A4",
"f 	c #FED8A5",
"g 	c #FCE6A6",
"h 	c #A46D33",
"i 	c #A67235",
"j 	c #D3B070",
"k 	c #FBE3A6",
"l 	c #AC783D",
"m 	c #DBBE7A",
"n 	c #FCE1A2",
"o 	c #FED6A0",
"p 	c #FED6A2",
"q 	c #FDE6A4",
"r 	c #A46E34",
"s 	c #A9783C",
"t 	c #CCA769",
"u 	c #FDE2A2",
"v 	c #FED6A3",
"w 	c #FFD6A2",
"x 	c #FED6A1",
"y 	c #E9D38E",
"z 	c #DCBD7A",
"A 	c #FDE09F",
"B 	c #FED59B",
"C 	c #FED49E",
"D 	c #FED49D",
"E 	c #FDE6A3",
"F 	c #AF7E40",
"G 	c #C49E60",
"H 	c #FBE2A0",
"I 	c #FDD59D",
"J 	c #FED59D",
"K 	c #E9D28D",
"L 	c #AC763D",
"M 	c #A16E34",
"N 	c #DCBE7E",
"O 	c #FCDD9D",
"P 	c #FDD498",
"Q 	c #FED39A",
"R 	c #FED49A",
"S 	c #FEE5A0",
"T 	c #A56E34",
"U 	c #B5854A",
"V 	c #BD9656",
"W 	c #FCE29F",
"X 	c #FED499",
"Y 	c #EAD18E",
"Z 	c #DCBE7D",
"` 	c #FCDE9D",
" .	c #FED096",
"..	c #FED196",
"+.	c #FFD196",
"@.	c #FEE49F",
"#.	c #B98D4E",
"$.	c #B78D50",
"%.	c #FAE19E",
"&.	c #FDD396",
"*.	c #FED197",
"=.	c #FED296",
"-.	c #EAD18F",
";.	c #A26E33",
">.	c #DDBD7A",
",.	c #FCD282",
"'.	c #FCC479",
").	c #FCC57A",
"!.	c #FDC77C",
"~.	c #FDC984",
"{.	c #FDCD8A",
"].	c #FECF91",
"^.	c #FDD092",
"/.	c #FDE39D",
"(.	c #A56D34",
"_.	c #C09659",
":.	c #B48448",
"<.	c #F8E09B",
"[.	c #FDD192",
"}.	c #FED093",
"|.	c #FED094",
"1.	c #FED092",
"2.	c #FED091",
"3.	c #FDD08F",
"4.	c #EBD18D",
"5.	c #AA783C",
"6.	c #DDBE7B",
"7.	c #FACA71",
"8.	c #FDB450",
"9.	c #FCB450",
"0.	c #FEB450",
"a.	c #FDB554",
"b.	c #FEB657",
"c.	c #FEBB61",
"d.	c #FDDC90",
"e.	c #C79F5F",
"f.	c #AF7D42",
"g.	c #F6DD9A",
"h.	c #FDD08E",
"i.	c #FDCE8D",
"j.	c #FFCE8E",
"k.	c #FECE8E",
"l.	c #FCBF6B",
"m.	c #EBCF88",
"n.	c #A16D33",
"o.	c #DEBE7A",
"p.	c #F9C971",
"q.	c #FDB24E",
"r.	c #FDB34D",
"s.	c #FEB24D",
"t.	c #FEB34D",
"u.	c #FEB34E",
"v.	c #FDB34F",
"w.	c #FCD985",
"x.	c #A56C36",
"y.	c #CBAA68",
"z.	c #AC763C",
"A.	c #F2DB96",
"B.	c #FECC8A",
"C.	c #FECD8A",
"D.	c #FDCC8A",
"E.	c #FDCA83",
"F.	c #FBBA5E",
"G.	c #EAD085",
"H.	c #AB773D",
"I.	c #DEBE79",
"J.	c #F9C96B",
"K.	c #FDB24D",
"L.	c #FDB14C",
"M.	c #FDB24A",
"N.	c #FCD986",
"O.	c #D2B270",
"P.	c #A77038",
"Q.	c #F0D489",
"R.	c #FDC779",
"S.	c #FEC984",
"T.	c #FFCA85",
"U.	c #FECA85",
"V.	c #FDC77B",
"W.	c #FDB457",
"X.	c #FEB14C",
"Y.	c #EAD084",
"Z.	c #A46D34",
"`.	c #DEBF7B",
" +	c #FAC86D",
".+	c #FDB048",
"++	c #FEB14A",
"@+	c #FCD982",
"#+	c #CCA86A",
"$+	c #A36E35",
"%+	c #ECD186",
"&+	c #FBBC5D",
"*+	c #FDB04B",
"=+	c #FDB656",
"-+	c #FEC272",
";+	c #FCC982",
">+	c #FDC983",
",+	c #FEC678",
"'+	c #FCB454",
")+	c #FEB049",
"!+	c #FEB14B",
"~+	c #ECCF87",
"{+	c #DEBF7A",
"]+	c #FAC669",
"^+	c #FDAF47",
"/+	c #FEAF48",
"(+	c #FFAF46",
"_+	c #A16931",
":+	c #E8CD82",
"<+	c #FBBD5C",
"[+	c #FDAF46",
"}+	c #FEAE47",
"|+	c #FEAF47",
"1+	c #FEB85C",
"2+	c #FDC371",
"3+	c #FEB045",
"4+	c #FEAF46",
"5+	c #FEB046",
"6+	c #A16C35",
"7+	c #F9C568",
"8+	c #FDAD45",
"9+	c #FEAE44",
"0+	c #FFAE44",
"a+	c #FFAD44",
"b+	c #FAD681",
"c+	c #A8763A",
"d+	c #E3C581",
"e+	c #FBC05F",
"f+	c #FEAD44",
"g+	c #FEAE46",
"h+	c #FFAE45",
"i+	c #EBD087",
"j+	c #AD773C",
"k+	c #A36C33",
"l+	c #DFBF7A",
"m+	c #FBC465",
"n+	c #FDAD41",
"o+	c #FEAD41",
"p+	c #FBD880",
"q+	c #E5CD84",
"r+	c #FCC362",
"s+	c #FDAD42",
"t+	c #EAD087",
"u+	c #A26D34",
"v+	c #DFC07A",
"w+	c #FAC565",
"x+	c #FEAB40",
"y+	c #FEAC3F",
"z+	c #FEAC3E",
"A+	c #FEAC3D",
"B+	c #FBD580",
"C+	c #FBC565",
"D+	c #EAD086",
"E+	c #A36C32",
"F+	c #E0C07A",
"G+	c #FBC362",
"H+	c #FDAB3C",
"I+	c #FEAB3D",
"J+	c #FFAB3E",
"K+	c #FFAA3D",
"L+	c #FBB44C",
"M+	c #FBAA3A",
"N+	c #FEAB3E",
"O+	c #AC773F",
"P+	c #A46C32",
"Q+	c #E0C07B",
"R+	c #F9C360",
"S+	c #FDA93B",
"T+	c #FEA93A",
"U+	c #FFA93A",
"V+	c #FEAA3A",
"W+	c #FEAA39",
"X+	c #FEA939",
"Y+	c #FEA93B",
"Z+	c #FBC15D",
"`+	c #FDA937",
" @	c #FEA937",
".@	c #FEA936",
"+@	c #FCAA38",
"@@	c #FDA938",
"#@	c #A46A32",
"$@	c #DFC17B",
"%@	c #FAC05B",
"&@	c #FDA736",
"*@	c #FEA735",
"=@	c #FEA835",
"-@	c #FCA832",
";@	c #FBC05C",
">@	c #FDC25C",
",@	c #FEA734",
"'@	c #FBAA37",
")@	c #FBD074",
"!@	c #FDAE3E",
"~@	c #DFC27B",
"{@	c #FBC058",
"]@	c #FDA532",
"^@	c #FDA632",
"/@	c #FEA732",
"(@	c #FDA732",
"_@	c #FBBF5A",
":@	c #F3E297",
"<@	c #FCC35F",
"[@	c #FDA633",
"}@	c #FDA734",
"|@	c #FACF75",
"1@	c #F5E59C",
"2@	c #FEA733",
"3@	c #FCA62D",
"4@	c #FEA531",
"5@	c #FEA630",
"6@	c #FEA530",
"7@	c #FDA62E",
"8@	c #FBBF58",
"9@	c #DFC27C",
"0@	c #BF9957",
"a@	c #FEC25E",
"b@	c #FDA62F",
"c@	c #FEA631",
"d@	c #FDA630",
"e@	c #FACF71",
"f@	c #C9A161",
"g@	c #DABC77",
"h@	c #FDAC3B",
"i@	c #FBBD56",
"j@	c #FEA32C",
"k@	c #FDA42D",
"l@	c #FEA52C",
"m@	c #FDA52D",
"n@	c #FBBE58",
"o@	c #E0C27C",
"p@	c #9D632B",
"q@	c #BD9154",
"r@	c #FEC15E",
"s@	c #FEA52D",
"t@	c #C8A160",
"u@	c #9A5C27",
"v@	c #D9BB77",
"w@	c #FDAB3A",
"x@	c #A46A35",
"y@	c #DFC47C",
"z@	c #FBBD57",
"A@	c #FCA32A",
"B@	c #FEA32B",
"C@	c #FCA42A",
"D@	c #E0C17B",
"E@	c #C09759",
"F@	c #BD9153",
"G@	c #FEC15A",
"H@	c #FDA32A",
"I@	c #FDA42C",
"J@	c #FACD70",
"K@	c #C7A162",
"L@	c #AB7B3F",
"M@	c #B48248",
"N@	c #DABB78",
"O@	c #FDAA37",
"P@	c #FBBB51",
"Q@	c #FDA226",
"R@	c #FEA228",
"S@	c #FFA328",
"T@	c #FBBC53",
"U@	c #E1C17C",
"V@	c #A26D33",
"W@	c #BD9253",
"X@	c #FEC059",
"Y@	c #FDA229",
"Z@	c #FDA32B",
"`@	c #F9CE70",
" #	c #C6A062",
".#	c #AB7A3E",
"+#	c #BB9154",
"@#	c #DABA78",
"##	c #FEAA36",
"$#	c #A56A32",
"%#	c #DFC37C",
"&#	c #FBBB52",
"*#	c #FDA125",
"=#	c #FEA126",
"-#	c #FEA026",
";#	c #FFA026",
">#	c #FDA027",
",#	c #FBBC51",
"'#	c #BC9153",
")#	c #FEBF58",
"!#	c #FEA125",
"~#	c #FEA024",
"{#	c #FACD6F",
"]#	c #C6A061",
"^#	c #AE7A3D",
"/#	c #BB9054",
"(#	c #D9BB79",
"_#	c #FDA831",
":#	c #A26A31",
"<#	c #E0C37D",
"[#	c #FAB84C",
"}#	c #FD9F20",
"|#	c #FE9F22",
"1#	c #FF9F22",
"2#	c #FE9F23",
"3#	c #FBBC50",
"4#	c #E0C17E",
"5#	c #FEBE57",
"6#	c #FDA024",
"7#	c #FDA025",
"8#	c #F9CD6F",
"9#	c #C59F61",
"0#	c #AB7A3C",
"a#	c #BD9052",
"b#	c #FDA830",
"c#	c #E0C47D",
"d#	c #FCBA4D",
"e#	c #FC9E1F",
"f#	c #FE9E21",
"g#	c #FF9E22",
"h#	c #FD9E1F",
"i#	c #FBBB4D",
"j#	c #FEBF53",
"k#	c #FE9F1F",
"l#	c #FCA024",
"m#	c #FACC6B",
"n#	c #C69F5F",
"o#	c #BD9053",
"p#	c #D9BB78",
"q#	c #FEA62C",
"r#	c #A16A31",
"s#	c #E0C57E",
"t#	c #FBB74B",
"u#	c #FC9D1B",
"v#	c #FE9D1D",
"w#	c #FF9E1D",
"x#	c #FE9E1E",
"y#	c #FABB4C",
"z#	c #E1C07C",
"A#	c #BC9154",
"B#	c #FDBE52",
"C#	c #FD9D1E",
"D#	c #FD9E20",
"E#	c #F9CD6B",
"F#	c #C69F60",
"G#	c #AC7A3F",
"H#	c #FEA62B",
"I#	c #A36A32",
"J#	c #E0C57C",
"K#	c #FAB748",
"L#	c #FE9B1B",
"M#	c #FE9C1C",
"N#	c #FF9C1C",
"O#	c #FD9C1A",
"P#	c #FABA4C",
"Q#	c #FDBD50",
"R#	c #F9CC6A",
"S#	c #FDA527",
"T#	c #A16A30",
"U#	c #E1C67D",
"V#	c #FAB645",
"W#	c #FD9B17",
"X#	c #FE9C19",
"Y#	c #FE9B18",
"Z#	c #FE9B19",
"`#	c #FBB848",
" $	c #E0BF7C",
".$	c #FDBD53",
"+$	c #F8CD6A",
"@$	c #C79F60",
"#$	c #AD7A3F",
"$$	c #FCA426",
"%$	c #FE9A18",
"&$	c #FDA631",
"*$	c #A36932",
"=$	c #E2C57D",
"-$	c #FAB644",
";$	c #FD9A14",
">$	c #FE9A17",
",$	c #FC9A15",
"'$	c #FAE290",
")$	c #C59E5E",
"!$	c #AF7A3E",
"~$	c #BD9054",
"{$	c #DABC7A",
"]$	c #FDA224",
"^$	c #A16930",
"/$	c #E2C67D",
"($	c #FAB342",
"_$	c #FE9812",
":$	c #FD9811",
"<$	c #FF9A14",
"[$	c #FE9914",
"}$	c #FBB747",
"|$	c #DFC07C",
"1$	c #BB9052",
"2$	c #C59D61",
"3$	c #AC7B3B",
"4$	c #FDA223",
"5$	c #E2C886",
"6$	c #FBE894",
"7$	c #FAD97C",
"8$	c #FCD97C",
"9$	c #FCD97D",
"0$	c #DEC07A",
"a$	c #A26B31",
"b$	c #9F602B",
"c$	c #BE9052",
"d$	c #D8BC79",
"e$	c #A66F36",
"f$	c #9F612A",
"g$	c #985B24",
"h$	c #995E26",
"i$	c #9A5E26",
"j$	c #9B5D27",
"k$	c #9D5D28",
"l$	c #9E672D",
"m$	c #BE9054",
"n$	c #975F26",
"o$	c #985D25",
"                                                                                                                                ",
"                                                                                                                                ",
"                                                                                                                                ",
"                                                                                                                                ",
"                                                                                                                                ",
"                                                                                                                                ",
"                                                                                                                                ",
"                                                                                                                                ",
"                                                                                                                                ",
"                                                                                                                                ",
"                                                                                                                                ",
"                                                                                                                                ",
"                                                                                  .                               +             ",
"                                                                                @ #                             $ %             ",
"                                                                              & * =                           - ; >             ",
"                                                                            , ' ) !                         ~ { ] ^             ",
"                                                                          / ( _ : <                       [ } | 1 ^             ",
"                                                                        2 3 4 5 6 &                     7 8 9 0 a %             ",
"                                                                      b c d e f g h                   i j k e e a l             ",
"                                                                    @ m n o p p q r                 s t u v w x y %             ",
"                                                                  b z A B C D C E r               F G H I J D D K L             ",
"                                                                M N O P Q R Q Q S T             U V W P Q R Q X Y %             ",
"                                                              & Z `  ...+.+.+.+.@.T           #.$.%.&.*.+.+.+.=.-.%             ",
"                                                            ;.>.,.'.).!.~.{.].^./.(.        _.:.<.[.}.|.}.1.2.3.4.5.            ",
"                                                          & 6.7.8.8.9.8.0.a.b.c.d.r       e.f.g.h.i.j.j.j.k.{.l.m.5.            ",
"                                                        n.o.p.q.r.s.t.u.u.v.v.t.w.x.    y.z.A.h.B.C.C.C.D.E.F.v.G.H.            ",
"                                                      & I.J.K.L.M.M.M.M.M.M.M.M.N.(.  O.P.Q.R.S.T.T.T.U.V.W.X.K.Y.H.            ",
"                                                    Z.`. +.+++++++++++++++++++++@+h #+$+%+&+*+=+-+;+>+,+'+)+!+++~+%             ",
"                                                  & {+]+^+/+(+(+(+(+(+(+(+(+(+(+@+Z._+:+<+[+}+|+/+1+2+8.3+4+(+5+~+%             ",
"                                                6+{+7+8+9+9+0+0+0+0+0+0+0+0+0+a+b+c+d+e+9+9+0+9+9+f+g+f+h+9+0+9+i+j+            ",
"                                              k+l+m+n+n+o+o+o+o+o+o+o+o+o+o+o+o+p+q+r+s+o+o+o+o+o+o+o+o+o+o+o+s+t+j+            ",
"                                            u+v+w+x+y+z+z+z+z+z+z+z+z+z+z+z+z+A+B+C+y+y+z+z+z+z+z+z+z+z+z+z+z+y+D+L             ",
"                                          E+F+G+H+I+J+J+J+J+J+J+J+J+J+J+J+J+J+K+L+M+J+J+J+J+J+J+J+J+J+J+J+J+J+N+D+O+            ",
"                                        P+Q+R+S+T+T+U+U+U+U+U+U+U+V+W+X+U+U+U+U+X+T+U+U+U+T+X+W+U+U+U+U+U+U+U+Y+Y.H.            ",
"                                      E+Q+Z+`+ @.@.@.@.@.@.@.@.@.@.@+@ @.@.@.@.@.@.@.@.@.@.@@@ @.@.@.@.@.@.@.@ @y %             ",
"                                    #@$@%@&@*@=@=@=@=@=@=@=@=@=@-@;@>@,@=@=@=@=@=@=@=@=@*@'@)@!@=@=@=@=@=@=@=@*@K L             ",
"                                  / ~@{@]@^@/@/@/@/@/@/@/@/@/@(@_@:@<@[@/@/@/@/@/@/@/@(@}@|@1@!@/@/@/@/@/@/@/@2@Y %             ",
"                                [ ~@_@3@4@5@5@5@5@5@5@5@5@6@7@8@9@0@a@b@5@5@5@5@5@c@d@2@e@f@g@h@5@5@5@5@5@5@5@d@-.%             ",
"                              [ ~@i@j@k@l@l@l@l@l@l@l@l@l@m@n@o@p@q@r@m@l@l@l@l@l@s@7@e@t@u@v@w@l@l@l@l@l@l@l@/@4.5.            ",
"                            x@y@z@A@B@B@B@B@B@B@B@B@B@B@C@i@D@& E@F@G@H@B@B@B@B@H@I@J@K@L@M@N@O@B@B@B@B@B@B@B@/@m.5.            ",
"                          [ y@P@Q@R@S@S@S@S@S@S@S@S@S@R@T@U@V@    W@X@Y@S@S@S@R@Z@`@ #.#  +#@###S@S@S@S@S@S@/@/@G.H.            ",
"                        $#%#&#*#=#-#;#;#;#;#;#;#;#-#>#,#Q+&       '#)#!#;#=#~#H@{#]#^#    /#(#_#;#;#;#;#;#;#/@/@Y.H.            ",
"                      :#<#[#}#|#1#1#1#1#1#1#1#1#1#2#3#4#&         F@5#6#1#|#7#8#9#0#      a#(#b#1#1#1#1#1#/@/@/@~+%             ",
"                    :#c#d#e#f#f#g#g#g#g#g#g#g#f#h#i#F+&           q@j#}#k#l#m#n#^#        o#p#q#g#g#g#g#g#/@/@/@~+%             ",
"                  r#s#t#u#v#w#w#w#w#w#w#w#w#w#x#y#z#V@            A#B#C#D#E#F#G#          o#p#H#w#w#w#w#W+/@/@/@i+j+            ",
"                I#J#K#L#M#M#N#N#N#N#N#N#N#L#O#P#F+&               '#Q#e#R#e.^#            o#p#S#N#N#N#N#5@/@/@/@t+j+            ",
"              T#U#V#W#X#Y#Y#Y#Y#Y#Y#Y#Y#Y#Z#`# $b                 '#.$+$@$#$              o#p#$$Y#%$Y#&$5@/@/@/@D+L             ",
"            *$=$-$;$%$%$%$%$%$%$%$%$%$>$,$`#F+/                   A#'$)$!$                ~${$]$%$%$%$/@/@/@/@/@D+O+            ",
"          ^$/$($_$:$<$<$<$<$<$<$<$<$<$[$}$|$/                     1$2$3$                  ~${$4$<$<$<$/@/@/@/@/@Y.H.            ",
"        _+5$6$7$8$8$8$8$8$8$8$8$8$8$8$9$0$a$                      b$!$                    c$d$8$8$8$8$8$8$8$8$8$9$e$            ",
"      f$g$h$i$j$k$k$k$k$k$k$k$k$k$k$k$k$l$                        #$                      m$n$k$k$k$k$k$k$k$k$k$k$o$            ",
"                                                                                                                                ",
"                                                                                                                                ",
"                                                                                                                                ",
"                                                                                                                                ",
"                                                                                                                                ",
"                                                                                                                                ",
"                                                                                                                                ",
"                                                                                                                                ",
"                                                                                                                                ",
"                                                                                                                                ",
"                                                                                                                                ",
"                                                                                                                                ",
"                                                                                                                                "};
