/* XPM */
static char * wmgui_xpm[] = {
"39 45 504 2",
"  	c None",
". 	c #010C2D",
"+ 	c #000B2B",
"@ 	c #000C2B",
"# 	c #000B2A",
"$ 	c #000C2A",
"% 	c #000B29",
"& 	c #000A29",
"* 	c #000C30",
"= 	c #000B2E",
"- 	c #000A2D",
"; 	c #000A2B",
"> 	c #000A2A",
", 	c #000B2D",
"' 	c #000D2F",
") 	c #000F35",
"! 	c #000D33",
"~ 	c #000C31",
"{ 	c #000B30",
"] 	c #000C2E",
"^ 	c #000C2D",
"/ 	c #000B2C",
"( 	c #000D32",
"_ 	c #010F35",
": 	c #00153C",
"< 	c #001139",
"[ 	c #001037",
"} 	c #000E35",
"| 	c #000E34",
"1 	c #000D31",
"2 	c #000C2C",
"3 	c #000C2F",
"4 	c #000D34",
"5 	c #001138",
"6 	c #001840",
"7 	c #00153E",
"8 	c #00133C",
"9 	c #00123A",
"0 	c #001038",
"a 	c #000F37",
"b 	c #030F31",
"c 	c #71737A",
"d 	c #B0B0B1",
"e 	c #B8B8B8",
"f 	c #BCBCBC",
"g 	c #BDBDBD",
"h 	c #BEBEBE",
"i 	c #BFBFBF",
"j 	c #A4A5A7",
"k 	c #2A3145",
"l 	c #000F36",
"m 	c #00143C",
"n 	c #001C45",
"o 	c #001943",
"p 	c #001741",
"q 	c #00163F",
"r 	c #00143D",
"s 	c #00123C",
"t 	c #646872",
"u 	c #E5E5E6",
"v 	c #E5DDDF",
"w 	c #DBD8D9",
"x 	c #F5F5F5",
"y 	c #F6F6F6",
"z 	c #F8F8F8",
"A 	c #F9F9F9",
"B 	c #FAFAFA",
"C 	c #DCDCDC",
"D 	c #081432",
"E 	c #00123B",
"F 	c #001841",
"G 	c #01214B",
"H 	c #001D48",
"I 	c #001B46",
"J 	c #001A44",
"K 	c #001842",
"L 	c #001742",
"M 	c #001640",
"N 	c #A1A1A1",
"O 	c #E8E8E8",
"P 	c #DBD4D5",
"Q 	c #DCD7D8",
"R 	c #F7F7F7",
"S 	c #F4F4F4",
"T 	c #293449",
"U 	c #001C46",
"V 	c #00214C",
"W 	c #00204B",
"X 	c #001F49",
"Y 	c #001E48",
"Z 	c #001D47",
"` 	c #001C47",
" .	c #9D9D9D",
"..	c #EFEFEF",
"+.	c #EBEBEB",
"@.	c #EDEDED",
"#.	c #D7D7D7",
"$.	c #D1D1D1",
"%.	c #2A374D",
"&.	c #001A46",
"*.	c #001B45",
"=.	c #001E49",
"-.	c #00244E",
";.	c #00234E",
">.	c #00224D",
",.	c #00214D",
"'.	c #00214E",
").	c #00204D",
"!.	c #F2F2F2",
"~.	c #F1F1F1",
"{.	c #B9B9B9",
"].	c #2A3A50",
"^.	c #00204C",
"/.	c #01254F",
"(.	c #00244F",
"_.	c #002550",
":.	c #002551",
"<.	c #002652",
"[.	c #002653",
"}.	c #002753",
"|.	c #002754",
"1.	c #002755",
"2.	c #002654",
"3.	c #D6D6D6",
"4.	c #C1C1C1",
"5.	c #E2E2E2",
"6.	c #D0D0D0",
"7.	c #2A3D54",
"8.	c #002552",
"9.	c #002450",
"0.	c #00224C",
"a.	c #002956",
"b.	c #002B58",
"c.	c #002C5A",
"d.	c #002D5B",
"e.	c #002D5C",
"f.	c #002D5E",
"g.	c #002C5C",
"h.	c #D9D9D9",
"i.	c #CBCBCB",
"j.	c #E1E1E1",
"k.	c #E4E4E4",
"l.	c #D4D4D4",
"m.	c #2A4058",
"n.	c #002C5B",
"o.	c #002B59",
"p.	c #002A58",
"q.	c #002854",
"r.	c #00204A",
"s.	c #002F5E",
"t.	c #003261",
"u.	c #003363",
"v.	c #003465",
"w.	c #003466",
"x.	c #003364",
"y.	c #F3F3F3",
"z.	c #CACACA",
"A.	c #2A435C",
"B.	c #003365",
"C.	c #003263",
"D.	c #003262",
"E.	c #00305F",
"F.	c #002E5C",
"G.	c #002855",
"H.	c #003463",
"I.	c #003868",
"J.	c #003A6C",
"K.	c #003C6E",
"L.	c #003C6F",
"M.	c #003B6D",
"N.	c #DFDFDF",
"O.	c #2A4760",
"P.	c #003A6D",
"Q.	c #00396A",
"R.	c #003666",
"S.	c #003362",
"T.	c #002957",
"U.	c #003160",
"V.	c #003767",
"W.	c #004173",
"X.	c #004376",
"Y.	c #004478",
"Z.	c #CDCDCD",
"`.	c #D3D3D3",
" +	c #2A4B65",
".+	c #004174",
"++	c #003F71",
"@+	c #003B6C",
"#+	c #004578",
"$+	c #004A7D",
"%+	c #004D81",
"&+	c #004D7F",
"*+	c #C9C9C9",
"=+	c #D2D2D2",
"-+	c #2A506A",
";+	c #004B7F",
">+	c #00487C",
",+	c #003E70",
"'+	c #003769",
")+	c #003161",
"!+	c #001944",
"~+	c #001C48",
"{+	c #00214F",
"]+	c #002D5D",
"^+	c #00396C",
"/+	c #004F82",
"(+	c #005588",
"_+	c #005888",
":+	c #2A556E",
"<+	c #005386",
"[+	c #00467A",
"}+	c #003F72",
"|+	c #00386A",
"1+	c #003162",
"2+	c #002B5B",
"3+	c #002554",
"4+	c #001B47",
"5+	c #011943",
"6+	c #001641",
"7+	c #001844",
"8+	c #001C49",
"9+	c #002150",
"0+	c #002757",
"a+	c #004175",
"b+	c #004A7E",
"c+	c #005C8D",
"d+	c #006290",
"e+	c #CFCFCF",
"f+	c #F0F0F0",
"g+	c #2A5A71",
"h+	c #005A8C",
"i+	c #005184",
"j+	c #004073",
"k+	c #00386B",
"l+	c #003163",
"m+	c #002B5C",
"n+	c #002655",
"o+	c #00204E",
"p+	c #001B48",
"q+	c #001843",
"r+	c #001541",
"s+	c #001845",
"t+	c #001C4A",
"u+	c #002151",
"v+	c #002758",
"w+	c #002D5F",
"x+	c #003366",
"y+	c #003A6E",
"z+	c #004276",
"A+	c #005688",
"B+	c #006291",
"C+	c #006B95",
"D+	c #2A5E74",
"E+	c #005F8F",
"F+	c #005486",
"G+	c #00497D",
"H+	c #004074",
"I+	c #00386C",
"J+	c #003164",
"K+	c #002B5D",
"L+	c #002556",
"M+	c #00204F",
"N+	c #001B49",
"O+	c #001744",
"P+	c #011843",
"Q+	c #001642",
"R+	c #001C4B",
"S+	c #002152",
"T+	c #002659",
"U+	c #002C60",
"V+	c #003267",
"W+	c #003A6F",
"X+	c #004377",
"Y+	c #004D80",
"Z+	c #005989",
"`+	c #006693",
" @	c #007198",
".@	c #2A6075",
"+@	c #006390",
"@@	c #005687",
"#@	c #004B7E",
"$@	c #004075",
"%@	c #00386D",
"&@	c #003165",
"*@	c #002B5E",
"=@	c #002557",
"-@	c #002050",
";@	c #011B45",
">@	c #001643",
",@	c #001846",
"'@	c #001B4C",
")@	c #002053",
"!@	c #002559",
"~@	c #002B60",
"{@	c #003268",
"]@	c #003A70",
"^@	c #004F81",
"/@	c #005C8A",
"(@	c #006994",
"_@	c #007499",
":@	c #D8D8D8",
"<@	c #1D5468",
"[@	c #006691",
"}@	c #005887",
"|@	c #004C7E",
"1@	c #003065",
"2@	c #002A5E",
"3@	c #002457",
"4@	c #001F51",
"5@	c #001A4A",
"6@	c #001745",
"7@	c #001847",
"8@	c #001B4D",
"9@	c #001F53",
"0@	c #002459",
"a@	c #002B61",
"b@	c #003B70",
"c@	c #005181",
"d@	c #005D8A",
"e@	c #006B94",
"f@	c #00769A",
"g@	c #DADADA",
"h@	c #C2C2C2",
"i@	c #BBC2C7",
"j@	c #AABAC6",
"k@	c #ACACAC",
"l@	c #C5C5C5",
"m@	c #C3C3C3",
"n@	c #195164",
"o@	c #006792",
"p@	c #005A88",
"q@	c #004E7F",
"r@	c #00386E",
"s@	c #003066",
"t@	c #00295E",
"u@	c #002357",
"v@	c #001E51",
"w@	c #001A4B",
"x@	c #00245A",
"y@	c #004679",
"z@	c #005281",
"A@	c #005E8B",
"B@	c #00779A",
"C@	c #E5E5E5",
"D@	c #C7C7C7",
"E@	c #D5D5D5",
"F@	c #CBCED0",
"G@	c #B4BDC4",
"H@	c #DDDDDD",
"I@	c #00396E",
"J@	c #00285F",
"K@	c #002258",
"L@	c #001D51",
"M@	c #001743",
"N@	c #001945",
"O@	c #003269",
"P@	c #005282",
"Q@	c #00779B",
"R@	c #ECECEC",
"S@	c #011B46",
"T@	c #00255A",
"U@	c #003368",
"V@	c #005D8B",
"W@	c #006A94",
"X@	c #EEEEEE",
"Y@	c #E4E5E8",
"Z@	c #E1E3E6",
"`@	c #EAEBEC",
" #	c #195064",
".#	c #005988",
"+#	c #004D7E",
"@#	c #001C4C",
"##	c #002153",
"$#	c #005B8A",
"%#	c #006894",
"&#	c #007399",
"*#	c #E9E9EB",
"=#	c #D6D7DB",
"-#	c #C9CACE",
";#	c #E6E7EA",
">#	c #194F64",
",#	c #006591",
"'#	c #001F50",
")#	c #002759",
"!#	c #002D60",
"~#	c #003367",
"{#	c #003B6F",
"]#	c #005889",
"^#	c #006592",
"/#	c #006D96",
"(#	c #E9E9EA",
"_#	c #DBDCDF",
":#	c #D0D1D4",
"<#	c #E5E6E9",
"[#	c #194D63",
"}#	c #00618F",
"|#	c #005586",
"1#	c #001A49",
"2#	c #001D4B",
"3#	c #002251",
"4#	c #002858",
"5#	c #002E5F",
"6#	c #003467",
"7#	c #004277",
"8#	c #005587",
"9#	c #9B9B9B",
"0#	c #DBDCE0",
"a#	c #D1D2D6",
"b#	c #194A61",
"c#	c #005D8D",
"d#	c #005285",
"e#	c #001D4A",
"f#	c #002250",
"g#	c #002857",
"h#	c #002E5E",
"i#	c #004275",
"j#	c #005084",
"k#	c #005789",
"l#	c #005A89",
"m#	c #999999",
"n#	c #E8E9EB",
"o#	c #19455E",
"p#	c #004E82",
"q#	c #00477B",
"r#	c #003F73",
"s#	c #002555",
"t#	c #001A45",
"u#	c #001D49",
"v#	c #00224F",
"w#	c #002856",
"x#	c #002E5D",
"y#	c #003464",
"z#	c #004E80",
"A#	c #19405A",
"B#	c #003E71",
"C#	c #00376A",
"D#	c #00224E",
"E#	c #003869",
"F#	c #003E6F",
"G#	c #004579",
"H#	c #004477",
"I#	c #193B55",
"J#	c #003768",
"K#	c #003565",
"L#	c #003969",
"M#	c #003C70",
"N#	c #003B6E",
"O#	c #E9E9E9",
"P#	c #193751",
"Q#	c #003D71",
"R#	c #003D70",
"S#	c #002A57",
"T#	c #003567",
"U#	c #EAEAEA",
"V#	c #19334C",
"W#	c #003668",
"X#	c #003566",
"Y#	c #00234F",
"Z#	c #002C5D",
"`#	c #E3E3E3",
" $	c #192F48",
".$	c #002F60",
"+$	c #00214B",
"@$	c #002756",
"#$	c #E7E7E7",
"$$	c #B7B7B7",
"%$	c #192C44",
"&$	c #002451",
"*$	c #192940",
"=$	c #01244F",
"-$	c #989898",
";$	c #E4EAED",
">$	c #EAECEC",
",$	c #19263D",
"'$	c #001F4A",
")$	c #011F49",
"!$	c #898989",
"~$	c #E6E6E6",
"{$	c #B6B6B6",
"]$	c #131F36",
"^$	c #001B44",
"/$	c #353A45",
"($	c #E0E0E0",
"_$	c #717171",
":$	c #011032",
"<$	c #001740",
"[$	c #00173F",
"}$	c #00133B",
"|$	c #000F33",
"1$	c #242A38",
"2$	c #56575B",
"3$	c #5E6062",
"4$	c #5F6063",
"5$	c #5D5E61",
"6$	c #43454C",
"7$	c #09132D",
"8$	c #00143B",
"9$	c #000E33",
"0$	c #000E36",
"a$	c #000B2F",
"b$	c #000C32",
"c$	c #011137",
"d$	c #000A2C",
"e$	c #010B2D",
"                                                                              ",
"                              . + @ @ # $ $ % &                               ",
"                          * = - ; > > & & & & > ; , '                         ",
"                      ) ! ~ { ] ^ ^ , , / / , , , = * ( _                     ",
"                  : < [ } | ! ( 1 ^ ^ ^ ^ 2 2 3 1 1 ( 4 ) 5                   ",
"                6 7 8 9 < 0 a b c d e f g h i j k ) l a 0 9 m                 ",
"              n o p q 7 r 8 s t u v w x y z A B C D E E 8 r q F               ",
"            G H I J o K L p M N O P Q x y R A B S T M M p p K J U             ",
"            V W X Y Z ` ` ` I  ...+.@.#.$.R A B S %.&.*.*.I U Z =.W           ",
"          -.;.;.>.>.,.,.,.'.). ...!.~.$.{.S z B S ].).^.W W W W V >./.        ",
"        -.(._.:.<.<.[.}.|.1.2. ...3.4.5.@.i 6.B S 7.2.[.8.:._.9.(.(.-.        ",
"        0.;.:.|.a.b.c.d.e.f.g. ...h.i.j.k.l.l.B S m.g.n.o.p.a.q.<.9.;.>.      ",
"      X r.>.:.a.c.s.t.u.v.w.x. ...!.y.z.g !.A B S A.B.C.D.E.F.o.G.9.>.W       ",
"      Z =.,.8.p.s.H.I.J.K.L.M. ...!.y.5.N.R A B S O.P.J.Q.R.S.F.T.:.V =.Y     ",
"      *.H ,.[.o.U.V.K.W.X.Y.X. ...!.!.Z.`.y A B S  +X..+++@+R.E.p.8.^.H I     ",
"    K J H '.2.n.S.Q.++#+$+%+&+ ...!.z.*+`.=+A B S -+;+>+X.,+'+)+o.8.^.` J     ",
"    p !+~+{+1.]+x.^+.+>+/+(+_+ ...!.i.6.6.6.A B S :+<+%+[+}+|+1+2+3+).4+o 5+  ",
"    6+7+8+9+0+f.B.P.a+b+<+c+d+ ...!.+.$.e+f+A B S g+h+i+>+j+k+l+m+n+o+p+q+6+  ",
"    r+s+t+u+v+w+x+y+z+;+A+B+C+ ...!.y.x y R A B S D+E+F+G+H+I+J+K+L+M+N+O+6+  ",
"  P+Q+s+R+S+T+U+V+W+X+Y+Z+`+ @ ...!.y.x y R A B S .@+@@@#@$@%@&@*@=@-@N+O+Q+  ",
"  ;@>@,@'@)@!@~@{@]@Y.^@/@(@_@ ...+.!.!.f+R ~.z :@<@[@}@|@a+%@1@2@3@4@5@6@7+  ",
"  !+>@7@8@9@0@a@{@b@#+c@d@e@f@ .g@h@z.i@j@3.k@l@m@n@o@p@q@z+r@s@t@u@v@w@6@O+` ",
"  q+>@7@8@9@x@a@{@b@y@z@A@e@B@ .C@D@E@F@G@H@{.=+m@n@o@p@q@X.I@s@J@K@L@w@6@M@N@",
"  J >@7@8@9@x@a@O@b@y@P@A@C+Q@ ...!.y.f+R@R@R@R@m@n@o@p@q@X.I@s@J@K@L@w@6@O+` ",
"  S@>@,@8@)@T@a@U@b@#+c@V@W@f@ ...!.X@Y@Z@`@R@R@m@ #[@.#+#z+%@s@t@u@v@5@6@7+  ",
"  o >@,@@###T+U+U@b@Y.^@$#%#&# ...X@*#=#-#;#R@R@m@>#,#}@|@a+%@1@2@3@'#5@6@M@  ",
"    Q+,@@#S+)#!#~#{#X+Y+]#^#/# .@.R@(#_#:#<#R@R@m@[#}#|#$+$@%@&@*@=@'#1#6@Q+  ",
"    6+s+2#3#4#5#6#{#7#;+8#E+,#9#+.R@*#0#a#;#R@R@m@b#c#d#>+H+I+J+K+L+M+N+O+Q+  ",
"    L N@e#f#g#h#w.y+i#G+j#k#l#m#+.R@R@*#n#+.R@R@m@o#A+p#q#r#k+l+m+s#o+p+7+P+  ",
"    K t#u#v#w#x#y#J.j+[+b+p#z#m#+.R@R@e+*+O R@R@m@A#p#b+#+B#C#1+2+3+).~+!+    ",
"      I =.D#1.d.u.E#F#.+X+G#H#m#+.R@j.6.C@*+R@R@m@I#[+H#.+K.J#)+o.8.^.` t#    ",
"      Z =.D#|.c.U.K#L#@+K.M#N#m#+.R@O#h l@E@R@R@m@P#Q#R#M.Q.y#s.p.:.^.H Z     ",
"      X W D#<.S#e.E.S.y#w.T#B.m#+.R@R@e+h@U#R@R@m@V#W#T#X#u.U.d.a.9.V =.      ",
"        V Y#:.|.a.b.c.e.]+h#Z#m#+.R@`#$.3.i.R@R@m@ $.$5#x#e.c.S#}.9.>.+$      ",
"        -.Y#9.9.:.<.[.|.1.@$n+m#+.R@#$$$=+=+R@R@m@%$4#g#G.|.}.<.&$Y#;.        ",
"          ;.>.,.V V V ,.'.{+o+m#+.R@R@5.#.R@R@R@m@*$f#v#D#D#>.>.D#;.=$        ",
"            W =.H Z ` ` ` ~+4+-$+.;$>$#$U#+.O R@m@,$8+H H H H =.'$V           ",
"            )$U J o K F p p 6+!$~$R@R@R@R@R@R@+.{$]$K K K o J *.H             ",
"              ^$F q 7 r m 8 8 /${$C j.j.j.j.($Z._$:$r r 7 q <$o               ",
"                [$m }$< 5 [ [ |$1$2$3$4$4$4$5$6$7$0 0 < 9 m 7                 ",
"                  8$5 l } | ! ! ! ! 9$9$9$9$9$9$9$9$| 0$[ 9                   ",
"                      ) ! ~ { a$] ] ] ] ] ] ] ] a$* b$4 c$                    ",
"                          * = d$; ; > > > > ; ; - = 1                         ",
"                              e$; @ @ # $ @ # ;                               ",
"                                                                              "};
